<svg width="22" height="22" viewBox="0 0 22 22" fill="none" xmlns="http://www.w3.org/2000/svg">
<g clip-path="url(#clip0_939_3234)">
<path fill-rule="evenodd" clip-rule="evenodd" d="M19.7505 4.68527C20.0083 4.94312 20.1531 5.29279 20.1531 5.65739C20.1531 6.02199 20.0083 6.37167 19.7505 6.62952L9.44443 16.9356C9.30823 17.0718 9.14653 17.1799 8.96857 17.2536C8.7906 17.3273 8.59986 17.3653 8.40722 17.3653C8.21459 17.3653 8.02384 17.3273 7.84588 17.2536C7.66791 17.1799 7.50621 17.0718 7.37001 16.9356L2.24951 11.816C2.11819 11.6892 2.01344 11.5375 1.94137 11.3697C1.86931 11.2019 1.83138 11.0215 1.82979 10.8389C1.82821 10.6564 1.863 10.4753 1.93213 10.3063C2.00127 10.1373 2.10337 9.98383 2.23247 9.85472C2.36157 9.72562 2.51509 9.62352 2.68408 9.55439C2.85306 9.48525 3.03412 9.45046 3.21669 9.45205C3.39926 9.45363 3.57969 9.49156 3.74744 9.56363C3.9152 9.63569 4.06692 9.74044 4.19376 9.87177L8.40676 14.0848L17.8053 4.68527C17.933 4.55749 18.0847 4.45613 18.2515 4.38698C18.4184 4.31782 18.5973 4.28223 18.7779 4.28223C18.9586 4.28223 19.1374 4.31782 19.3043 4.38698C19.4712 4.45613 19.6228 4.55749 19.7505 4.68527Z" fill="#B3F4B2"/>
</g>
<defs>
<clipPath id="clip0_939_3234">
<rect width="22" height="22" fill="white"/>
</clipPath>
</defs>
</svg>
