<svg width="19" height="20" viewBox="0 0 19 20" fill="none" xmlns="http://www.w3.org/2000/svg">
<path d="M6.96868 1.45109C7.75585 1.04384 8.62212 0.832407 9.50005 0.833254C12.7612 0.833254 15.4063 3.70792 15.4063 7.2545V7.90075C15.4053 8.67218 15.6154 9.42774 16.0118 10.0778L16.9813 11.6582C17.8659 13.1019 17.1904 15.0645 15.6513 15.521C11.6297 16.7154 7.3704 16.7154 3.3488 15.521C1.80968 15.0645 1.13418 13.1019 2.0188 11.6591L2.9883 10.0778C3.38472 9.42774 3.59486 8.67218 3.5938 7.90075V7.2545C3.5938 6.27 3.79768 5.33684 4.16255 4.50267M5.56255 16.4166C6.13568 18.0189 7.6818 19.1666 9.50005 19.1666C9.71443 19.1666 9.92443 19.151 10.1301 19.1208M13.4376 16.4166C13.2006 17.071 12.8085 17.6514 12.2983 18.1033" stroke="#444444" stroke-opacity="0.95" stroke-width="1.5" stroke-linecap="round"/>
<circle cx="3.5" cy="1.5" r="1.5" fill="#E06969"/>
</svg>
