<svg width="329" height="75" viewBox="0 0 329 75" fill="none" xmlns="http://www.w3.org/2000/svg">
<g filter="url(#filter0_d_1114_4840)">
<rect x="9" y="15" width="35.8163" height="35.4098" fill="#FEF4A0"/>
<rect x="9" y="47.1428" width="35.8163" height="12.8571" fill="white"/>
<path d="M12.5621 53L13.11 49.6605H13.5666L13.0187 53H12.5621ZM11.0571 52.139L11.1337 51.6825H13.7036L13.6269 52.139H11.0571ZM11.3881 53L11.936 49.6605H12.3926L11.8447 53H11.3881ZM11.2511 50.978L11.3261 50.5215H13.896L13.821 50.978H11.2511ZM14.2845 53V49.6605H16.4239V50.1676H14.8894V51.0742H16.2771V51.5814H14.8894V53H14.2845ZM16.975 53V49.6605H19.147V50.1676H17.58V51.0742H19.0345V51.5814H17.58V52.4929H19.16V53H16.975ZM19.7642 53V49.6605H21.9036V50.1676H20.3692V51.0742H21.7568V51.5814H20.3692V53H19.7642ZM22.3618 52.3804V51.8993L23.7788 49.6605H24.1799V50.3453H23.9353L22.9814 51.8569V51.883H24.9594V52.3804H22.3618ZM23.9549 53V52.2336L23.9614 52.0184V49.6605H24.5321V53H23.9549ZM25.9418 53H25.2961L26.4718 49.6605H27.2186L28.3959 53H27.7502L26.8582 50.3453H26.8321L25.9418 53ZM25.963 51.6906H27.7241V52.1765H25.963V51.6906ZM30.0375 53.0636C29.769 53.0636 29.5386 52.9957 29.3461 52.8598C29.1548 52.7228 29.0075 52.5255 28.9042 52.2678C28.8021 52.0091 28.751 51.6977 28.751 51.3335C28.7521 50.9693 28.8037 50.6595 28.9059 50.404C29.0092 50.1475 29.1565 49.9518 29.3478 49.817C29.5402 49.6822 29.7701 49.6148 30.0375 49.6148C30.305 49.6148 30.5349 49.6822 30.7273 49.817C30.9197 49.9518 31.067 50.1475 31.1692 50.404C31.2725 50.6606 31.3241 50.9704 31.3241 51.3335C31.3241 51.6988 31.2725 52.0108 31.1692 52.2695C31.067 52.5271 30.9197 52.7239 30.7273 52.8598C30.536 52.9957 30.306 53.0636 30.0375 53.0636ZM30.0375 52.5532C30.2463 52.5532 30.4109 52.4505 30.5316 52.245C30.6534 52.0385 30.7142 51.7346 30.7142 51.3335C30.7142 51.0683 30.6865 50.8454 30.6311 50.6649C30.5756 50.4845 30.4974 50.3486 30.3963 50.2573C30.2952 50.1649 30.1756 50.1187 30.0375 50.1187C29.8299 50.1187 29.6657 50.222 29.5451 50.4285C29.4244 50.634 29.3635 50.9356 29.3625 51.3335C29.3614 51.5998 29.388 51.8238 29.4424 52.0053C29.4978 52.1869 29.5761 52.3238 29.6772 52.4162C29.7783 52.5076 29.8984 52.5532 30.0375 52.5532Z" fill="#FEF4A0"/>
<path d="M11.6336 55.1136H14.4452V55.5756H11.6336V55.1136ZM11.176 55.8924H14.8676V56.3544H11.176V55.8924ZM11.6336 54.3612H12.2144V55.3776H11.6336V54.3612ZM11.594 56.5832H14.432V57.6524H12.1836V58.0264H11.5984V57.2476H13.8468V57.0232H11.594V56.5832ZM11.5984 57.9032H14.5508V58.3476H11.5984V57.9032ZM12.7336 55.3908H13.3144V56.1652H12.7336V55.3908ZM17.8461 54.3216H18.4313V56.7372H17.8461V54.3216ZM18.2641 55.2764H18.9725V55.7604H18.2641V55.2764ZM15.7781 56.9132H18.4313V58.3476H15.7781V56.9132ZM17.8593 57.3708H16.3545V57.8856H17.8593V57.3708ZM15.3689 56.1212H15.7121C16.5129 56.1212 17.0057 56.108 17.5689 56.0024L17.6217 56.4644C17.0497 56.5744 16.5349 56.5964 15.7121 56.5964H15.3689V56.1212ZM15.3645 54.5196H17.2257V55.7604H15.9497V56.3808H15.3689V55.3248H16.6493V54.986H15.3645V54.5196ZM19.5266 56.6953C19.5266 56.3047 19.5781 55.9458 19.6813 55.6187C19.7854 55.2906 19.9401 54.9875 20.1453 54.7094H20.6781C20.599 54.8125 20.525 54.9391 20.4563 55.0891C20.3875 55.238 20.3276 55.4016 20.2766 55.5797C20.2266 55.7568 20.187 55.9406 20.1578 56.1312C20.1297 56.3219 20.1156 56.5099 20.1156 56.6953C20.1156 56.9422 20.1401 57.1922 20.1891 57.4453C20.2391 57.6984 20.3063 57.9328 20.3906 58.1484C20.476 58.3651 20.5719 58.5422 20.6781 58.6797H20.1453C19.9401 58.4016 19.7854 58.099 19.6813 57.7719C19.5781 57.4437 19.5266 57.0849 19.5266 56.6953ZM23.0145 56.2344L22.4988 56.2906C22.4842 56.2385 22.4587 56.1896 22.4223 56.1437C22.3868 56.0979 22.3389 56.0609 22.2785 56.0328C22.2181 56.0047 22.1441 55.9906 22.0566 55.9906C21.9389 55.9906 21.84 56.0161 21.7598 56.0672C21.6806 56.1182 21.6415 56.1844 21.6426 56.2656C21.6415 56.3354 21.6671 56.3922 21.7191 56.4359C21.7723 56.4797 21.8598 56.5156 21.9816 56.5437L22.391 56.6312C22.6181 56.6802 22.7868 56.7578 22.8973 56.8641C23.0087 56.9703 23.065 57.1094 23.066 57.2812C23.065 57.4323 23.0207 57.5656 22.9332 57.6812C22.8467 57.7958 22.7264 57.8854 22.5723 57.95C22.4181 58.0146 22.241 58.0469 22.041 58.0469C21.7473 58.0469 21.5108 57.9854 21.3316 57.8625C21.1525 57.7385 21.0457 57.5661 21.0113 57.3453L21.5629 57.2922C21.5879 57.4005 21.641 57.4823 21.7223 57.5375C21.8035 57.5927 21.9092 57.6203 22.0395 57.6203C22.1738 57.6203 22.2816 57.5927 22.3629 57.5375C22.4452 57.4823 22.4863 57.4141 22.4863 57.3328C22.4863 57.2641 22.4598 57.2073 22.4066 57.1625C22.3546 57.1177 22.2733 57.0833 22.1629 57.0594L21.7535 56.9734C21.5233 56.9255 21.353 56.8448 21.2426 56.7312C21.1322 56.6167 21.0775 56.4719 21.0785 56.2969C21.0775 56.149 21.1176 56.0208 21.1988 55.9125C21.2811 55.8031 21.3952 55.7187 21.541 55.6594C21.6879 55.599 21.8572 55.5687 22.0488 55.5687C22.3301 55.5687 22.5514 55.6286 22.7129 55.7484C22.8754 55.8682 22.9759 56.0302 23.0145 56.2344ZM25.0621 56.9906V55.6H25.6277V58H25.0793V57.5734H25.0543C25.0001 57.7078 24.9111 57.8177 24.7871 57.9031C24.6642 57.9885 24.5126 58.0313 24.3324 58.0313C24.1751 58.0313 24.0361 57.9964 23.9152 57.9266C23.7954 57.8557 23.7017 57.7531 23.634 57.6187C23.5663 57.4833 23.5324 57.3198 23.5324 57.1281V55.6H24.098V57.0406C24.098 57.1927 24.1397 57.3135 24.223 57.4031C24.3064 57.4927 24.4158 57.5375 24.5512 57.5375C24.6345 57.5375 24.7152 57.5172 24.7934 57.4766C24.8715 57.4359 24.9355 57.3755 24.9855 57.2953C25.0366 57.2141 25.0621 57.1125 25.0621 56.9906ZM26.2094 58V55.6H26.7578V56H26.7828C26.8266 55.8615 26.9016 55.7547 27.0078 55.6797C27.1151 55.6036 27.2375 55.5656 27.375 55.5656C27.4063 55.5656 27.4411 55.5672 27.4797 55.5703C27.5193 55.5724 27.5521 55.576 27.5781 55.5812V56.1016C27.5542 56.0932 27.5161 56.0859 27.4641 56.0797C27.413 56.0724 27.3635 56.0687 27.3156 56.0687C27.2125 56.0687 27.1198 56.0911 27.0375 56.1359C26.9563 56.1797 26.8922 56.2406 26.8453 56.3187C26.7984 56.3969 26.775 56.487 26.775 56.5891V58H26.2094ZM27.9539 58.9V55.6H28.5102V55.9969H28.543C28.5721 55.9385 28.6133 55.8766 28.6664 55.8109C28.7195 55.7443 28.7914 55.6875 28.882 55.6406C28.9727 55.5927 29.0883 55.5687 29.2289 55.5687C29.4143 55.5687 29.5815 55.6161 29.7305 55.7109C29.8805 55.8047 29.9992 55.9437 30.0867 56.1281C30.1753 56.3115 30.2195 56.5365 30.2195 56.8031C30.2195 57.0667 30.1763 57.2906 30.0898 57.475C30.0034 57.6594 29.8857 57.8 29.7367 57.8969C29.5878 57.9938 29.419 58.0422 29.2305 58.0422C29.093 58.0422 28.9789 58.0193 28.8883 57.9734C28.7977 57.9276 28.7247 57.8724 28.6695 57.8078C28.6154 57.7422 28.5732 57.6802 28.543 57.6219H28.5195V58.9H27.9539ZM28.5086 56.8C28.5086 56.9552 28.5305 57.0911 28.5742 57.2078C28.619 57.3245 28.6831 57.4156 28.7664 57.4812C28.8508 57.5458 28.9529 57.5781 29.0727 57.5781C29.1977 57.5781 29.3023 57.5448 29.3867 57.4781C29.4711 57.4104 29.5346 57.3182 29.5773 57.2016C29.6211 57.0839 29.643 56.95 29.643 56.8C29.643 56.651 29.6216 56.5187 29.5789 56.4031C29.5362 56.2875 29.4727 56.1969 29.3883 56.1312C29.3039 56.0656 29.1987 56.0328 29.0727 56.0328C28.9518 56.0328 28.8492 56.0646 28.7648 56.1281C28.6805 56.1917 28.6164 56.2807 28.5727 56.3953C28.5299 56.5099 28.5086 56.6448 28.5086 56.8ZM30.7039 58V55.6H31.2523V56H31.2773C31.3211 55.8615 31.3961 55.7547 31.5023 55.6797C31.6096 55.6036 31.732 55.5656 31.8695 55.5656C31.9008 55.5656 31.9357 55.5672 31.9742 55.5703C32.0138 55.5724 32.0466 55.576 32.0727 55.5812V56.1016C32.0487 56.0932 32.0107 56.0859 31.9586 56.0797C31.9076 56.0724 31.8581 56.0687 31.8102 56.0687C31.707 56.0687 31.6143 56.0911 31.532 56.1359C31.4508 56.1797 31.3867 56.2406 31.3398 56.3187C31.293 56.3969 31.2695 56.487 31.2695 56.5891V58H30.7039ZM32.4484 58V55.6H33.0141V58H32.4484ZM32.7328 55.2594C32.6432 55.2594 32.5661 55.2297 32.5016 55.1703C32.437 55.1099 32.4047 55.0375 32.4047 54.9531C32.4047 54.8677 32.437 54.7953 32.5016 54.7359C32.5661 54.6755 32.6432 54.6453 32.7328 54.6453C32.8234 54.6453 32.9005 54.6755 32.9641 54.7359C33.0286 54.7953 33.0609 54.8677 33.0609 54.9531C33.0609 55.0375 33.0286 55.1099 32.9641 55.1703C32.9005 55.2297 32.8234 55.2594 32.7328 55.2594ZM35.4926 56.2344L34.977 56.2906C34.9624 56.2385 34.9368 56.1896 34.9004 56.1437C34.865 56.0979 34.8171 56.0609 34.7566 56.0328C34.6962 56.0047 34.6223 55.9906 34.5348 55.9906C34.4171 55.9906 34.3181 56.0161 34.2379 56.0672C34.1587 56.1182 34.1197 56.1844 34.1207 56.2656C34.1197 56.3354 34.1452 56.3922 34.1973 56.4359C34.2504 56.4797 34.3379 56.5156 34.4598 56.5437L34.8691 56.6312C35.0962 56.6802 35.265 56.7578 35.3754 56.8641C35.4868 56.9703 35.5431 57.1094 35.5441 57.2812C35.5431 57.4323 35.4988 57.5656 35.4113 57.6812C35.3249 57.7958 35.2046 57.8854 35.0504 57.95C34.8962 58.0146 34.7191 58.0469 34.5191 58.0469C34.2254 58.0469 33.9889 57.9854 33.8098 57.8625C33.6306 57.7385 33.5238 57.5661 33.4895 57.3453L34.041 57.2922C34.066 57.4005 34.1191 57.4823 34.2004 57.5375C34.2816 57.5927 34.3874 57.6203 34.5176 57.6203C34.652 57.6203 34.7598 57.5927 34.841 57.5375C34.9233 57.4823 34.9645 57.4141 34.9645 57.3328C34.9645 57.2641 34.9379 57.2073 34.8848 57.1625C34.8327 57.1177 34.7514 57.0833 34.641 57.0594L34.2316 56.9734C34.0014 56.9255 33.8311 56.8448 33.7207 56.7312C33.6103 56.6167 33.5556 56.4719 33.5566 56.2969C33.5556 56.149 33.5957 56.0208 33.677 55.9125C33.7592 55.8031 33.8733 55.7187 34.0191 55.6594C34.166 55.599 34.3353 55.5687 34.527 55.5687C34.8082 55.5687 35.0296 55.6286 35.191 55.7484C35.3535 55.8682 35.454 56.0302 35.4926 56.2344ZM37.073 58.0469C36.8324 58.0469 36.6246 57.9969 36.4496 57.8969C36.2757 57.7958 36.1418 57.6531 36.048 57.4687C35.9543 57.2833 35.9074 57.0651 35.9074 56.8141C35.9074 56.5672 35.9543 56.3505 36.048 56.1641C36.1428 55.9766 36.2751 55.8307 36.4449 55.7266C36.6147 55.6214 36.8142 55.5687 37.0434 55.5687C37.1913 55.5687 37.3309 55.5927 37.4621 55.6406C37.5944 55.6875 37.7111 55.7604 37.8121 55.8594C37.9142 55.9583 37.9944 56.0844 38.0527 56.2375C38.1111 56.3896 38.1402 56.5708 38.1402 56.7812V56.9547H36.173V56.5734H37.598C37.597 56.4651 37.5736 56.3687 37.5277 56.2844C37.4819 56.199 37.4178 56.1318 37.3355 56.0828C37.2543 56.0339 37.1595 56.0094 37.0512 56.0094C36.9355 56.0094 36.834 56.0375 36.7465 56.0937C36.659 56.149 36.5908 56.2219 36.5418 56.3125C36.4939 56.4021 36.4694 56.5005 36.4684 56.6078V56.9406C36.4684 57.0802 36.4939 57.2 36.5449 57.3C36.596 57.399 36.6673 57.475 36.759 57.5281C36.8507 57.5802 36.9579 57.6062 37.0809 57.6062C37.1632 57.6062 37.2376 57.5948 37.3043 57.5719C37.371 57.5479 37.4288 57.513 37.4777 57.4672C37.5267 57.4214 37.5637 57.3646 37.5887 57.2969L38.1168 57.3562C38.0835 57.4958 38.0199 57.6177 37.9262 57.7219C37.8335 57.825 37.7147 57.9052 37.5699 57.9625C37.4251 58.0188 37.2595 58.0469 37.073 58.0469ZM39.5094 58.0422C39.3208 58.0422 39.1521 57.9938 39.0031 57.8969C38.8542 57.8 38.7365 57.6594 38.65 57.475C38.5635 57.2906 38.5203 57.0667 38.5203 56.8031C38.5203 56.5365 38.5641 56.3115 38.6516 56.1281C38.7401 55.9437 38.8594 55.8047 39.0094 55.7109C39.1594 55.6161 39.3266 55.5687 39.5109 55.5687C39.6516 55.5687 39.7672 55.5927 39.8578 55.6406C39.9484 55.6875 40.0203 55.7443 40.0734 55.8109C40.1266 55.8766 40.1677 55.9385 40.1969 55.9969H40.2203V54.8H40.7875V58H40.2313V57.6219H40.1969C40.1677 57.6802 40.1255 57.7422 40.0703 57.8078C40.0151 57.8724 39.9422 57.9276 39.8516 57.9734C39.7609 58.0193 39.6469 58.0422 39.5094 58.0422ZM39.6672 57.5781C39.787 57.5781 39.8891 57.5458 39.9734 57.4812C40.0578 57.4156 40.1219 57.3245 40.1656 57.2078C40.2094 57.0911 40.2313 56.9552 40.2313 56.8C40.2313 56.6448 40.2094 56.5099 40.1656 56.3953C40.1229 56.2807 40.0594 56.1917 39.975 56.1281C39.8917 56.0646 39.7891 56.0328 39.6672 56.0328C39.5411 56.0328 39.4359 56.0656 39.3516 56.1312C39.2672 56.1969 39.2036 56.2875 39.1609 56.4031C39.1182 56.5187 39.0969 56.651 39.0969 56.8C39.0969 56.95 39.1182 57.0839 39.1609 57.2016C39.2047 57.3182 39.2688 57.4104 39.3531 57.4781C39.4385 57.5448 39.5432 57.5781 39.6672 57.5781ZM42.3996 56.6953C42.3996 57.0849 42.3475 57.4437 42.2434 57.7719C42.1402 58.099 41.9861 58.4016 41.7809 58.6797H41.248C41.3283 58.5766 41.4022 58.4505 41.4699 58.3016C41.5387 58.1526 41.598 57.9891 41.648 57.8109C41.6991 57.6328 41.7387 57.4484 41.7668 57.2578C41.796 57.0672 41.8105 56.8797 41.8105 56.6953C41.8105 56.4484 41.7855 56.1984 41.7355 55.9453C41.6866 55.6922 41.6194 55.4573 41.534 55.2406C41.4496 55.024 41.3543 54.8469 41.248 54.7094H41.7809C41.9861 54.9875 42.1402 55.2906 42.2434 55.6187C42.3475 55.9458 42.3996 56.3047 42.3996 56.6953Z" fill="#4B4B4B"/>
</g>
<g filter="url(#filter1_d_1114_4840)">
<rect x="54.8163" y="15" width="35.8163" height="35.4098" fill="#B3F4B2"/>
<rect x="54.8163" y="47.1428" width="35.8163" height="12.8571" fill="white"/>
<path d="M58.2152 52.9796L58.7631 49.6401H59.2197L58.6718 52.9796H58.2152ZM56.7101 52.1186L56.7868 51.6621H59.3567L59.28 52.1186H56.7101ZM57.0412 52.9796L57.5891 49.6401H58.0456L57.4977 52.9796H57.0412ZM56.9042 50.9576L56.9792 50.5011H59.5491L59.4741 50.9576H56.9042ZM59.9376 52.9796V49.6401H61.216C61.4573 49.6401 61.6579 49.6781 61.8177 49.7542C61.9786 49.8292 62.0987 49.932 62.178 50.0624C62.2585 50.1929 62.2987 50.3407 62.2987 50.506C62.2987 50.6418 62.2726 50.7582 62.2204 50.8549C62.1683 50.9506 62.0981 51.0283 62.0101 51.0881C61.922 51.1479 61.8236 51.1908 61.7149 51.2169V51.2495C61.8334 51.256 61.947 51.2925 62.0557 51.3588C62.1655 51.424 62.2552 51.5164 62.3248 51.636C62.3944 51.7556 62.4292 51.9001 62.4292 52.0697C62.4292 52.2426 62.3873 52.398 62.3036 52.5361C62.2199 52.6731 62.0938 52.7812 61.9253 52.8606C61.7568 52.9399 61.5448 52.9796 61.2893 52.9796H59.9376ZM60.5425 52.4741H61.1931C61.4127 52.4741 61.5709 52.4323 61.6677 52.3486C61.7655 52.2638 61.8144 52.1551 61.8144 52.0224C61.8144 51.9235 61.7899 51.8344 61.741 51.755C61.6921 51.6746 61.6225 51.6115 61.5323 51.5659C61.4421 51.5191 61.3345 51.4957 61.2094 51.4957H60.5425V52.4741ZM60.5425 51.0604H61.141C61.2453 51.0604 61.3394 51.0413 61.4231 51.0033C61.5068 50.9642 61.5725 50.9093 61.6204 50.8386C61.6693 50.7669 61.6937 50.6821 61.6937 50.5842C61.6937 50.4549 61.6481 50.3483 61.5568 50.2646C61.4665 50.1809 61.3323 50.1391 61.154 50.1391H60.5425V51.0604ZM64.1213 53.0253C63.8865 53.0253 63.6778 52.985 63.4952 52.9046C63.3136 52.8242 63.1701 52.7122 63.0647 52.5687C62.9592 52.4252 62.9033 52.2594 62.8967 52.0714H63.5098C63.5153 52.1616 63.5452 52.2404 63.5995 52.3078C63.6539 52.3741 63.7262 52.4257 63.8164 52.4627C63.9066 52.4997 64.0077 52.5181 64.1197 52.5181C64.2393 52.5181 64.3453 52.4975 64.4377 52.4562C64.5301 52.4138 64.6024 52.3551 64.6545 52.2801C64.7067 52.2051 64.7323 52.1186 64.7312 52.0208C64.7323 51.9197 64.7062 51.8306 64.6529 51.7534C64.5996 51.6762 64.5225 51.6159 64.4214 51.5724C64.3214 51.5289 64.2007 51.5072 64.0594 51.5072H63.7642V51.0408H64.0594C64.1757 51.0408 64.2773 51.0207 64.3643 50.9805C64.4523 50.9402 64.5214 50.8837 64.5714 50.8109C64.6214 50.737 64.6459 50.6516 64.6448 50.5549C64.6459 50.4603 64.6247 50.3782 64.5812 50.3087C64.5388 50.238 64.4784 50.1831 64.4002 50.144C64.323 50.1048 64.2322 50.0853 64.1279 50.0853C64.0257 50.0853 63.9311 50.1037 63.8441 50.1407C63.7572 50.1777 63.687 50.2304 63.6338 50.2989C63.5805 50.3663 63.5522 50.4467 63.549 50.5402H62.9669C62.9712 50.3532 63.025 50.1891 63.1283 50.0478C63.2326 49.9053 63.3718 49.7945 63.5457 49.7151C63.7197 49.6347 63.9148 49.5944 64.1311 49.5944C64.354 49.5944 64.5475 49.6363 64.7116 49.72C64.8769 49.8026 65.0046 49.914 65.0948 50.0543C65.185 50.1945 65.2302 50.3494 65.2302 50.519C65.2312 50.7071 65.1758 50.8647 65.0638 50.9919C64.953 51.1191 64.8073 51.2022 64.6268 51.2414V51.2675C64.8616 51.3001 65.0415 51.387 65.1666 51.5284C65.2927 51.6686 65.3552 51.8431 65.3541 52.0518C65.3541 52.2388 65.3008 52.4062 65.1943 52.554C65.0888 52.7008 64.9432 52.816 64.7573 52.8997C64.5725 52.9834 64.3605 53.0253 64.1213 53.0253ZM65.9464 52.9796V49.6401H68.0858V50.1472H66.5514V51.0538H67.939V51.561H66.5514V52.9796H65.9464ZM68.544 52.36V51.8789L69.961 49.6401H70.3621V50.325H70.1175L69.1636 51.8365V51.8626H71.1416V52.36H68.544ZM70.1371 52.9796V52.2132L70.1436 51.998V49.6401H70.7144V52.9796H70.1371ZM71.6952 52.9796V49.6401H72.9736C73.2149 49.6401 73.4155 49.6781 73.5753 49.7542C73.7362 49.8292 73.8563 49.932 73.9356 50.0624C74.0161 50.1929 74.0563 50.3407 74.0563 50.506C74.0563 50.6418 74.0302 50.7582 73.978 50.8549C73.9259 50.9506 73.8557 51.0283 73.7677 51.0881C73.6796 51.1479 73.5813 51.1908 73.4726 51.2169V51.2495C73.591 51.256 73.7046 51.2925 73.8134 51.3588C73.9231 51.424 74.0128 51.5164 74.0824 51.636C74.152 51.7556 74.1868 51.9001 74.1868 52.0697C74.1868 52.2426 74.1449 52.398 74.0612 52.5361C73.9775 52.6731 73.8514 52.7812 73.6829 52.8606C73.5144 52.9399 73.3024 52.9796 73.047 52.9796H71.6952ZM72.3001 52.4741H72.9508C73.1703 52.4741 73.3285 52.4323 73.4253 52.3486C73.5231 52.2638 73.572 52.1551 73.572 52.0224C73.572 51.9235 73.5476 51.8344 73.4986 51.755C73.4497 51.6746 73.3802 51.6115 73.2899 51.5659C73.1997 51.5191 73.0921 51.4957 72.9671 51.4957H72.3001V52.4741ZM72.3001 51.0604H72.8986C73.0029 51.0604 73.097 51.0413 73.1807 51.0033C73.2644 50.9642 73.3301 50.9093 73.378 50.8386C73.4269 50.7669 73.4514 50.6821 73.4514 50.5842C73.4514 50.4549 73.4057 50.3483 73.3144 50.2646C73.2242 50.1809 73.0899 50.1391 72.9116 50.1391H72.3001V51.0604ZM74.6804 52.9796V52.5426L75.8398 51.4061C75.9507 51.2941 76.0431 51.1946 76.117 51.1077C76.1909 51.0207 76.2464 50.9364 76.2833 50.8549C76.3203 50.7734 76.3388 50.6864 76.3388 50.594C76.3388 50.4886 76.3149 50.3983 76.267 50.3233C76.2192 50.2472 76.1534 50.1885 76.0697 50.1472C75.986 50.1059 75.8909 50.0853 75.7844 50.0853C75.6746 50.0853 75.5784 50.1081 75.4957 50.1537C75.4131 50.1983 75.349 50.2619 75.3033 50.3445C75.2588 50.4271 75.2365 50.5255 75.2365 50.6397H74.6609C74.6609 50.4277 74.7092 50.2434 74.806 50.0869C74.9027 49.9303 75.0359 49.8091 75.2055 49.7233C75.3762 49.6374 75.5718 49.5944 75.7925 49.5944C76.0165 49.5944 76.2132 49.6363 76.3828 49.72C76.5524 49.8037 76.6839 49.9184 76.7774 50.0641C76.872 50.2097 76.9193 50.3761 76.9193 50.563C76.9193 50.688 76.8954 50.8109 76.8475 50.9316C76.7997 51.0522 76.7155 51.1859 76.5948 51.3327C76.4752 51.4794 76.3073 51.6572 76.0909 51.8659L75.5153 52.4513V52.4741H76.9698V52.9796H74.6804Z" fill="#B3F4B2"/>
<path d="M58.3779 56.3428H58.9631V57.06H58.3779V56.3428ZM56.8291 56.1492H60.5119V56.6112H56.8291V56.1492ZM58.6639 56.9016C59.5439 56.9016 60.0763 57.1656 60.0763 57.6364C60.0763 58.1072 59.5439 58.3712 58.6639 58.3712C57.7795 58.3712 57.2471 58.1072 57.2471 57.6364C57.2471 57.1656 57.7795 56.9016 58.6639 56.9016ZM58.6639 57.3416C58.1183 57.3416 57.8411 57.434 57.8411 57.6364C57.8411 57.8344 58.1183 57.9312 58.6639 57.9312C59.2095 57.9312 59.4867 57.8344 59.4867 57.6364C59.4867 57.434 59.2095 57.3416 58.6639 57.3416ZM58.2679 54.6796H58.7871V54.7808C58.7871 55.3924 58.2371 55.894 57.1855 55.9908L56.9831 55.5332C57.8763 55.4584 58.2679 55.0976 58.2679 54.7808V54.6796ZM58.5539 54.6796H59.0731V54.7808C59.0731 55.102 59.4603 55.4584 60.3579 55.5332L60.1555 55.9908C59.1083 55.894 58.5539 55.3968 58.5539 54.7808V54.6796ZM57.1635 54.464H60.1819V54.926H57.1635V54.464ZM63.6751 54.2968H64.2647V56.5716H63.6751V54.2968ZM61.0879 56.0304H61.4443C62.2363 56.0304 62.7511 56.0172 63.3407 55.916L63.4067 56.3868C62.7995 56.4836 62.2583 56.5012 61.4443 56.5012H61.0879V56.0304ZM61.0835 54.4816H62.9579V55.696H61.6643V56.3384H61.0879V55.256H62.3815V54.9436H61.0835V54.4816ZM61.5543 56.7388H62.1307V57.082H63.6839V56.7388H64.2647V58.3272H61.5543V56.7388ZM62.1307 57.5308V57.8608H63.6839V57.5308H62.1307ZM65.1796 56.6749C65.1796 56.2843 65.2312 55.9254 65.3343 55.5984C65.4385 55.2702 65.5932 54.9671 65.7984 54.689H66.3312C66.252 54.7921 66.1781 54.9187 66.1093 55.0687C66.0406 55.2176 65.9807 55.3812 65.9296 55.5593C65.8796 55.7364 65.8401 55.9202 65.8109 56.1109C65.7828 56.3015 65.7687 56.4895 65.7687 56.6749C65.7687 56.9218 65.7932 57.1718 65.8421 57.4249C65.8921 57.6781 65.9593 57.9124 66.0437 58.1281C66.1291 58.3447 66.225 58.5218 66.3312 58.6593H65.7984C65.5932 58.3812 65.4385 58.0786 65.3343 57.7515C65.2312 57.4234 65.1796 57.0645 65.1796 56.6749ZM67.3363 56.5734V57.9796H66.7707V55.5796H67.3113V55.9874H67.3394C67.3946 55.8531 67.4826 55.7463 67.6035 55.6671C67.7253 55.5879 67.8759 55.5484 68.055 55.5484C68.2207 55.5484 68.3649 55.5838 68.4878 55.6546C68.6118 55.7254 68.7076 55.8281 68.7753 55.9624C68.8441 56.0968 68.8779 56.2598 68.8769 56.4515V57.9796H68.3113V56.539C68.3113 56.3786 68.2696 56.2531 68.1863 56.1624C68.104 56.0718 67.9899 56.0265 67.8441 56.0265C67.7451 56.0265 67.6571 56.0484 67.58 56.0921C67.504 56.1348 67.4441 56.1968 67.4003 56.2781C67.3576 56.3593 67.3363 56.4577 67.3363 56.5734ZM70.4988 58.0265C70.2644 58.0265 70.0613 57.9749 69.8894 57.8718C69.7175 57.7687 69.5842 57.6244 69.4894 57.439C69.3957 57.2536 69.3488 57.0369 69.3488 56.789C69.3488 56.5411 69.3957 56.3239 69.4894 56.1374C69.5842 55.951 69.7175 55.8062 69.8894 55.7031C70.0613 55.5999 70.2644 55.5484 70.4988 55.5484C70.7332 55.5484 70.9363 55.5999 71.1082 55.7031C71.28 55.8062 71.4128 55.951 71.5066 56.1374C71.6014 56.3239 71.6488 56.5411 71.6488 56.789C71.6488 57.0369 71.6014 57.2536 71.5066 57.439C71.4128 57.6244 71.28 57.7687 71.1082 57.8718C70.9363 57.9749 70.7332 58.0265 70.4988 58.0265ZM70.5019 57.5734C70.629 57.5734 70.7352 57.5385 70.8207 57.4687C70.9061 57.3978 70.9696 57.3031 71.0113 57.1843C71.054 57.0656 71.0753 56.9333 71.0753 56.7874C71.0753 56.6406 71.054 56.5077 71.0113 56.389C70.9696 56.2692 70.9061 56.1739 70.8207 56.1031C70.7352 56.0322 70.629 55.9968 70.5019 55.9968C70.3717 55.9968 70.2634 56.0322 70.1769 56.1031C70.0915 56.1739 70.0274 56.2692 69.9847 56.389C69.9431 56.5077 69.9222 56.6406 69.9222 56.7874C69.9222 56.9333 69.9431 57.0656 69.9847 57.1843C70.0274 57.3031 70.0915 57.3978 70.1769 57.4687C70.2634 57.5385 70.3717 57.5734 70.5019 57.5734ZM72.1289 57.9796V55.5796H72.6773V55.9796H72.7023C72.746 55.8411 72.821 55.7343 72.9273 55.6593C73.0346 55.5833 73.157 55.5452 73.2945 55.5452C73.3257 55.5452 73.3606 55.5468 73.3992 55.5499C73.4388 55.552 73.4716 55.5557 73.4976 55.5609V56.0812C73.4736 56.0728 73.4356 56.0656 73.3835 56.0593C73.3325 56.052 73.283 56.0484 73.2351 56.0484C73.132 56.0484 73.0393 56.0708 72.957 56.1156C72.8757 56.1593 72.8117 56.2202 72.7648 56.2984C72.7179 56.3765 72.6945 56.4666 72.6945 56.5687V57.9796H72.1289ZM73.8734 57.9796V55.5796H74.414V55.9874H74.4421C74.4921 55.8499 74.575 55.7426 74.6906 55.6656C74.8062 55.5874 74.9442 55.5484 75.1046 55.5484C75.2671 55.5484 75.4041 55.5879 75.5156 55.6671C75.6281 55.7452 75.7072 55.852 75.7531 55.9874H75.7781C75.8312 55.8541 75.9208 55.7478 76.0468 55.6687C76.1739 55.5885 76.3244 55.5484 76.4984 55.5484C76.7192 55.5484 76.8994 55.6182 77.039 55.7577C77.1786 55.8973 77.2484 56.101 77.2484 56.3687V57.9796H76.6812V56.4562C76.6812 56.3072 76.6416 56.1984 76.5625 56.1296C76.4833 56.0598 76.3864 56.0249 76.2718 56.0249C76.1354 56.0249 76.0286 56.0676 75.9515 56.1531C75.8755 56.2374 75.8375 56.3473 75.8375 56.4827V57.9796H75.2828V56.4327C75.2828 56.3088 75.2453 56.2098 75.1703 56.1359C75.0963 56.0619 74.9994 56.0249 74.8796 56.0249C74.7984 56.0249 74.7244 56.0458 74.6578 56.0874C74.5911 56.1281 74.538 56.1859 74.4984 56.2609C74.4588 56.3348 74.439 56.4213 74.439 56.5202V57.9796H73.8734ZM78.5128 58.0281C78.3608 58.0281 78.2238 58.001 78.1019 57.9468C77.9811 57.8916 77.8852 57.8103 77.8144 57.7031C77.7446 57.5958 77.7097 57.4635 77.7097 57.3062C77.7097 57.1708 77.7347 57.0588 77.7847 56.9702C77.8347 56.8817 77.9029 56.8109 77.9894 56.7577C78.0759 56.7046 78.1733 56.6645 78.2816 56.6374C78.391 56.6093 78.504 56.589 78.6207 56.5765C78.7613 56.5619 78.8753 56.5489 78.9628 56.5374C79.0503 56.5249 79.1139 56.5062 79.1535 56.4812C79.1941 56.4551 79.2144 56.415 79.2144 56.3609V56.3515C79.2144 56.2338 79.1795 56.1426 79.1097 56.0781C79.0399 56.0135 78.9394 55.9812 78.8082 55.9812C78.6696 55.9812 78.5597 56.0114 78.4785 56.0718C78.3983 56.1322 78.3441 56.2036 78.316 56.2859L77.7878 56.2109C77.8295 56.065 77.8983 55.9432 77.9941 55.8452C78.0899 55.7463 78.2071 55.6723 78.3457 55.6234C78.4842 55.5734 78.6373 55.5484 78.805 55.5484C78.9207 55.5484 79.0358 55.5619 79.1503 55.589C79.2649 55.6161 79.3696 55.6609 79.4644 55.7234C79.5592 55.7848 79.6352 55.8687 79.6925 55.9749C79.7509 56.0812 79.78 56.214 79.78 56.3734V57.9796H79.2363V57.6499H79.2175C79.1832 57.7166 79.1347 57.7791 79.0722 57.8374C79.0108 57.8947 78.9332 57.9411 78.8394 57.9765C78.7467 58.0109 78.6378 58.0281 78.5128 58.0281ZM78.6597 57.6124C78.7733 57.6124 78.8717 57.59 78.955 57.5452C79.0384 57.4994 79.1024 57.439 79.1472 57.364C79.1931 57.289 79.216 57.2072 79.216 57.1187V56.8359C79.1983 56.8504 79.1681 56.864 79.1253 56.8765C79.0837 56.889 79.0368 56.8999 78.9847 56.9093C78.9326 56.9187 78.8811 56.927 78.83 56.9343C78.779 56.9416 78.7347 56.9478 78.6972 56.9531C78.6128 56.9645 78.5373 56.9833 78.4707 57.0093C78.404 57.0353 78.3514 57.0718 78.3128 57.1187C78.2743 57.1645 78.255 57.2239 78.255 57.2968C78.255 57.401 78.2931 57.4796 78.3691 57.5327C78.4451 57.5859 78.542 57.6124 78.6597 57.6124ZM80.9144 54.7796V57.9796H80.3488V54.7796H80.9144ZM82.5054 56.6749C82.5054 57.0645 82.4533 57.4234 82.3492 57.7515C82.246 58.0786 82.0919 58.3812 81.8867 58.6593H81.3539C81.4341 58.5562 81.508 58.4301 81.5757 58.2812C81.6445 58.1322 81.7039 57.9687 81.7539 57.7906C81.8049 57.6124 81.8445 57.4281 81.8726 57.2374C81.9018 57.0468 81.9164 56.8593 81.9164 56.6749C81.9164 56.4281 81.8914 56.1781 81.8414 55.9249C81.7924 55.6718 81.7252 55.4369 81.6398 55.2202C81.5554 55.0036 81.4601 54.8265 81.3539 54.689H81.8867C82.0919 54.9671 82.246 55.2702 82.3492 55.5984C82.4533 55.9254 82.5054 56.2843 82.5054 56.6749Z" fill="#4B4B4B"/>
</g>
<g filter="url(#filter2_d_1114_4840)">
<rect x="100.633" y="15" width="35.8163" height="35.4098" fill="#FBCFE0"/>
<rect x="100.633" y="47.1428" width="35.8163" height="12.8571" fill="white"/>
<path d="M104.032 52.9796L104.58 49.6401H105.036L104.488 52.9796H104.032ZM102.527 52.1186L102.603 51.6621H105.173L105.096 52.1186H102.527ZM102.858 52.9796L103.405 49.6401H103.862L103.314 52.9796H102.858ZM102.721 50.9576L102.796 50.5011H105.365L105.29 50.9576H102.721ZM105.754 52.9796V49.6401H107.893V50.1472H106.359V51.0538H107.747V51.561H106.359V52.9796H105.754ZM108.444 52.9796V49.6401H109.723C109.964 49.6401 110.165 49.6781 110.325 49.7542C110.485 49.8292 110.606 49.932 110.685 50.0624C110.765 50.1929 110.806 50.3407 110.806 50.506C110.806 50.6418 110.78 50.7582 110.727 50.8549C110.675 50.9506 110.605 51.0283 110.517 51.0881C110.429 51.1479 110.331 51.1908 110.222 51.2169V51.2495C110.34 51.256 110.454 51.2925 110.563 51.3588C110.672 51.424 110.762 51.5164 110.832 51.636C110.901 51.7556 110.936 51.9001 110.936 52.0697C110.936 52.2426 110.894 52.398 110.811 52.5361C110.727 52.6731 110.601 52.7812 110.432 52.8606C110.264 52.9399 110.052 52.9796 109.796 52.9796H108.444ZM109.049 52.4741H109.7C109.92 52.4741 110.078 52.4323 110.175 52.3486C110.272 52.2638 110.321 52.1551 110.321 52.0224C110.321 51.9235 110.297 51.8344 110.248 51.755C110.199 51.6746 110.129 51.6115 110.039 51.5659C109.949 51.5191 109.841 51.4957 109.716 51.4957H109.049V52.4741ZM109.049 51.0604H109.648C109.752 51.0604 109.846 51.0413 109.93 51.0033C110.014 50.9642 110.079 50.9093 110.127 50.8386C110.176 50.7669 110.201 50.6821 110.201 50.5842C110.201 50.4549 110.155 50.3483 110.064 50.2646C109.973 50.1809 109.839 50.1391 109.661 50.1391H109.049V51.0604ZM114.321 50.7669H113.711C113.694 50.6668 113.662 50.5782 113.615 50.5011C113.568 50.4228 113.51 50.3565 113.44 50.3021C113.371 50.2478 113.291 50.207 113.202 50.1798C113.114 50.1516 113.019 50.1374 112.917 50.1374C112.735 50.1374 112.574 50.1831 112.434 50.2744C112.294 50.3646 112.184 50.4973 112.105 50.6723C112.025 50.8462 111.986 51.0587 111.986 51.3099C111.986 51.5653 112.025 51.7806 112.105 51.9556C112.185 52.1295 112.295 52.2611 112.434 52.3502C112.574 52.4382 112.735 52.4823 112.915 52.4823C113.015 52.4823 113.109 52.4692 113.196 52.4431C113.284 52.416 113.363 52.3763 113.432 52.3241C113.503 52.2719 113.562 52.2078 113.61 52.1317C113.659 52.0556 113.693 51.9686 113.711 51.8708L114.321 51.8741C114.298 52.0328 114.249 52.1817 114.172 52.3208C114.097 52.46 113.999 52.5828 113.877 52.6894C113.756 52.7948 113.613 52.8774 113.45 52.9372C113.287 52.9959 113.106 53.0253 112.907 53.0253C112.614 53.0253 112.352 52.9573 112.121 52.8214C111.891 52.6856 111.709 52.4893 111.577 52.2328C111.444 51.9762 111.378 51.6686 111.378 51.3099C111.378 50.95 111.444 50.6424 111.578 50.3869C111.712 50.1304 111.894 49.9342 112.124 49.7983C112.355 49.6624 112.616 49.5944 112.907 49.5944C113.093 49.5944 113.266 49.6205 113.426 49.6727C113.585 49.7249 113.728 49.8015 113.853 49.9026C113.978 50.0026 114.081 50.1255 114.161 50.2711C114.243 50.4157 114.296 50.581 114.321 50.7669ZM114.875 52.9796V49.6401H117.014V50.1472H115.48V51.0538H116.867V51.561H115.48V52.9796H114.875ZM117.565 52.9796V49.6401H119.737V50.1472H118.17V51.0538H119.625V51.561H118.17V52.4725H119.75V52.9796H117.565ZM121.556 53.0432C121.288 53.0432 121.057 52.9753 120.865 52.8394C120.674 52.7024 120.526 52.5051 120.423 52.2475C120.321 51.9887 120.27 51.6773 120.27 51.3131C120.271 50.9489 120.323 50.6391 120.425 50.3837C120.528 50.1271 120.675 49.9314 120.867 49.7966C121.059 49.6618 121.289 49.5944 121.556 49.5944C121.824 49.5944 122.054 49.6618 122.246 49.7966C122.439 49.9314 122.586 50.1271 122.688 50.3837C122.791 50.6402 122.843 50.95 122.843 51.3131C122.843 51.6784 122.791 51.9904 122.688 52.2491C122.586 52.5067 122.439 52.7035 122.246 52.8394C122.055 52.9753 121.825 53.0432 121.556 53.0432ZM121.556 52.5328C121.765 52.5328 121.93 52.4301 122.05 52.2246C122.172 52.0181 122.233 51.7143 122.233 51.3131C122.233 51.0479 122.205 50.825 122.15 50.6446C122.094 50.4641 122.016 50.3282 121.915 50.2369C121.814 50.1445 121.694 50.0983 121.556 50.0983C121.349 50.0983 121.185 50.2016 121.064 50.4081C120.943 50.6136 120.882 50.9152 120.881 51.3131C120.88 51.5795 120.907 51.8034 120.961 51.9849C121.017 52.1665 121.095 52.3034 121.196 52.3959C121.297 52.4872 121.417 52.5328 121.556 52.5328Z" fill="#FBCFE0"/>
<path d="M105.563 54.2968H106.117V56.8488H105.563V54.2968ZM105.065 55.3H105.717V55.7752H105.065V55.3ZM104.718 54.376H105.263V56.7168H104.718V54.376ZM102.628 54.7148H104.603V55.1636H102.628V54.7148ZM103.622 55.2956C104.133 55.2956 104.502 55.586 104.502 56.0084C104.502 56.4308 104.133 56.7168 103.622 56.7168C103.112 56.7168 102.742 56.4308 102.742 56.0084C102.742 55.586 103.112 55.2956 103.622 55.2956ZM103.622 55.7136C103.407 55.7136 103.261 55.8192 103.261 56.0084C103.261 56.1976 103.407 56.3032 103.622 56.3032C103.833 56.3032 103.979 56.1976 103.979 56.0084C103.979 55.8192 103.833 55.7136 103.622 55.7136ZM103.327 54.3364H103.904V55.0228H103.327V54.3364ZM104.74 56.8928C105.611 56.8928 106.139 57.1568 106.139 57.632C106.139 58.1028 105.611 58.3712 104.74 58.3712C103.864 58.3712 103.336 58.1028 103.336 57.632C103.336 57.1568 103.864 56.8928 104.74 56.8928ZM104.74 57.3284C104.194 57.3284 103.921 57.4208 103.921 57.632C103.921 57.8388 104.194 57.9356 104.74 57.9356C105.281 57.9356 105.554 57.8388 105.554 57.632C105.554 57.4208 105.281 57.3284 104.74 57.3284ZM106.693 56.3076H110.376V56.7784H106.693V56.3076ZM108.238 55.7884H108.823V56.4088H108.238V55.7884ZM107.102 57.0556H109.932V58.3712H109.346V57.5176H107.102V57.0556ZM107.164 54.398H107.74V54.7588H109.329V54.398H109.91V55.9732H107.164V54.398ZM107.74 55.1944V55.5156H109.329V55.1944H107.74ZM110.996 56.6749C110.996 56.2843 111.048 55.9254 111.151 55.5984C111.255 55.2702 111.41 54.9671 111.615 54.689H112.148C112.068 54.7921 111.994 54.9187 111.926 55.0687C111.857 55.2176 111.797 55.3812 111.746 55.5593C111.696 55.7364 111.656 55.9202 111.627 56.1109C111.599 56.3015 111.585 56.4895 111.585 56.6749C111.585 56.9218 111.61 57.1718 111.659 57.4249C111.709 57.6781 111.776 57.9124 111.86 58.1281C111.946 58.3447 112.041 58.5218 112.148 58.6593H111.615C111.41 58.3812 111.255 58.0786 111.151 57.7515C111.048 57.4234 110.996 57.0645 110.996 56.6749ZM113.153 56.5734V57.9796H112.587V54.7796H113.14V55.9874H113.168C113.225 55.852 113.312 55.7452 113.429 55.6671C113.548 55.5879 113.699 55.5484 113.882 55.5484C114.049 55.5484 114.194 55.5833 114.318 55.6531C114.442 55.7228 114.538 55.8249 114.606 55.9593C114.675 56.0937 114.709 56.2577 114.709 56.4515V57.9796H114.143V56.539C114.143 56.3775 114.102 56.252 114.018 56.1624C113.936 56.0718 113.82 56.0265 113.671 56.0265C113.571 56.0265 113.482 56.0484 113.403 56.0921C113.325 56.1348 113.263 56.1968 113.218 56.2781C113.175 56.3593 113.153 56.4577 113.153 56.5734ZM115.976 58.0281C115.824 58.0281 115.687 58.001 115.565 57.9468C115.444 57.8916 115.349 57.8103 115.278 57.7031C115.208 57.5958 115.173 57.4635 115.173 57.3062C115.173 57.1708 115.198 57.0588 115.248 56.9702C115.298 56.8817 115.366 56.8109 115.453 56.7577C115.539 56.7046 115.637 56.6645 115.745 56.6374C115.854 56.6093 115.967 56.589 116.084 56.5765C116.225 56.5619 116.339 56.5489 116.426 56.5374C116.514 56.5249 116.577 56.5062 116.617 56.4812C116.657 56.4551 116.678 56.415 116.678 56.3609V56.3515C116.678 56.2338 116.643 56.1426 116.573 56.0781C116.503 56.0135 116.403 55.9812 116.271 55.9812C116.133 55.9812 116.023 56.0114 115.942 56.0718C115.862 56.1322 115.807 56.2036 115.779 56.2859L115.251 56.2109C115.293 56.065 115.362 55.9432 115.457 55.8452C115.553 55.7463 115.67 55.6723 115.809 55.6234C115.947 55.5734 116.101 55.5484 116.268 55.5484C116.384 55.5484 116.499 55.5619 116.614 55.589C116.728 55.6161 116.833 55.6609 116.928 55.7234C117.022 55.7848 117.099 55.8687 117.156 55.9749C117.214 56.0812 117.243 56.214 117.243 56.3734V57.9796H116.7V57.6499H116.681C116.646 57.7166 116.598 57.7791 116.535 57.8374C116.474 57.8947 116.396 57.9411 116.303 57.9765C116.21 58.0109 116.101 58.0281 115.976 58.0281ZM116.123 57.6124C116.237 57.6124 116.335 57.59 116.418 57.5452C116.502 57.4994 116.566 57.439 116.61 57.364C116.656 57.289 116.679 57.2072 116.679 57.1187V56.8359C116.662 56.8504 116.631 56.864 116.589 56.8765C116.547 56.889 116.5 56.8999 116.448 56.9093C116.396 56.9187 116.344 56.927 116.293 56.9343C116.242 56.9416 116.198 56.9478 116.16 56.9531C116.076 56.9645 116.001 56.9833 115.934 57.0093C115.867 57.0353 115.815 57.0718 115.776 57.1187C115.738 57.1645 115.718 57.2239 115.718 57.2968C115.718 57.401 115.756 57.4796 115.832 57.5327C115.908 57.5859 116.005 57.6124 116.123 57.6124ZM117.812 58.8796V55.5796H118.368V55.9765H118.401C118.43 55.9182 118.471 55.8562 118.525 55.7906C118.578 55.7239 118.65 55.6671 118.74 55.6202C118.831 55.5723 118.946 55.5484 119.087 55.5484C119.272 55.5484 119.44 55.5958 119.589 55.6906C119.739 55.7843 119.857 55.9234 119.945 56.1077C120.033 56.2911 120.078 56.5161 120.078 56.7827C120.078 57.0463 120.034 57.2702 119.948 57.4546C119.862 57.639 119.744 57.7796 119.595 57.8765C119.446 57.9734 119.277 58.0218 119.089 58.0218C118.951 58.0218 118.837 57.9989 118.746 57.9531C118.656 57.9072 118.583 57.852 118.528 57.7874C118.474 57.7218 118.431 57.6598 118.401 57.6015H118.378V58.8796H117.812ZM118.367 56.7796C118.367 56.9348 118.389 57.0708 118.432 57.1874C118.477 57.3041 118.541 57.3952 118.625 57.4609C118.709 57.5254 118.811 57.5577 118.931 57.5577C119.056 57.5577 119.16 57.5244 119.245 57.4577C119.329 57.39 119.393 57.2978 119.435 57.1812C119.479 57.0635 119.501 56.9296 119.501 56.7796C119.501 56.6307 119.48 56.4984 119.437 56.3827C119.394 56.2671 119.331 56.1765 119.246 56.1109C119.162 56.0452 119.057 56.0124 118.931 56.0124C118.81 56.0124 118.707 56.0442 118.623 56.1077C118.539 56.1713 118.475 56.2603 118.431 56.3749C118.388 56.4895 118.367 56.6244 118.367 56.7796ZM120.562 58.8796V55.5796H121.118V55.9765H121.151C121.18 55.9182 121.221 55.8562 121.275 55.7906C121.328 55.7239 121.4 55.6671 121.49 55.6202C121.581 55.5723 121.696 55.5484 121.837 55.5484C122.022 55.5484 122.19 55.5958 122.339 55.6906C122.489 55.7843 122.607 55.9234 122.695 56.1077C122.783 56.2911 122.828 56.5161 122.828 56.7827C122.828 57.0463 122.784 57.2702 122.698 57.4546C122.612 57.639 122.494 57.7796 122.345 57.8765C122.196 57.9734 122.027 58.0218 121.839 58.0218C121.701 58.0218 121.587 57.9989 121.496 57.9531C121.406 57.9072 121.333 57.852 121.278 57.7874C121.224 57.7218 121.181 57.6598 121.151 57.6015H121.128V58.8796H120.562ZM121.117 56.7796C121.117 56.9348 121.139 57.0708 121.182 57.1874C121.227 57.3041 121.291 57.3952 121.375 57.4609C121.459 57.5254 121.561 57.5577 121.681 57.5577C121.806 57.5577 121.91 57.5244 121.995 57.4577C122.079 57.39 122.143 57.2978 122.185 57.1812C122.229 57.0635 122.251 56.9296 122.251 56.7796C122.251 56.6307 122.23 56.4984 122.187 56.3827C122.144 56.2671 122.081 56.1765 121.996 56.1109C121.912 56.0452 121.807 56.0124 121.681 56.0124C121.56 56.0124 121.457 56.0442 121.373 56.1077C121.289 56.1713 121.225 56.2603 121.181 56.3749C121.138 56.4895 121.117 56.6244 121.117 56.7796ZM123.582 58.8796C123.505 58.8796 123.434 58.8734 123.368 58.8609C123.303 58.8494 123.252 58.8359 123.213 58.8202L123.344 58.3796C123.427 58.4036 123.5 58.415 123.565 58.414C123.629 58.4129 123.686 58.3926 123.735 58.3531C123.785 58.3145 123.827 58.2499 123.862 58.1593L123.91 58.0296L123.04 55.5796H123.64L124.193 57.3921H124.218L124.773 55.5796H125.374L124.413 58.2702C124.368 58.3973 124.309 58.5062 124.235 58.5968C124.161 58.6885 124.071 58.7583 123.963 58.8062C123.857 58.8551 123.73 58.8796 123.582 58.8796ZM126.775 56.6749C126.775 57.0645 126.723 57.4234 126.619 57.7515C126.516 58.0786 126.361 58.3812 126.156 58.6593H125.623C125.704 58.5562 125.778 58.4301 125.845 58.2812C125.914 58.1322 125.973 57.9687 126.023 57.7906C126.074 57.6124 126.114 57.4281 126.142 57.2374C126.171 57.0468 126.186 56.8593 126.186 56.6749C126.186 56.4281 126.161 56.1781 126.111 55.9249C126.062 55.6718 125.995 55.4369 125.909 55.2202C125.825 55.0036 125.73 54.8265 125.623 54.689H126.156C126.361 54.9671 126.516 55.2702 126.619 55.5984C126.723 55.9254 126.775 56.2843 126.775 56.6749Z" fill="#4B4B4B"/>
</g>
<g filter="url(#filter3_d_1114_4840)">
<rect x="146.449" y="15" width="35.8163" height="35.4098" fill="#FECFAD"/>
<rect x="146.449" y="47.1428" width="35.8163" height="12.8571" fill="white"/>
<path d="M149.848 52.9796L150.396 49.6401H150.852L150.304 52.9796H149.848ZM148.343 52.1186L148.419 51.6621H150.989L150.913 52.1186H148.343ZM148.674 52.9796L149.222 49.6401H149.678L149.13 52.9796H148.674ZM148.537 50.9576L148.612 50.5011H151.182L151.107 50.9576H148.537ZM151.57 52.9796V49.6401H153.71V50.1472H152.175V51.0538H153.563V51.561H152.175V52.9796H151.57ZM154.261 52.9796V49.6401H156.433V50.1472H154.866V51.0538H156.32V51.561H154.866V52.4725H156.446V52.9796H154.261ZM159.908 50.7669H159.299C159.281 50.6668 159.249 50.5782 159.202 50.5011C159.156 50.4228 159.097 50.3565 159.028 50.3021C158.958 50.2478 158.879 50.207 158.79 50.1798C158.702 50.1516 158.607 50.1374 158.504 50.1374C158.323 50.1374 158.162 50.1831 158.022 50.2744C157.882 50.3646 157.772 50.4973 157.692 50.6723C157.613 50.8462 157.573 51.0587 157.573 51.3099C157.573 51.5653 157.613 51.7806 157.692 51.9556C157.773 52.1295 157.883 52.2611 158.022 52.3502C158.162 52.4382 158.322 52.4823 158.503 52.4823C158.603 52.4823 158.696 52.4692 158.783 52.4431C158.871 52.416 158.95 52.3763 159.02 52.3241C159.09 52.2719 159.15 52.2078 159.197 52.1317C159.246 52.0556 159.28 51.9686 159.299 51.8708L159.908 51.8741C159.886 52.0328 159.836 52.1817 159.76 52.3208C159.685 52.46 159.587 52.5828 159.465 52.6894C159.343 52.7948 159.201 52.8774 159.038 52.9372C158.875 52.9959 158.694 53.0253 158.495 53.0253C158.201 53.0253 157.939 52.9573 157.709 52.8214C157.478 52.6856 157.297 52.4893 157.164 52.2328C157.031 51.9762 156.965 51.6686 156.965 51.3099C156.965 50.95 157.032 50.6424 157.166 50.3869C157.299 50.1304 157.482 49.9342 157.712 49.7983C157.942 49.6624 158.203 49.5944 158.495 49.5944C158.681 49.5944 158.853 49.6205 159.013 49.6727C159.173 49.7249 159.315 49.8015 159.44 49.9026C159.565 50.0026 159.668 50.1255 159.749 50.2711C159.83 50.4157 159.883 50.581 159.908 50.7669ZM160.462 52.9796V49.6401H162.602V50.1472H161.067V51.0538H162.455V51.561H161.067V52.9796H160.462ZM163.165 52.9796H162.519L163.695 49.6401H164.442L165.619 52.9796H164.973L164.081 50.325H164.055L163.165 52.9796ZM163.186 51.6702H164.947V52.1561H163.186V51.6702ZM167.19 52.9796H166.059V49.6401H167.213C167.545 49.6401 167.83 49.707 168.068 49.8407C168.307 49.9733 168.491 50.1641 168.619 50.413C168.747 50.662 168.811 50.9598 168.811 51.3066C168.811 51.6545 168.747 51.9534 168.617 52.2034C168.489 52.4535 168.304 52.6453 168.061 52.779C167.82 52.9128 167.53 52.9796 167.19 52.9796ZM166.664 52.4562H167.161C167.394 52.4562 167.588 52.4138 167.743 52.329C167.899 52.2431 168.015 52.1154 168.094 51.9458C168.172 51.7751 168.211 51.5621 168.211 51.3066C168.211 51.0511 168.172 50.8391 168.094 50.6707C168.015 50.5011 167.9 50.3744 167.746 50.2907C167.594 50.2059 167.405 50.1635 167.179 50.1635H166.664V52.4562Z" fill="#FECFAD"/>
<path d="M150.763 55.1856H151.511V55.6476H150.763V55.1856ZM150.754 55.9864H151.498V56.4528H150.754V55.9864ZM148.475 54.6488H150.71V55.1108H148.475V54.6488ZM149.619 55.2428C150.178 55.2428 150.574 55.5508 150.574 55.9952C150.574 56.444 150.178 56.7476 149.619 56.7476C149.06 56.7476 148.664 56.444 148.664 55.9952C148.664 55.5508 149.06 55.2428 149.619 55.2428ZM149.619 55.6784C149.373 55.6784 149.21 55.784 149.21 55.9952C149.21 56.2064 149.373 56.3164 149.619 56.3164C149.861 56.3164 150.033 56.2064 150.033 55.9952C150.033 55.784 149.861 55.6784 149.619 55.6784ZM149.329 54.2616H149.914V54.9656H149.329V54.2616ZM151.287 54.2968H151.872V56.7784H151.287V54.2968ZM149.157 56.95H151.872V58.3272H149.157V56.95ZM151.3 57.4076H149.733V57.8652H151.3V57.4076ZM154.058 56.5892H154.643V57.5176H154.058V56.5892ZM154.353 54.5036C155.224 54.5036 155.875 54.948 155.875 55.6256C155.875 56.312 155.224 56.752 154.353 56.752C153.482 56.752 152.831 56.312 152.831 55.6256C152.831 54.948 153.482 54.5036 154.353 54.5036ZM154.353 54.9656C153.794 54.9656 153.407 55.212 153.407 55.6256C153.407 56.048 153.794 56.29 154.353 56.29C154.912 56.29 155.299 56.048 155.299 55.6256C155.299 55.212 154.912 54.9656 154.353 54.9656ZM152.514 57.4252H156.201V57.9004H152.514V57.4252ZM156.812 56.6749C156.812 56.2843 156.864 55.9254 156.967 55.5984C157.071 55.2702 157.226 54.9671 157.431 54.689H157.964C157.885 54.7921 157.811 54.9187 157.742 55.0687C157.673 55.2176 157.613 55.3812 157.562 55.5593C157.512 55.7364 157.473 55.9202 157.444 56.1109C157.415 56.3015 157.401 56.4895 157.401 56.6749C157.401 56.9218 157.426 57.1718 157.475 57.4249C157.525 57.6781 157.592 57.9124 157.676 58.1281C157.762 58.3447 157.858 58.5218 157.964 58.6593H157.431C157.226 58.3812 157.071 58.0786 156.967 57.7515C156.864 57.4234 156.812 57.0645 156.812 56.6749ZM159.094 58.0281C158.942 58.0281 158.805 58.001 158.683 57.9468C158.562 57.8916 158.466 57.8103 158.396 57.7031C158.326 57.5958 158.291 57.4635 158.291 57.3062C158.291 57.1708 158.316 57.0588 158.366 56.9702C158.416 56.8817 158.484 56.8109 158.571 56.7577C158.657 56.7046 158.754 56.6645 158.863 56.6374C158.972 56.6093 159.085 56.589 159.202 56.5765C159.342 56.5619 159.456 56.5489 159.544 56.5374C159.631 56.5249 159.695 56.5062 159.735 56.4812C159.775 56.4551 159.796 56.415 159.796 56.3609V56.3515C159.796 56.2338 159.761 56.1426 159.691 56.0781C159.621 56.0135 159.521 55.9812 159.389 55.9812C159.251 55.9812 159.141 56.0114 159.06 56.0718C158.979 56.1322 158.925 56.2036 158.897 56.2859L158.369 56.2109C158.411 56.065 158.479 55.9432 158.575 55.8452C158.671 55.7463 158.788 55.6723 158.927 55.6234C159.065 55.5734 159.218 55.5484 159.386 55.5484C159.502 55.5484 159.617 55.5619 159.731 55.589C159.846 55.6161 159.951 55.6609 160.046 55.7234C160.14 55.7848 160.216 55.8687 160.274 55.9749C160.332 56.0812 160.361 56.214 160.361 56.3734V57.9796H159.817V57.6499H159.799C159.764 57.7166 159.716 57.7791 159.653 57.8374C159.592 57.8947 159.514 57.9411 159.421 57.9765C159.328 58.0109 159.219 58.0281 159.094 58.0281ZM159.241 57.6124C159.354 57.6124 159.453 57.59 159.536 57.5452C159.619 57.4994 159.684 57.439 159.728 57.364C159.774 57.289 159.797 57.2072 159.797 57.1187V56.8359C159.779 56.8504 159.749 56.864 159.706 56.8765C159.665 56.889 159.618 56.8999 159.566 56.9093C159.514 56.9187 159.462 56.927 159.411 56.9343C159.36 56.9416 159.316 56.9478 159.278 56.9531C159.194 56.9645 159.118 56.9833 159.052 57.0093C158.985 57.0353 158.933 57.0718 158.894 57.1187C158.855 57.1645 158.836 57.2239 158.836 57.2968C158.836 57.401 158.874 57.4796 158.95 57.5327C159.026 57.5859 159.123 57.6124 159.241 57.6124ZM162.988 55.5796L162.133 57.9796H161.508L160.653 55.5796H161.256L161.808 57.3624H161.833L162.386 55.5796H162.988ZM164.36 58.0265C164.119 58.0265 163.912 57.9765 163.737 57.8765C163.563 57.7754 163.429 57.6327 163.335 57.4484C163.241 57.2629 163.194 57.0447 163.194 56.7937C163.194 56.5468 163.241 56.3301 163.335 56.1437C163.43 55.9562 163.562 55.8103 163.732 55.7062C163.902 55.601 164.101 55.5484 164.33 55.5484C164.478 55.5484 164.618 55.5723 164.749 55.6202C164.881 55.6671 164.998 55.74 165.099 55.839C165.201 55.9379 165.281 56.064 165.34 56.2171C165.398 56.3692 165.427 56.5504 165.427 56.7609V56.9343H163.46V56.5531H164.885C164.884 56.4447 164.861 56.3484 164.815 56.264C164.769 56.1786 164.705 56.1114 164.622 56.0624C164.541 56.0135 164.446 55.989 164.338 55.989C164.222 55.989 164.121 56.0171 164.033 56.0734C163.946 56.1286 163.878 56.2015 163.829 56.2921C163.781 56.3817 163.756 56.4801 163.755 56.5874V56.9202C163.755 57.0598 163.781 57.1796 163.832 57.2796C163.883 57.3786 163.954 57.4546 164.046 57.5077C164.138 57.5598 164.245 57.5859 164.368 57.5859C164.45 57.5859 164.525 57.5744 164.591 57.5515C164.658 57.5275 164.716 57.4926 164.765 57.4468C164.814 57.401 164.851 57.3442 164.876 57.2765L165.404 57.3359C165.37 57.4754 165.307 57.5973 165.213 57.7015C165.12 57.8046 165.002 57.8848 164.857 57.9421C164.712 57.9984 164.546 58.0265 164.36 58.0265ZM165.906 57.9796V55.5796H166.454V55.9796H166.479C166.523 55.8411 166.598 55.7343 166.704 55.6593C166.811 55.5833 166.934 55.5452 167.071 55.5452C167.103 55.5452 167.137 55.5468 167.176 55.5499C167.216 55.552 167.248 55.5557 167.274 55.5609V56.0812C167.25 56.0728 167.212 56.0656 167.16 56.0593C167.109 56.052 167.06 56.0484 167.012 56.0484C166.909 56.0484 166.816 56.0708 166.734 56.1156C166.653 56.1593 166.589 56.2202 166.542 56.2984C166.495 56.3765 166.471 56.4666 166.471 56.5687V57.9796H165.906ZM169.547 56.214L169.031 56.2702C169.017 56.2182 168.991 56.1692 168.955 56.1234C168.919 56.0775 168.872 56.0406 168.811 56.0124C168.751 55.9843 168.677 55.9702 168.589 55.9702C168.472 55.9702 168.373 55.9958 168.292 56.0468C168.213 56.0978 168.174 56.164 168.175 56.2452C168.174 56.315 168.2 56.3718 168.252 56.4156C168.305 56.4593 168.392 56.4952 168.514 56.5234L168.924 56.6109C169.151 56.6598 169.319 56.7374 169.43 56.8437C169.541 56.9499 169.598 57.089 169.599 57.2609C169.598 57.4119 169.553 57.5452 169.466 57.6609C169.379 57.7754 169.259 57.865 169.105 57.9296C168.951 57.9942 168.774 58.0265 168.574 58.0265C168.28 58.0265 168.043 57.965 167.864 57.8421C167.685 57.7182 167.578 57.5458 167.544 57.3249L168.096 57.2718C168.121 57.3801 168.174 57.4619 168.255 57.5171C168.336 57.5723 168.442 57.5999 168.572 57.5999C168.706 57.5999 168.814 57.5723 168.896 57.5171C168.978 57.4619 169.019 57.3937 169.019 57.3124C169.019 57.2437 168.992 57.1869 168.939 57.1421C168.887 57.0973 168.806 57.0629 168.696 57.039L168.286 56.9531C168.056 56.9051 167.886 56.8244 167.775 56.7109C167.665 56.5963 167.61 56.4515 167.611 56.2765C167.61 56.1286 167.65 56.0004 167.731 55.8921C167.814 55.7827 167.928 55.6984 168.074 55.639C168.221 55.5786 168.39 55.5484 168.581 55.5484C168.863 55.5484 169.084 55.6083 169.246 55.7281C169.408 55.8478 169.509 56.0098 169.547 56.214ZM170.065 57.9796V55.5796H170.631V57.9796H170.065ZM170.349 55.239C170.26 55.239 170.183 55.2093 170.118 55.1499C170.054 55.0895 170.021 55.0171 170.021 54.9327C170.021 54.8473 170.054 54.7749 170.118 54.7156C170.183 54.6551 170.26 54.6249 170.349 54.6249C170.44 54.6249 170.517 54.6551 170.581 54.7156C170.645 54.7749 170.678 54.8473 170.678 54.9327C170.678 55.0171 170.645 55.0895 170.581 55.1499C170.517 55.2093 170.44 55.239 170.349 55.239ZM172.259 58.0265C172.025 58.0265 171.822 57.9749 171.65 57.8718C171.478 57.7687 171.345 57.6244 171.25 57.439C171.156 57.2536 171.109 57.0369 171.109 56.789C171.109 56.5411 171.156 56.3239 171.25 56.1374C171.345 55.951 171.478 55.8062 171.65 55.7031C171.822 55.5999 172.025 55.5484 172.259 55.5484C172.494 55.5484 172.697 55.5999 172.869 55.7031C173.04 55.8062 173.173 55.951 173.267 56.1374C173.362 56.3239 173.409 56.5411 173.409 56.789C173.409 57.0369 173.362 57.2536 173.267 57.439C173.173 57.6244 173.04 57.7687 172.869 57.8718C172.697 57.9749 172.494 58.0265 172.259 58.0265ZM172.262 57.5734C172.389 57.5734 172.496 57.5385 172.581 57.4687C172.666 57.3978 172.73 57.3031 172.772 57.1843C172.814 57.0656 172.836 56.9333 172.836 56.7874C172.836 56.6406 172.814 56.5077 172.772 56.389C172.73 56.2692 172.666 56.1739 172.581 56.1031C172.496 56.0322 172.389 55.9968 172.262 55.9968C172.132 55.9968 172.024 56.0322 171.937 56.1031C171.852 56.1739 171.788 56.2692 171.745 56.389C171.703 56.5077 171.683 56.6406 171.683 56.7874C171.683 56.9333 171.703 57.0656 171.745 57.1843C171.788 57.3031 171.852 57.3978 171.937 57.4687C172.024 57.5385 172.132 57.5734 172.262 57.5734ZM174.455 56.5734V57.9796H173.889V55.5796H174.43V55.9874H174.458C174.513 55.8531 174.601 55.7463 174.722 55.6671C174.844 55.5879 174.994 55.5484 175.174 55.5484C175.339 55.5484 175.484 55.5838 175.606 55.6546C175.73 55.7254 175.826 55.8281 175.894 55.9624C175.963 56.0968 175.997 56.2598 175.996 56.4515V57.9796H175.43V56.539C175.43 56.3786 175.388 56.2531 175.305 56.1624C175.223 56.0718 175.109 56.0265 174.963 56.0265C174.864 56.0265 174.776 56.0484 174.699 56.0921C174.623 56.1348 174.563 56.1968 174.519 56.2781C174.476 56.3593 174.455 56.4577 174.455 56.5734ZM177.58 56.6749C177.58 57.0645 177.528 57.4234 177.424 57.7515C177.321 58.0786 177.166 58.3812 176.961 58.6593H176.428C176.509 58.5562 176.583 58.4301 176.65 58.2812C176.719 58.1322 176.778 57.9687 176.828 57.7906C176.879 57.6124 176.919 57.4281 176.947 57.2374C176.976 57.0468 176.991 56.8593 176.991 56.6749C176.991 56.4281 176.966 56.1781 176.916 55.9249C176.867 55.6718 176.8 55.4369 176.714 55.2202C176.63 55.0036 176.535 54.8265 176.428 54.689H176.961C177.166 54.9671 177.321 55.2702 177.424 55.5984C177.528 55.9254 177.58 56.2843 177.58 56.6749Z" fill="#4B4B4B"/>
</g>
<g filter="url(#filter4_d_1114_4840)">
<rect x="192.265" y="15" width="35.8163" height="35.4098" fill="#B5D3FF"/>
<rect x="192.265" y="47.1428" width="35.8163" height="12.8571" fill="white"/>
<path d="M195.664 52.9796L196.212 49.6401H196.669L196.121 52.9796H195.664ZM194.159 52.1186L194.236 51.6621H196.806L196.729 52.1186H194.159ZM194.49 52.9796L195.038 49.6401H195.495L194.947 52.9796H194.49ZM194.353 50.9576L194.428 50.5011H196.998L196.923 50.9576H194.353ZM197.387 52.9796V49.6401H198.665C198.906 49.6401 199.107 49.6781 199.267 49.7542C199.428 49.8292 199.548 49.932 199.627 50.0624C199.708 50.1929 199.748 50.3407 199.748 50.506C199.748 50.6418 199.722 50.7582 199.67 50.8549C199.617 50.9506 199.547 51.0283 199.459 51.0881C199.371 51.1479 199.273 51.1908 199.164 51.2169V51.2495C199.283 51.256 199.396 51.2925 199.505 51.3588C199.615 51.424 199.704 51.5164 199.774 51.636C199.843 51.7556 199.878 51.9001 199.878 52.0697C199.878 52.2426 199.836 52.398 199.753 52.5361C199.669 52.6731 199.543 52.7812 199.374 52.8606C199.206 52.9399 198.994 52.9796 198.738 52.9796H197.387ZM197.992 52.4741H198.642C198.862 52.4741 199.02 52.4323 199.117 52.3486C199.215 52.2638 199.264 52.1551 199.264 52.0224C199.264 51.9235 199.239 51.8344 199.19 51.755C199.141 51.6746 199.072 51.6115 198.981 51.5659C198.891 51.5191 198.784 51.4957 198.659 51.4957H197.992V52.4741ZM197.992 51.0604H198.59C198.694 51.0604 198.788 51.0413 198.872 51.0033C198.956 50.9642 199.022 50.9093 199.069 50.8386C199.118 50.7669 199.143 50.6821 199.143 50.5842C199.143 50.4549 199.097 50.3483 199.006 50.2646C198.916 50.1809 198.781 50.1391 198.603 50.1391H197.992V51.0604ZM201.533 53.0253C201.316 53.0253 201.121 52.9845 200.949 52.903C200.777 52.8204 200.641 52.7073 200.54 52.5638C200.44 52.4203 200.387 52.2562 200.38 52.0714H200.967C200.978 52.2083 201.037 52.3203 201.145 52.4073C201.252 52.4931 201.382 52.5361 201.533 52.5361C201.651 52.5361 201.757 52.5089 201.849 52.4546C201.942 52.4002 202.015 52.3246 202.068 52.2279C202.121 52.1311 202.147 52.0208 202.146 51.8969C202.147 51.7708 202.12 51.6588 202.066 51.561C202.012 51.4631 201.937 51.3865 201.843 51.3311C201.748 51.2745 201.639 51.2463 201.517 51.2463C201.417 51.2452 201.318 51.2637 201.221 51.3017C201.125 51.3398 201.048 51.3898 200.992 51.4517L200.445 51.362L200.62 49.6401H202.557V50.1456H201.12L201.024 51.031H201.044C201.106 50.9582 201.193 50.8979 201.306 50.85C201.419 50.8011 201.543 50.7766 201.678 50.7766C201.88 50.7766 202.061 50.8245 202.219 50.9201C202.378 51.0147 202.503 51.1452 202.594 51.3115C202.686 51.4778 202.731 51.668 202.731 51.8822C202.731 52.1029 202.68 52.2996 202.578 52.4725C202.477 52.6442 202.336 52.7796 202.156 52.8785C201.976 52.9764 201.769 53.0253 201.533 53.0253ZM204.442 52.9796H203.31V49.6401H204.465C204.796 49.6401 205.081 49.707 205.319 49.8407C205.558 49.9733 205.742 50.1641 205.87 50.413C205.999 50.662 206.063 50.9598 206.063 51.3066C206.063 51.6545 205.998 51.9534 205.869 52.2034C205.74 52.4535 205.555 52.6453 205.313 52.779C205.071 52.9128 204.781 52.9796 204.442 52.9796ZM203.915 52.4562H204.413C204.645 52.4562 204.839 52.4138 204.995 52.329C205.15 52.2431 205.267 52.1154 205.345 51.9458C205.424 51.7751 205.463 51.5621 205.463 51.3066C205.463 51.0511 205.424 50.8391 205.345 50.6707C205.267 50.5011 205.151 50.3744 204.998 50.2907C204.846 50.2059 204.657 50.1635 204.431 50.1635H203.915V52.4562ZM207.803 53.0253C207.569 53.0253 207.36 52.985 207.177 52.9046C206.996 52.8242 206.852 52.7122 206.747 52.5687C206.641 52.4252 206.585 52.2594 206.579 52.0714H207.192C207.197 52.1616 207.227 52.2404 207.282 52.3078C207.336 52.3741 207.408 52.4257 207.499 52.4627C207.589 52.4997 207.69 52.5181 207.802 52.5181C207.921 52.5181 208.027 52.4975 208.12 52.4562C208.212 52.4138 208.285 52.3551 208.337 52.2801C208.389 52.2051 208.414 52.1186 208.413 52.0208C208.414 51.9197 208.388 51.8306 208.335 51.7534C208.282 51.6762 208.205 51.6159 208.104 51.5724C208.004 51.5289 207.883 51.5072 207.742 51.5072H207.446V51.0408H207.742C207.858 51.0408 207.959 51.0207 208.046 50.9805C208.135 50.9402 208.204 50.8837 208.254 50.8109C208.304 50.737 208.328 50.6516 208.327 50.5549C208.328 50.4603 208.307 50.3782 208.263 50.3087C208.221 50.238 208.161 50.1831 208.082 50.144C208.005 50.1048 207.914 50.0853 207.81 50.0853C207.708 50.0853 207.613 50.1037 207.526 50.1407C207.439 50.1777 207.369 50.2304 207.316 50.2989C207.263 50.3663 207.234 50.4467 207.231 50.5402H206.649C206.653 50.3532 206.707 50.1891 206.81 50.0478C206.915 49.9053 207.054 49.7945 207.228 49.7151C207.402 49.6347 207.597 49.5944 207.813 49.5944C208.036 49.5944 208.23 49.6363 208.394 49.72C208.559 49.8026 208.687 49.914 208.777 50.0543C208.867 50.1945 208.912 50.3494 208.912 50.519C208.913 50.7071 208.858 50.8647 208.746 50.9919C208.635 51.1191 208.489 51.2022 208.309 51.2414V51.2675C208.544 51.3001 208.724 51.387 208.849 51.5284C208.975 51.6686 209.037 51.8431 209.036 52.0518C209.036 52.2388 208.983 52.4062 208.876 52.554C208.771 52.7008 208.625 52.816 208.439 52.8997C208.255 52.9834 208.043 53.0253 207.803 53.0253ZM209.629 52.9796V49.6401H211.768V50.1472H210.234V51.0538H211.621V51.561H210.234V52.9796H209.629ZM212.319 52.9796V49.6401H214.458V50.1472H212.924V51.0538H214.312V51.561H212.924V52.9796H212.319Z" fill="#B4D3FF"/>
<path d="M195.823 54.3276H196.315V54.4024C196.315 55.0888 195.704 55.63 194.652 55.7488L194.459 55.3088C195.378 55.2164 195.823 54.8028 195.823 54.4024V54.3276ZM195.924 54.3276H196.421V54.4024C196.421 54.8028 196.861 55.2164 197.781 55.3088L197.587 55.7488C196.535 55.63 195.924 55.0888 195.924 54.4024V54.3276ZM194.278 55.9072H197.961V56.3692H194.278V55.9072ZM194.701 56.6068H197.517V57.6672H195.281V58.0148H194.705V57.2624H196.94V57.0424H194.701V56.6068ZM194.705 57.9048H197.622V58.3448H194.705V57.9048ZM198.326 56.246H202.009V56.708H198.326V56.246ZM198.647 54.4244H201.683V54.8908H198.647V54.4244ZM198.678 55.5112H201.652V55.9776H198.678V55.5112ZM199.166 54.596H199.751V55.806H199.166V54.596ZM200.579 54.596H201.164V55.806H200.579V54.596ZM198.753 56.9984H201.569V58.3272H198.753V56.9984ZM200.997 57.456H199.329V57.8652H200.997V57.456ZM202.629 56.6749C202.629 56.2843 202.68 55.9254 202.783 55.5984C202.888 55.2702 203.042 54.9671 203.247 54.689H203.78C203.701 54.7921 203.627 54.9187 203.558 55.0687C203.49 55.2176 203.43 55.3812 203.379 55.5593C203.329 55.7364 203.289 55.9202 203.26 56.1109C203.232 56.3015 203.218 56.4895 203.218 56.6749C203.218 56.9218 203.242 57.1718 203.291 57.4249C203.341 57.6781 203.408 57.9124 203.493 58.1281C203.578 58.3447 203.674 58.5218 203.78 58.6593H203.247C203.042 58.3812 202.888 58.0786 202.783 57.7515C202.68 57.4234 202.629 57.0645 202.629 56.6749ZM206.117 56.214L205.601 56.2702C205.586 56.2182 205.561 56.1692 205.524 56.1234C205.489 56.0775 205.441 56.0406 205.381 56.0124C205.32 55.9843 205.246 55.9702 205.159 55.9702C205.041 55.9702 204.942 55.9958 204.862 56.0468C204.783 56.0978 204.744 56.164 204.745 56.2452C204.744 56.315 204.769 56.3718 204.821 56.4156C204.874 56.4593 204.962 56.4952 205.084 56.5234L205.493 56.6109C205.72 56.6598 205.889 56.7374 205.999 56.8437C206.111 56.9499 206.167 57.089 206.168 57.2609C206.167 57.4119 206.123 57.5452 206.035 57.6609C205.949 57.7754 205.829 57.865 205.674 57.9296C205.52 57.9942 205.343 58.0265 205.143 58.0265C204.849 58.0265 204.613 57.965 204.434 57.8421C204.255 57.7182 204.148 57.5458 204.114 57.3249L204.665 57.2718C204.69 57.3801 204.743 57.4619 204.824 57.5171C204.906 57.5723 205.011 57.5999 205.142 57.5999C205.276 57.5999 205.384 57.5723 205.465 57.5171C205.547 57.4619 205.589 57.3937 205.589 57.3124C205.589 57.2437 205.562 57.1869 205.509 57.1421C205.457 57.0973 205.375 57.0629 205.265 57.039L204.856 56.9531C204.625 56.9051 204.455 56.8244 204.345 56.7109C204.234 56.5963 204.18 56.4515 204.181 56.2765C204.18 56.1286 204.22 56.0004 204.301 55.8921C204.383 55.7827 204.497 55.6984 204.643 55.639C204.79 55.5786 204.959 55.5484 205.151 55.5484C205.432 55.5484 205.654 55.6083 205.815 55.7281C205.978 55.8478 206.078 56.0098 206.117 56.214ZM207.325 58.0281C207.173 58.0281 207.036 58.001 206.914 57.9468C206.793 57.8916 206.698 57.8103 206.627 57.7031C206.557 57.5958 206.522 57.4635 206.522 57.3062C206.522 57.1708 206.547 57.0588 206.597 56.9702C206.647 56.8817 206.715 56.8109 206.802 56.7577C206.888 56.7046 206.986 56.6645 207.094 56.6374C207.203 56.6093 207.316 56.589 207.433 56.5765C207.574 56.5619 207.688 56.5489 207.775 56.5374C207.863 56.5249 207.926 56.5062 207.966 56.4812C208.006 56.4551 208.027 56.415 208.027 56.3609V56.3515C208.027 56.2338 207.992 56.1426 207.922 56.0781C207.852 56.0135 207.752 55.9812 207.621 55.9812C207.482 55.9812 207.372 56.0114 207.291 56.0718C207.211 56.1322 207.156 56.2036 207.128 56.2859L206.6 56.2109C206.642 56.065 206.711 55.9432 206.806 55.8452C206.902 55.7463 207.019 55.6723 207.158 55.6234C207.297 55.5734 207.45 55.5484 207.617 55.5484C207.733 55.5484 207.848 55.5619 207.963 55.589C208.077 55.6161 208.182 55.6609 208.277 55.7234C208.372 55.7848 208.448 55.8687 208.505 55.9749C208.563 56.0812 208.592 56.214 208.592 56.3734V57.9796H208.049V57.6499H208.03C207.996 57.7166 207.947 57.7791 207.885 57.8374C207.823 57.8947 207.746 57.9411 207.652 57.9765C207.559 58.0109 207.45 58.0281 207.325 58.0281ZM207.472 57.6124C207.586 57.6124 207.684 57.59 207.767 57.5452C207.851 57.4994 207.915 57.439 207.96 57.364C208.005 57.289 208.028 57.2072 208.028 57.1187V56.8359C208.011 56.8504 207.98 56.864 207.938 56.8765C207.896 56.889 207.849 56.8999 207.797 56.9093C207.745 56.9187 207.693 56.927 207.642 56.9343C207.591 56.9416 207.547 56.9478 207.51 56.9531C207.425 56.9645 207.35 56.9833 207.283 57.0093C207.216 57.0353 207.164 57.0718 207.125 57.1187C207.087 57.1645 207.067 57.2239 207.067 57.2968C207.067 57.401 207.105 57.4796 207.181 57.5327C207.258 57.5859 207.354 57.6124 207.472 57.6124ZM210.052 58.0218C209.863 58.0218 209.694 57.9734 209.546 57.8765C209.397 57.7796 209.279 57.639 209.192 57.4546C209.106 57.2702 209.063 57.0463 209.063 56.7827C209.063 56.5161 209.106 56.2911 209.194 56.1077C209.283 55.9234 209.402 55.7843 209.552 55.6906C209.702 55.5958 209.869 55.5484 210.053 55.5484C210.194 55.5484 210.31 55.5723 210.4 55.6202C210.491 55.6671 210.563 55.7239 210.616 55.7906C210.669 55.8562 210.71 55.9182 210.739 55.9765H210.763V54.7796H211.33V57.9796H210.774V57.6015H210.739C210.71 57.6598 210.668 57.7218 210.613 57.7874C210.558 57.852 210.485 57.9072 210.394 57.9531C210.303 57.9989 210.189 58.0218 210.052 58.0218ZM210.21 57.5577C210.329 57.5577 210.431 57.5254 210.516 57.4609C210.6 57.3952 210.664 57.3041 210.708 57.1874C210.752 57.0708 210.774 56.9348 210.774 56.7796C210.774 56.6244 210.752 56.4895 210.708 56.3749C210.665 56.2603 210.602 56.1713 210.517 56.1077C210.434 56.0442 210.331 56.0124 210.21 56.0124C210.084 56.0124 209.978 56.0452 209.894 56.1109C209.81 56.1765 209.746 56.2671 209.703 56.3827C209.661 56.4984 209.639 56.6307 209.639 56.7796C209.639 56.9296 209.661 57.0635 209.703 57.1812C209.747 57.2978 209.811 57.39 209.896 57.4577C209.981 57.5244 210.086 57.5577 210.21 57.5577ZM212.942 56.6749C212.942 57.0645 212.89 57.4234 212.786 57.7515C212.683 58.0786 212.528 58.3812 212.323 58.6593H211.79C211.871 58.5562 211.945 58.4301 212.012 58.2812C212.081 58.1322 212.14 57.9687 212.19 57.7906C212.241 57.6124 212.281 57.4281 212.309 57.2374C212.338 57.0468 212.353 56.8593 212.353 56.6749C212.353 56.4281 212.328 56.1781 212.278 55.9249C212.229 55.6718 212.162 55.4369 212.076 55.2202C211.992 55.0036 211.897 54.8265 211.79 54.689H212.323C212.528 54.9671 212.683 55.2702 212.786 55.5984C212.89 55.9254 212.942 56.2843 212.942 56.6749Z" fill="#4B4B4B"/>
</g>
<g filter="url(#filter5_d_1114_4840)">
<rect x="238.082" y="15" width="35.8163" height="35.4098" fill="#DBD3FB"/>
<rect x="238.082" y="47.1428" width="35.8163" height="12.8571" fill="white"/>
<path d="M241.481 52.9796L242.028 49.6401H242.485L241.937 52.9796H241.481ZM239.976 52.1186L240.052 51.6621H242.622L242.545 52.1186H239.976ZM240.307 52.9796L240.854 49.6401H241.311L240.763 52.9796H240.307ZM240.17 50.9576L240.245 50.5011H242.814L242.739 50.9576H240.17ZM244.335 52.9796H243.203V49.6401H244.357C244.689 49.6401 244.974 49.707 245.212 49.8407C245.451 49.9733 245.635 50.1641 245.763 50.413C245.891 50.662 245.955 50.9598 245.955 51.3066C245.955 51.6545 245.891 51.9534 245.761 52.2034C245.633 52.4535 245.448 52.6453 245.205 52.779C244.964 52.9128 244.674 52.9796 244.335 52.9796ZM243.808 52.4562H244.305C244.538 52.4562 244.732 52.4138 244.887 52.329C245.043 52.2431 245.16 52.1154 245.238 51.9458C245.316 51.7751 245.355 51.5621 245.355 51.3066C245.355 51.0511 245.316 50.8391 245.238 50.6707C245.16 50.5011 245.044 50.3744 244.891 50.2907C244.738 50.2059 244.549 50.1635 244.323 50.1635H243.808V52.4562ZM246.53 52.9796V49.6401H247.809C248.05 49.6401 248.251 49.6781 248.41 49.7542C248.571 49.8292 248.691 49.932 248.771 50.0624C248.851 50.1929 248.891 50.3407 248.891 50.506C248.891 50.6418 248.865 50.7582 248.813 50.8549C248.761 50.9506 248.691 51.0283 248.603 51.0881C248.515 51.1479 248.416 51.1908 248.308 51.2169V51.2495C248.426 51.256 248.54 51.2925 248.648 51.3588C248.758 51.424 248.848 51.5164 248.917 51.636C248.987 51.7556 249.022 51.9001 249.022 52.0697C249.022 52.2426 248.98 52.398 248.896 52.5361C248.813 52.6731 248.686 52.7812 248.518 52.8606C248.349 52.9399 248.137 52.9796 247.882 52.9796H246.53ZM247.135 52.4741H247.786C248.005 52.4741 248.164 52.4323 248.26 52.3486C248.358 52.2638 248.407 52.1551 248.407 52.0224C248.407 51.9235 248.383 51.8344 248.334 51.755C248.285 51.6746 248.215 51.6115 248.125 51.5659C248.035 51.5191 247.927 51.4957 247.802 51.4957H247.135V52.4741ZM247.135 51.0604H247.734C247.838 51.0604 247.932 51.0413 248.016 51.0033C248.099 50.9642 248.165 50.9093 248.213 50.8386C248.262 50.7669 248.286 50.6821 248.286 50.5842C248.286 50.4549 248.241 50.3483 248.149 50.2646C248.059 50.1809 247.925 50.1391 247.747 50.1391H247.135V51.0604ZM250.68 52.9796H249.548V49.6401H250.703C251.034 49.6401 251.319 49.707 251.557 49.8407C251.796 49.9733 251.98 50.1641 252.108 50.413C252.236 50.662 252.301 50.9598 252.301 51.3066C252.301 51.6545 252.236 51.9534 252.107 52.2034C251.978 52.4535 251.793 52.6453 251.551 52.779C251.309 52.9128 251.019 52.9796 250.68 52.9796ZM250.153 52.4562H250.65C250.883 52.4562 251.077 52.4138 251.233 52.329C251.388 52.2431 251.505 52.1154 251.583 51.9458C251.661 51.7751 251.701 51.5621 251.701 51.3066C251.701 51.0511 251.661 50.8391 251.583 50.6707C251.505 50.5011 251.389 50.3744 251.236 50.2907C251.084 50.2059 250.894 50.1635 250.668 50.1635H250.153V52.4562ZM254.041 53.0253C253.806 53.0253 253.598 52.985 253.415 52.9046C253.234 52.8242 253.09 52.7122 252.985 52.5687C252.879 52.4252 252.823 52.2594 252.817 52.0714H253.43C253.435 52.1616 253.465 52.2404 253.519 52.3078C253.574 52.3741 253.646 52.4257 253.736 52.4627C253.827 52.4997 253.928 52.5181 254.04 52.5181C254.159 52.5181 254.265 52.4975 254.358 52.4562C254.45 52.4138 254.522 52.3551 254.575 52.2801C254.627 52.2051 254.652 52.1186 254.651 52.0208C254.652 51.9197 254.626 51.8306 254.573 51.7534C254.52 51.6762 254.442 51.6159 254.341 51.5724C254.241 51.5289 254.121 51.5072 253.979 51.5072H253.684V51.0408H253.979C254.096 51.0408 254.197 51.0207 254.284 50.9805C254.372 50.9402 254.441 50.8837 254.491 50.8109C254.541 50.737 254.566 50.6516 254.565 50.5549C254.566 50.4603 254.545 50.3782 254.501 50.3087C254.459 50.238 254.398 50.1831 254.32 50.144C254.243 50.1048 254.152 50.0853 254.048 50.0853C253.946 50.0853 253.851 50.1037 253.764 50.1407C253.677 50.1777 253.607 50.2304 253.554 50.2989C253.5 50.3663 253.472 50.4467 253.469 50.5402H252.887C252.891 50.3532 252.945 50.1891 253.048 50.0478C253.153 49.9053 253.292 49.7945 253.466 49.7151C253.64 49.6347 253.835 49.5944 254.051 49.5944C254.274 49.5944 254.467 49.6363 254.632 49.72C254.797 49.8026 254.925 49.914 255.015 50.0543C255.105 50.1945 255.15 50.3494 255.15 50.519C255.151 50.7071 255.096 50.8647 254.984 50.9919C254.873 51.1191 254.727 51.2022 254.547 51.2414V51.2675C254.782 51.3001 254.962 51.387 255.087 51.5284C255.213 51.6686 255.275 51.8431 255.274 52.0518C255.274 52.2388 255.221 52.4062 255.114 52.554C255.009 52.7008 254.863 52.816 254.677 52.8997C254.492 52.9834 254.28 53.0253 254.041 53.0253ZM255.866 52.9796V49.6401H258.006V50.1472H256.471V51.0538H257.859V51.561H256.471V52.9796H255.866ZM258.557 52.9796V49.6401H259.835C260.077 49.6401 260.277 49.6781 260.437 49.7542C260.598 49.8292 260.718 49.932 260.797 50.0624C260.878 50.1929 260.918 50.3407 260.918 50.506C260.918 50.6418 260.892 50.7582 260.84 50.8549C260.788 50.9506 260.717 51.0283 260.629 51.0881C260.541 51.1479 260.443 51.1908 260.334 51.2169V51.2495C260.453 51.256 260.566 51.2925 260.675 51.3588C260.785 51.424 260.875 51.5164 260.944 51.636C261.014 51.7556 261.048 51.9001 261.048 52.0697C261.048 52.2426 261.007 52.398 260.923 52.5361C260.839 52.6731 260.713 52.7812 260.545 52.8606C260.376 52.9399 260.164 52.9796 259.909 52.9796H258.557ZM259.162 52.4741H259.812C260.032 52.4741 260.19 52.4323 260.287 52.3486C260.385 52.2638 260.434 52.1551 260.434 52.0224C260.434 51.9235 260.409 51.8344 260.36 51.755C260.311 51.6746 260.242 51.6115 260.152 51.5659C260.061 51.5191 259.954 51.4957 259.829 51.4957H259.162V52.4741ZM259.162 51.0604H259.76C259.865 51.0604 259.959 51.0413 260.042 51.0033C260.126 50.9642 260.192 50.9093 260.24 50.8386C260.289 50.7669 260.313 50.6821 260.313 50.5842C260.313 50.4549 260.267 50.3483 260.176 50.2646C260.086 50.1809 259.952 50.1391 259.773 50.1391H259.162V51.0604Z" fill="#DBD3FB"/>
<path d="M241.916 56.8312C242.796 56.8312 243.359 57.1216 243.359 57.6056C243.359 58.0808 242.796 58.3712 241.916 58.3712C241.036 58.3712 240.473 58.0808 240.473 57.6056C240.473 57.1216 241.036 56.8312 241.916 56.8312ZM241.916 57.2712C241.366 57.2712 241.054 57.3856 241.054 57.6056C241.054 57.8212 241.366 57.9312 241.916 57.9312C242.466 57.9312 242.778 57.8212 242.778 57.6056C242.778 57.3856 242.466 57.2712 241.916 57.2712ZM240.517 54.4772H243.095V54.9392H240.517V54.4772ZM240.103 56.114H243.773V56.5804H240.103V56.114ZM241.463 55.4056H242.044V56.2328H241.463V55.4056ZM242.756 54.4772H243.337V54.8116C243.337 55.1328 243.337 55.4804 243.227 55.9028L242.646 55.8412C242.756 55.4232 242.756 55.1284 242.756 54.8116V54.4772ZM244.147 57.4384H247.834V57.918H244.147V57.4384ZM245.687 56.5188H246.272V57.654H245.687V56.5188ZM244.428 54.6312H247.53V55.0976H244.428V54.6312ZM244.446 56.2548H247.517V56.7124H244.446V56.2548ZM244.983 55.0184H245.568V56.3076H244.983V55.0184ZM246.395 55.0184H246.976V56.3076H246.395V55.0184ZM248.445 56.6749C248.445 56.2843 248.497 55.9254 248.6 55.5984C248.704 55.2702 248.859 54.9671 249.064 54.689H249.597C249.517 54.7921 249.443 54.9187 249.375 55.0687C249.306 55.2176 249.246 55.3812 249.195 55.5593C249.145 55.7364 249.105 55.9202 249.076 56.1109C249.048 56.3015 249.034 56.4895 249.034 56.6749C249.034 56.9218 249.059 57.1718 249.108 57.4249C249.158 57.6781 249.225 57.9124 249.309 58.1281C249.394 58.3447 249.49 58.5218 249.597 58.6593H249.064C248.859 58.3812 248.704 58.0786 248.6 57.7515C248.497 57.4234 248.445 57.0645 248.445 56.6749ZM251.252 55.5796V56.0171H249.833V55.5796H251.252ZM250.188 57.9796V55.3531C250.188 55.1916 250.221 55.0572 250.288 54.9499C250.355 54.8426 250.446 54.7624 250.559 54.7093C250.673 54.6562 250.799 54.6296 250.938 54.6296C251.036 54.6296 251.122 54.6374 251.199 54.6531C251.275 54.6687 251.331 54.6827 251.367 54.6952L251.255 55.1327C251.231 55.1254 251.201 55.1182 251.164 55.1109C251.128 55.1025 251.087 55.0984 251.042 55.0984C250.937 55.0984 250.863 55.1239 250.819 55.1749C250.776 55.2249 250.755 55.2968 250.755 55.3906V57.9796H250.188ZM252.667 58.0265C252.426 58.0265 252.218 57.9765 252.043 57.8765C251.869 57.7754 251.736 57.6327 251.642 57.4484C251.548 57.2629 251.501 57.0447 251.501 56.7937C251.501 56.5468 251.548 56.3301 251.642 56.1437C251.737 55.9562 251.869 55.8103 252.039 55.7062C252.209 55.601 252.408 55.5484 252.637 55.5484C252.785 55.5484 252.925 55.5723 253.056 55.6202C253.188 55.6671 253.305 55.74 253.406 55.839C253.508 55.9379 253.588 56.064 253.647 56.2171C253.705 56.3692 253.734 56.5504 253.734 56.7609V56.9343H251.767V56.5531H253.192C253.191 56.4447 253.167 56.3484 253.122 56.264C253.076 56.1786 253.012 56.1114 252.929 56.0624C252.848 56.0135 252.753 55.989 252.645 55.989C252.529 55.989 252.428 56.0171 252.34 56.0734C252.253 56.1286 252.185 56.2015 252.136 56.2921C252.088 56.3817 252.063 56.4801 252.062 56.5874V56.9202C252.062 57.0598 252.088 57.1796 252.139 57.2796C252.19 57.3786 252.261 57.4546 252.353 57.5077C252.444 57.5598 252.552 57.5859 252.675 57.5859C252.757 57.5859 252.831 57.5744 252.898 57.5515C252.965 57.5275 253.023 57.4926 253.072 57.4468C253.121 57.401 253.158 57.3442 253.183 57.2765L253.711 57.3359C253.677 57.4754 253.614 57.5973 253.52 57.7015C253.427 57.8046 253.309 57.8848 253.164 57.9421C253.019 57.9984 252.853 58.0265 252.667 58.0265ZM254.903 58.0281C254.751 58.0281 254.614 58.001 254.492 57.9468C254.371 57.8916 254.276 57.8103 254.205 57.7031C254.135 57.5958 254.1 57.4635 254.1 57.3062C254.1 57.1708 254.125 57.0588 254.175 56.9702C254.225 56.8817 254.293 56.8109 254.38 56.7577C254.466 56.7046 254.564 56.6645 254.672 56.6374C254.781 56.6093 254.894 56.589 255.011 56.5765C255.152 56.5619 255.266 56.5489 255.353 56.5374C255.441 56.5249 255.504 56.5062 255.544 56.4812C255.584 56.4551 255.605 56.415 255.605 56.3609V56.3515C255.605 56.2338 255.57 56.1426 255.5 56.0781C255.43 56.0135 255.33 55.9812 255.199 55.9812C255.06 55.9812 254.95 56.0114 254.869 56.0718C254.789 56.1322 254.734 56.2036 254.706 56.2859L254.178 56.2109C254.22 56.065 254.289 55.9432 254.384 55.8452C254.48 55.7463 254.597 55.6723 254.736 55.6234C254.875 55.5734 255.028 55.5484 255.195 55.5484C255.311 55.5484 255.426 55.5619 255.541 55.589C255.655 55.6161 255.76 55.6609 255.855 55.7234C255.95 55.7848 256.026 55.8687 256.083 55.9749C256.141 56.0812 256.17 56.214 256.17 56.3734V57.9796H255.627V57.6499H255.608C255.574 57.7166 255.525 57.7791 255.463 57.8374C255.401 57.8947 255.324 57.9411 255.23 57.9765C255.137 58.0109 255.028 58.0281 254.903 58.0281ZM255.05 57.6124C255.164 57.6124 255.262 57.59 255.345 57.5452C255.429 57.4994 255.493 57.439 255.538 57.364C255.583 57.289 255.606 57.2072 255.606 57.1187V56.8359C255.589 56.8504 255.558 56.864 255.516 56.8765C255.474 56.889 255.427 56.8999 255.375 56.9093C255.323 56.9187 255.271 56.927 255.22 56.9343C255.169 56.9416 255.125 56.9478 255.088 56.9531C255.003 56.9645 254.928 56.9833 254.861 57.0093C254.794 57.0353 254.742 57.0718 254.703 57.1187C254.665 57.1645 254.645 57.2239 254.645 57.2968C254.645 57.401 254.683 57.4796 254.759 57.5327C254.836 57.5859 254.932 57.6124 255.05 57.6124ZM256.739 57.9796V55.5796H257.288V55.9796H257.313C257.356 55.8411 257.431 55.7343 257.538 55.6593C257.645 55.5833 257.767 55.5452 257.905 55.5452C257.936 55.5452 257.971 55.5468 258.009 55.5499C258.049 55.552 258.082 55.5557 258.108 55.5609V56.0812C258.084 56.0728 258.046 56.0656 257.994 56.0593C257.943 56.052 257.893 56.0484 257.845 56.0484C257.742 56.0484 257.65 56.0708 257.567 56.1156C257.486 56.1593 257.422 56.2202 257.375 56.2984C257.328 56.3765 257.305 56.4666 257.305 56.5687V57.9796H256.739ZM259.493 56.6749C259.493 57.0645 259.441 57.4234 259.337 57.7515C259.234 58.0786 259.08 58.3812 258.874 58.6593H258.342C258.422 58.5562 258.496 58.4301 258.563 58.2812C258.632 58.1322 258.692 57.9687 258.742 57.7906C258.793 57.6124 258.832 57.4281 258.86 57.2374C258.889 57.0468 258.904 56.8593 258.904 56.6749C258.904 56.4281 258.879 56.1781 258.829 55.9249C258.78 55.6718 258.713 55.4369 258.627 55.2202C258.543 55.0036 258.448 54.8265 258.342 54.689H258.874C259.08 54.9671 259.234 55.2702 259.337 55.5984C259.441 55.9254 259.493 56.2843 259.493 56.6749Z" fill="#4B4B4B"/>
</g>
<g filter="url(#filter6_d_1114_4840)">
<rect x="283.898" y="15" width="35.8163" height="35.4098" fill="#FF9191"/>
<rect x="283.898" y="47.1428" width="35.8163" height="12.8571" fill="white"/>
<path d="M287.297 52.9796L287.845 49.6401H288.301L287.753 52.9796H287.297ZM285.792 52.1186L285.868 51.6621H288.438L288.362 52.1186H285.792ZM286.123 52.9796L286.671 49.6401H287.127L286.579 52.9796H286.123ZM285.986 50.9576L286.061 50.5011H288.631L288.556 50.9576H285.986ZM289.019 52.9796V49.6401H291.159V50.1472H289.624V51.0538H291.012V51.561H289.624V52.9796H289.019ZM291.71 52.9796V49.6401H293.849V50.1472H292.315V51.0538H293.702V51.561H292.315V52.9796H291.71ZM295.527 49.5944C295.687 49.5955 295.842 49.6238 295.993 49.6792C296.146 49.7336 296.283 49.8227 296.404 49.9467C296.526 50.0695 296.623 50.2342 296.695 50.4407C296.766 50.6473 296.802 50.9027 296.802 51.2071C296.803 51.4941 296.773 51.7507 296.711 51.9768C296.65 52.2018 296.562 52.392 296.448 52.5475C296.334 52.703 296.197 52.8214 296.036 52.903C295.875 52.9845 295.694 53.0253 295.493 53.0253C295.282 53.0253 295.095 52.984 294.932 52.9013C294.77 52.8187 294.639 52.7057 294.539 52.5622C294.439 52.4187 294.377 52.2545 294.355 52.0697H294.95C294.98 52.2024 295.042 52.3078 295.136 52.3861C295.23 52.4633 295.349 52.5018 295.493 52.5018C295.724 52.5018 295.903 52.4013 296.028 52.2002C296.153 51.9991 296.215 51.7197 296.215 51.362H296.192C296.139 51.4577 296.07 51.5403 295.985 51.6099C295.9 51.6784 295.804 51.7311 295.697 51.7681C295.59 51.805 295.477 51.8235 295.357 51.8235C295.162 51.8235 294.986 51.7768 294.829 51.6833C294.674 51.5898 294.55 51.4615 294.459 51.2984C294.369 51.1354 294.323 50.9489 294.322 50.7391C294.322 50.5217 294.372 50.3266 294.472 50.1537C294.573 49.9798 294.714 49.8428 294.894 49.7428C295.075 49.6417 295.286 49.5923 295.527 49.5944ZM295.529 50.0836C295.411 50.0836 295.305 50.1124 295.211 50.17C295.117 50.2266 295.043 50.3038 294.989 50.4016C294.936 50.4983 294.909 50.6065 294.909 50.7261C294.91 50.8446 294.937 50.9522 294.989 51.049C295.042 51.1457 295.114 51.2223 295.206 51.2789C295.298 51.3354 295.404 51.3637 295.522 51.3637C295.61 51.3637 295.692 51.3468 295.768 51.3131C295.844 51.2794 295.911 51.2327 295.967 51.1729C296.025 51.112 296.069 51.043 296.101 50.9658C296.134 50.8886 296.149 50.8071 296.148 50.7212C296.148 50.6071 296.121 50.5016 296.067 50.4049C296.014 50.3081 295.94 50.2304 295.847 50.1717C295.754 50.113 295.648 50.0836 295.529 50.0836ZM298.703 49.6401V52.9796H298.099V50.2288H298.079L297.298 50.7277V50.1733L298.128 49.6401H298.703ZM300.711 49.5944C300.871 49.5955 301.026 49.6238 301.177 49.6792C301.329 49.7336 301.466 49.8227 301.588 49.9467C301.71 50.0695 301.807 50.2342 301.878 50.4407C301.95 50.6473 301.986 50.9027 301.986 51.2071C301.987 51.4941 301.957 51.7507 301.895 51.9768C301.834 52.2018 301.746 52.392 301.632 52.5475C301.518 52.703 301.38 52.8214 301.22 52.903C301.059 52.9845 300.878 53.0253 300.677 53.0253C300.466 53.0253 300.279 52.984 300.116 52.9013C299.954 52.8187 299.823 52.7057 299.723 52.5622C299.623 52.4187 299.561 52.2545 299.538 52.0697H300.134C300.164 52.2024 300.226 52.3078 300.319 52.3861C300.414 52.4633 300.533 52.5018 300.677 52.5018C300.908 52.5018 301.086 52.4013 301.211 52.2002C301.336 51.9991 301.399 51.7197 301.399 51.362H301.376C301.323 51.4577 301.254 51.5403 301.169 51.6099C301.084 51.6784 300.988 51.7311 300.88 51.7681C300.774 51.805 300.661 51.8235 300.541 51.8235C300.346 51.8235 300.169 51.7768 300.013 51.6833C299.857 51.5898 299.734 51.4615 299.643 51.2984C299.553 51.1354 299.507 50.9489 299.506 50.7391C299.506 50.5217 299.556 50.3266 299.656 50.1537C299.757 49.9798 299.898 49.8428 300.078 49.7428C300.259 49.6417 300.469 49.5923 300.711 49.5944ZM300.712 50.0836C300.595 50.0836 300.489 50.1124 300.394 50.17C300.301 50.2266 300.227 50.3038 300.173 50.4016C300.119 50.4983 300.093 50.6065 300.093 50.7261C300.094 50.8446 300.121 50.9522 300.173 51.049C300.226 51.1457 300.298 51.2223 300.39 51.2789C300.482 51.3354 300.587 51.3637 300.706 51.3637C300.794 51.3637 300.876 51.3468 300.952 51.3131C301.028 51.2794 301.095 51.2327 301.151 51.1729C301.209 51.112 301.253 51.043 301.285 50.9658C301.317 50.8886 301.333 50.8071 301.332 50.7212C301.332 50.6071 301.305 50.5016 301.251 50.4049C301.197 50.3081 301.124 50.2304 301.03 50.1717C300.938 50.113 300.832 50.0836 300.712 50.0836ZM303.887 49.6401V52.9796H303.282V50.2288H303.263L302.482 50.7277V50.1733L303.312 49.6401H303.887Z" fill="#FF9191"/>
<path d="M285.911 56.3824H289.598V56.8444H285.911V56.3824ZM287.508 56.6288H288.098V57.4868H287.508V56.6288ZM286.338 57.8344H289.193V58.3008H286.338V57.8344ZM286.338 57.1788H286.918V58.0324H286.338V57.1788ZM286.382 54.4244H286.958V54.8424H288.546V54.4244H289.127V56.1008H286.382V54.4244ZM286.958 55.2824V55.6432H288.546V55.2824H286.958ZM290.372 56.048H293.258V56.5144H290.372V56.048ZM289.963 57.4428H293.65V57.9136H289.963V57.4428ZM291.512 56.3252H292.097V57.5748H291.512V56.3252ZM290.372 54.6048H290.962V56.2504H290.372V54.6048ZM294.261 56.6749C294.261 56.2843 294.313 55.9254 294.416 55.5984C294.52 55.2702 294.675 54.9671 294.88 54.689H295.413C295.334 54.7921 295.26 54.9187 295.191 55.0687C295.122 55.2176 295.062 55.3812 295.011 55.5593C294.961 55.7364 294.922 55.9202 294.893 56.1109C294.864 56.3015 294.85 56.4895 294.85 56.6749C294.85 56.9218 294.875 57.1718 294.924 57.4249C294.974 57.6781 295.041 57.9124 295.125 58.1281C295.211 58.3447 295.307 58.5218 295.413 58.6593H294.88C294.675 58.3812 294.52 58.0786 294.416 57.7515C294.313 57.4234 294.261 57.0645 294.261 56.6749ZM296.543 58.0281C296.391 58.0281 296.254 58.001 296.132 57.9468C296.011 57.8916 295.915 57.8103 295.845 57.7031C295.775 57.5958 295.74 57.4635 295.74 57.3062C295.74 57.1708 295.765 57.0588 295.815 56.9702C295.865 56.8817 295.933 56.8109 296.02 56.7577C296.106 56.7046 296.203 56.6645 296.312 56.6374C296.421 56.6093 296.534 56.589 296.651 56.5765C296.791 56.5619 296.905 56.5489 296.993 56.5374C297.08 56.5249 297.144 56.5062 297.184 56.4812C297.224 56.4551 297.245 56.415 297.245 56.3609V56.3515C297.245 56.2338 297.21 56.1426 297.14 56.0781C297.07 56.0135 296.97 55.9812 296.838 55.9812C296.7 55.9812 296.59 56.0114 296.509 56.0718C296.428 56.1322 296.374 56.2036 296.346 56.2859L295.818 56.2109C295.86 56.065 295.928 55.9432 296.024 55.8452C296.12 55.7463 296.237 55.6723 296.376 55.6234C296.514 55.5734 296.667 55.5484 296.835 55.5484C296.951 55.5484 297.066 55.5619 297.18 55.589C297.295 55.6161 297.4 55.6609 297.495 55.7234C297.589 55.7848 297.665 55.8687 297.723 55.9749C297.781 56.0812 297.81 56.214 297.81 56.3734V57.9796H297.266V57.6499H297.248C297.213 57.7166 297.165 57.7791 297.102 57.8374C297.041 57.8947 296.963 57.9411 296.87 57.9765C296.777 58.0109 296.668 58.0281 296.543 58.0281ZM296.69 57.6124C296.803 57.6124 296.902 57.59 296.985 57.5452C297.068 57.4994 297.133 57.439 297.177 57.364C297.223 57.289 297.246 57.2072 297.246 57.1187V56.8359C297.228 56.8504 297.198 56.864 297.155 56.8765C297.114 56.889 297.067 56.8999 297.015 56.9093C296.963 56.9187 296.911 56.927 296.86 56.9343C296.809 56.9416 296.765 56.9478 296.727 56.9531C296.643 56.9645 296.567 56.9833 296.501 57.0093C296.434 57.0353 296.381 57.0718 296.343 57.1187C296.304 57.1645 296.285 57.2239 296.285 57.2968C296.285 57.401 296.323 57.4796 296.399 57.5327C296.475 57.5859 296.572 57.6124 296.69 57.6124ZM298.945 56.5734V57.9796H298.379V55.5796H298.92V55.9874H298.948C299.003 55.8531 299.091 55.7463 299.212 55.6671C299.334 55.5879 299.484 55.5484 299.663 55.5484C299.829 55.5484 299.973 55.5838 300.096 55.6546C300.22 55.7254 300.316 55.8281 300.384 55.9624C300.452 56.0968 300.486 56.2598 300.485 56.4515V57.9796H299.92V56.539C299.92 56.3786 299.878 56.2531 299.795 56.1624C299.712 56.0718 299.598 56.0265 299.452 56.0265C299.353 56.0265 299.265 56.0484 299.188 56.0921C299.112 56.1348 299.052 56.1968 299.009 56.2781C298.966 56.3593 298.945 56.4577 298.945 56.5734ZM302.104 58.9296C301.901 58.9296 301.726 58.902 301.58 58.8468C301.435 58.7926 301.317 58.7197 301.229 58.6281C301.14 58.5364 301.079 58.4348 301.045 58.3234L301.554 58.1999C301.577 58.2468 301.61 58.2932 301.654 58.339C301.698 58.3859 301.756 58.4244 301.83 58.4546C301.905 58.4859 302 58.5015 302.113 58.5015C302.274 58.5015 302.406 58.4624 302.512 58.3843C302.617 58.3072 302.67 58.1801 302.67 58.0031V57.5484H302.641C302.612 57.6067 302.57 57.6666 302.513 57.7281C302.458 57.7895 302.385 57.8411 302.293 57.8827C302.202 57.9244 302.088 57.9452 301.951 57.9452C301.766 57.9452 301.599 57.902 301.449 57.8156C301.3 57.7281 301.181 57.5978 301.093 57.4249C301.005 57.251 300.962 57.0333 300.962 56.7718C300.962 56.5083 301.005 56.2859 301.093 56.1046C301.181 55.9223 301.301 55.7843 301.451 55.6906C301.601 55.5958 301.768 55.5484 301.952 55.5484C302.093 55.5484 302.209 55.5723 302.299 55.6202C302.391 55.6671 302.464 55.7239 302.518 55.7906C302.572 55.8562 302.613 55.9182 302.641 55.9765H302.673V55.5796H303.23V58.0187C303.23 58.2239 303.181 58.3937 303.084 58.5281C302.986 58.6624 302.852 58.7629 302.682 58.8296C302.512 58.8963 302.32 58.9296 302.104 58.9296ZM302.109 57.5015C302.228 57.5015 302.33 57.4723 302.415 57.414C302.499 57.3557 302.563 57.2718 302.607 57.1624C302.651 57.0531 302.673 56.9218 302.673 56.7687C302.673 56.6176 302.651 56.4853 302.607 56.3718C302.564 56.2583 302.501 56.1702 302.416 56.1077C302.333 56.0442 302.23 56.0124 302.109 56.0124C301.983 56.0124 301.877 56.0452 301.793 56.1109C301.709 56.1765 301.645 56.2666 301.602 56.3812C301.56 56.4947 301.538 56.6239 301.538 56.7687C301.538 56.9156 301.56 57.0442 301.602 57.1546C301.646 57.264 301.71 57.3494 301.795 57.4109C301.88 57.4713 301.985 57.5015 302.109 57.5015ZM304.873 58.0265C304.632 58.0265 304.424 57.9765 304.249 57.8765C304.075 57.7754 303.941 57.6327 303.848 57.4484C303.754 57.2629 303.707 57.0447 303.707 56.7937C303.707 56.5468 303.754 56.3301 303.848 56.1437C303.942 55.9562 304.075 55.8103 304.245 55.7062C304.414 55.601 304.614 55.5484 304.843 55.5484C304.991 55.5484 305.13 55.5723 305.262 55.6202C305.394 55.6671 305.511 55.74 305.612 55.839C305.714 55.9379 305.794 56.064 305.852 56.2171C305.911 56.3692 305.94 56.5504 305.94 56.7609V56.9343H303.973V56.5531H305.398C305.397 56.4447 305.373 56.3484 305.327 56.264C305.281 56.1786 305.217 56.1114 305.135 56.0624C305.054 56.0135 304.959 55.989 304.851 55.989C304.735 55.989 304.634 56.0171 304.546 56.0734C304.459 56.1286 304.39 56.2015 304.341 56.2921C304.293 56.3817 304.269 56.4801 304.268 56.5874V56.9202C304.268 57.0598 304.293 57.1796 304.345 57.2796C304.396 57.3786 304.467 57.4546 304.559 57.5077C304.65 57.5598 304.758 57.5859 304.88 57.5859C304.963 57.5859 305.037 57.5744 305.104 57.5515C305.171 57.5275 305.228 57.4926 305.277 57.4468C305.326 57.401 305.363 57.3442 305.388 57.2765L305.916 57.3359C305.883 57.4754 305.82 57.5973 305.726 57.7015C305.633 57.8046 305.514 57.8848 305.37 57.9421C305.225 57.9984 305.059 58.0265 304.873 58.0265ZM306.418 57.9796V55.5796H306.967V55.9796H306.992C307.036 55.8411 307.111 55.7343 307.217 55.6593C307.324 55.5833 307.446 55.5452 307.584 55.5452C307.615 55.5452 307.65 55.5468 307.689 55.5499C307.728 55.552 307.761 55.5557 307.787 55.5609V56.0812C307.763 56.0728 307.725 56.0656 307.673 56.0593C307.622 56.052 307.573 56.0484 307.525 56.0484C307.421 56.0484 307.329 56.0708 307.246 56.1156C307.165 56.1593 307.101 56.2202 307.054 56.2984C307.007 56.3765 306.984 56.4666 306.984 56.5687V57.9796H306.418ZM309.172 56.6749C309.172 57.0645 309.12 57.4234 309.016 57.7515C308.913 58.0786 308.759 58.3812 308.553 58.6593H308.021C308.101 58.5562 308.175 58.4301 308.243 58.2812C308.311 58.1322 308.371 57.9687 308.421 57.7906C308.472 57.6124 308.511 57.4281 308.539 57.2374C308.569 57.0468 308.583 56.8593 308.583 56.6749C308.583 56.4281 308.558 56.1781 308.508 55.9249C308.459 55.6718 308.392 55.4369 308.307 55.2202C308.222 55.0036 308.127 54.8265 308.021 54.689H308.553C308.759 54.9671 308.913 55.2702 309.016 55.5984C309.12 55.9254 309.172 56.2843 309.172 56.6749Z" fill="#4B4B4B"/>
</g>
<defs>
<filter id="filter0_d_1114_4840" x="4" y="10" width="45.8163" height="55" filterUnits="userSpaceOnUse" color-interpolation-filters="sRGB">
<feFlood flood-opacity="0" result="BackgroundImageFix"/>
<feColorMatrix in="SourceAlpha" type="matrix" values="0 0 0 0 0 0 0 0 0 0 0 0 0 0 0 0 0 0 127 0" result="hardAlpha"/>
<feOffset/>
<feGaussianBlur stdDeviation="2.5"/>
<feComposite in2="hardAlpha" operator="out"/>
<feColorMatrix type="matrix" values="0 0 0 0 0 0 0 0 0 0 0 0 0 0 0 0 0 0 0.15 0"/>
<feBlend mode="normal" in2="BackgroundImageFix" result="effect1_dropShadow_1114_4840"/>
<feBlend mode="normal" in="SourceGraphic" in2="effect1_dropShadow_1114_4840" result="shape"/>
</filter>
<filter id="filter1_d_1114_4840" x="49.8163" y="10" width="45.8163" height="55" filterUnits="userSpaceOnUse" color-interpolation-filters="sRGB">
<feFlood flood-opacity="0" result="BackgroundImageFix"/>
<feColorMatrix in="SourceAlpha" type="matrix" values="0 0 0 0 0 0 0 0 0 0 0 0 0 0 0 0 0 0 127 0" result="hardAlpha"/>
<feOffset/>
<feGaussianBlur stdDeviation="2.5"/>
<feComposite in2="hardAlpha" operator="out"/>
<feColorMatrix type="matrix" values="0 0 0 0 0 0 0 0 0 0 0 0 0 0 0 0 0 0 0.15 0"/>
<feBlend mode="normal" in2="BackgroundImageFix" result="effect1_dropShadow_1114_4840"/>
<feBlend mode="normal" in="SourceGraphic" in2="effect1_dropShadow_1114_4840" result="shape"/>
</filter>
<filter id="filter2_d_1114_4840" x="95.6327" y="10" width="45.8163" height="55" filterUnits="userSpaceOnUse" color-interpolation-filters="sRGB">
<feFlood flood-opacity="0" result="BackgroundImageFix"/>
<feColorMatrix in="SourceAlpha" type="matrix" values="0 0 0 0 0 0 0 0 0 0 0 0 0 0 0 0 0 0 127 0" result="hardAlpha"/>
<feOffset/>
<feGaussianBlur stdDeviation="2.5"/>
<feComposite in2="hardAlpha" operator="out"/>
<feColorMatrix type="matrix" values="0 0 0 0 0 0 0 0 0 0 0 0 0 0 0 0 0 0 0.15 0"/>
<feBlend mode="normal" in2="BackgroundImageFix" result="effect1_dropShadow_1114_4840"/>
<feBlend mode="normal" in="SourceGraphic" in2="effect1_dropShadow_1114_4840" result="shape"/>
</filter>
<filter id="filter3_d_1114_4840" x="141.449" y="10" width="45.8163" height="55" filterUnits="userSpaceOnUse" color-interpolation-filters="sRGB">
<feFlood flood-opacity="0" result="BackgroundImageFix"/>
<feColorMatrix in="SourceAlpha" type="matrix" values="0 0 0 0 0 0 0 0 0 0 0 0 0 0 0 0 0 0 127 0" result="hardAlpha"/>
<feOffset/>
<feGaussianBlur stdDeviation="2.5"/>
<feComposite in2="hardAlpha" operator="out"/>
<feColorMatrix type="matrix" values="0 0 0 0 0 0 0 0 0 0 0 0 0 0 0 0 0 0 0.15 0"/>
<feBlend mode="normal" in2="BackgroundImageFix" result="effect1_dropShadow_1114_4840"/>
<feBlend mode="normal" in="SourceGraphic" in2="effect1_dropShadow_1114_4840" result="shape"/>
</filter>
<filter id="filter4_d_1114_4840" x="187.265" y="10" width="45.8163" height="55" filterUnits="userSpaceOnUse" color-interpolation-filters="sRGB">
<feFlood flood-opacity="0" result="BackgroundImageFix"/>
<feColorMatrix in="SourceAlpha" type="matrix" values="0 0 0 0 0 0 0 0 0 0 0 0 0 0 0 0 0 0 127 0" result="hardAlpha"/>
<feOffset/>
<feGaussianBlur stdDeviation="2.5"/>
<feComposite in2="hardAlpha" operator="out"/>
<feColorMatrix type="matrix" values="0 0 0 0 0 0 0 0 0 0 0 0 0 0 0 0 0 0 0.15 0"/>
<feBlend mode="normal" in2="BackgroundImageFix" result="effect1_dropShadow_1114_4840"/>
<feBlend mode="normal" in="SourceGraphic" in2="effect1_dropShadow_1114_4840" result="shape"/>
</filter>
<filter id="filter5_d_1114_4840" x="233.082" y="10" width="45.8163" height="55" filterUnits="userSpaceOnUse" color-interpolation-filters="sRGB">
<feFlood flood-opacity="0" result="BackgroundImageFix"/>
<feColorMatrix in="SourceAlpha" type="matrix" values="0 0 0 0 0 0 0 0 0 0 0 0 0 0 0 0 0 0 127 0" result="hardAlpha"/>
<feOffset/>
<feGaussianBlur stdDeviation="2.5"/>
<feComposite in2="hardAlpha" operator="out"/>
<feColorMatrix type="matrix" values="0 0 0 0 0 0 0 0 0 0 0 0 0 0 0 0 0 0 0.15 0"/>
<feBlend mode="normal" in2="BackgroundImageFix" result="effect1_dropShadow_1114_4840"/>
<feBlend mode="normal" in="SourceGraphic" in2="effect1_dropShadow_1114_4840" result="shape"/>
</filter>
<filter id="filter6_d_1114_4840" x="278.898" y="10" width="45.8163" height="55" filterUnits="userSpaceOnUse" color-interpolation-filters="sRGB">
<feFlood flood-opacity="0" result="BackgroundImageFix"/>
<feColorMatrix in="SourceAlpha" type="matrix" values="0 0 0 0 0 0 0 0 0 0 0 0 0 0 0 0 0 0 127 0" result="hardAlpha"/>
<feOffset/>
<feGaussianBlur stdDeviation="2.5"/>
<feComposite in2="hardAlpha" operator="out"/>
<feColorMatrix type="matrix" values="0 0 0 0 0 0 0 0 0 0 0 0 0 0 0 0 0 0 0.15 0"/>
<feBlend mode="normal" in2="BackgroundImageFix" result="effect1_dropShadow_1114_4840"/>
<feBlend mode="normal" in="SourceGraphic" in2="effect1_dropShadow_1114_4840" result="shape"/>
</filter>
</defs>
</svg>
