<svg width="222" height="130" viewBox="0 0 222 130" fill="none" xmlns="http://www.w3.org/2000/svg">
<g clip-path="url(#clip0_1114_4840)">
<g filter="url(#filter0_d_1114_4840)">
<rect x="11.6327" y="4.5" width="42.1837" height="41.7049" fill="#FEF4A0"/>
<rect x="11.6327" y="42.3571" width="42.1837" height="15.1429" fill="white"/>
<path d="M15.5504 48.5444L16.0983 45.2049H16.5549L16.007 48.5444H15.5504ZM14.0454 47.6835L14.122 47.2269H16.6919L16.6152 47.6835H14.0454ZM14.3764 48.5444L14.9243 45.2049H15.3808L14.8329 48.5444H14.3764ZM14.2394 46.5225L14.3144 46.0659H16.8843L16.8093 46.5225H14.2394ZM17.2728 48.5444V45.2049H19.4121V45.712H17.8777V46.6187H19.2654V47.1258H17.8777V48.5444H17.2728ZM19.9633 48.5444V45.2049H22.1353V45.712H20.5683V46.6187H22.0228V47.1258H20.5683V48.0373H22.1483V48.5444H19.9633ZM22.7525 48.5444V45.2049H24.8919V45.712H23.3574V46.6187H24.7451V47.1258H23.3574V48.5444H22.7525ZM25.3501 47.9248V47.4438L26.7671 45.2049H27.1682V45.8898H26.9236L25.9697 47.4014V47.4275H27.9476V47.9248H25.3501ZM26.9432 48.5444V47.778L26.9497 47.5628V45.2049H27.5204V48.5444H26.9432ZM28.9301 48.5444H28.2844L29.46 45.2049H30.2069L31.3842 48.5444H30.7385L29.8465 45.8898H29.8204L28.9301 48.5444ZM28.9513 47.235H30.7124V47.721H28.9513V47.235ZM33.0258 48.608C32.7573 48.608 32.5268 48.5401 32.3344 48.4042C32.1431 48.2672 31.9958 48.0699 31.8925 47.8123C31.7903 47.5536 31.7393 47.2421 31.7393 46.8779C31.7403 46.5138 31.792 46.2039 31.8942 45.9485C31.9974 45.6919 32.1447 45.4963 32.3361 45.3615C32.5285 45.2267 32.7584 45.1593 33.0258 45.1593C33.2932 45.1593 33.5232 45.2267 33.7156 45.3615C33.908 45.4963 34.0553 45.6919 34.1575 45.9485C34.2607 46.205 34.3124 46.5149 34.3124 46.8779C34.3124 47.2432 34.2607 47.5552 34.1575 47.8139C34.0553 48.0716 33.908 48.2683 33.7156 48.4042C33.5242 48.5401 33.2943 48.608 33.0258 48.608ZM33.0258 48.0976C33.2345 48.0976 33.3992 47.9949 33.5199 47.7895C33.6416 47.5829 33.7025 47.2791 33.7025 46.8779C33.7025 46.6127 33.6748 46.3898 33.6194 46.2094C33.5639 46.0289 33.4856 45.893 33.3846 45.8017C33.2835 45.7093 33.1639 45.6631 33.0258 45.6631C32.8182 45.6631 32.654 45.7664 32.5334 45.9729C32.4127 46.1784 32.3518 46.4801 32.3507 46.8779C32.3496 47.1443 32.3763 47.3682 32.4306 47.5498C32.4861 47.7313 32.5643 47.8683 32.6654 47.9607C32.7665 48.052 32.8867 48.0976 33.0258 48.0976Z" fill="#FEF4A0"/>
<path d="M14.6219 50.658H17.4335V51.12H14.6219V50.658ZM14.1643 51.4368H17.8559V51.8988H14.1643V51.4368ZM14.6219 49.9056H15.2027V50.922H14.6219V49.9056ZM14.5823 52.1276H17.4203V53.1968H15.1719V53.5708H14.5867V52.792H16.8351V52.5676H14.5823V52.1276ZM14.5867 53.4476H17.5391V53.892H14.5867V53.4476ZM15.7219 50.9352H16.3027V51.7096H15.7219V50.9352ZM20.8343 49.866H21.4195V52.2816H20.8343V49.866ZM21.2523 50.8208H21.9607V51.3048H21.2523V50.8208ZM18.7663 52.4576H21.4195V53.892H18.7663V52.4576ZM20.8475 52.9152H19.3427V53.43H20.8475V52.9152ZM18.3571 51.6656H18.7003C19.5011 51.6656 19.9939 51.6524 20.5571 51.5468L20.6099 52.0088C20.0379 52.1188 19.5231 52.1408 18.7003 52.1408H18.3571V51.6656ZM18.3527 50.064H20.2139V51.3048H18.9379V51.9252H18.3571V50.8692H19.6375V50.5304H18.3527V50.064ZM22.5148 52.2397C22.5148 51.8491 22.5664 51.4903 22.6695 51.1632C22.7737 50.8351 22.9284 50.5319 23.1336 50.2538H23.6664C23.5872 50.3569 23.5133 50.4835 23.4445 50.6335C23.3758 50.7825 23.3159 50.946 23.2648 51.1241C23.2148 51.3012 23.1753 51.4851 23.1461 51.6757C23.118 51.8663 23.1039 52.0543 23.1039 52.2397C23.1039 52.4866 23.1284 52.7366 23.1773 52.9897C23.2273 53.2429 23.2945 53.4772 23.3789 53.6929C23.4643 53.9095 23.5602 54.0866 23.6664 54.2241H23.1336C22.9284 53.946 22.7737 53.6434 22.6695 53.3163C22.5664 52.9882 22.5148 52.6293 22.5148 52.2397ZM26.0027 51.7788L25.4871 51.8351C25.4725 51.783 25.447 51.734 25.4105 51.6882C25.3751 51.6424 25.3272 51.6054 25.2668 51.5772C25.2064 51.5491 25.1324 51.5351 25.0449 51.5351C24.9272 51.5351 24.8283 51.5606 24.748 51.6116C24.6689 51.6627 24.6298 51.7288 24.6309 51.8101C24.6298 51.8799 24.6553 51.9366 24.7074 51.9804C24.7605 52.0241 24.848 52.0601 24.9699 52.0882L25.3793 52.1757C25.6064 52.2246 25.7751 52.3022 25.8855 52.4085C25.997 52.5147 26.0533 52.6538 26.0543 52.8257C26.0533 52.9767 26.009 53.1101 25.9215 53.2257C25.835 53.3403 25.7147 53.4299 25.5605 53.4944C25.4064 53.559 25.2293 53.5913 25.0293 53.5913C24.7355 53.5913 24.4991 53.5299 24.3199 53.4069C24.1408 53.283 24.034 53.1106 23.9996 52.8897L24.5512 52.8366C24.5762 52.945 24.6293 53.0267 24.7105 53.0819C24.7918 53.1371 24.8975 53.1647 25.0277 53.1647C25.1621 53.1647 25.2699 53.1371 25.3512 53.0819C25.4335 53.0267 25.4746 52.9585 25.4746 52.8772C25.4746 52.8085 25.448 52.7517 25.3949 52.7069C25.3428 52.6621 25.2616 52.6278 25.1512 52.6038L24.7418 52.5179C24.5116 52.47 24.3413 52.3892 24.2309 52.2757C24.1204 52.1611 24.0658 52.0163 24.0668 51.8413C24.0658 51.6934 24.1059 51.5653 24.1871 51.4569C24.2694 51.3476 24.3835 51.2632 24.5293 51.2038C24.6762 51.1434 24.8454 51.1132 25.0371 51.1132C25.3184 51.1132 25.5397 51.1731 25.7012 51.2929C25.8637 51.4127 25.9642 51.5746 26.0027 51.7788ZM28.0504 52.5351V51.1444H28.616V53.5444H28.0676V53.1179H28.0426C27.9884 53.2522 27.8993 53.3621 27.7754 53.4476C27.6525 53.533 27.5009 53.5757 27.3207 53.5757C27.1634 53.5757 27.0243 53.5408 26.9035 53.471C26.7837 53.4002 26.69 53.2976 26.6223 53.1632C26.5546 53.0278 26.5207 52.8642 26.5207 52.6726V51.1444H27.0863V52.5851C27.0863 52.7371 27.128 52.858 27.2113 52.9476C27.2947 53.0371 27.404 53.0819 27.5395 53.0819C27.6228 53.0819 27.7035 53.0616 27.7816 53.021C27.8598 52.9804 27.9238 52.92 27.9738 52.8397C28.0249 52.7585 28.0504 52.6569 28.0504 52.5351ZM29.1977 53.5444V51.1444H29.7461V51.5444H29.7711C29.8148 51.4059 29.8898 51.2991 29.9961 51.2241C30.1034 51.1481 30.2258 51.1101 30.3633 51.1101C30.3945 51.1101 30.4294 51.1116 30.468 51.1147C30.5076 51.1168 30.5404 51.1205 30.5664 51.1257V51.646C30.5424 51.6377 30.5044 51.6304 30.4523 51.6241C30.4013 51.6168 30.3518 51.6132 30.3039 51.6132C30.2008 51.6132 30.1081 51.6356 30.0258 51.6804C29.9445 51.7241 29.8805 51.7851 29.8336 51.8632C29.7867 51.9413 29.7633 52.0314 29.7633 52.1335V53.5444H29.1977ZM30.9422 54.4444V51.1444H31.4984V51.5413H31.5313C31.5604 51.483 31.6016 51.421 31.6547 51.3554C31.7078 51.2887 31.7797 51.2319 31.8703 51.1851C31.9609 51.1371 32.0766 51.1132 32.2172 51.1132C32.4026 51.1132 32.5698 51.1606 32.7188 51.2554C32.8688 51.3491 32.9875 51.4882 33.075 51.6726C33.1635 51.8559 33.2078 52.0809 33.2078 52.3476C33.2078 52.6111 33.1646 52.8351 33.0781 53.0194C32.9917 53.2038 32.874 53.3444 32.725 53.4413C32.576 53.5382 32.4073 53.5866 32.2188 53.5866C32.0813 53.5866 31.9672 53.5637 31.8766 53.5179C31.7859 53.472 31.713 53.4168 31.6578 53.3522C31.6036 53.2866 31.5615 53.2246 31.5313 53.1663H31.5078V54.4444H30.9422ZM31.4969 52.3444C31.4969 52.4996 31.5188 52.6356 31.5625 52.7522C31.6073 52.8689 31.6714 52.9601 31.7547 53.0257C31.8391 53.0903 31.9411 53.1226 32.0609 53.1226C32.1859 53.1226 32.2906 53.0892 32.375 53.0226C32.4594 52.9549 32.5229 52.8627 32.5656 52.746C32.6094 52.6283 32.6313 52.4944 32.6313 52.3444C32.6313 52.1955 32.6099 52.0632 32.5672 51.9476C32.5245 51.8319 32.4609 51.7413 32.3766 51.6757C32.2922 51.6101 32.187 51.5772 32.0609 51.5772C31.9401 51.5772 31.8375 51.609 31.7531 51.6726C31.6688 51.7361 31.6047 51.8252 31.5609 51.9397C31.5182 52.0543 31.4969 52.1892 31.4969 52.3444ZM33.6922 53.5444V51.1444H34.2406V51.5444H34.2656C34.3094 51.4059 34.3844 51.2991 34.4906 51.2241C34.5979 51.1481 34.7203 51.1101 34.8578 51.1101C34.8891 51.1101 34.924 51.1116 34.9625 51.1147C35.0021 51.1168 35.0349 51.1205 35.0609 51.1257V51.646C35.037 51.6377 34.999 51.6304 34.9469 51.6241C34.8958 51.6168 34.8464 51.6132 34.7984 51.6132C34.6953 51.6132 34.6026 51.6356 34.5203 51.6804C34.4391 51.7241 34.375 51.7851 34.3281 51.8632C34.2813 51.9413 34.2578 52.0314 34.2578 52.1335V53.5444H33.6922ZM35.4367 53.5444V51.1444H36.0023V53.5444H35.4367ZM35.7211 50.8038C35.6315 50.8038 35.5544 50.7741 35.4898 50.7147C35.4253 50.6543 35.393 50.5819 35.393 50.4976C35.393 50.4121 35.4253 50.3397 35.4898 50.2804C35.5544 50.22 35.6315 50.1897 35.7211 50.1897C35.8117 50.1897 35.8888 50.22 35.9523 50.2804C36.0169 50.3397 36.0492 50.4121 36.0492 50.4976C36.0492 50.5819 36.0169 50.6543 35.9523 50.7147C35.8888 50.7741 35.8117 50.8038 35.7211 50.8038ZM38.4809 51.7788L37.9652 51.8351C37.9507 51.783 37.9251 51.734 37.8887 51.6882C37.8533 51.6424 37.8053 51.6054 37.7449 51.5772C37.6845 51.5491 37.6105 51.5351 37.523 51.5351C37.4053 51.5351 37.3064 51.5606 37.2262 51.6116C37.147 51.6627 37.1079 51.7288 37.109 51.8101C37.1079 51.8799 37.1335 51.9366 37.1855 51.9804C37.2387 52.0241 37.3262 52.0601 37.448 52.0882L37.8574 52.1757C38.0845 52.2246 38.2533 52.3022 38.3637 52.4085C38.4751 52.5147 38.5314 52.6538 38.5324 52.8257C38.5314 52.9767 38.4871 53.1101 38.3996 53.2257C38.3132 53.3403 38.1928 53.4299 38.0387 53.4944C37.8845 53.559 37.7074 53.5913 37.5074 53.5913C37.2137 53.5913 36.9772 53.5299 36.798 53.4069C36.6189 53.283 36.5121 53.1106 36.4777 52.8897L37.0293 52.8366C37.0543 52.945 37.1074 53.0267 37.1887 53.0819C37.2699 53.1371 37.3757 53.1647 37.5059 53.1647C37.6402 53.1647 37.748 53.1371 37.8293 53.0819C37.9116 53.0267 37.9527 52.9585 37.9527 52.8772C37.9527 52.8085 37.9262 52.7517 37.873 52.7069C37.821 52.6621 37.7397 52.6278 37.6293 52.6038L37.2199 52.5179C36.9897 52.47 36.8194 52.3892 36.709 52.2757C36.5986 52.1611 36.5439 52.0163 36.5449 51.8413C36.5439 51.6934 36.584 51.5653 36.6652 51.4569C36.7475 51.3476 36.8616 51.2632 37.0074 51.2038C37.1543 51.1434 37.3236 51.1132 37.5152 51.1132C37.7965 51.1132 38.0178 51.1731 38.1793 51.2929C38.3418 51.4127 38.4423 51.5746 38.4809 51.7788ZM40.0613 53.5913C39.8207 53.5913 39.6129 53.5413 39.4379 53.4413C39.2639 53.3403 39.1301 53.1976 39.0363 53.0132C38.9426 52.8278 38.8957 52.6095 38.8957 52.3585C38.8957 52.1116 38.9426 51.895 39.0363 51.7085C39.1311 51.521 39.2634 51.3752 39.4332 51.271C39.603 51.1658 39.8025 51.1132 40.0316 51.1132C40.1796 51.1132 40.3191 51.1371 40.4504 51.1851C40.5827 51.2319 40.6994 51.3049 40.8004 51.4038C40.9025 51.5028 40.9827 51.6288 41.041 51.7819C41.0994 51.934 41.1285 52.1153 41.1285 52.3257V52.4991H39.1613V52.1179H40.5863C40.5853 52.0095 40.5619 51.9132 40.516 51.8288C40.4702 51.7434 40.4061 51.6762 40.3238 51.6272C40.2426 51.5783 40.1478 51.5538 40.0395 51.5538C39.9238 51.5538 39.8223 51.5819 39.7348 51.6382C39.6473 51.6934 39.579 51.7663 39.5301 51.8569C39.4822 51.9465 39.4577 52.045 39.4566 52.1522V52.4851C39.4566 52.6246 39.4822 52.7444 39.5332 52.8444C39.5842 52.9434 39.6556 53.0194 39.7473 53.0726C39.8389 53.1246 39.9462 53.1507 40.0691 53.1507C40.1514 53.1507 40.2259 53.1392 40.2926 53.1163C40.3592 53.0924 40.4171 53.0575 40.466 53.0116C40.515 52.9658 40.552 52.909 40.577 52.8413L41.1051 52.9007C41.0717 53.0403 41.0082 53.1621 40.9145 53.2663C40.8217 53.3694 40.703 53.4496 40.5582 53.5069C40.4134 53.5632 40.2478 53.5913 40.0613 53.5913ZM42.4977 53.5866C42.3091 53.5866 42.1404 53.5382 41.9914 53.4413C41.8424 53.3444 41.7247 53.2038 41.6383 53.0194C41.5518 52.8351 41.5086 52.6111 41.5086 52.3476C41.5086 52.0809 41.5523 51.8559 41.6398 51.6726C41.7284 51.4882 41.8477 51.3491 41.9977 51.2554C42.1477 51.1606 42.3148 51.1132 42.4992 51.1132C42.6398 51.1132 42.7555 51.1371 42.8461 51.1851C42.9367 51.2319 43.0086 51.2887 43.0617 51.3554C43.1148 51.421 43.156 51.483 43.1852 51.5413H43.2086V50.3444H43.7758V53.5444H43.2195V53.1663H43.1852C43.156 53.2246 43.1138 53.2866 43.0586 53.3522C43.0034 53.4168 42.9305 53.472 42.8398 53.5179C42.7492 53.5637 42.6352 53.5866 42.4977 53.5866ZM42.6555 53.1226C42.7753 53.1226 42.8773 53.0903 42.9617 53.0257C43.0461 52.9601 43.1102 52.8689 43.1539 52.7522C43.1977 52.6356 43.2195 52.4996 43.2195 52.3444C43.2195 52.1892 43.1977 52.0543 43.1539 51.9397C43.1112 51.8252 43.0477 51.7361 42.9633 51.6726C42.8799 51.609 42.7773 51.5772 42.6555 51.5772C42.5294 51.5772 42.4242 51.6101 42.3398 51.6757C42.2555 51.7413 42.1919 51.8319 42.1492 51.9476C42.1065 52.0632 42.0852 52.1955 42.0852 52.3444C42.0852 52.4944 42.1065 52.6283 42.1492 52.746C42.193 52.8627 42.257 52.9549 42.3414 53.0226C42.4268 53.0892 42.5315 53.1226 42.6555 53.1226ZM45.3879 52.2397C45.3879 52.6293 45.3358 52.9882 45.2316 53.3163C45.1285 53.6434 44.9743 53.946 44.7691 54.2241H44.2363C44.3165 54.121 44.3905 53.995 44.4582 53.846C44.527 53.697 44.5863 53.5335 44.6363 53.3554C44.6874 53.1772 44.727 52.9929 44.7551 52.8022C44.7842 52.6116 44.7988 52.4241 44.7988 52.2397C44.7988 51.9929 44.7738 51.7429 44.7238 51.4897C44.6749 51.2366 44.6077 51.0017 44.5223 50.7851C44.4379 50.5684 44.3426 50.3913 44.2363 50.2538H44.7691C44.9743 50.5319 45.1285 50.8351 45.2316 51.1632C45.3358 51.4903 45.3879 51.8491 45.3879 52.2397Z" fill="#4B4B4B"/>
</g>
<g filter="url(#filter1_d_1114_4840)">
<rect x="63.8163" y="4.5" width="42.1837" height="41.7049" fill="#B3F4B2"/>
<rect x="63.8163" y="42.3571" width="42.1837" height="15.1429" fill="white"/>
<path d="M67.5418 48.5204L68.0896 45.1809H68.5462L67.9983 48.5204H67.5418ZM66.0367 47.6594L66.1133 47.2028H68.6832L68.6065 47.6594H66.0367ZM66.3677 48.5204L66.9156 45.1809H67.3722L66.8243 48.5204H66.3677ZM66.2307 46.4984L66.3057 46.0418H68.8756L68.8006 46.4984H66.2307ZM69.2641 48.5204V45.1809H70.5425C70.7838 45.1809 70.9844 45.2189 71.1442 45.295C71.3051 45.37 71.4252 45.4727 71.5046 45.6032C71.585 45.7336 71.6252 45.8815 71.6252 46.0467C71.6252 46.1826 71.5992 46.2989 71.547 46.3957C71.4948 46.4913 71.4247 46.5691 71.3366 46.6289C71.2486 46.6887 71.1502 46.7316 71.0415 46.7577V46.7903C71.16 46.7968 71.2736 46.8332 71.3823 46.8995C71.4921 46.9648 71.5818 47.0572 71.6513 47.1768C71.7209 47.2963 71.7557 47.4409 71.7557 47.6105C71.7557 47.7833 71.7138 47.9388 71.6301 48.0769C71.5464 48.2138 71.4203 48.322 71.2518 48.4014C71.0833 48.4807 70.8713 48.5204 70.6159 48.5204H69.2641ZM69.8691 48.0149H70.5197C70.7393 48.0149 70.8974 47.973 70.9942 47.8893C71.092 47.8045 71.1409 47.6958 71.1409 47.5632C71.1409 47.4643 71.1165 47.3751 71.0676 47.2958C71.0186 47.2153 70.9491 47.1523 70.8588 47.1066C70.7686 47.0599 70.661 47.0365 70.536 47.0365H69.8691V48.0149ZM69.8691 46.6011H70.4675C70.5719 46.6011 70.6659 46.5821 70.7496 46.5441C70.8333 46.5049 70.8991 46.45 70.9469 46.3794C70.9958 46.3076 71.0203 46.2228 71.0203 46.125C71.0203 45.9956 70.9746 45.8891 70.8833 45.8054C70.7931 45.7217 70.6588 45.6798 70.4805 45.6798H69.8691V46.6011ZM73.4479 48.566C73.2131 48.566 73.0043 48.5258 72.8217 48.4454C72.6402 48.3649 72.4967 48.253 72.3912 48.1095C72.2858 47.966 72.2298 47.8002 72.2233 47.6121H72.8364C72.8418 47.7024 72.8717 47.7812 72.9261 47.8486C72.9804 47.9149 73.0527 47.9665 73.1429 48.0035C73.2332 48.0404 73.3343 48.0589 73.4462 48.0589C73.5658 48.0589 73.6718 48.0383 73.7642 47.997C73.8566 47.9546 73.9289 47.8959 73.9811 47.8208C74.0333 47.7458 74.0588 47.6594 74.0577 47.5616C74.0588 47.4605 74.0327 47.3713 73.9795 47.2942C73.9262 47.217 73.849 47.1566 73.7479 47.1132C73.6479 47.0697 73.5272 47.0479 73.3859 47.0479H73.0908V46.5816H73.3859C73.5022 46.5816 73.6039 46.5615 73.6908 46.5212C73.7789 46.481 73.8479 46.4245 73.8979 46.3517C73.9479 46.2777 73.9724 46.1924 73.9713 46.0956C73.9724 46.0011 73.9512 45.919 73.9077 45.8494C73.8653 45.7788 73.805 45.7239 73.7267 45.6847C73.6495 45.6456 73.5588 45.626 73.4544 45.626C73.3522 45.626 73.2576 45.6445 73.1707 45.6815C73.0837 45.7184 73.0136 45.7712 72.9603 45.8396C72.907 45.907 72.8788 45.9875 72.8755 46.081H72.2934C72.2977 45.894 72.3515 45.7298 72.4548 45.5885C72.5592 45.4461 72.6983 45.3352 72.8723 45.2559C73.0462 45.1754 73.2413 45.1352 73.4577 45.1352C73.6805 45.1352 73.874 45.1771 74.0382 45.2608C74.2034 45.3434 74.3311 45.4548 74.4214 45.595C74.5116 45.7353 74.5567 45.8902 74.5567 46.0598C74.5578 46.2478 74.5023 46.4055 74.3904 46.5327C74.2795 46.6598 74.1338 46.743 73.9534 46.7821V46.8082C74.1882 46.8408 74.3681 46.9278 74.4931 47.0691C74.6192 47.2094 74.6817 47.3838 74.6806 47.5926C74.6806 47.7795 74.6274 47.9469 74.5208 48.0948C74.4154 48.2415 74.2697 48.3568 74.0838 48.4405C73.899 48.5242 73.687 48.566 73.4479 48.566ZM75.2729 48.5204V45.1809H77.4123V45.688H75.8779V46.5946H77.2656V47.1017H75.8779V48.5204H75.2729ZM77.8705 47.9007V47.4197L79.2875 45.1809H79.6887V45.8657H79.4441L78.4902 47.3773V47.4034H80.4681V47.9007H77.8705ZM79.4636 48.5204V47.754L79.4702 47.5388V45.1809H80.0409V48.5204H79.4636ZM81.0217 48.5204V45.1809H82.3001C82.5415 45.1809 82.742 45.2189 82.9018 45.295C83.0627 45.37 83.1828 45.4727 83.2622 45.6032C83.3426 45.7336 83.3829 45.8815 83.3829 46.0467C83.3829 46.1826 83.3568 46.2989 83.3046 46.3957C83.2524 46.4913 83.1823 46.5691 83.0942 46.6289C83.0062 46.6887 82.9078 46.7316 82.7991 46.7577V46.7903C82.9176 46.7968 83.0312 46.8332 83.1399 46.8995C83.2497 46.9648 83.3394 47.0572 83.4089 47.1768C83.4785 47.2963 83.5133 47.4409 83.5133 47.6105C83.5133 47.7833 83.4715 47.9388 83.3877 48.0769C83.304 48.2138 83.1779 48.322 83.0094 48.4014C82.8409 48.4807 82.629 48.5204 82.3735 48.5204H81.0217ZM81.6267 48.0149H82.2773C82.4969 48.0149 82.6551 47.973 82.7518 47.8893C82.8496 47.8045 82.8986 47.6958 82.8986 47.5632C82.8986 47.4643 82.8741 47.3751 82.8252 47.2958C82.7763 47.2153 82.7067 47.1523 82.6165 47.1066C82.5262 47.0599 82.4186 47.0365 82.2936 47.0365H81.6267V48.0149ZM81.6267 46.6011H82.2251C82.3295 46.6011 82.4235 46.5821 82.5072 46.5441C82.5909 46.5049 82.6567 46.45 82.7045 46.3794C82.7534 46.3076 82.7779 46.2228 82.7779 46.125C82.7779 45.9956 82.7322 45.8891 82.6409 45.8054C82.5507 45.7217 82.4164 45.6798 82.2382 45.6798H81.6267V46.6011ZM84.007 48.5204V48.0834L85.1663 46.9468C85.2772 46.8349 85.3696 46.7354 85.4436 46.6484C85.5175 46.5615 85.5729 46.4772 85.6099 46.3957C85.6468 46.3142 85.6653 46.2272 85.6653 46.1348C85.6653 46.0293 85.6414 45.9391 85.5936 45.8641C85.5457 45.788 85.48 45.7293 85.3963 45.688C85.3126 45.6467 85.2174 45.626 85.1109 45.626C85.0011 45.626 84.9049 45.6489 84.8223 45.6945C84.7397 45.7391 84.6755 45.8027 84.6299 45.8853C84.5853 45.9679 84.563 46.0663 84.563 46.1804H83.9874C83.9874 45.9685 84.0358 45.7842 84.1325 45.6277C84.2293 45.4711 84.3625 45.3499 84.532 45.264C84.7027 45.1782 84.8984 45.1352 85.1191 45.1352C85.343 45.1352 85.5398 45.1771 85.7093 45.2608C85.8789 45.3445 86.0105 45.4592 86.104 45.6048C86.1985 45.7505 86.2458 45.9168 86.2458 46.1038C86.2458 46.2288 86.2219 46.3517 86.1741 46.4723C86.1262 46.593 86.042 46.7267 85.9213 46.8735C85.8017 47.0202 85.6338 47.1979 85.4175 47.4067L84.8419 47.9921V48.0149H86.2964V48.5204H84.007Z" fill="#B3F4B2"/>
<path d="M67.7044 51.8836H68.2896V52.6008H67.7044V51.8836ZM66.1556 51.69H69.8384V52.152H66.1556V51.69ZM67.9904 52.4424C68.8704 52.4424 69.4028 52.7064 69.4028 53.1772C69.4028 53.648 68.8704 53.912 67.9904 53.912C67.106 53.912 66.5736 53.648 66.5736 53.1772C66.5736 52.7064 67.106 52.4424 67.9904 52.4424ZM67.9904 52.8824C67.4448 52.8824 67.1676 52.9748 67.1676 53.1772C67.1676 53.3752 67.4448 53.472 67.9904 53.472C68.536 53.472 68.8132 53.3752 68.8132 53.1772C68.8132 52.9748 68.536 52.8824 67.9904 52.8824ZM67.5944 50.2204H68.1136V50.3216C68.1136 50.9332 67.5636 51.4348 66.512 51.5316L66.3096 51.074C67.2028 50.9992 67.5944 50.6384 67.5944 50.3216V50.2204ZM67.8804 50.2204H68.3996V50.3216C68.3996 50.6428 68.7868 50.9992 69.6844 51.074L69.482 51.5316C68.4348 51.4348 67.8804 50.9376 67.8804 50.3216V50.2204ZM66.49 50.0048H69.5084V50.4668H66.49V50.0048ZM73.0017 49.8376H73.5913V52.1124H73.0017V49.8376ZM70.4145 51.5712H70.7709C71.5629 51.5712 72.0777 51.558 72.6673 51.4568L72.7333 51.9276C72.1261 52.0244 71.5849 52.042 70.7709 52.042H70.4145V51.5712ZM70.4101 50.0224H72.2845V51.2368H70.9909V51.8792H70.4145V50.7968H71.7081V50.4844H70.4101V50.0224ZM70.8809 52.2796H71.4573V52.6228H73.0105V52.2796H73.5913V53.868H70.8809V52.2796ZM71.4573 53.0716V53.4016H73.0105V53.0716H71.4573ZM74.5062 52.2157C74.5062 51.8251 74.5577 51.4662 74.6609 51.1391C74.765 50.811 74.9197 50.5079 75.1249 50.2298H75.6577C75.5786 50.3329 75.5046 50.4594 75.4359 50.6094C75.3671 50.7584 75.3072 50.9219 75.2562 51.1001C75.2062 51.2772 75.1666 51.461 75.1374 51.6516C75.1093 51.8423 75.0952 52.0303 75.0952 52.2157C75.0952 52.4626 75.1197 52.7126 75.1687 52.9657C75.2187 53.2188 75.2859 53.4532 75.3702 53.6688C75.4557 53.8855 75.5515 54.0626 75.6577 54.2001H75.1249C74.9197 53.9219 74.765 53.6193 74.6609 53.2923C74.5577 52.9641 74.5062 52.6053 74.5062 52.2157ZM76.6628 52.1141V53.5204H76.0972V51.1204H76.6378V51.5282H76.6659C76.7212 51.3938 76.8092 51.2871 76.93 51.2079C77.0519 51.1287 77.2024 51.0891 77.3816 51.0891C77.5472 51.0891 77.6915 51.1246 77.8144 51.1954C77.9383 51.2662 78.0342 51.3688 78.1019 51.5032C78.1706 51.6376 78.2045 51.8006 78.2034 51.9923V53.5204H77.6378V52.0798C77.6378 51.9193 77.5962 51.7938 77.5128 51.7032C77.4305 51.6126 77.3165 51.5673 77.1706 51.5673C77.0717 51.5673 76.9837 51.5891 76.9066 51.6329C76.8305 51.6756 76.7706 51.7376 76.7269 51.8188C76.6842 51.9001 76.6628 51.9985 76.6628 52.1141ZM79.8253 53.5673C79.5909 53.5673 79.3878 53.5157 79.2159 53.4126C79.0441 53.3094 78.9107 53.1652 78.8159 52.9798C78.7222 52.7943 78.6753 52.5777 78.6753 52.3298C78.6753 52.0818 78.7222 51.8647 78.8159 51.6782C78.9107 51.4917 79.0441 51.3469 79.2159 51.2438C79.3878 51.1407 79.5909 51.0891 79.8253 51.0891C80.0597 51.0891 80.2628 51.1407 80.4347 51.2438C80.6066 51.3469 80.7394 51.4917 80.8331 51.6782C80.9279 51.8647 80.9753 52.0818 80.9753 52.3298C80.9753 52.5777 80.9279 52.7943 80.8331 52.9798C80.7394 53.1652 80.6066 53.3094 80.4347 53.4126C80.2628 53.5157 80.0597 53.5673 79.8253 53.5673ZM79.8284 53.1141C79.9555 53.1141 80.0618 53.0792 80.1472 53.0094C80.2326 52.9386 80.2962 52.8438 80.3378 52.7251C80.3805 52.6063 80.4019 52.474 80.4019 52.3282C80.4019 52.1813 80.3805 52.0485 80.3378 51.9298C80.2962 51.81 80.2326 51.7147 80.1472 51.6438C80.0618 51.573 79.9555 51.5376 79.8284 51.5376C79.6982 51.5376 79.5899 51.573 79.5034 51.6438C79.418 51.7147 79.354 51.81 79.3113 51.9298C79.2696 52.0485 79.2488 52.1813 79.2488 52.3282C79.2488 52.474 79.2696 52.6063 79.3113 52.7251C79.354 52.8438 79.418 52.9386 79.5034 53.0094C79.5899 53.0792 79.6982 53.1141 79.8284 53.1141ZM81.4554 53.5204V51.1204H82.0038V51.5204H82.0288C82.0726 51.3818 82.1476 51.2751 82.2538 51.2001C82.3611 51.124 82.4835 51.086 82.621 51.086C82.6523 51.086 82.6872 51.0876 82.7257 51.0907C82.7653 51.0928 82.7981 51.0964 82.8241 51.1016V51.6219C82.8002 51.6136 82.7622 51.6063 82.7101 51.6001C82.659 51.5928 82.6096 51.5891 82.5616 51.5891C82.4585 51.5891 82.3658 51.6115 82.2835 51.6563C82.2023 51.7001 82.1382 51.761 82.0913 51.8391C82.0445 51.9173 82.021 52.0074 82.021 52.1094V53.5204H81.4554ZM83.1999 53.5204V51.1204H83.7406V51.5282H83.7687C83.8187 51.3907 83.9015 51.2834 84.0171 51.2063C84.1327 51.1282 84.2708 51.0891 84.4312 51.0891C84.5937 51.0891 84.7307 51.1287 84.8421 51.2079C84.9546 51.286 85.0338 51.3928 85.0796 51.5282H85.1046C85.1577 51.3949 85.2473 51.2886 85.3734 51.2094C85.5004 51.1292 85.651 51.0891 85.8249 51.0891C86.0458 51.0891 86.226 51.1589 86.3656 51.2985C86.5051 51.4381 86.5749 51.6417 86.5749 51.9094V53.5204H86.0077V51.9969C86.0077 51.848 85.9682 51.7391 85.889 51.6704C85.8098 51.6006 85.7129 51.5657 85.5984 51.5657C85.4619 51.5657 85.3551 51.6084 85.2781 51.6938C85.202 51.7782 85.164 51.8881 85.164 52.0235V53.5204H84.6093V51.9735C84.6093 51.8496 84.5718 51.7506 84.4968 51.6766C84.4228 51.6027 84.326 51.5657 84.2062 51.5657C84.1249 51.5657 84.051 51.5865 83.9843 51.6282C83.9176 51.6688 83.8645 51.7266 83.8249 51.8016C83.7853 51.8756 83.7656 51.9621 83.7656 52.061V53.5204H83.1999ZM87.8394 53.5688C87.6873 53.5688 87.5503 53.5417 87.4284 53.4876C87.3076 53.4324 87.2118 53.3511 87.1409 53.2438C87.0712 53.1365 87.0363 53.0042 87.0363 52.8469C87.0363 52.7115 87.0613 52.5996 87.1113 52.511C87.1613 52.4225 87.2295 52.3516 87.3159 52.2985C87.4024 52.2454 87.4998 52.2053 87.6081 52.1782C87.7175 52.1501 87.8305 52.1298 87.9472 52.1173C88.0878 52.1027 88.2019 52.0897 88.2894 52.0782C88.3769 52.0657 88.4404 52.0469 88.48 52.0219C88.5206 51.9959 88.5409 51.9558 88.5409 51.9016V51.8923C88.5409 51.7746 88.506 51.6834 88.4363 51.6188C88.3665 51.5542 88.2659 51.5219 88.1347 51.5219C87.9962 51.5219 87.8863 51.5522 87.805 51.6126C87.7248 51.673 87.6706 51.7443 87.6425 51.8266L87.1144 51.7516C87.156 51.6058 87.2248 51.4839 87.3206 51.386C87.4165 51.2871 87.5337 51.2131 87.6722 51.1641C87.8107 51.1141 87.9639 51.0891 88.1316 51.0891C88.2472 51.0891 88.3623 51.1027 88.4769 51.1298C88.5915 51.1568 88.6962 51.2016 88.7909 51.2641C88.8857 51.3256 88.9618 51.4094 89.0191 51.5157C89.0774 51.6219 89.1066 51.7548 89.1066 51.9141V53.5204H88.5628V53.1907H88.5441C88.5097 53.2574 88.4613 53.3199 88.3988 53.3782C88.3373 53.4355 88.2597 53.4818 88.1659 53.5173C88.0732 53.5516 87.9644 53.5688 87.8394 53.5688ZM87.9863 53.1532C88.0998 53.1532 88.1982 53.1308 88.2816 53.086C88.3649 53.0402 88.429 52.9798 88.4738 52.9048C88.5196 52.8298 88.5425 52.748 88.5425 52.6594V52.3766C88.5248 52.3912 88.4946 52.4048 88.4519 52.4173C88.4102 52.4298 88.3633 52.4407 88.3113 52.4501C88.2592 52.4594 88.2076 52.4678 88.1566 52.4751C88.1055 52.4824 88.0613 52.4886 88.0238 52.4938C87.9394 52.5053 87.8639 52.524 87.7972 52.5501C87.7305 52.5761 87.6779 52.6126 87.6394 52.6594C87.6008 52.7053 87.5816 52.7647 87.5816 52.8376C87.5816 52.9417 87.6196 53.0204 87.6956 53.0735C87.7717 53.1266 87.8685 53.1532 87.9863 53.1532ZM90.2409 50.3204V53.5204H89.6753V50.3204H90.2409ZM91.832 52.2157C91.832 52.6053 91.7799 52.9641 91.6757 53.2923C91.5726 53.6193 91.4184 53.9219 91.2132 54.2001H90.6804C90.7606 54.0969 90.8346 53.9709 90.9023 53.8219C90.971 53.673 91.0304 53.5094 91.0804 53.3313C91.1314 53.1532 91.171 52.9688 91.1991 52.7782C91.2283 52.5876 91.2429 52.4001 91.2429 52.2157C91.2429 51.9688 91.2179 51.7188 91.1679 51.4657C91.1189 51.2126 91.0518 50.9777 90.9663 50.761C90.882 50.5443 90.7866 50.3673 90.6804 50.2298H91.2132C91.4184 50.5079 91.5726 50.811 91.6757 51.1391C91.7799 51.4662 91.832 51.8251 91.832 52.2157Z" fill="#4B4B4B"/>
</g>
<g filter="url(#filter2_d_1114_4840)">
<rect x="116" y="4.5" width="42.1837" height="41.7049" fill="#FBCFE0"/>
<rect x="116" y="42.3571" width="42.1837" height="15.1429" fill="white"/>
<path d="M119.725 48.5204L120.273 45.1809H120.73L120.182 48.5204H119.725ZM118.22 47.6594L118.297 47.2028H120.867L120.79 47.6594H118.22ZM118.551 48.5204L119.099 45.1809H119.556L119.008 48.5204H118.551ZM118.414 46.4984L118.489 46.0418H121.059L120.984 46.4984H118.414ZM121.448 48.5204V45.1809H123.587V45.688H122.053V46.5946H123.44V47.1017H122.053V48.5204H121.448ZM124.138 48.5204V45.1809H125.417C125.658 45.1809 125.859 45.2189 126.018 45.295C126.179 45.37 126.299 45.4727 126.379 45.6032C126.459 45.7336 126.499 45.8815 126.499 46.0467C126.499 46.1826 126.473 46.2989 126.421 46.3957C126.369 46.4913 126.299 46.5691 126.211 46.6289C126.123 46.6887 126.024 46.7316 125.916 46.7577V46.7903C126.034 46.7968 126.148 46.8332 126.257 46.8995C126.366 46.9648 126.456 47.0572 126.526 47.1768C126.595 47.2963 126.63 47.4409 126.63 47.6105C126.63 47.7833 126.588 47.9388 126.504 48.0769C126.421 48.2138 126.295 48.322 126.126 48.4014C125.958 48.4807 125.746 48.5204 125.49 48.5204H124.138ZM124.743 48.0149H125.394C125.614 48.0149 125.772 47.973 125.868 47.8893C125.966 47.8045 126.015 47.6958 126.015 47.5632C126.015 47.4643 125.991 47.3751 125.942 47.2958C125.893 47.2153 125.823 47.1523 125.733 47.1066C125.643 47.0599 125.535 47.0365 125.41 47.0365H124.743V48.0149ZM124.743 46.6011H125.342C125.446 46.6011 125.54 46.5821 125.624 46.5441C125.708 46.5049 125.773 46.45 125.821 46.3794C125.87 46.3076 125.895 46.2228 125.895 46.125C125.895 45.9956 125.849 45.8891 125.758 45.8054C125.667 45.7217 125.533 45.6798 125.355 45.6798H124.743V46.6011ZM130.015 46.3076H129.405C129.387 46.2076 129.355 46.119 129.309 46.0418C129.262 45.9636 129.204 45.8973 129.134 45.8429C129.065 45.7885 128.985 45.7478 128.896 45.7206C128.808 45.6923 128.713 45.6782 128.611 45.6782C128.429 45.6782 128.268 45.7239 128.128 45.8152C127.988 45.9054 127.878 46.038 127.799 46.2131C127.719 46.387 127.68 46.5995 127.68 46.8506C127.68 47.1061 127.719 47.3213 127.799 47.4964C127.879 47.6703 127.989 47.8018 128.128 47.891C128.268 47.979 128.429 48.023 128.609 48.023C128.709 48.023 128.803 48.01 128.89 47.9839C128.978 47.9567 129.056 47.9171 129.126 47.8649C129.197 47.8127 129.256 47.7486 129.304 47.6725C129.353 47.5964 129.386 47.5094 129.405 47.4116L130.015 47.4148C129.992 47.5735 129.942 47.7225 129.866 47.8616C129.791 48.0008 129.693 48.1236 129.571 48.2301C129.449 48.3356 129.307 48.4182 129.144 48.478C128.981 48.5367 128.8 48.566 128.601 48.566C128.307 48.566 128.045 48.4981 127.815 48.3622C127.585 48.2263 127.403 48.0301 127.27 47.7736C127.138 47.517 127.071 47.2094 127.071 46.8506C127.071 46.4908 127.138 46.1832 127.272 45.9277C127.406 45.6711 127.588 45.4749 127.818 45.339C128.049 45.2032 128.31 45.1352 128.601 45.1352C128.787 45.1352 128.96 45.1613 129.119 45.2135C129.279 45.2657 129.422 45.3423 129.547 45.4434C129.672 45.5434 129.774 45.6663 129.855 45.8119C129.936 45.9565 129.99 46.1217 130.015 46.3076ZM130.569 48.5204V45.1809H132.708V45.688H131.174V46.5946H132.561V47.1017H131.174V48.5204H130.569ZM133.259 48.5204V45.1809H135.431V45.688H133.864V46.5946H135.319V47.1017H133.864V48.0133H135.444V48.5204H133.259ZM137.25 48.584C136.982 48.584 136.751 48.516 136.559 48.3802C136.367 48.2432 136.22 48.0459 136.117 47.7882C136.015 47.5295 135.964 47.2181 135.964 46.8539C135.965 46.4897 136.016 46.1799 136.119 45.9244C136.222 45.6679 136.369 45.4722 136.56 45.3374C136.753 45.2026 136.983 45.1352 137.25 45.1352C137.518 45.1352 137.748 45.2026 137.94 45.3374C138.132 45.4722 138.28 45.6679 138.382 45.9244C138.485 46.181 138.537 46.4908 138.537 46.8539C138.537 47.2191 138.485 47.5311 138.382 47.7899C138.28 48.0475 138.132 48.2443 137.94 48.3802C137.749 48.516 137.519 48.584 137.25 48.584ZM137.25 48.0736C137.459 48.0736 137.624 47.9709 137.744 47.7654C137.866 47.5589 137.927 47.255 137.927 46.8539C137.927 46.5886 137.899 46.3658 137.844 46.1853C137.788 46.0049 137.71 45.869 137.609 45.7777C137.508 45.6853 137.388 45.6391 137.25 45.6391C137.043 45.6391 136.878 45.7423 136.758 45.9489C136.637 46.1544 136.576 46.456 136.575 46.8539C136.574 47.1202 136.601 47.3442 136.655 47.5257C136.71 47.7072 136.789 47.8442 136.89 47.9366C136.991 48.0279 137.111 48.0736 137.25 48.0736Z" fill="#FBCFE0"/>
<path d="M121.257 49.8376H121.811V52.3896H121.257V49.8376ZM120.759 50.8408H121.411V51.316H120.759V50.8408ZM120.412 49.9168H120.957V52.2576H120.412V49.9168ZM118.322 50.2556H120.297V50.7044H118.322V50.2556ZM119.316 50.8364C119.827 50.8364 120.196 51.1268 120.196 51.5492C120.196 51.9716 119.827 52.2576 119.316 52.2576C118.806 52.2576 118.436 51.9716 118.436 51.5492C118.436 51.1268 118.806 50.8364 119.316 50.8364ZM119.316 51.2544C119.101 51.2544 118.955 51.36 118.955 51.5492C118.955 51.7384 119.101 51.844 119.316 51.844C119.527 51.844 119.673 51.7384 119.673 51.5492C119.673 51.36 119.527 51.2544 119.316 51.2544ZM119.021 49.8772H119.598V50.5636H119.021V49.8772ZM120.434 52.4336C121.305 52.4336 121.833 52.6976 121.833 53.1728C121.833 53.6436 121.305 53.912 120.434 53.912C119.558 53.912 119.03 53.6436 119.03 53.1728C119.03 52.6976 119.558 52.4336 120.434 52.4336ZM120.434 52.8692C119.888 52.8692 119.615 52.9616 119.615 53.1728C119.615 53.3796 119.888 53.4764 120.434 53.4764C120.975 53.4764 121.248 53.3796 121.248 53.1728C121.248 52.9616 120.975 52.8692 120.434 52.8692ZM122.387 51.8484H126.07V52.3192H122.387V51.8484ZM123.931 51.3292H124.517V51.9496H123.931V51.3292ZM122.796 52.5964H125.625V53.912H125.04V53.0584H122.796V52.5964ZM122.858 49.9388H123.434V50.2996H125.023V49.9388H125.603V51.514H122.858V49.9388ZM123.434 50.7352V51.0564H125.023V50.7352H123.434ZM126.69 52.2157C126.69 51.8251 126.741 51.4662 126.845 51.1391C126.949 50.811 127.103 50.5079 127.309 50.2298H127.841C127.762 50.3329 127.688 50.4594 127.62 50.6094C127.551 50.7584 127.491 50.9219 127.44 51.1001C127.39 51.2772 127.35 51.461 127.321 51.6516C127.293 51.8423 127.279 52.0303 127.279 52.2157C127.279 52.4626 127.303 52.7126 127.352 52.9657C127.402 53.2188 127.47 53.4532 127.554 53.6688C127.639 53.8855 127.735 54.0626 127.841 54.2001H127.309C127.103 53.9219 126.949 53.6193 126.845 53.2923C126.741 52.9641 126.69 52.6053 126.69 52.2157ZM128.847 52.1141V53.5204H128.281V50.3204H128.834V51.5282H128.862C128.918 51.3928 129.005 51.286 129.123 51.2079C129.242 51.1287 129.393 51.0891 129.576 51.0891C129.743 51.0891 129.888 51.124 130.012 51.1938C130.136 51.2636 130.232 51.3657 130.3 51.5001C130.368 51.6344 130.403 51.7985 130.403 51.9923V53.5204H129.837V52.0798C129.837 51.9183 129.795 51.7928 129.712 51.7032C129.63 51.6126 129.514 51.5673 129.365 51.5673C129.265 51.5673 129.176 51.5891 129.097 51.6329C129.018 51.6756 128.957 51.7376 128.912 51.8188C128.868 51.9001 128.847 51.9985 128.847 52.1141ZM131.67 53.5688C131.518 53.5688 131.381 53.5417 131.259 53.4876C131.138 53.4324 131.042 53.3511 130.972 53.2438C130.902 53.1365 130.867 53.0042 130.867 52.8469C130.867 52.7115 130.892 52.5996 130.942 52.511C130.992 52.4225 131.06 52.3516 131.147 52.2985C131.233 52.2454 131.33 52.2053 131.439 52.1782C131.548 52.1501 131.661 52.1298 131.778 52.1173C131.918 52.1027 132.032 52.0897 132.12 52.0782C132.207 52.0657 132.271 52.0469 132.311 52.0219C132.351 51.9959 132.372 51.9558 132.372 51.9016V51.8923C132.372 51.7746 132.337 51.6834 132.267 51.6188C132.197 51.5542 132.097 51.5219 131.965 51.5219C131.827 51.5219 131.717 51.5522 131.636 51.6126C131.555 51.673 131.501 51.7443 131.473 51.8266L130.945 51.7516C130.987 51.6058 131.055 51.4839 131.151 51.386C131.247 51.2871 131.364 51.2131 131.503 51.1641C131.641 51.1141 131.794 51.0891 131.962 51.0891C132.078 51.0891 132.193 51.1027 132.307 51.1298C132.422 51.1568 132.527 51.2016 132.622 51.2641C132.716 51.3256 132.792 51.4094 132.85 51.5157C132.908 51.6219 132.937 51.7548 132.937 51.9141V53.5204H132.393V53.1907H132.375C132.34 53.2574 132.292 53.3199 132.229 53.3782C132.168 53.4355 132.09 53.4818 131.997 53.5173C131.904 53.5516 131.795 53.5688 131.67 53.5688ZM131.817 53.1532C131.93 53.1532 132.029 53.1308 132.112 53.086C132.195 53.0402 132.26 52.9798 132.304 52.9048C132.35 52.8298 132.373 52.748 132.373 52.6594V52.3766C132.355 52.3912 132.325 52.4048 132.282 52.4173C132.241 52.4298 132.194 52.4407 132.142 52.4501C132.09 52.4594 132.038 52.4678 131.987 52.4751C131.936 52.4824 131.892 52.4886 131.854 52.4938C131.77 52.5053 131.694 52.524 131.628 52.5501C131.561 52.5761 131.509 52.6126 131.47 52.6594C131.431 52.7053 131.412 52.7647 131.412 52.8376C131.412 52.9417 131.45 53.0204 131.526 53.0735C131.602 53.1266 131.699 53.1532 131.817 53.1532ZM133.506 54.4204V51.1204H134.062V51.5173H134.095C134.124 51.4589 134.165 51.3969 134.218 51.3313C134.272 51.2647 134.343 51.2079 134.434 51.161C134.525 51.1131 134.64 51.0891 134.781 51.0891C134.966 51.0891 135.134 51.1365 135.282 51.2313C135.432 51.3251 135.551 51.4641 135.639 51.6485C135.727 51.8318 135.772 52.0568 135.772 52.3235C135.772 52.5871 135.728 52.811 135.642 52.9954C135.555 53.1798 135.438 53.3204 135.289 53.4173C135.14 53.5141 134.971 53.5626 134.782 53.5626C134.645 53.5626 134.531 53.5397 134.44 53.4938C134.35 53.448 134.277 53.3928 134.222 53.3282C134.167 53.2626 134.125 53.2006 134.095 53.1423H134.072V54.4204H133.506ZM134.061 52.3204C134.061 52.4756 134.082 52.6115 134.126 52.7282C134.171 52.8449 134.235 52.936 134.318 53.0016C134.403 53.0662 134.505 53.0985 134.625 53.0985C134.75 53.0985 134.854 53.0652 134.939 52.9985C135.023 52.9308 135.087 52.8386 135.129 52.7219C135.173 52.6042 135.195 52.4704 135.195 52.3204C135.195 52.1714 135.174 52.0391 135.131 51.9235C135.088 51.8079 135.025 51.7173 134.94 51.6516C134.856 51.586 134.751 51.5532 134.625 51.5532C134.504 51.5532 134.401 51.585 134.317 51.6485C134.232 51.7121 134.168 51.8011 134.125 51.9157C134.082 52.0303 134.061 52.1652 134.061 52.3204ZM136.256 54.4204V51.1204H136.812V51.5173H136.845C136.874 51.4589 136.915 51.3969 136.968 51.3313C137.022 51.2647 137.093 51.2079 137.184 51.161C137.275 51.1131 137.39 51.0891 137.531 51.0891C137.716 51.0891 137.884 51.1365 138.032 51.2313C138.182 51.3251 138.301 51.4641 138.389 51.6485C138.477 51.8318 138.522 52.0568 138.522 52.3235C138.522 52.5871 138.478 52.811 138.392 52.9954C138.305 53.1798 138.188 53.3204 138.039 53.4173C137.89 53.5141 137.721 53.5626 137.532 53.5626C137.395 53.5626 137.281 53.5397 137.19 53.4938C137.1 53.448 137.027 53.3928 136.972 53.3282C136.917 53.2626 136.875 53.2006 136.845 53.1423H136.822V54.4204H136.256ZM136.811 52.3204C136.811 52.4756 136.832 52.6115 136.876 52.7282C136.921 52.8449 136.985 52.936 137.068 53.0016C137.153 53.0662 137.255 53.0985 137.375 53.0985C137.5 53.0985 137.604 53.0652 137.689 52.9985C137.773 52.9308 137.837 52.8386 137.879 52.7219C137.923 52.6042 137.945 52.4704 137.945 52.3204C137.945 52.1714 137.924 52.0391 137.881 51.9235C137.838 51.8079 137.775 51.7173 137.69 51.6516C137.606 51.586 137.501 51.5532 137.375 51.5532C137.254 51.5532 137.151 51.585 137.067 51.6485C136.982 51.7121 136.918 51.8011 136.875 51.9157C136.832 52.0303 136.811 52.1652 136.811 52.3204ZM139.276 54.4204C139.199 54.4204 139.127 54.4141 139.062 54.4016C138.997 54.3902 138.946 54.3766 138.907 54.361L139.038 53.9204C139.121 53.9443 139.194 53.9558 139.259 53.9548C139.323 53.9537 139.38 53.9334 139.429 53.8938C139.479 53.8553 139.521 53.7907 139.556 53.7001L139.604 53.5704L138.734 51.1204H139.334L139.887 52.9329H139.912L140.466 51.1204H141.068L140.107 53.811C140.062 53.9381 140.003 54.0469 139.929 54.1376C139.855 54.2292 139.764 54.299 139.657 54.3469C139.551 54.3959 139.424 54.4204 139.276 54.4204ZM142.469 52.2157C142.469 52.6053 142.417 52.9641 142.313 53.2923C142.209 53.6193 142.055 53.9219 141.85 54.2001H141.317C141.397 54.0969 141.471 53.9709 141.539 53.8219C141.608 53.673 141.667 53.5094 141.717 53.3313C141.768 53.1532 141.808 52.9688 141.836 52.7782C141.865 52.5876 141.88 52.4001 141.88 52.2157C141.88 51.9688 141.855 51.7188 141.805 51.4657C141.756 51.2126 141.689 50.9777 141.603 50.761C141.519 50.5443 141.423 50.3673 141.317 50.2298H141.85C142.055 50.5079 142.209 50.811 142.313 51.1391C142.417 51.4662 142.469 51.8251 142.469 52.2157Z" fill="#4B4B4B"/>
</g>
<g filter="url(#filter3_d_1114_4840)">
<rect x="168.184" y="4.5" width="42.1837" height="41.705" fill="#FECFAD"/>
<rect x="168.184" y="42.3572" width="42.1837" height="15.1429" fill="white"/>
<path d="M172.187 49.5205L172.832 45.5873H173.37L172.725 49.5205H172.187ZM170.414 48.5065L170.504 47.9687H173.531L173.441 48.5065H170.414ZM170.804 49.5205L171.449 45.5873H171.987L171.342 49.5205H170.804ZM170.643 47.1391L170.731 46.6013H173.758L173.669 47.1391H170.643ZM174.215 49.5205V45.5873H176.735V46.1846H174.928V47.2524H176.562V47.8497H174.928V49.5205H174.215ZM177.384 49.5205V45.5873H179.942V46.1846H178.097V47.2524H179.81V47.8497H178.097V48.9232H179.958V49.5205H177.384ZM184.036 46.9144H183.318C183.297 46.7966 183.259 46.6922 183.204 46.6013C183.149 46.5091 183.081 46.431 182.999 46.367C182.917 46.303 182.823 46.255 182.718 46.223C182.615 46.1897 182.503 46.1731 182.382 46.1731C182.168 46.1731 181.979 46.2268 181.814 46.3344C181.649 46.4406 181.519 46.5968 181.426 46.803C181.332 47.0078 181.286 47.2581 181.286 47.5539C181.286 47.8548 181.332 48.1083 181.426 48.3144C181.521 48.5193 181.65 48.6742 181.814 48.7792C181.979 48.8829 182.168 48.9348 182.38 48.9348C182.498 48.9348 182.608 48.9194 182.711 48.8887C182.814 48.8566 182.907 48.8099 182.989 48.7485C183.072 48.687 183.142 48.6115 183.199 48.5218C183.256 48.4322 183.296 48.3298 183.318 48.2146L184.036 48.2184C184.009 48.4053 183.951 48.5807 183.861 48.7446C183.773 48.9085 183.657 49.0532 183.513 49.1787C183.37 49.3028 183.202 49.4002 183.01 49.4706C182.818 49.5397 182.605 49.5743 182.371 49.5743C182.025 49.5743 181.717 49.4943 181.445 49.3342C181.174 49.1742 180.96 48.9431 180.804 48.6409C180.647 48.3388 180.569 47.9764 180.569 47.5539C180.569 47.1301 180.648 46.7678 180.806 46.4669C180.963 46.1647 181.178 45.9336 181.449 45.7736C181.72 45.6135 182.028 45.5335 182.371 45.5335C182.59 45.5335 182.793 45.5642 182.982 45.6257C183.17 45.6872 183.337 45.7774 183.485 45.8965C183.632 46.0143 183.753 46.159 183.848 46.3305C183.944 46.5008 184.006 46.6954 184.036 46.9144ZM184.688 49.5205V45.5873H187.208V46.1846H185.401V47.2524H187.035V47.8497H185.401V49.5205H184.688ZM187.871 49.5205H187.111L188.495 45.5873H189.375L190.762 49.5205H190.001L188.95 46.3939H188.92L187.871 49.5205ZM187.896 47.9783H189.97V48.5506H187.896V47.9783ZM192.612 49.5205H191.28V45.5873H192.639C193.03 45.5873 193.365 45.666 193.646 45.8235C193.927 45.9797 194.144 46.2044 194.295 46.4976C194.446 46.7908 194.521 47.1416 194.521 47.5501C194.521 47.9598 194.445 48.3119 194.293 48.6063C194.142 48.9008 193.923 49.1268 193.638 49.2843C193.354 49.4418 193.012 49.5205 192.612 49.5205ZM191.992 48.904H192.578C192.852 48.904 193.08 48.8541 193.263 48.7542C193.447 48.6531 193.584 48.5026 193.676 48.3029C193.769 48.1019 193.815 47.8509 193.815 47.5501C193.815 47.2492 193.769 46.9995 193.676 46.8011C193.584 46.6013 193.448 46.4522 193.267 46.3536C193.088 46.2537 192.865 46.2038 192.599 46.2038H191.992V48.904Z" fill="#FECFAD"/>
<path d="M173.265 51.2298H174.145V51.7739H173.265V51.2298ZM173.254 52.173H174.13V52.7223H173.254V52.173ZM170.57 50.5976H173.202V51.1417H170.57V50.5976ZM171.917 51.2972C172.575 51.2972 173.042 51.6599 173.042 52.1833C173.042 52.7119 172.575 53.0695 171.917 53.0695C171.259 53.0695 170.793 52.7119 170.793 52.1833C170.793 51.6599 171.259 51.2972 171.917 51.2972ZM171.917 51.8102C171.627 51.8102 171.435 51.9346 171.435 52.1833C171.435 52.4321 171.627 52.5616 171.917 52.5616C172.202 52.5616 172.404 52.4321 172.404 52.1833C172.404 51.9346 172.202 51.8102 171.917 51.8102ZM171.575 50.1415H172.264V50.9707H171.575V50.1415ZM173.881 50.183H174.57V53.1058H173.881V50.183ZM171.373 53.3079H174.57V54.9299H171.373V53.3079ZM173.897 53.8468H172.052V54.3858H173.897V53.8468ZM177.146 52.8829H177.835V53.9764H177.146V52.8829ZM177.493 50.4265C178.519 50.4265 179.286 50.95 179.286 51.748C179.286 52.5564 178.519 53.0747 177.493 53.0747C176.467 53.0747 175.7 52.5564 175.7 51.748C175.7 50.95 176.467 50.4265 177.493 50.4265ZM177.493 50.9707C176.835 50.9707 176.379 51.2609 176.379 51.748C176.379 52.2455 176.835 52.5305 177.493 52.5305C178.151 52.5305 178.607 52.2455 178.607 51.748C178.607 51.2609 178.151 50.9707 177.493 50.9707ZM175.327 53.8675H179.669V54.4272H175.327V53.8675ZM180.389 52.9839C180.389 52.5238 180.45 52.1012 180.572 51.7159C180.694 51.3295 180.876 50.9724 181.118 50.6449H181.746C181.652 50.7663 181.565 50.9154 181.484 51.0921C181.403 51.2675 181.333 51.4601 181.273 51.6699C181.214 51.8785 181.167 52.095 181.133 52.3195C181.1 52.544 181.083 52.7655 181.083 52.9839C181.083 53.2746 181.112 53.5691 181.17 53.8672C181.228 54.1653 181.308 54.4414 181.407 54.6953C181.508 54.9505 181.62 55.1591 181.746 55.321H181.118C180.876 54.9935 180.694 54.6371 180.572 54.2518C180.45 53.8654 180.389 53.4427 180.389 52.9839ZM183.077 54.5776C182.897 54.5776 182.736 54.5457 182.593 54.4819C182.45 54.4168 182.337 54.3211 182.254 54.1948C182.172 54.0684 182.131 53.9126 182.131 53.7273C182.131 53.5679 182.16 53.436 182.219 53.3317C182.278 53.2274 182.358 53.144 182.46 53.0814C182.562 53.0188 182.677 52.9716 182.804 52.9397C182.933 52.9066 183.066 52.8827 183.204 52.8679C183.369 52.8508 183.504 52.8354 183.607 52.8219C183.71 52.8072 183.784 52.7851 183.831 52.7557C183.879 52.725 183.903 52.6778 183.903 52.614V52.6029C183.903 52.4643 183.862 52.357 183.78 52.2809C183.697 52.2048 183.579 52.1668 183.424 52.1668C183.261 52.1668 183.132 52.2024 183.036 52.2735C182.942 52.3447 182.878 52.4287 182.845 52.5256L182.223 52.4373C182.272 52.2656 182.353 52.122 182.466 52.0067C182.578 51.8901 182.717 51.803 182.88 51.7454C183.043 51.6865 183.223 51.657 183.421 51.657C183.557 51.657 183.692 51.673 183.827 51.7049C183.962 51.7368 184.086 51.7895 184.197 51.8631C184.309 51.9355 184.399 52.0343 184.466 52.1594C184.535 52.2846 184.569 52.441 184.569 52.6287V54.5205H183.929V54.1322H183.907C183.866 54.2107 183.809 54.2843 183.735 54.353C183.663 54.4205 183.572 54.4751 183.461 54.5168C183.352 54.5573 183.224 54.5776 183.077 54.5776ZM183.25 54.088C183.383 54.088 183.499 54.0617 183.597 54.0089C183.696 53.9549 183.771 53.8838 183.824 53.7954C183.878 53.7071 183.905 53.6108 183.905 53.5065V53.1734C183.884 53.1906 183.848 53.2065 183.798 53.2213C183.749 53.236 183.694 53.2489 183.632 53.2599C183.571 53.271 183.51 53.2808 183.45 53.2894C183.39 53.2979 183.338 53.3053 183.294 53.3114C183.194 53.3249 183.105 53.347 183.027 53.3777C182.948 53.4084 182.886 53.4513 182.841 53.5065C182.796 53.5605 182.773 53.6304 182.773 53.7163C182.773 53.839 182.818 53.9316 182.907 53.9942C182.997 54.0568 183.111 54.088 183.25 54.088ZM187.663 51.6938L186.656 54.5205H185.92L184.913 51.6938H185.624L186.273 53.7936H186.303L186.954 51.6938H187.663ZM189.279 54.5757C188.995 54.5757 188.751 54.5168 188.545 54.399C188.34 54.28 188.182 54.112 188.072 53.8948C187.961 53.6764 187.906 53.4194 187.906 53.1237C187.906 52.833 187.961 52.5778 188.072 52.3582C188.183 52.1373 188.339 51.9656 188.539 51.8429C188.739 51.719 188.974 51.657 189.244 51.657C189.418 51.657 189.582 51.6853 189.737 51.7417C189.893 51.7969 190.03 51.8828 190.149 51.9993C190.269 52.1159 190.364 52.2643 190.433 52.4447C190.501 52.6238 190.536 52.8373 190.536 53.0851V53.2894H188.219V52.8403H189.897C189.896 52.7127 189.868 52.5993 189.814 52.4999C189.76 52.3993 189.685 52.3201 189.588 52.2625C189.492 52.2048 189.381 52.176 189.253 52.176C189.117 52.176 188.997 52.2091 188.894 52.2754C188.791 52.3404 188.711 52.4263 188.653 52.533C188.597 52.6385 188.568 52.7545 188.567 52.8808V53.2728C188.567 53.4372 188.597 53.5783 188.657 53.6961C188.717 53.8126 188.801 53.9022 188.909 53.9647C189.017 54.0261 189.143 54.0568 189.288 54.0568C189.385 54.0568 189.473 54.0433 189.551 54.0163C189.63 53.9881 189.698 53.947 189.755 53.893C189.813 53.839 189.857 53.7721 189.886 53.6924L190.508 53.7623C190.469 53.9267 190.394 54.0703 190.284 54.1929C190.174 54.3144 190.035 54.4089 189.864 54.4763C189.693 54.5426 189.498 54.5757 189.279 54.5757ZM191.099 54.5205V51.6938H191.745V52.1649H191.775C191.826 52.0018 191.915 51.876 192.04 51.7877C192.166 51.6981 192.31 51.6534 192.472 51.6534C192.509 51.6534 192.55 51.6552 192.595 51.6589C192.642 51.6613 192.681 51.6656 192.711 51.6718V52.2846C192.683 52.2748 192.638 52.2662 192.577 52.2588C192.517 52.2502 192.459 52.2459 192.402 52.2459C192.281 52.2459 192.172 52.2723 192.075 52.3251C191.979 52.3766 191.903 52.4484 191.848 52.5404C191.793 52.6324 191.765 52.7385 191.765 52.8587V54.5205H191.099ZM195.388 52.441L194.781 52.5072C194.764 52.4459 194.734 52.3882 194.691 52.3343C194.649 52.2803 194.592 52.2367 194.521 52.2036C194.45 52.1705 194.363 52.1539 194.26 52.1539C194.121 52.1539 194.005 52.184 193.91 52.2441C193.817 52.3042 193.771 52.3821 193.772 52.4778C193.771 52.56 193.801 52.6269 193.862 52.6784C193.925 52.7299 194.028 52.7722 194.172 52.8054L194.654 52.9084C194.921 52.9661 195.12 53.0575 195.25 53.1826C195.381 53.3078 195.448 53.4715 195.449 53.674C195.448 53.8519 195.395 54.0089 195.292 54.1451C195.191 54.28 195.049 54.3856 194.867 54.4616C194.686 54.5377 194.477 54.5757 194.242 54.5757C193.896 54.5757 193.617 54.5033 193.406 54.3586C193.195 54.2126 193.069 54.0095 193.029 53.7494L193.678 53.6869C193.708 53.8145 193.77 53.9108 193.866 53.9758C193.962 54.0408 194.086 54.0733 194.24 54.0733C194.398 54.0733 194.525 54.0408 194.621 53.9758C194.718 53.9108 194.766 53.8304 194.766 53.7347C194.766 53.6537 194.735 53.5869 194.672 53.5341C194.611 53.4814 194.515 53.4409 194.385 53.4127L193.903 53.3114C193.632 53.255 193.431 53.1599 193.301 53.0262C193.171 52.8912 193.107 52.7207 193.108 52.5146C193.107 52.3404 193.154 52.1895 193.25 52.0619C193.347 51.9331 193.481 51.8337 193.653 51.7638C193.826 51.6926 194.025 51.657 194.251 51.657C194.582 51.657 194.843 51.7276 195.033 51.8687C195.224 52.0098 195.343 52.2005 195.388 52.441ZM195.998 54.5205V51.6938H196.664V54.5205H195.998ZM196.333 51.2927C196.228 51.2927 196.137 51.2577 196.061 51.1878C195.985 51.1166 195.947 51.0313 195.947 50.932C195.947 50.8314 195.985 50.7461 196.061 50.6762C196.137 50.605 196.228 50.5694 196.333 50.5694C196.44 50.5694 196.531 50.605 196.605 50.6762C196.681 50.7461 196.72 50.8314 196.72 50.932C196.72 51.0313 196.681 51.1166 196.605 51.1878C196.531 51.2577 196.44 51.2927 196.333 51.2927ZM198.582 54.5757C198.306 54.5757 198.067 54.515 197.865 54.3935C197.662 54.2721 197.505 54.1022 197.394 53.8838C197.283 53.6654 197.228 53.4102 197.228 53.1182C197.228 52.8262 197.283 52.5704 197.394 52.3508C197.505 52.1312 197.662 51.9607 197.865 51.8392C198.067 51.7178 198.306 51.657 198.582 51.657C198.858 51.657 199.098 51.7178 199.3 51.8392C199.502 51.9607 199.659 52.1312 199.769 52.3508C199.881 52.5704 199.937 52.8262 199.937 53.1182C199.937 53.4102 199.881 53.6654 199.769 53.8838C199.659 54.1022 199.502 54.2721 199.3 54.3935C199.098 54.515 198.858 54.5757 198.582 54.5757ZM198.586 54.042C198.736 54.042 198.861 54.0009 198.961 53.9187C199.062 53.8353 199.137 53.7237 199.186 53.5838C199.236 53.4439 199.261 53.2881 199.261 53.1164C199.261 52.9434 199.236 52.787 199.186 52.6471C199.137 52.506 199.062 52.3938 198.961 52.3103C198.861 52.2269 198.736 52.1852 198.586 52.1852C198.433 52.1852 198.305 52.2269 198.203 52.3103C198.103 52.3938 198.027 52.506 197.977 52.6471C197.928 52.787 197.903 52.9434 197.903 53.1164C197.903 53.2881 197.928 53.4439 197.977 53.5838C198.027 53.7237 198.103 53.8353 198.203 53.9187C198.305 54.0009 198.433 54.042 198.586 54.042ZM201.168 52.8643V54.5205H200.502V51.6938H201.139V52.1742H201.172C201.237 52.0159 201.341 51.8901 201.483 51.7969C201.627 51.7037 201.804 51.657 202.015 51.657C202.21 51.657 202.38 51.6987 202.525 51.7822C202.671 51.8656 202.784 51.9864 202.863 52.1447C202.944 52.303 202.984 52.495 202.983 52.7207V54.5205H202.317V52.8238C202.317 52.6348 202.268 52.487 202.169 52.3803C202.073 52.2735 201.938 52.2202 201.766 52.2202C201.65 52.2202 201.546 52.2459 201.455 52.2974C201.366 52.3478 201.295 52.4207 201.244 52.5164C201.194 52.6121 201.168 52.7281 201.168 52.8643ZM204.849 52.9839C204.849 53.4427 204.788 53.8654 204.665 54.2518C204.543 54.6371 204.362 54.9935 204.12 55.321H203.493C203.587 55.1996 203.674 55.0511 203.754 54.8757C203.835 54.7002 203.905 54.5076 203.964 54.2978C204.024 54.088 204.071 53.8709 204.104 53.6464C204.138 53.4219 204.155 53.201 204.155 52.9839C204.155 52.6931 204.126 52.3987 204.067 52.1005C204.009 51.8024 203.93 51.5258 203.829 51.2706C203.73 51.0154 203.618 50.8068 203.493 50.6449H204.12C204.362 50.9724 204.543 51.3295 204.665 51.7159C204.788 52.1012 204.849 52.5238 204.849 52.9839Z" fill="#4B4B4B"/>
</g>
<g filter="url(#filter4_d_1114_4840)">
<rect x="37.7245" y="72.5" width="42.1837" height="41.7049" fill="#B5D3FF"/>
<rect x="37.7245" y="110.357" width="42.1837" height="15.1429" fill="white"/>
<path d="M41.45 116.52L41.9978 113.181H42.4544L41.9065 116.52H41.45ZM39.9449 115.659L40.0215 115.203H42.5914L42.5148 115.659H39.9449ZM40.2759 116.52L40.8238 113.181H41.2804L40.7325 116.52H40.2759ZM40.1389 114.498L40.2139 114.042H42.7838L42.7088 114.498H40.1389ZM43.1723 116.52V113.181H44.4507C44.692 113.181 44.8926 113.219 45.0524 113.295C45.2133 113.37 45.3334 113.473 45.4128 113.603C45.4932 113.734 45.5334 113.881 45.5334 114.047C45.5334 114.183 45.5074 114.299 45.4552 114.396C45.403 114.491 45.3329 114.569 45.2448 114.629C45.1568 114.689 45.0584 114.732 44.9497 114.758V114.79C45.0682 114.797 45.1818 114.833 45.2905 114.9C45.4003 114.965 45.49 115.057 45.5595 115.177C45.6291 115.296 45.6639 115.441 45.6639 115.61C45.6639 115.783 45.622 115.939 45.5383 116.077C45.4546 116.214 45.3285 116.322 45.16 116.401C44.9915 116.481 44.7796 116.52 44.5241 116.52H43.1723ZM43.7773 116.015H44.4279C44.6475 116.015 44.8056 115.973 44.9024 115.889C45.0002 115.805 45.0491 115.696 45.0491 115.563C45.0491 115.464 45.0247 115.375 44.9758 115.296C44.9269 115.215 44.8573 115.152 44.7671 115.107C44.6768 115.06 44.5692 115.037 44.4442 115.037H43.7773V116.015ZM43.7773 114.601H44.3757C44.4801 114.601 44.5741 114.582 44.6578 114.544C44.7415 114.505 44.8073 114.45 44.8551 114.379C44.904 114.308 44.9285 114.223 44.9285 114.125C44.9285 113.996 44.8828 113.889 44.7915 113.805C44.7013 113.722 44.567 113.68 44.3887 113.68H43.7773V114.601ZM47.3186 116.566C47.1012 116.566 46.9066 116.525 46.7348 116.444C46.563 116.361 46.4266 116.248 46.3255 116.105C46.2255 115.961 46.1722 115.797 46.1657 115.612H46.7527C46.7636 115.749 46.8229 115.861 46.9305 115.948C47.0381 116.034 47.1675 116.077 47.3186 116.077C47.4371 116.077 47.5425 116.05 47.6349 115.995C47.7273 115.941 47.8001 115.865 47.8534 115.769C47.9067 115.672 47.9328 115.562 47.9317 115.438C47.9328 115.312 47.9061 115.2 47.8518 115.102C47.7974 115.004 47.723 114.927 47.6284 114.872C47.5338 114.815 47.4251 114.787 47.3023 114.787C47.2023 114.786 47.1039 114.804 47.0071 114.842C46.9104 114.881 46.8337 114.931 46.7772 114.992L46.2309 114.903L46.4054 113.181H48.3426V113.686H46.906L46.8098 114.572H46.8294C46.8913 114.499 46.9789 114.439 47.0919 114.391C47.205 114.342 47.3289 114.317 47.4637 114.317C47.6659 114.317 47.8463 114.365 48.0051 114.461C48.1638 114.555 48.2888 114.686 48.3801 114.852C48.4714 115.019 48.5171 115.209 48.5171 115.423C48.5171 115.644 48.466 115.84 48.3638 116.013C48.2627 116.185 48.1219 116.32 47.9415 116.419C47.7621 116.517 47.5545 116.566 47.3186 116.566ZM50.2276 116.52H49.0959V113.181H50.2504C50.582 113.181 50.8668 113.248 51.1049 113.381C51.344 113.514 51.5278 113.705 51.656 113.954C51.7843 114.203 51.8484 114.501 51.8484 114.847C51.8484 115.195 51.7838 115.494 51.6544 115.744C51.5261 115.994 51.3408 116.186 51.0984 116.32C50.857 116.454 50.5668 116.52 50.2276 116.52ZM49.7009 115.997H50.1983C50.4309 115.997 50.6249 115.955 50.7804 115.87C50.9358 115.784 51.0527 115.656 51.131 115.487C51.2092 115.316 51.2484 115.103 51.2484 114.847C51.2484 114.592 51.2092 114.38 51.131 114.211C51.0527 114.042 50.9369 113.915 50.7836 113.831C50.6315 113.747 50.4423 113.704 50.2162 113.704H49.7009V115.997ZM53.5891 116.566C53.3543 116.566 53.1456 116.526 52.963 116.445C52.7814 116.365 52.6379 116.253 52.5325 116.109C52.427 115.966 52.3711 115.8 52.3645 115.612H52.9776C52.9831 115.702 53.013 115.781 53.0673 115.849C53.1217 115.915 53.194 115.967 53.2842 116.003C53.3744 116.04 53.4755 116.059 53.5875 116.059C53.7071 116.059 53.8131 116.038 53.9055 115.997C53.9979 115.955 54.0702 115.896 54.1223 115.821C54.1745 115.746 54.2001 115.659 54.199 115.562C54.2001 115.46 54.174 115.371 54.1207 115.294C54.0674 115.217 53.9903 115.157 53.8892 115.113C53.7892 115.07 53.6685 115.048 53.5272 115.048H53.232V114.582H53.5272C53.6435 114.582 53.7451 114.561 53.8321 114.521C53.9201 114.481 53.9892 114.424 54.0392 114.352C54.0892 114.278 54.1137 114.192 54.1126 114.096C54.1137 114.001 54.0925 113.919 54.049 113.849C54.0066 113.779 53.9462 113.724 53.868 113.685C53.7908 113.646 53.7 113.626 53.5957 113.626C53.4935 113.626 53.3989 113.645 53.3119 113.681C53.225 113.718 53.1548 113.771 53.1016 113.84C53.0483 113.907 53.02 113.987 53.0168 114.081H52.4347C52.439 113.894 52.4928 113.73 52.5961 113.589C52.7004 113.446 52.8396 113.335 53.0135 113.256C53.1875 113.175 53.3826 113.135 53.5989 113.135C53.8218 113.135 54.0153 113.177 54.1794 113.261C54.3447 113.343 54.4724 113.455 54.5626 113.595C54.6528 113.735 54.698 113.89 54.698 114.06C54.699 114.248 54.6436 114.405 54.5316 114.533C54.4208 114.66 54.2751 114.743 54.0946 114.782V114.808C54.3294 114.841 54.5093 114.928 54.6344 115.069C54.7605 115.209 54.823 115.384 54.8219 115.593C54.8219 115.78 54.7686 115.947 54.6621 116.095C54.5566 116.242 54.411 116.357 54.2251 116.44C54.0403 116.524 53.8283 116.566 53.5891 116.566ZM55.4142 116.52V113.181H57.5536V113.688H56.0192V114.595H57.4068V115.102H56.0192V116.52H55.4142ZM58.1047 116.52V113.181H60.2441V113.688H58.7097V114.595H60.0974V115.102H58.7097V116.52H58.1047Z" fill="#B4D3FF"/>
<path d="M41.6082 117.868H42.101V117.943C42.101 118.63 41.4894 119.171 40.4378 119.29L40.2442 118.85C41.1638 118.757 41.6082 118.344 41.6082 117.943V117.868ZM41.7094 117.868H42.2066V117.943C42.2066 118.344 42.6466 118.757 43.5662 118.85L43.3726 119.29C42.321 119.171 41.7094 118.63 41.7094 117.943V117.868ZM40.0638 119.448H43.7466V119.91H40.0638V119.448ZM40.4862 120.148H43.3022V121.208H41.067V121.556H40.4906V120.803H42.7258V120.583H40.4862V120.148ZM40.4906 121.446H43.4078V121.886H40.4906V121.446ZM44.1115 119.787H47.7943V120.249H44.1115V119.787ZM44.4327 117.965H47.4687V118.432H44.4327V117.965ZM44.4635 119.052H47.4379V119.518H44.4635V119.052ZM44.9519 118.137H45.5371V119.347H44.9519V118.137ZM46.3643 118.137H46.9495V119.347H46.3643V118.137ZM44.5383 120.539H47.3543V121.868H44.5383V120.539ZM46.7823 120.997H45.1147V121.406H46.7823V120.997ZM48.4144 120.216C48.4144 119.825 48.4659 119.466 48.5691 119.139C48.6732 118.811 48.8279 118.508 49.0331 118.23H49.5659C49.4868 118.333 49.4128 118.459 49.3441 118.609C49.2753 118.758 49.2154 118.922 49.1644 119.1C49.1144 119.277 49.0748 119.461 49.0456 119.652C49.0175 119.842 49.0034 120.03 49.0034 120.216C49.0034 120.463 49.0279 120.713 49.0769 120.966C49.1269 121.219 49.1941 121.453 49.2784 121.669C49.3639 121.885 49.4597 122.063 49.5659 122.2H49.0331C48.8279 121.922 48.6732 121.619 48.5691 121.292C48.4659 120.964 48.4144 120.605 48.4144 120.216ZM51.9023 119.755L51.3866 119.811C51.3721 119.759 51.3465 119.71 51.3101 119.664C51.2747 119.618 51.2268 119.581 51.1663 119.553C51.1059 119.525 51.032 119.511 50.9445 119.511C50.8268 119.511 50.7278 119.537 50.6476 119.588C50.5684 119.639 50.5294 119.705 50.5304 119.786C50.5294 119.856 50.5549 119.913 50.607 119.956C50.6601 120 50.7476 120.036 50.8695 120.064L51.2788 120.152C51.5059 120.201 51.6747 120.278 51.7851 120.384C51.8965 120.491 51.9528 120.63 51.9538 120.802C51.9528 120.953 51.9085 121.086 51.821 121.202C51.7346 121.316 51.6143 121.406 51.4601 121.47C51.3059 121.535 51.1288 121.567 50.9288 121.567C50.6351 121.567 50.3986 121.506 50.2195 121.383C50.0403 121.259 49.9335 121.087 49.8991 120.866L50.4507 120.813C50.4757 120.921 50.5288 121.003 50.6101 121.058C50.6913 121.113 50.7971 121.141 50.9273 121.141C51.0616 121.141 51.1695 121.113 51.2507 121.058C51.333 121.003 51.3741 120.934 51.3741 120.853C51.3741 120.784 51.3476 120.728 51.2945 120.683C51.2424 120.638 51.1611 120.604 51.0507 120.58L50.6413 120.494C50.4111 120.446 50.2408 120.365 50.1304 120.252C50.02 120.137 49.9653 119.992 49.9663 119.817C49.9653 119.669 50.0054 119.541 50.0866 119.433C50.1689 119.324 50.283 119.239 50.4288 119.18C50.5757 119.119 50.745 119.089 50.9366 119.089C51.2179 119.089 51.4393 119.149 51.6007 119.269C51.7632 119.389 51.8637 119.551 51.9023 119.755ZM53.1109 121.569C52.9588 121.569 52.8218 121.542 52.6999 121.488C52.5791 121.432 52.4833 121.351 52.4124 121.244C52.3426 121.137 52.3077 121.004 52.3077 120.847C52.3077 120.712 52.3327 120.6 52.3827 120.511C52.4327 120.422 52.501 120.352 52.5874 120.299C52.6739 120.245 52.7713 120.205 52.8796 120.178C52.989 120.15 53.102 120.13 53.2187 120.117C53.3593 120.103 53.4734 120.09 53.5609 120.078C53.6484 120.066 53.7119 120.047 53.7515 120.022C53.7921 119.996 53.8124 119.956 53.8124 119.902V119.892C53.8124 119.775 53.7775 119.683 53.7077 119.619C53.6379 119.554 53.5374 119.522 53.4062 119.522C53.2676 119.522 53.1577 119.552 53.0765 119.613C52.9963 119.673 52.9421 119.744 52.914 119.827L52.3859 119.752C52.4275 119.606 52.4963 119.484 52.5921 119.386C52.6879 119.287 52.8051 119.213 52.9437 119.164C53.0822 119.114 53.2353 119.089 53.4031 119.089C53.5187 119.089 53.6338 119.103 53.7484 119.13C53.8629 119.157 53.9676 119.202 54.0624 119.264C54.1572 119.326 54.2333 119.409 54.2906 119.516C54.3489 119.622 54.3781 119.755 54.3781 119.914V121.52H53.8343V121.191H53.8156C53.7812 121.257 53.7327 121.32 53.6702 121.378C53.6088 121.435 53.5312 121.482 53.4374 121.517C53.3447 121.552 53.2359 121.569 53.1109 121.569ZM53.2577 121.153C53.3713 121.153 53.4697 121.131 53.5531 121.086C53.6364 121.04 53.7004 120.98 53.7452 120.905C53.7911 120.83 53.814 120.748 53.814 120.659V120.377C53.7963 120.391 53.7661 120.405 53.7234 120.417C53.6817 120.43 53.6348 120.441 53.5827 120.45C53.5307 120.459 53.4791 120.468 53.4281 120.475C53.377 120.482 53.3327 120.489 53.2952 120.494C53.2109 120.505 53.1353 120.524 53.0687 120.55C53.002 120.576 52.9494 120.613 52.9109 120.659C52.8723 120.705 52.8531 120.765 52.8531 120.838C52.8531 120.942 52.8911 121.02 52.9671 121.074C53.0432 121.127 53.14 121.153 53.2577 121.153ZM55.8374 121.563C55.6489 121.563 55.4801 121.514 55.3312 121.417C55.1822 121.32 55.0645 121.18 54.9781 120.995C54.8916 120.811 54.8484 120.587 54.8484 120.324C54.8484 120.057 54.8921 119.832 54.9796 119.649C55.0682 119.464 55.1874 119.325 55.3374 119.231C55.4874 119.137 55.6546 119.089 55.839 119.089C55.9796 119.089 56.0952 119.113 56.1859 119.161C56.2765 119.208 56.3484 119.265 56.4015 119.331C56.4546 119.397 56.4958 119.459 56.5249 119.517H56.5484V118.32H57.1156V121.52H56.5593V121.142H56.5249C56.4958 121.201 56.4536 121.263 56.3984 121.328C56.3432 121.393 56.2702 121.448 56.1796 121.494C56.089 121.54 55.9749 121.563 55.8374 121.563ZM55.9952 121.099C56.115 121.099 56.2171 121.066 56.3015 121.002C56.3859 120.936 56.4499 120.845 56.4937 120.728C56.5374 120.612 56.5593 120.476 56.5593 120.32C56.5593 120.165 56.5374 120.03 56.4937 119.916C56.451 119.801 56.3874 119.712 56.3031 119.649C56.2197 119.585 56.1171 119.553 55.9952 119.553C55.8692 119.553 55.764 119.586 55.6796 119.652C55.5952 119.717 55.5317 119.808 55.489 119.924C55.4463 120.039 55.4249 120.171 55.4249 120.32C55.4249 120.47 55.4463 120.604 55.489 120.722C55.5327 120.839 55.5968 120.931 55.6812 120.999C55.7666 121.065 55.8713 121.099 55.9952 121.099ZM58.7277 120.216C58.7277 120.605 58.6756 120.964 58.5714 121.292C58.4683 121.619 58.3141 121.922 58.1089 122.2H57.5761C57.6563 122.097 57.7303 121.971 57.798 121.822C57.8667 121.673 57.9261 121.509 57.9761 121.331C58.0271 121.153 58.0667 120.969 58.0948 120.778C58.124 120.588 58.1386 120.4 58.1386 120.216C58.1386 119.969 58.1136 119.719 58.0636 119.466C58.0146 119.213 57.9475 118.978 57.862 118.761C57.7777 118.544 57.6823 118.367 57.5761 118.23H58.1089C58.3141 118.508 58.4683 118.811 58.5714 119.139C58.6756 119.466 58.7277 119.825 58.7277 120.216Z" fill="#4B4B4B"/>
</g>
<g filter="url(#filter5_d_1114_4840)">
<rect x="89.9082" y="72.5" width="42.1837" height="41.7049" fill="#DBD3FB"/>
<rect x="89.9082" y="110.357" width="42.1837" height="15.1429" fill="white"/>
<path d="M93.6337 116.52L94.1816 113.181H94.6381L94.0902 116.52H93.6337ZM92.1286 115.659L92.2052 115.203H94.7751L94.6985 115.659H92.1286ZM92.4596 116.52L93.0075 113.181H93.4641L92.9162 116.52H92.4596ZM92.3226 114.498L92.3977 114.042H94.9675L94.8925 114.498H92.3226ZM96.4877 116.52H95.356V113.181H96.5105C96.8421 113.181 97.1269 113.248 97.3649 113.381C97.6041 113.514 97.7878 113.705 97.9161 113.954C98.0444 114.203 98.1085 114.501 98.1085 114.847C98.1085 115.195 98.0438 115.494 97.9145 115.744C97.7862 115.994 97.6008 116.186 97.3584 116.32C97.1171 116.454 96.8268 116.52 96.4877 116.52ZM95.961 115.997H96.4583C96.691 115.997 96.885 115.955 97.0405 115.87C97.1959 115.784 97.3128 115.656 97.391 115.487C97.4693 115.316 97.5084 115.103 97.5084 114.847C97.5084 114.592 97.4693 114.38 97.391 114.211C97.3128 114.042 97.197 113.915 97.0437 113.831C96.8915 113.747 96.7024 113.704 96.4763 113.704H95.961V115.997ZM98.6833 116.52V113.181H99.9617C100.203 113.181 100.404 113.219 100.563 113.295C100.724 113.37 100.844 113.473 100.924 113.603C101.004 113.734 101.044 113.881 101.044 114.047C101.044 114.183 101.018 114.299 100.966 114.396C100.914 114.491 100.844 114.569 100.756 114.629C100.668 114.689 100.569 114.732 100.461 114.758V114.79C100.579 114.797 100.693 114.833 100.801 114.9C100.911 114.965 101.001 115.057 101.071 115.177C101.14 115.296 101.175 115.441 101.175 115.61C101.175 115.783 101.133 115.939 101.049 116.077C100.966 116.214 100.84 116.322 100.671 116.401C100.503 116.481 100.291 116.52 100.035 116.52H98.6833ZM99.2883 116.015H99.9389C100.158 116.015 100.317 115.973 100.413 115.889C100.511 115.805 100.56 115.696 100.56 115.563C100.56 115.464 100.536 115.375 100.487 115.296C100.438 115.215 100.368 115.152 100.278 115.107C100.188 115.06 100.08 115.037 99.9552 115.037H99.2883V116.015ZM99.2883 114.601H99.8867C99.9911 114.601 100.085 114.582 100.169 114.544C100.253 114.505 100.318 114.45 100.366 114.379C100.415 114.308 100.439 114.223 100.439 114.125C100.439 113.996 100.394 113.889 100.303 113.805C100.212 113.722 100.078 113.68 99.8998 113.68H99.2883V114.601ZM102.833 116.52H101.701V113.181H102.856C103.187 113.181 103.472 113.248 103.71 113.381C103.949 113.514 104.133 113.705 104.261 113.954C104.39 114.203 104.454 114.501 104.454 114.847C104.454 115.195 104.389 115.494 104.26 115.744C104.131 115.994 103.946 116.186 103.704 116.32C103.462 116.454 103.172 116.52 102.833 116.52ZM102.306 115.997H102.803C103.036 115.997 103.23 115.955 103.386 115.87C103.541 115.784 103.658 115.656 103.736 115.487C103.814 115.316 103.854 115.103 103.854 114.847C103.854 114.592 103.814 114.38 103.736 114.211C103.658 114.042 103.542 113.915 103.389 113.831C103.237 113.747 103.048 113.704 102.821 113.704H102.306V115.997ZM106.194 116.566C105.96 116.566 105.751 116.526 105.568 116.445C105.387 116.365 105.243 116.253 105.138 116.109C105.032 115.966 104.976 115.8 104.97 115.612H105.583C105.588 115.702 105.618 115.781 105.673 115.849C105.727 115.915 105.799 115.967 105.889 116.003C105.98 116.04 106.081 116.059 106.193 116.059C106.312 116.059 106.418 116.038 106.511 115.997C106.603 115.955 106.675 115.896 106.728 115.821C106.78 115.746 106.805 115.659 106.804 115.562C106.805 115.46 106.779 115.371 106.726 115.294C106.673 115.217 106.595 115.157 106.494 115.113C106.394 115.07 106.274 115.048 106.132 115.048H105.837V114.582H106.132C106.249 114.582 106.35 114.561 106.437 114.521C106.525 114.481 106.594 114.424 106.644 114.352C106.694 114.278 106.719 114.192 106.718 114.096C106.719 114.001 106.698 113.919 106.654 113.849C106.612 113.779 106.551 113.724 106.473 113.685C106.396 113.646 106.305 113.626 106.201 113.626C106.099 113.626 106.004 113.645 105.917 113.681C105.83 113.718 105.76 113.771 105.707 113.84C105.654 113.907 105.625 113.987 105.622 114.081H105.04C105.044 113.894 105.098 113.73 105.201 113.589C105.306 113.446 105.445 113.335 105.619 113.256C105.793 113.175 105.988 113.135 106.204 113.135C106.427 113.135 106.621 113.177 106.785 113.261C106.95 113.343 107.078 113.455 107.168 113.595C107.258 113.735 107.303 113.89 107.303 114.06C107.304 114.248 107.249 114.405 107.137 114.533C107.026 114.66 106.88 114.743 106.7 114.782V114.808C106.935 114.841 107.115 114.928 107.24 115.069C107.366 115.209 107.428 115.384 107.427 115.593C107.427 115.78 107.374 115.947 107.267 116.095C107.162 116.242 107.016 116.357 106.83 116.44C106.646 116.524 106.434 116.566 106.194 116.566ZM108.019 116.52V113.181H110.159V113.688H108.624V114.595H110.012V115.102H108.624V116.52H108.019ZM110.71 116.52V113.181H111.988C112.23 113.181 112.43 113.219 112.59 113.295C112.751 113.37 112.871 113.473 112.95 113.603C113.031 113.734 113.071 113.881 113.071 114.047C113.071 114.183 113.045 114.299 112.993 114.396C112.941 114.491 112.871 114.569 112.782 114.629C112.694 114.689 112.596 114.732 112.487 114.758V114.79C112.606 114.797 112.719 114.833 112.828 114.9C112.938 114.965 113.028 115.057 113.097 115.177C113.167 115.296 113.202 115.441 113.202 115.61C113.202 115.783 113.16 115.939 113.076 116.077C112.992 116.214 112.866 116.322 112.698 116.401C112.529 116.481 112.317 116.52 112.062 116.52H110.71ZM111.315 116.015H111.966C112.185 116.015 112.343 115.973 112.44 115.889C112.538 115.805 112.587 115.696 112.587 115.563C112.587 115.464 112.562 115.375 112.513 115.296C112.465 115.215 112.395 115.152 112.305 115.107C112.214 115.06 112.107 115.037 111.982 115.037H111.315V116.015ZM111.315 114.601H111.913C112.018 114.601 112.112 114.582 112.195 114.544C112.279 114.505 112.345 114.45 112.393 114.379C112.442 114.308 112.466 114.223 112.466 114.125C112.466 113.996 112.42 113.889 112.329 113.805C112.239 113.722 112.105 113.68 111.926 113.68H111.315V114.601Z" fill="#DBD3FB"/>
<path d="M94.0691 120.372C94.9491 120.372 95.5123 120.662 95.5123 121.146C95.5123 121.622 94.9491 121.912 94.0691 121.912C93.1891 121.912 92.6259 121.622 92.6259 121.146C92.6259 120.662 93.1891 120.372 94.0691 120.372ZM94.0691 120.812C93.5191 120.812 93.2067 120.926 93.2067 121.146C93.2067 121.362 93.5191 121.472 94.0691 121.472C94.6191 121.472 94.9315 121.362 94.9315 121.146C94.9315 120.926 94.6191 120.812 94.0691 120.812ZM92.6699 118.018H95.2483V118.48H92.6699V118.018ZM92.2563 119.655H95.9259V120.121H92.2563V119.655ZM93.6159 118.946H94.1967V119.774H93.6159V118.946ZM94.9095 118.018H95.4903V118.352C95.4903 118.674 95.4903 119.021 95.3803 119.444L94.7995 119.382C94.9095 118.964 94.9095 118.669 94.9095 118.352V118.018ZM96.2996 120.979H99.9868V121.459H96.2996V120.979ZM97.8396 120.06H98.4248V121.195H97.8396V120.06ZM96.5812 118.172H99.6832V118.638H96.5812V118.172ZM96.5988 119.796H99.67V120.253H96.5988V119.796ZM97.1356 118.559H97.7208V119.848H97.1356V118.559ZM98.548 118.559H99.1288V119.848H98.548V118.559ZM100.598 120.216C100.598 119.825 100.65 119.466 100.753 119.139C100.857 118.811 101.012 118.508 101.217 118.23H101.75C101.67 118.333 101.597 118.459 101.528 118.609C101.459 118.758 101.399 118.922 101.348 119.1C101.298 119.277 101.259 119.461 101.229 119.652C101.201 119.842 101.187 120.03 101.187 120.216C101.187 120.463 101.212 120.713 101.261 120.966C101.311 121.219 101.378 121.453 101.462 121.669C101.548 121.885 101.643 122.063 101.75 122.2H101.217C101.012 121.922 100.857 121.619 100.753 121.292C100.65 120.964 100.598 120.605 100.598 120.216ZM103.405 119.12V119.558H101.986V119.12H103.405ZM102.341 121.52V118.894C102.341 118.732 102.374 118.598 102.441 118.491C102.508 118.383 102.599 118.303 102.713 118.25C102.826 118.197 102.952 118.17 103.091 118.17C103.189 118.17 103.276 118.178 103.352 118.194C103.428 118.209 103.484 118.224 103.52 118.236L103.408 118.674C103.384 118.666 103.354 118.659 103.317 118.652C103.281 118.643 103.24 118.639 103.195 118.639C103.09 118.639 103.016 118.665 102.972 118.716C102.929 118.766 102.908 118.838 102.908 118.931V121.52H102.341ZM104.82 121.567C104.579 121.567 104.372 121.517 104.197 121.417C104.023 121.316 103.889 121.174 103.795 120.989C103.701 120.804 103.654 120.585 103.654 120.334C103.654 120.088 103.701 119.871 103.795 119.684C103.89 119.497 104.022 119.351 104.192 119.247C104.362 119.142 104.561 119.089 104.79 119.089C104.938 119.089 105.078 119.113 105.209 119.161C105.341 119.208 105.458 119.281 105.559 119.38C105.661 119.479 105.741 119.605 105.8 119.758C105.858 119.91 105.887 120.091 105.887 120.302V120.475H103.92V120.094H105.345C105.344 119.985 105.32 119.889 105.275 119.805C105.229 119.719 105.165 119.652 105.082 119.603C105.001 119.554 104.906 119.53 104.798 119.53C104.682 119.53 104.581 119.558 104.493 119.614C104.406 119.669 104.338 119.742 104.289 119.833C104.241 119.922 104.216 120.021 104.215 120.128V120.461C104.215 120.601 104.241 120.72 104.292 120.82C104.343 120.919 104.414 120.995 104.506 121.049C104.598 121.101 104.705 121.127 104.828 121.127C104.91 121.127 104.985 121.115 105.051 121.092C105.118 121.068 105.176 121.033 105.225 120.988C105.274 120.942 105.311 120.885 105.336 120.817L105.864 120.877C105.83 121.016 105.767 121.138 105.673 121.242C105.58 121.345 105.462 121.426 105.317 121.483C105.172 121.539 105.006 121.567 104.82 121.567ZM107.056 121.569C106.904 121.569 106.767 121.542 106.645 121.488C106.525 121.432 106.429 121.351 106.358 121.244C106.288 121.137 106.253 121.004 106.253 120.847C106.253 120.712 106.278 120.6 106.328 120.511C106.378 120.422 106.446 120.352 106.533 120.299C106.619 120.245 106.717 120.205 106.825 120.178C106.934 120.15 107.047 120.13 107.164 120.117C107.305 120.103 107.419 120.09 107.506 120.078C107.594 120.066 107.657 120.047 107.697 120.022C107.738 119.996 107.758 119.956 107.758 119.902V119.892C107.758 119.775 107.723 119.683 107.653 119.619C107.583 119.554 107.483 119.522 107.352 119.522C107.213 119.522 107.103 119.552 107.022 119.613C106.942 119.673 106.888 119.744 106.859 119.827L106.331 119.752C106.373 119.606 106.442 119.484 106.538 119.386C106.633 119.287 106.751 119.213 106.889 119.164C107.028 119.114 107.181 119.089 107.348 119.089C107.464 119.089 107.579 119.103 107.694 119.13C107.808 119.157 107.913 119.202 108.008 119.264C108.103 119.326 108.179 119.409 108.236 119.516C108.294 119.622 108.323 119.755 108.323 119.914V121.52H107.78V121.191H107.761C107.727 121.257 107.678 121.32 107.616 121.378C107.554 121.435 107.477 121.482 107.383 121.517C107.29 121.552 107.181 121.569 107.056 121.569ZM107.203 121.153C107.317 121.153 107.415 121.131 107.498 121.086C107.582 121.04 107.646 120.98 107.691 120.905C107.737 120.83 107.759 120.748 107.759 120.659V120.377C107.742 120.391 107.712 120.405 107.669 120.417C107.627 120.43 107.58 120.441 107.528 120.45C107.476 120.459 107.425 120.468 107.373 120.475C107.322 120.482 107.278 120.489 107.241 120.494C107.156 120.505 107.081 120.524 107.014 120.55C106.947 120.576 106.895 120.613 106.856 120.659C106.818 120.705 106.798 120.765 106.798 120.838C106.798 120.942 106.837 121.02 106.913 121.074C106.989 121.127 107.085 121.153 107.203 121.153ZM108.892 121.52V119.12H109.441V119.52H109.466C109.509 119.382 109.584 119.275 109.691 119.2C109.798 119.124 109.92 119.086 110.058 119.086C110.089 119.086 110.124 119.088 110.163 119.091C110.202 119.093 110.235 119.096 110.261 119.102V119.622C110.237 119.614 110.199 119.606 110.147 119.6C110.096 119.593 110.046 119.589 109.998 119.589C109.895 119.589 109.803 119.612 109.72 119.656C109.639 119.7 109.575 119.761 109.528 119.839C109.481 119.917 109.458 120.007 109.458 120.109V121.52H108.892ZM111.646 120.216C111.646 120.605 111.594 120.964 111.49 121.292C111.387 121.619 111.233 121.922 111.027 122.2H110.495C110.575 122.097 110.649 121.971 110.716 121.822C110.785 121.673 110.845 121.509 110.895 121.331C110.946 121.153 110.985 120.969 111.013 120.778C111.042 120.588 111.057 120.4 111.057 120.216C111.057 119.969 111.032 119.719 110.982 119.466C110.933 119.213 110.866 118.978 110.781 118.761C110.696 118.544 110.601 118.367 110.495 118.23H111.027C111.233 118.508 111.387 118.811 111.49 119.139C111.594 119.466 111.646 119.825 111.646 120.216Z" fill="#4B4B4B"/>
</g>
<g filter="url(#filter6_d_1114_4840)">
<rect x="142.092" y="72.5" width="42.1837" height="41.7049" fill="#FF9191"/>
<rect x="142.092" y="110.357" width="42.1837" height="15.1429" fill="white"/>
<path d="M145.817 116.52L146.365 113.181H146.822L146.274 116.52H145.817ZM144.312 115.659L144.389 115.203H146.959L146.882 115.659H144.312ZM144.643 116.52L145.191 113.181H145.648L145.1 116.52H144.643ZM144.506 114.498L144.581 114.042H147.151L147.076 114.498H144.506ZM147.54 116.52V113.181H149.679V113.688H148.145V114.595H149.532V115.102H148.145V116.52H147.54ZM150.23 116.52V113.181H152.37V113.688H150.835V114.595H152.223V115.102H150.835V116.52H150.23ZM154.047 113.135C154.207 113.136 154.363 113.165 154.514 113.22C154.666 113.274 154.803 113.363 154.925 113.487C155.046 113.61 155.143 113.775 155.215 113.982C155.287 114.188 155.323 114.444 155.323 114.748C155.324 115.035 155.293 115.291 155.231 115.518C155.17 115.743 155.083 115.933 154.969 116.088C154.855 116.244 154.717 116.362 154.556 116.444C154.395 116.525 154.214 116.566 154.013 116.566C153.802 116.566 153.615 116.525 153.452 116.442C153.29 116.359 153.159 116.246 153.059 116.103C152.959 115.959 152.898 115.795 152.875 115.61H153.47C153.501 115.743 153.563 115.849 153.656 115.927C153.751 116.004 153.87 116.043 154.013 116.043C154.245 116.043 154.423 115.942 154.548 115.741C154.673 115.54 154.736 115.26 154.736 114.903H154.713C154.659 114.998 154.59 115.081 154.506 115.151C154.421 115.219 154.325 115.272 154.217 115.309C154.11 115.346 153.997 115.364 153.878 115.364C153.682 115.364 153.506 115.318 153.35 115.224C153.194 115.131 153.071 115.002 152.979 114.839C152.889 114.676 152.843 114.49 152.842 114.28C152.842 114.062 152.892 113.867 152.992 113.695C153.094 113.521 153.234 113.384 153.415 113.284C153.595 113.182 153.806 113.133 154.047 113.135ZM154.049 113.624C153.932 113.624 153.826 113.653 153.731 113.711C153.638 113.767 153.564 113.845 153.509 113.942C153.456 114.039 153.429 114.147 153.429 114.267C153.431 114.385 153.457 114.493 153.509 114.59C153.563 114.686 153.635 114.763 153.726 114.82C153.819 114.876 153.924 114.904 154.043 114.904C154.131 114.904 154.213 114.888 154.289 114.854C154.365 114.82 154.431 114.773 154.488 114.714C154.545 114.653 154.59 114.584 154.621 114.507C154.654 114.429 154.67 114.348 154.669 114.262C154.669 114.148 154.642 114.042 154.587 113.946C154.534 113.849 154.461 113.771 154.367 113.712C154.275 113.654 154.169 113.624 154.049 113.624ZM157.224 113.181V116.52H156.619V113.77H156.599L155.818 114.268V113.714L156.648 113.181H157.224ZM159.231 113.135C159.391 113.136 159.546 113.165 159.698 113.22C159.85 113.274 159.987 113.363 160.108 113.487C160.23 113.61 160.327 113.775 160.399 113.982C160.47 114.188 160.506 114.444 160.506 114.748C160.507 115.035 160.477 115.291 160.415 115.518C160.354 115.743 160.267 115.933 160.152 116.088C160.038 116.244 159.901 116.362 159.74 116.444C159.579 116.525 159.398 116.566 159.197 116.566C158.986 116.566 158.799 116.525 158.636 116.442C158.474 116.359 158.343 116.246 158.243 116.103C158.143 115.959 158.082 115.795 158.059 115.61H158.654C158.684 115.743 158.746 115.849 158.84 115.927C158.934 116.004 159.053 116.043 159.197 116.043C159.428 116.043 159.607 115.942 159.732 115.741C159.857 115.54 159.919 115.26 159.919 114.903H159.896C159.843 114.998 159.774 115.081 159.689 115.151C159.605 115.219 159.508 115.272 159.401 115.309C159.294 115.346 159.181 115.364 159.062 115.364C158.866 115.364 158.69 115.318 158.533 115.224C158.378 115.131 158.254 115.002 158.163 114.839C158.073 114.676 158.027 114.49 158.026 114.28C158.026 114.062 158.076 113.867 158.176 113.695C158.277 113.521 158.418 113.384 158.599 113.284C158.779 113.182 158.99 113.133 159.231 113.135ZM159.233 113.624C159.115 113.624 159.009 113.653 158.915 113.711C158.821 113.767 158.747 113.845 158.693 113.942C158.64 114.039 158.613 114.147 158.613 114.267C158.614 114.385 158.641 114.493 158.693 114.59C158.746 114.686 158.819 114.763 158.91 114.82C159.002 114.876 159.108 114.904 159.226 114.904C159.314 114.904 159.396 114.888 159.473 114.854C159.549 114.82 159.615 114.773 159.671 114.714C159.729 114.653 159.774 114.584 159.805 114.507C159.838 114.429 159.854 114.348 159.852 114.262C159.852 114.148 159.825 114.042 159.771 113.946C159.718 113.849 159.644 113.771 159.551 113.712C159.458 113.654 159.352 113.624 159.233 113.624ZM162.408 113.181V116.52H161.803V113.77H161.783L161.002 114.268V113.714L161.832 113.181H162.408Z" fill="#FF9191"/>
<path d="M144.431 119.923H148.118V120.385H144.431V119.923ZM146.028 120.17H146.618V121.028H146.028V120.17ZM144.858 121.375H147.714V121.842H144.858V121.375ZM144.858 120.72H145.439V121.573H144.858V120.72ZM144.902 117.965H145.478V118.383H147.067V117.965H147.648V119.642H144.902V117.965ZM145.478 118.823V119.184H147.067V118.823H145.478ZM148.892 119.589H151.779V120.055H148.892V119.589ZM148.483 120.984H152.17V121.454H148.483V120.984ZM150.032 119.866H150.617V121.116H150.032V119.866ZM148.892 118.146H149.482V119.791H148.892V118.146ZM152.782 120.216C152.782 119.825 152.833 119.466 152.936 119.139C153.041 118.811 153.195 118.508 153.4 118.23H153.933C153.854 118.333 153.78 118.459 153.711 118.609C153.643 118.758 153.583 118.922 153.532 119.1C153.482 119.277 153.442 119.461 153.413 119.652C153.385 119.842 153.371 120.03 153.371 120.216C153.371 120.463 153.395 120.713 153.444 120.966C153.494 121.219 153.561 121.453 153.646 121.669C153.731 121.885 153.827 122.063 153.933 122.2H153.4C153.195 121.922 153.041 121.619 152.936 121.292C152.833 120.964 152.782 120.605 152.782 120.216ZM155.063 121.569C154.911 121.569 154.774 121.542 154.652 121.488C154.532 121.432 154.436 121.351 154.365 121.244C154.295 121.137 154.26 121.004 154.26 120.847C154.26 120.712 154.285 120.6 154.335 120.511C154.385 120.422 154.453 120.352 154.54 120.299C154.626 120.245 154.724 120.205 154.832 120.178C154.941 120.15 155.054 120.13 155.171 120.117C155.312 120.103 155.426 120.09 155.513 120.078C155.601 120.066 155.664 120.047 155.704 120.022C155.745 119.996 155.765 119.956 155.765 119.902V119.892C155.765 119.775 155.73 119.683 155.66 119.619C155.59 119.554 155.49 119.522 155.359 119.522C155.22 119.522 155.11 119.552 155.029 119.613C154.949 119.673 154.895 119.744 154.866 119.827L154.338 119.752C154.38 119.606 154.449 119.484 154.545 119.386C154.64 119.287 154.758 119.213 154.896 119.164C155.035 119.114 155.188 119.089 155.356 119.089C155.471 119.089 155.586 119.103 155.701 119.13C155.815 119.157 155.92 119.202 156.015 119.264C156.11 119.326 156.186 119.409 156.243 119.516C156.301 119.622 156.331 119.755 156.331 119.914V121.52H155.787V121.191H155.768C155.734 121.257 155.685 121.32 155.623 121.378C155.561 121.435 155.484 121.482 155.39 121.517C155.297 121.552 155.188 121.569 155.063 121.569ZM155.21 121.153C155.324 121.153 155.422 121.131 155.506 121.086C155.589 121.04 155.653 120.98 155.698 120.905C155.744 120.83 155.766 120.748 155.766 120.659V120.377C155.749 120.391 155.719 120.405 155.676 120.417C155.634 120.43 155.587 120.441 155.535 120.45C155.483 120.459 155.432 120.468 155.381 120.475C155.329 120.482 155.285 120.489 155.248 120.494C155.163 120.505 155.088 120.524 155.021 120.55C154.954 120.576 154.902 120.613 154.863 120.659C154.825 120.705 154.806 120.765 154.806 120.838C154.806 120.942 154.844 121.02 154.92 121.074C154.996 121.127 155.092 121.153 155.21 121.153ZM157.465 120.114V121.52H156.899V119.12H157.44V119.528H157.468C157.523 119.394 157.611 119.287 157.732 119.208C157.854 119.129 158.004 119.089 158.184 119.089C158.349 119.089 158.494 119.125 158.616 119.195C158.74 119.266 158.836 119.369 158.904 119.503C158.973 119.638 159.007 119.801 159.006 119.992V121.52H158.44V120.08C158.44 119.919 158.398 119.794 158.315 119.703C158.233 119.613 158.119 119.567 157.973 119.567C157.874 119.567 157.786 119.589 157.709 119.633C157.633 119.676 157.573 119.738 157.529 119.819C157.486 119.9 157.465 119.999 157.465 120.114ZM160.624 122.47C160.421 122.47 160.247 122.443 160.101 122.388C159.955 122.333 159.838 122.26 159.749 122.169C159.661 122.077 159.599 121.976 159.565 121.864L160.074 121.741C160.097 121.788 160.131 121.834 160.174 121.88C160.218 121.927 160.277 121.965 160.351 121.995C160.426 122.027 160.52 122.042 160.634 122.042C160.794 122.042 160.927 122.003 161.032 121.925C161.137 121.848 161.19 121.721 161.19 121.544V121.089H161.162C161.133 121.147 161.09 121.207 161.034 121.269C160.978 121.33 160.905 121.382 160.813 121.424C160.723 121.465 160.609 121.486 160.471 121.486C160.287 121.486 160.12 121.443 159.97 121.356C159.821 121.269 159.702 121.139 159.613 120.966C159.526 120.792 159.482 120.574 159.482 120.313C159.482 120.049 159.526 119.827 159.613 119.645C159.702 119.463 159.821 119.325 159.971 119.231C160.121 119.137 160.288 119.089 160.473 119.089C160.613 119.089 160.729 119.113 160.82 119.161C160.911 119.208 160.984 119.265 161.038 119.331C161.092 119.397 161.134 119.459 161.162 119.517H161.193V119.12H161.751V121.559C161.751 121.765 161.702 121.934 161.604 122.069C161.506 122.203 161.372 122.304 161.202 122.37C161.033 122.437 160.84 122.47 160.624 122.47ZM160.629 121.042C160.749 121.042 160.851 121.013 160.935 120.955C161.02 120.896 161.084 120.813 161.127 120.703C161.171 120.594 161.193 120.463 161.193 120.309C161.193 120.158 161.171 120.026 161.127 119.913C161.085 119.799 161.021 119.711 160.937 119.649C160.853 119.585 160.751 119.553 160.629 119.553C160.503 119.553 160.398 119.586 160.313 119.652C160.229 119.717 160.165 119.807 160.123 119.922C160.08 120.035 160.059 120.165 160.059 120.309C160.059 120.456 160.08 120.585 160.123 120.695C160.166 120.805 160.231 120.89 160.315 120.952C160.4 121.012 160.505 121.042 160.629 121.042ZM163.393 121.567C163.152 121.567 162.945 121.517 162.77 121.417C162.596 121.316 162.462 121.174 162.368 120.989C162.274 120.804 162.227 120.585 162.227 120.334C162.227 120.088 162.274 119.871 162.368 119.684C162.463 119.497 162.595 119.351 162.765 119.247C162.935 119.142 163.134 119.089 163.363 119.089C163.511 119.089 163.651 119.113 163.782 119.161C163.914 119.208 164.031 119.281 164.132 119.38C164.234 119.479 164.314 119.605 164.373 119.758C164.431 119.91 164.46 120.091 164.46 120.302V120.475H162.493V120.094H163.918C163.917 119.985 163.894 119.889 163.848 119.805C163.802 119.719 163.738 119.652 163.656 119.603C163.574 119.554 163.479 119.53 163.371 119.53C163.256 119.53 163.154 119.558 163.066 119.614C162.979 119.669 162.911 119.742 162.862 119.833C162.814 119.922 162.789 120.021 162.788 120.128V120.461C162.788 120.601 162.814 120.72 162.865 120.82C162.916 120.919 162.987 120.995 163.079 121.049C163.171 121.101 163.278 121.127 163.401 121.127C163.483 121.127 163.558 121.115 163.624 121.092C163.691 121.068 163.749 121.033 163.798 120.988C163.847 120.942 163.884 120.885 163.909 120.817L164.437 120.877C164.403 121.016 164.34 121.138 164.246 121.242C164.153 121.345 164.035 121.426 163.89 121.483C163.745 121.539 163.579 121.567 163.393 121.567ZM164.939 121.52V119.12H165.487V119.52H165.512C165.556 119.382 165.631 119.275 165.737 119.2C165.844 119.124 165.967 119.086 166.104 119.086C166.136 119.086 166.17 119.088 166.209 119.091C166.249 119.093 166.281 119.096 166.307 119.102V119.622C166.284 119.614 166.245 119.606 166.193 119.6C166.142 119.593 166.093 119.589 166.045 119.589C165.942 119.589 165.849 119.612 165.767 119.656C165.686 119.7 165.622 119.761 165.575 119.839C165.528 119.917 165.504 120.007 165.504 120.109V121.52H164.939ZM167.693 120.216C167.693 120.605 167.641 120.964 167.536 121.292C167.433 121.619 167.279 121.922 167.074 122.2H166.541C166.621 122.097 166.695 121.971 166.763 121.822C166.832 121.673 166.891 121.509 166.941 121.331C166.992 121.153 167.032 120.969 167.06 120.778C167.089 120.588 167.104 120.4 167.104 120.216C167.104 119.969 167.079 119.719 167.029 119.466C166.98 119.213 166.912 118.978 166.827 118.761C166.743 118.544 166.647 118.367 166.541 118.23H167.074C167.279 118.508 167.433 118.811 167.536 119.139C167.641 119.466 167.693 119.825 167.693 120.216Z" fill="#4B4B4B"/>
</g>
</g>
<defs>
<filter id="filter0_d_1114_4840" x="6.63269" y="-0.5" width="52.1837" height="62.9999" filterUnits="userSpaceOnUse" color-interpolation-filters="sRGB">
<feFlood flood-opacity="0" result="BackgroundImageFix"/>
<feColorMatrix in="SourceAlpha" type="matrix" values="0 0 0 0 0 0 0 0 0 0 0 0 0 0 0 0 0 0 127 0" result="hardAlpha"/>
<feOffset/>
<feGaussianBlur stdDeviation="2.5"/>
<feComposite in2="hardAlpha" operator="out"/>
<feColorMatrix type="matrix" values="0 0 0 0 0 0 0 0 0 0 0 0 0 0 0 0 0 0 0.15 0"/>
<feBlend mode="normal" in2="BackgroundImageFix" result="effect1_dropShadow_1114_4840"/>
<feBlend mode="normal" in="SourceGraphic" in2="effect1_dropShadow_1114_4840" result="shape"/>
</filter>
<filter id="filter1_d_1114_4840" x="58.8163" y="-0.5" width="52.1837" height="62.9999" filterUnits="userSpaceOnUse" color-interpolation-filters="sRGB">
<feFlood flood-opacity="0" result="BackgroundImageFix"/>
<feColorMatrix in="SourceAlpha" type="matrix" values="0 0 0 0 0 0 0 0 0 0 0 0 0 0 0 0 0 0 127 0" result="hardAlpha"/>
<feOffset/>
<feGaussianBlur stdDeviation="2.5"/>
<feComposite in2="hardAlpha" operator="out"/>
<feColorMatrix type="matrix" values="0 0 0 0 0 0 0 0 0 0 0 0 0 0 0 0 0 0 0.15 0"/>
<feBlend mode="normal" in2="BackgroundImageFix" result="effect1_dropShadow_1114_4840"/>
<feBlend mode="normal" in="SourceGraphic" in2="effect1_dropShadow_1114_4840" result="shape"/>
</filter>
<filter id="filter2_d_1114_4840" x="111" y="-0.5" width="52.1837" height="62.9999" filterUnits="userSpaceOnUse" color-interpolation-filters="sRGB">
<feFlood flood-opacity="0" result="BackgroundImageFix"/>
<feColorMatrix in="SourceAlpha" type="matrix" values="0 0 0 0 0 0 0 0 0 0 0 0 0 0 0 0 0 0 127 0" result="hardAlpha"/>
<feOffset/>
<feGaussianBlur stdDeviation="2.5"/>
<feComposite in2="hardAlpha" operator="out"/>
<feColorMatrix type="matrix" values="0 0 0 0 0 0 0 0 0 0 0 0 0 0 0 0 0 0 0.15 0"/>
<feBlend mode="normal" in2="BackgroundImageFix" result="effect1_dropShadow_1114_4840"/>
<feBlend mode="normal" in="SourceGraphic" in2="effect1_dropShadow_1114_4840" result="shape"/>
</filter>
<filter id="filter3_d_1114_4840" x="162.295" y="-1.3889" width="53.9615" height="64.7778" filterUnits="userSpaceOnUse" color-interpolation-filters="sRGB">
<feFlood flood-opacity="0" result="BackgroundImageFix"/>
<feColorMatrix in="SourceAlpha" type="matrix" values="0 0 0 0 0 0 0 0 0 0 0 0 0 0 0 0 0 0 127 0" result="hardAlpha"/>
<feOffset/>
<feGaussianBlur stdDeviation="2.94445"/>
<feComposite in2="hardAlpha" operator="out"/>
<feColorMatrix type="matrix" values="0 0 0 0 0 0 0 0 0 0 0 0 0 0 0 0 0 0 0.15 0"/>
<feBlend mode="normal" in2="BackgroundImageFix" result="effect1_dropShadow_1114_4840"/>
<feBlend mode="normal" in="SourceGraphic" in2="effect1_dropShadow_1114_4840" result="shape"/>
</filter>
<filter id="filter4_d_1114_4840" x="32.7245" y="67.5" width="52.1837" height="62.9999" filterUnits="userSpaceOnUse" color-interpolation-filters="sRGB">
<feFlood flood-opacity="0" result="BackgroundImageFix"/>
<feColorMatrix in="SourceAlpha" type="matrix" values="0 0 0 0 0 0 0 0 0 0 0 0 0 0 0 0 0 0 127 0" result="hardAlpha"/>
<feOffset/>
<feGaussianBlur stdDeviation="2.5"/>
<feComposite in2="hardAlpha" operator="out"/>
<feColorMatrix type="matrix" values="0 0 0 0 0 0 0 0 0 0 0 0 0 0 0 0 0 0 0.15 0"/>
<feBlend mode="normal" in2="BackgroundImageFix" result="effect1_dropShadow_1114_4840"/>
<feBlend mode="normal" in="SourceGraphic" in2="effect1_dropShadow_1114_4840" result="shape"/>
</filter>
<filter id="filter5_d_1114_4840" x="84.9082" y="67.5" width="52.1837" height="62.9999" filterUnits="userSpaceOnUse" color-interpolation-filters="sRGB">
<feFlood flood-opacity="0" result="BackgroundImageFix"/>
<feColorMatrix in="SourceAlpha" type="matrix" values="0 0 0 0 0 0 0 0 0 0 0 0 0 0 0 0 0 0 127 0" result="hardAlpha"/>
<feOffset/>
<feGaussianBlur stdDeviation="2.5"/>
<feComposite in2="hardAlpha" operator="out"/>
<feColorMatrix type="matrix" values="0 0 0 0 0 0 0 0 0 0 0 0 0 0 0 0 0 0 0.15 0"/>
<feBlend mode="normal" in2="BackgroundImageFix" result="effect1_dropShadow_1114_4840"/>
<feBlend mode="normal" in="SourceGraphic" in2="effect1_dropShadow_1114_4840" result="shape"/>
</filter>
<filter id="filter6_d_1114_4840" x="137.092" y="67.5" width="52.1837" height="62.9999" filterUnits="userSpaceOnUse" color-interpolation-filters="sRGB">
<feFlood flood-opacity="0" result="BackgroundImageFix"/>
<feColorMatrix in="SourceAlpha" type="matrix" values="0 0 0 0 0 0 0 0 0 0 0 0 0 0 0 0 0 0 127 0" result="hardAlpha"/>
<feOffset/>
<feGaussianBlur stdDeviation="2.5"/>
<feComposite in2="hardAlpha" operator="out"/>
<feColorMatrix type="matrix" values="0 0 0 0 0 0 0 0 0 0 0 0 0 0 0 0 0 0 0.15 0"/>
<feBlend mode="normal" in2="BackgroundImageFix" result="effect1_dropShadow_1114_4840"/>
<feBlend mode="normal" in="SourceGraphic" in2="effect1_dropShadow_1114_4840" result="shape"/>
</filter>
<clipPath id="clip0_1114_4840">
<rect width="222" height="130" fill="white"/>
</clipPath>
</defs>
</svg>
