<svg width="347" height="203" viewBox="0 0 347 203" fill="none" xmlns="http://www.w3.org/2000/svg">
<g filter="url(#filter0_d_1114_4840)">
<rect x="18.1648" y="11.2385" width="65.8714" height="65.1238" fill="#FEF4A0"/>
<rect x="18.1648" y="70.3539" width="65.8714" height="23.6462" fill="white"/>
<path d="M24.2926 79.7694L25.1517 74.533H25.8676L25.0085 79.7694H24.2926ZM21.9326 78.4194L22.0528 77.7035H26.0823L25.9622 78.4194H21.9326ZM22.4517 79.7694L23.3108 74.533H24.0267L23.1676 79.7694H22.4517ZM22.2369 76.599L22.3545 75.883H26.384L26.2664 76.599H22.2369ZM26.9932 79.7694V74.533H30.3478V75.3282H27.9418V76.7498H30.1176V77.545H27.9418V79.7694H26.9932ZM31.212 79.7694V74.533H34.6176V75.3282H32.1605V76.7498H34.4412V77.545H32.1605V78.9742H34.6381V79.7694H31.212ZM35.5854 79.7694V74.533H38.9399V75.3282H36.534V76.7498H38.7098V77.545H36.534V79.7694H35.5854ZM39.6584 78.7978V78.0436L41.8803 74.533H42.5093V75.6069H42.1257L40.63 77.9771V78.018H43.7314V78.7978H39.6584ZM42.1564 79.7694V78.5677L42.1666 78.2302V74.533H43.0615V79.7694H42.1564ZM45.2719 79.7694H44.2594L46.1029 74.533H47.2739L49.1199 79.7694H48.1074L46.7088 75.6069H46.6679L45.2719 79.7694ZM45.3051 77.7163H48.0665V78.4782H45.3051V77.7163ZM51.694 79.8691C51.273 79.8691 50.9116 79.7626 50.6099 79.5495C50.3099 79.3348 50.0789 79.0254 49.917 78.6214C49.7568 78.2157 49.6767 77.7274 49.6767 77.1563C49.6784 76.5853 49.7593 76.0995 49.9196 75.699C50.0815 75.2967 50.3125 74.9899 50.6125 74.7785C50.9142 74.5671 51.2747 74.4615 51.694 74.4615C52.1133 74.4615 52.4738 74.5671 52.7755 74.7785C53.0772 74.9899 53.3082 75.2967 53.4684 75.699C53.6304 76.1012 53.7113 76.587 53.7113 77.1563C53.7113 77.7291 53.6304 78.2183 53.4684 78.624C53.3082 79.0279 53.0772 79.3365 52.7755 79.5495C52.4755 79.7626 52.115 79.8691 51.694 79.8691ZM51.694 79.0688C52.0213 79.0688 52.2795 78.9078 52.4687 78.5856C52.6596 78.2617 52.7551 77.7853 52.7551 77.1563C52.7551 76.7404 52.7116 76.391 52.6247 76.108C52.5377 75.8251 52.415 75.612 52.2565 75.4688C52.098 75.324 51.9105 75.2515 51.694 75.2515C51.3684 75.2515 51.111 75.4134 50.9218 75.7373C50.7326 76.0595 50.6372 76.5325 50.6355 77.1563C50.6338 77.574 50.6755 77.9251 50.7608 78.2098C50.8477 78.4944 50.9704 78.7092 51.1289 78.8541C51.2875 78.9973 51.4758 79.0688 51.694 79.0688Z" fill="#FEF4A0"/>
<path d="M22.8799 84.0462H27.4807V84.8022H22.8799V84.0462ZM22.1311 85.3206H28.1719V86.0766H22.1311V85.3206ZM22.8799 82.815H23.8303V84.4782H22.8799V82.815ZM22.8151 86.451H27.4591V88.2006H23.7799V88.8126H22.8223V87.5382H26.5015V87.171H22.8151V86.451ZM22.8223 88.611H27.6535V89.3382H22.8223V88.611ZM24.6799 84.4998H25.6303V85.767H24.6799V84.4998ZM33.0458 82.7502H34.0034V86.703H33.0458V82.7502ZM33.7298 84.3126H34.889V85.1046H33.7298V84.3126ZM29.6618 86.991H34.0034V89.3382H29.6618V86.991ZM33.0674 87.7398H30.605V88.5822H33.0674V87.7398ZM28.9922 85.695H29.5538C30.8642 85.695 31.6706 85.6734 32.5922 85.5006L32.6786 86.2566C31.7426 86.4366 30.9002 86.4726 29.5538 86.4726H28.9922V85.695ZM28.985 83.0742H32.0306V85.1046H29.9426V86.1198H28.9922V84.3918H31.0874V83.8374H28.985V83.0742ZM35.7957 86.6345C35.7957 85.9953 35.8801 85.408 36.0488 84.8728C36.2193 84.3359 36.4724 83.8399 36.8082 83.3848H37.6801C37.5505 83.5535 37.4295 83.7606 37.317 84.0061C37.2045 84.2498 37.1065 84.5174 37.023 84.8089C36.9412 85.0987 36.8764 85.3995 36.8287 85.7115C36.7826 86.0234 36.7596 86.3311 36.7596 86.6345C36.7596 87.0384 36.7997 87.4475 36.8798 87.8617C36.9616 88.2759 37.0715 88.6595 37.2096 89.0123C37.3494 89.3669 37.5062 89.6566 37.6801 89.8816H36.8082C36.4724 89.4265 36.2193 88.9313 36.0488 88.3961C35.8801 87.8592 35.7957 87.272 35.7957 86.6345ZM41.5032 85.8802L40.6594 85.9722C40.6355 85.887 40.5938 85.8069 40.5341 85.7319C40.4762 85.6569 40.3978 85.5964 40.2989 85.5504C40.2 85.5044 40.079 85.4813 39.9358 85.4813C39.7432 85.4813 39.5813 85.5231 39.45 85.6066C39.3205 85.6901 39.2566 85.7984 39.2583 85.9313C39.2566 86.0455 39.2983 86.1384 39.3836 86.21C39.4705 86.2816 39.6137 86.3404 39.8131 86.3865L40.483 86.5296C40.8546 86.6098 41.1307 86.7367 41.3114 86.9106C41.4938 87.0845 41.5858 87.312 41.5875 87.5933C41.5858 87.8404 41.5134 88.0586 41.3702 88.2478C41.2287 88.4353 41.0318 88.5819 40.7796 88.6876C40.5273 88.7933 40.2375 88.8461 39.9103 88.8461C39.4296 88.8461 39.0426 88.7455 38.7495 88.5444C38.4563 88.3416 38.2816 88.0595 38.2253 87.6981L39.1279 87.6112C39.1688 87.7884 39.2557 87.9223 39.3887 88.0126C39.5216 88.1029 39.6946 88.1481 39.9077 88.1481C40.1276 88.1481 40.304 88.1029 40.437 88.0126C40.5716 87.9223 40.6389 87.8106 40.6389 87.6776C40.6389 87.5651 40.5955 87.4723 40.5086 87.399C40.4233 87.3257 40.2904 87.2694 40.1097 87.2302L39.4398 87.0896C39.0631 87.0112 38.7844 86.8791 38.6037 86.6933C38.423 86.5058 38.3336 86.2688 38.3353 85.9825C38.3336 85.7404 38.3992 85.5308 38.5321 85.3535C38.6668 85.1745 38.8534 85.0365 39.0921 84.9393C39.3324 84.8404 39.6094 84.791 39.923 84.791C40.3833 84.791 40.7455 84.889 41.0097 85.085C41.2756 85.2811 41.4401 85.5461 41.5032 85.8802ZM44.8539 87.1177V84.8421H45.7794V88.7694H44.882V88.0714H44.8411C44.7524 88.2913 44.6067 88.4711 44.4039 88.6109C44.2027 88.7507 43.9547 88.8205 43.6598 88.8205C43.4024 88.8205 43.1749 88.7634 42.9772 88.6492C42.7811 88.5333 42.6277 88.3654 42.5169 88.1455C42.4061 87.924 42.3507 87.6563 42.3507 87.3427V84.8421H43.2763V87.1995C43.2763 87.4484 43.3445 87.6461 43.4809 87.7927C43.6172 87.9393 43.7962 88.0126 44.0178 88.0126C44.1541 88.0126 44.2862 87.9794 44.4141 87.9129C44.5419 87.8464 44.6468 87.7475 44.7286 87.6163C44.8121 87.4833 44.8539 87.3171 44.8539 87.1177ZM46.7312 88.7694V84.8421H47.6287V85.4967H47.6696C47.7412 85.27 47.8639 85.0953 48.0377 84.9725C48.2133 84.8481 48.4136 84.7859 48.6386 84.7859C48.6897 84.7859 48.7468 84.7884 48.8099 84.7936C48.8747 84.797 48.9284 84.8029 48.971 84.8115V85.6629C48.9318 85.6492 48.8696 85.6373 48.7843 85.6271C48.7008 85.6151 48.6198 85.6092 48.5414 85.6092C48.3727 85.6092 48.221 85.6458 48.0863 85.7191C47.9534 85.7907 47.8485 85.8904 47.7718 86.0183C47.6951 86.1461 47.6568 86.2936 47.6568 86.4606V88.7694H46.7312ZM49.5859 90.2421V84.8421H50.4961V85.4916H50.5498C50.5975 85.3961 50.6649 85.2947 50.7518 85.1873C50.8387 85.0782 50.9563 84.9853 51.1046 84.9086C51.2529 84.8302 51.4421 84.791 51.6723 84.791C51.9757 84.791 52.2492 84.8686 52.493 85.0237C52.7385 85.1771 52.9328 85.4046 53.076 85.7063C53.2208 86.0063 53.2933 86.3745 53.2933 86.8109C53.2933 87.2421 53.2225 87.6086 53.0811 87.9103C52.9396 88.212 52.747 88.4421 52.5032 88.6007C52.2595 88.7592 51.9833 88.8384 51.6748 88.8384C51.4498 88.8384 51.2632 88.8009 51.1149 88.7259C50.9666 88.6509 50.8473 88.5606 50.7569 88.4549C50.6683 88.3475 50.5992 88.2461 50.5498 88.1507H50.5115V90.2421H49.5859ZM50.4936 86.8058C50.4936 87.0598 50.5294 87.2822 50.601 87.4731C50.6742 87.664 50.7791 87.8132 50.9154 87.9205C51.0535 88.0262 51.2206 88.0791 51.4166 88.0791C51.6211 88.0791 51.7924 88.0245 51.9305 87.9154C52.0686 87.8046 52.1725 87.6538 52.2424 87.4629C52.314 87.2703 52.3498 87.0512 52.3498 86.8058C52.3498 86.562 52.3149 86.3455 52.245 86.1563C52.1751 85.9671 52.0711 85.8188 51.9331 85.7115C51.795 85.6041 51.6228 85.5504 51.4166 85.5504C51.2188 85.5504 51.051 85.6024 50.9129 85.7063C50.7748 85.8103 50.67 85.9561 50.5984 86.1436C50.5285 86.3311 50.4936 86.5518 50.4936 86.8058ZM54.0859 88.7694V84.8421H54.9833V85.4967H55.0242C55.0958 85.27 55.2186 85.0953 55.3924 84.9725C55.568 84.8481 55.7683 84.7859 55.9933 84.7859C56.0444 84.7859 56.1015 84.7884 56.1646 84.7936C56.2294 84.797 56.2831 84.8029 56.3257 84.8115V85.6629C56.2865 85.6492 56.2242 85.6373 56.139 85.6271C56.0555 85.6151 55.9745 85.6092 55.8961 85.6092C55.7274 85.6092 55.5757 85.6458 55.441 85.7191C55.3081 85.7907 55.2032 85.8904 55.1265 86.0183C55.0498 86.1461 55.0115 86.2936 55.0115 86.4606V88.7694H54.0859ZM56.9406 88.7694V84.8421H57.8662V88.7694H56.9406ZM57.4059 84.2848C57.2593 84.2848 57.1332 84.2362 57.0275 84.139C56.9218 84.0401 56.869 83.9217 56.869 83.7836C56.869 83.6438 56.9218 83.5254 57.0275 83.4282C57.1332 83.3294 57.2593 83.2799 57.4059 83.2799C57.5542 83.2799 57.6804 83.3294 57.7843 83.4282C57.89 83.5254 57.9429 83.6438 57.9429 83.7836C57.9429 83.9217 57.89 84.0401 57.7843 84.139C57.6804 84.2362 57.5542 84.2848 57.4059 84.2848ZM61.9219 85.8802L61.0782 85.9722C61.0543 85.887 61.0125 85.8069 60.9529 85.7319C60.8949 85.6569 60.8165 85.5964 60.7176 85.5504C60.6188 85.5044 60.4978 85.4813 60.3546 85.4813C60.162 85.4813 60 85.5231 59.8688 85.6066C59.7392 85.6901 59.6753 85.7984 59.677 85.9313C59.6753 86.0455 59.7171 86.1384 59.8023 86.21C59.8892 86.2816 60.0324 86.3404 60.2318 86.3865L60.9017 86.5296C61.2733 86.6098 61.5495 86.7367 61.7301 86.9106C61.9125 87.0845 62.0046 87.312 62.0063 87.5933C62.0046 87.8404 61.9321 88.0586 61.7889 88.2478C61.6475 88.4353 61.4506 88.5819 61.1983 88.6876C60.9461 88.7933 60.6563 88.8461 60.329 88.8461C59.8483 88.8461 59.4614 88.7455 59.1682 88.5444C58.875 88.3416 58.7003 88.0595 58.6441 87.6981L59.5466 87.6112C59.5875 87.7884 59.6745 87.9223 59.8074 88.0126C59.9404 88.1029 60.1134 88.1481 60.3264 88.1481C60.5463 88.1481 60.7228 88.1029 60.8557 88.0126C60.9904 87.9223 61.0577 87.8106 61.0577 87.6776C61.0577 87.5651 61.0142 87.4723 60.9273 87.399C60.8421 87.3257 60.7091 87.2694 60.5284 87.2302L59.8586 87.0896C59.4818 87.0112 59.2032 86.8791 59.0225 86.6933C58.8418 86.5058 58.7523 86.2688 58.754 85.9825C58.7523 85.7404 58.8179 85.5308 58.9509 85.3535C59.0855 85.1745 59.2722 85.0365 59.5108 84.9393C59.7512 84.8404 60.0282 84.791 60.3418 84.791C60.802 84.791 61.1642 84.889 61.4284 85.085C61.6943 85.2811 61.8588 85.5461 61.9219 85.8802ZM64.5081 88.8461C64.1144 88.8461 63.7743 88.7643 63.488 88.6007C63.2033 88.4353 62.9843 88.2018 62.8309 87.9001C62.6774 87.5967 62.6007 87.2396 62.6007 86.8288C62.6007 86.4248 62.6774 86.0703 62.8309 85.7651C62.986 85.4583 63.2024 85.2197 63.4803 85.0492C63.7581 84.8771 64.0845 84.791 64.4595 84.791C64.7016 84.791 64.93 84.8302 65.1448 84.9086C65.3612 84.9853 65.5522 85.1046 65.7175 85.2666C65.8845 85.4285 66.0158 85.6348 66.1112 85.8853C66.2067 86.1342 66.2544 86.4308 66.2544 86.7751V87.0589H63.0354V86.435H65.3672C65.3655 86.2578 65.3272 86.1001 65.2522 85.962C65.1772 85.8223 65.0723 85.7123 64.9377 85.6322C64.8047 85.5521 64.6496 85.512 64.4723 85.512C64.2831 85.512 64.1169 85.558 63.9737 85.6501C63.8306 85.7404 63.7189 85.8598 63.6388 86.008C63.5604 86.1546 63.5203 86.3157 63.5186 86.4913V87.0359C63.5186 87.2643 63.5604 87.4603 63.6439 87.624C63.7274 87.7859 63.8442 87.9103 63.9942 87.9973C64.1442 88.0825 64.3198 88.1251 64.5209 88.1251C64.6556 88.1251 64.7774 88.1063 64.8865 88.0688C64.9956 88.0296 65.0902 87.9725 65.1703 87.8975C65.2505 87.8225 65.311 87.7296 65.3519 87.6188L66.2161 87.716C66.1615 87.9444 66.0576 88.1438 65.9041 88.3143C65.7524 88.483 65.5581 88.6143 65.3212 88.708C65.0843 88.8001 64.8132 88.8461 64.5081 88.8461ZM68.4948 88.8384C68.1863 88.8384 67.9102 88.7592 67.6664 88.6007C67.4227 88.4421 67.2301 88.212 67.0886 87.9103C66.9471 87.6086 66.8764 87.2421 66.8764 86.8109C66.8764 86.3745 66.948 86.0063 67.0912 85.7063C67.236 85.4046 67.4312 85.1771 67.6767 85.0237C67.9221 84.8686 68.1957 84.791 68.4974 84.791C68.7275 84.791 68.9167 84.8302 69.065 84.9086C69.2133 84.9853 69.3309 85.0782 69.4179 85.1873C69.5048 85.2947 69.5721 85.3961 69.6198 85.4916H69.6582V83.533H70.5863V88.7694H69.6761V88.1507H69.6198C69.5721 88.2461 69.5031 88.3475 69.4127 88.4549C69.3224 88.5606 69.2031 88.6509 69.0548 88.7259C68.9065 88.8009 68.7198 88.8384 68.4948 88.8384ZM68.7531 88.0791C68.9491 88.0791 69.1162 88.0262 69.2542 87.9205C69.3923 87.8132 69.4971 87.664 69.5687 87.4731C69.6403 87.2822 69.6761 87.0598 69.6761 86.8058C69.6761 86.5518 69.6403 86.3311 69.5687 86.1436C69.4988 85.9561 69.3948 85.8103 69.2568 85.7063C69.1204 85.6024 68.9525 85.5504 68.7531 85.5504C68.5468 85.5504 68.3747 85.6041 68.2366 85.7115C68.0985 85.8188 67.9946 85.9671 67.9247 86.1563C67.8548 86.3455 67.8198 86.562 67.8198 86.8058C67.8198 87.0512 67.8548 87.2703 67.9247 87.4629C67.9963 87.6538 68.1011 87.8046 68.2392 87.9154C68.3789 88.0245 68.5502 88.0791 68.7531 88.0791ZM73.2243 86.6345C73.2243 87.272 73.1391 87.8592 72.9686 88.3961C72.7999 88.9313 72.5476 89.4265 72.2118 89.8816H71.3399C71.4712 89.7129 71.5922 89.5066 71.703 89.2629C71.8155 89.0191 71.9127 88.7515 71.9945 88.46C72.078 88.1686 72.1428 87.8669 72.1888 87.5549C72.2365 87.243 72.2604 86.9362 72.2604 86.6345C72.2604 86.2305 72.2195 85.8214 72.1377 85.4072C72.0576 84.993 71.9476 84.6086 71.8078 84.2541C71.6698 83.8995 71.5138 83.6098 71.3399 83.3848H72.2118C72.5476 83.8399 72.7999 84.3359 72.9686 84.8728C73.1391 85.408 73.2243 85.9953 73.2243 86.6345Z" fill="#4B4B4B"/>
</g>
<g filter="url(#filter1_d_1114_4840)">
<rect x="99.6516" y="11.2385" width="65.8714" height="65.1238" fill="#B3F4B2"/>
<rect x="99.6516" y="70.3539" width="65.8714" height="23.6462" fill="white"/>
<path d="M105.479 79.7319L106.338 74.4956H107.054L106.195 79.7319H105.479ZM103.119 78.3819L103.239 77.666H107.269L107.149 78.3819H103.119ZM103.638 79.7319L104.497 74.4956H105.213L104.354 79.7319H103.638ZM103.423 76.5615L103.541 75.8456H107.571L107.453 76.5615H103.423ZM108.18 79.7319V74.4956H110.184C110.563 74.4956 110.877 74.5552 111.128 74.6745C111.38 74.7922 111.568 74.9532 111.693 75.1578C111.819 75.3623 111.882 75.5941 111.882 75.8532C111.882 76.0663 111.841 76.2487 111.759 76.4004C111.677 76.5504 111.568 76.6723 111.429 76.766C111.291 76.8598 111.137 76.9271 110.967 76.968V77.0191C111.152 77.0294 111.331 77.0865 111.501 77.1905C111.673 77.2927 111.814 77.4376 111.923 77.6251C112.032 77.8126 112.087 78.0393 112.087 78.3052C112.087 78.5763 112.021 78.82 111.89 79.0365C111.758 79.2513 111.561 79.4209 111.296 79.5453C111.032 79.6697 110.7 79.7319 110.299 79.7319H108.18ZM109.128 78.9393H110.148C110.493 78.9393 110.741 78.8737 110.893 78.7424C111.046 78.6095 111.123 78.439 111.123 78.2311C111.123 78.076 111.084 77.9362 111.008 77.8118C110.931 77.6856 110.822 77.5868 110.68 77.5152C110.539 77.4419 110.37 77.4052 110.174 77.4052H109.128V78.9393ZM109.128 76.7226H110.067C110.23 76.7226 110.378 76.6927 110.509 76.6331C110.64 76.5717 110.743 76.4856 110.818 76.3748C110.895 76.2623 110.933 76.1294 110.933 75.976C110.933 75.7731 110.862 75.6061 110.719 75.4748C110.577 75.3436 110.367 75.278 110.087 75.278H109.128V76.7226ZM114.74 79.8035C114.372 79.8035 114.044 79.7405 113.758 79.6143C113.473 79.4882 113.248 79.3126 113.083 79.0876C112.918 78.8626 112.83 78.6027 112.82 78.3078H113.781C113.79 78.4493 113.836 78.5728 113.922 78.6785C114.007 78.7825 114.12 78.8635 114.262 78.9214C114.403 78.9794 114.562 79.0084 114.737 79.0084C114.925 79.0084 115.091 78.976 115.236 78.9112C115.381 78.8447 115.494 78.7527 115.576 78.6351C115.658 78.5174 115.698 78.3819 115.696 78.2285C115.698 78.07 115.657 77.9302 115.573 77.8092C115.49 77.6882 115.369 77.5936 115.21 77.5254C115.054 77.4572 114.864 77.4231 114.643 77.4231H114.18V76.6919H114.643C114.825 76.6919 114.984 76.6603 115.121 76.5973C115.259 76.5342 115.367 76.4456 115.446 76.3314C115.524 76.2155 115.562 76.0816 115.561 75.9299C115.562 75.7816 115.529 75.653 115.461 75.5439C115.394 75.4331 115.3 75.347 115.177 75.2856C115.056 75.2243 114.914 75.1936 114.75 75.1936C114.59 75.1936 114.442 75.2226 114.305 75.2805C114.169 75.3385 114.059 75.4211 113.975 75.5285C113.892 75.6342 113.848 75.7603 113.842 75.9069H112.93C112.936 75.6138 113.021 75.3564 113.183 75.1348C113.346 74.9115 113.565 74.7376 113.837 74.6132C114.11 74.487 114.416 74.424 114.755 74.424C115.105 74.424 115.408 74.4896 115.665 74.6209C115.925 74.7504 116.125 74.9251 116.266 75.145C116.408 75.3649 116.479 75.6078 116.479 75.8737C116.48 76.1686 116.393 76.4157 116.218 76.6152C116.044 76.8146 115.815 76.945 115.533 77.0064V77.0473C115.901 77.0984 116.183 77.2348 116.379 77.4564C116.577 77.6763 116.675 77.9498 116.673 78.2771C116.673 78.5703 116.589 78.8328 116.422 79.0646C116.257 79.2947 116.029 79.4754 115.737 79.6066C115.447 79.7379 115.115 79.8035 114.74 79.8035ZM117.602 79.7319V74.4956H120.956V75.2907H118.55V76.7123H120.726V77.5075H118.55V79.7319H117.602ZM121.675 78.7603V78.0061L123.896 74.4956H124.525V75.5694H124.142L122.646 77.9396V77.9805H125.748V78.7603H121.675ZM124.173 79.7319V78.5302L124.183 78.1927V74.4956H125.078V79.7319H124.173ZM126.616 79.7319V74.4956H128.62C128.999 74.4956 129.313 74.5552 129.564 74.6745C129.816 74.7922 130.004 74.9532 130.129 75.1578C130.255 75.3623 130.318 75.5941 130.318 75.8532C130.318 76.0663 130.277 76.2487 130.195 76.4004C130.113 76.5504 130.003 76.6723 129.865 76.766C129.727 76.8598 129.573 76.9271 129.403 76.968V77.0191C129.588 77.0294 129.767 77.0865 129.937 77.1905C130.109 77.2927 130.25 77.4376 130.359 77.6251C130.468 77.8126 130.522 78.0393 130.522 78.3052C130.522 78.5763 130.457 78.82 130.326 79.0365C130.194 79.2513 129.997 79.4209 129.732 79.5453C129.468 79.6697 129.136 79.7319 128.735 79.7319H126.616ZM127.564 78.9393H128.584C128.929 78.9393 129.177 78.8737 129.328 78.7424C129.482 78.6095 129.559 78.439 129.559 78.2311C129.559 78.076 129.52 77.9362 129.444 77.8118C129.367 77.6856 129.258 77.5868 129.116 77.5152C128.975 77.4419 128.806 77.4052 128.61 77.4052H127.564V78.9393ZM127.564 76.7226H128.503C128.666 76.7226 128.814 76.6927 128.945 76.6331C129.076 76.5717 129.179 76.4856 129.254 76.3748C129.331 76.2623 129.369 76.1294 129.369 75.976C129.369 75.7731 129.298 75.6061 129.155 75.4748C129.013 75.3436 128.803 75.278 128.523 75.278H127.564V76.7226ZM131.297 79.7319V79.0467L133.114 77.2646C133.288 77.089 133.433 76.9331 133.549 76.7967C133.665 76.6603 133.752 76.5282 133.81 76.4004C133.868 76.2726 133.897 76.1362 133.897 75.9913C133.897 75.826 133.859 75.6845 133.784 75.5669C133.709 75.4476 133.606 75.3555 133.475 75.2907C133.344 75.226 133.195 75.1936 133.028 75.1936C132.855 75.1936 132.705 75.2294 132.575 75.301C132.445 75.3709 132.345 75.4706 132.273 75.6001C132.203 75.7297 132.168 75.8839 132.168 76.0629H131.266C131.266 75.7305 131.342 75.4416 131.493 75.1961C131.645 74.9507 131.854 74.7606 132.12 74.626C132.387 74.4913 132.694 74.424 133.04 74.424C133.391 74.424 133.7 74.4896 133.966 74.6209C134.232 74.7521 134.438 74.9319 134.585 75.1603C134.733 75.3888 134.807 75.6495 134.807 75.9427C134.807 76.1388 134.77 76.3314 134.695 76.5206C134.62 76.7098 134.487 76.9194 134.298 77.1495C134.111 77.3797 133.847 77.6584 133.508 77.9856L132.606 78.9035V78.9393H134.886V79.7319H131.297Z" fill="#B3F4B2"/>
<path d="M105.852 86.0535H106.81V87.2271H105.852V86.0535ZM103.318 85.7367H109.344V86.4927H103.318V85.7367ZM106.32 86.9679C107.76 86.9679 108.631 87.3999 108.631 88.1703C108.631 88.9407 107.76 89.3727 106.32 89.3727C104.873 89.3727 104.002 88.9407 104.002 88.1703C104.002 87.3999 104.873 86.9679 106.32 86.9679ZM106.32 87.6879C105.427 87.6879 104.974 87.8391 104.974 88.1703C104.974 88.4943 105.427 88.6527 106.32 88.6527C107.213 88.6527 107.666 88.4943 107.666 88.1703C107.666 87.8391 107.213 87.6879 106.32 87.6879ZM105.672 83.3319H106.522V83.4975C106.522 84.4983 105.622 85.3191 103.901 85.4775L103.57 84.7287C105.031 84.6063 105.672 84.0159 105.672 83.4975V83.3319ZM106.14 83.3319H106.99V83.4975C106.99 84.0231 107.623 84.6063 109.092 84.7287L108.761 85.4775C107.047 85.3191 106.14 84.5055 106.14 83.4975V83.3319ZM103.865 82.9791H108.804V83.7351H103.865V82.9791ZM114.52 82.7055H115.485V86.4279H114.52V82.7055ZM110.287 85.5423H110.87C112.166 85.5423 113.008 85.5207 113.973 85.3551L114.081 86.1255C113.088 86.2839 112.202 86.3127 110.87 86.3127H110.287V85.5423ZM110.28 83.0079H113.347V84.9951H111.23V86.0463H110.287V84.2751H112.404V83.7639H110.28V83.0079ZM111.05 86.7015H111.993V87.2631H114.535V86.7015H115.485V89.3007H111.05V86.7015ZM111.993 87.9975V88.5375H114.535V87.9975H111.993ZM116.982 86.597C116.982 85.9578 117.067 85.3706 117.235 84.8353C117.406 84.2984 117.659 83.8024 117.995 83.3473H118.867C118.737 83.516 118.616 83.7231 118.504 83.9686C118.391 84.2123 118.293 84.4799 118.209 84.7714C118.128 85.0612 118.063 85.362 118.015 85.674C117.969 85.9859 117.946 86.2936 117.946 86.597C117.946 87.001 117.986 87.4101 118.066 87.8243C118.148 88.2385 118.258 88.622 118.396 88.9748C118.536 89.3294 118.693 89.6191 118.867 89.8441H117.995C117.659 89.389 117.406 88.8939 117.235 88.3586C117.067 87.8217 116.982 87.2345 116.982 86.597ZM120.511 86.4308V88.7319H119.586V84.8047H120.47V85.472H120.516C120.607 85.2521 120.751 85.0774 120.948 84.9478C121.148 84.8183 121.394 84.7535 121.687 84.7535C121.958 84.7535 122.195 84.8115 122.396 84.9274C122.598 85.0433 122.755 85.2112 122.866 85.4311C122.979 85.651 123.034 85.9177 123.032 86.2314V88.7319H122.107V86.3745C122.107 86.112 122.039 85.9066 121.902 85.7584C121.768 85.6101 121.581 85.5359 121.342 85.5359C121.18 85.5359 121.036 85.5717 120.91 85.6433C120.786 85.7132 120.688 85.8146 120.616 85.9476C120.546 86.0805 120.511 86.2416 120.511 86.4308ZM125.686 88.8086C125.303 88.8086 124.97 88.7243 124.689 88.5555C124.408 88.3868 124.19 88.1507 124.035 87.8473C123.881 87.5439 123.804 87.1893 123.804 86.7836C123.804 86.378 123.881 86.0226 124.035 85.7174C124.19 85.4123 124.408 85.1754 124.689 85.0066C124.97 84.8379 125.303 84.7535 125.686 84.7535C126.07 84.7535 126.402 84.8379 126.683 85.0066C126.965 85.1754 127.182 85.4123 127.335 85.7174C127.491 86.0226 127.568 86.378 127.568 86.7836C127.568 87.1893 127.491 87.5439 127.335 87.8473C127.182 88.1507 126.965 88.3868 126.683 88.5555C126.402 88.7243 126.07 88.8086 125.686 88.8086ZM125.691 88.0672C125.899 88.0672 126.073 88.0101 126.213 87.8959C126.353 87.7799 126.457 87.6248 126.525 87.4305C126.595 87.2362 126.63 87.0197 126.63 86.7811C126.63 86.5407 126.595 86.3234 126.525 86.1291C126.457 85.9331 126.353 85.7771 126.213 85.6612C126.073 85.5453 125.899 85.4873 125.691 85.4873C125.478 85.4873 125.301 85.5453 125.16 85.6612C125.02 85.7771 124.915 85.9331 124.845 86.1291C124.777 86.3234 124.743 86.5407 124.743 86.7811C124.743 87.0197 124.777 87.2362 124.845 87.4305C124.915 87.6248 125.02 87.7799 125.16 87.8959C125.301 88.0101 125.478 88.0672 125.691 88.0672ZM128.354 88.7319V84.8047H129.251V85.4592H129.292C129.364 85.2325 129.486 85.0578 129.66 84.9351C129.836 84.8106 130.036 84.7484 130.261 84.7484C130.312 84.7484 130.369 84.751 130.432 84.7561C130.497 84.7595 130.551 84.7655 130.593 84.774V85.6254C130.554 85.6118 130.492 85.5998 130.407 85.5896C130.323 85.5777 130.242 85.5717 130.164 85.5717C129.995 85.5717 129.843 85.6084 129.709 85.6816C129.576 85.7532 129.471 85.853 129.394 85.9808C129.318 86.1086 129.279 86.2561 129.279 86.4231V88.7319H128.354ZM131.208 88.7319V84.8047H132.093V85.472H132.139C132.221 85.247 132.356 85.0714 132.546 84.9453C132.735 84.8174 132.961 84.7535 133.223 84.7535C133.489 84.7535 133.713 84.8183 133.896 84.9478C134.08 85.0757 134.209 85.2504 134.284 85.472H134.325C134.412 85.2538 134.559 85.0799 134.765 84.9504C134.973 84.8191 135.219 84.7535 135.504 84.7535C135.865 84.7535 136.16 84.8677 136.388 85.0961C136.617 85.3245 136.731 85.6578 136.731 86.0959V88.7319H135.803V86.239C135.803 85.9953 135.738 85.8172 135.609 85.7047C135.479 85.5905 135.321 85.5334 135.133 85.5334C134.91 85.5334 134.735 85.6032 134.609 85.743C134.484 85.8811 134.422 86.0609 134.422 86.2825V88.7319H133.515V86.2007C133.515 85.9978 133.453 85.8359 133.331 85.7149C133.209 85.5939 133.051 85.5334 132.855 85.5334C132.722 85.5334 132.601 85.5674 132.492 85.6356C132.383 85.7021 132.296 85.7967 132.231 85.9194C132.166 86.0405 132.134 86.1819 132.134 86.3439V88.7319H131.208ZM138.8 88.8112C138.551 88.8112 138.327 88.7669 138.128 88.6782C137.93 88.5879 137.773 88.4549 137.657 88.2794C137.543 88.1038 137.486 87.8873 137.486 87.6299C137.486 87.4084 137.527 87.2251 137.609 87.0802C137.691 86.9353 137.802 86.8194 137.944 86.7325C138.085 86.6456 138.245 86.5799 138.422 86.5356C138.601 86.4896 138.786 86.4564 138.977 86.4359C139.207 86.412 139.393 86.3907 139.537 86.372C139.68 86.3515 139.784 86.3209 139.848 86.2799C139.915 86.2373 139.948 86.1717 139.948 86.0831V86.0677C139.948 85.8751 139.891 85.726 139.777 85.6203C139.663 85.5146 139.498 85.4618 139.283 85.4618C139.057 85.4618 138.877 85.5112 138.744 85.6101C138.613 85.7089 138.524 85.8257 138.478 85.9603L137.614 85.8376C137.682 85.599 137.795 85.3995 137.951 85.2393C138.108 85.0774 138.3 84.9564 138.527 84.8763C138.753 84.7944 139.004 84.7535 139.278 84.7535C139.468 84.7535 139.656 84.7757 139.843 84.82C140.031 84.8643 140.202 84.9376 140.357 85.0399C140.512 85.1405 140.637 85.2777 140.731 85.4515C140.826 85.6254 140.874 85.8427 140.874 86.1035V88.7319H139.984V88.1924H139.953C139.897 88.3015 139.818 88.4038 139.716 88.4993C139.615 88.593 139.488 88.6689 139.335 88.7268C139.183 88.7831 139.005 88.8112 138.8 88.8112ZM139.041 88.1311C139.226 88.1311 139.387 88.0944 139.524 88.0211C139.66 87.9461 139.765 87.8473 139.838 87.7245C139.913 87.6018 139.951 87.468 139.951 87.3231V86.8603C139.922 86.8842 139.872 86.9064 139.802 86.9268C139.734 86.9473 139.658 86.9652 139.572 86.9805C139.487 86.9959 139.403 87.0095 139.319 87.0214C139.236 87.0334 139.163 87.0436 139.102 87.0521C138.964 87.0709 138.84 87.1015 138.731 87.1441C138.622 87.1868 138.536 87.2464 138.473 87.3231C138.41 87.3981 138.378 87.4953 138.378 87.6146C138.378 87.7851 138.441 87.9138 138.565 88.0007C138.689 88.0876 138.848 88.1311 139.041 88.1311ZM142.73 83.4956V88.7319H141.804V83.4956H142.73ZM145.333 86.597C145.333 87.2345 145.248 87.8217 145.078 88.3586C144.909 88.8939 144.657 89.389 144.321 89.8441H143.449C143.58 89.6754 143.701 89.4691 143.812 89.2254C143.925 88.9816 144.022 88.714 144.104 88.4226C144.187 88.1311 144.252 87.8294 144.298 87.5174C144.346 87.2055 144.37 86.8987 144.37 86.597C144.37 86.193 144.329 85.7839 144.247 85.3697C144.167 84.9555 144.057 84.5711 143.917 84.2166C143.779 83.862 143.623 83.5723 143.449 83.3473H144.321C144.657 83.8024 144.909 84.2984 145.078 84.8353C145.248 85.3706 145.333 85.9578 145.333 86.597Z" fill="#4B4B4B"/>
</g>
<g filter="url(#filter2_d_1114_4840)">
<rect x="181.138" y="11.2385" width="65.8714" height="65.1238" fill="#FBCFE0"/>
<rect x="181.138" y="70.3539" width="65.8714" height="23.6462" fill="white"/>
<path d="M186.966 79.7319L187.825 74.4956H188.541L187.682 79.7319H186.966ZM184.606 78.3819L184.726 77.666H188.756L188.636 78.3819H184.606ZM185.125 79.7319L185.984 74.4956H186.7L185.841 79.7319H185.125ZM184.91 76.5615L185.028 75.8456H189.058L188.94 76.5615H184.91ZM189.667 79.7319V74.4956H193.021V75.2907H190.615V76.7123H192.791V77.5075H190.615V79.7319H189.667ZM193.885 79.7319V74.4956H195.89C196.268 74.4956 196.583 74.5552 196.833 74.6745C197.086 74.7922 197.274 74.9532 197.398 75.1578C197.525 75.3623 197.588 75.5941 197.588 75.8532C197.588 76.0663 197.547 76.2487 197.465 76.4004C197.383 76.5504 197.273 76.6723 197.135 76.766C196.997 76.8598 196.843 76.9271 196.672 76.968V77.0191C196.858 77.0294 197.036 77.0865 197.207 77.1905C197.379 77.2927 197.52 77.4376 197.629 77.6251C197.738 77.8126 197.792 78.0393 197.792 78.3052C197.792 78.5763 197.727 78.82 197.595 79.0365C197.464 79.2513 197.266 79.4209 197.002 79.5453C196.738 79.6697 196.406 79.7319 196.005 79.7319H193.885ZM194.834 78.9393H195.854C196.198 78.9393 196.447 78.8737 196.598 78.7424C196.752 78.6095 196.828 78.439 196.828 78.2311C196.828 78.076 196.79 77.9362 196.713 77.8118C196.637 77.6856 196.527 77.5868 196.386 77.5152C196.245 77.4419 196.076 77.4052 195.88 77.4052H194.834V78.9393ZM194.834 76.7226H195.772C195.936 76.7226 196.083 76.6927 196.215 76.6331C196.346 76.5717 196.449 76.4856 196.524 76.3748C196.601 76.2623 196.639 76.1294 196.639 75.976C196.639 75.7731 196.568 75.6061 196.424 75.4748C196.283 75.3436 196.072 75.278 195.793 75.278H194.834V76.7226ZM203.1 76.2623H202.143C202.116 76.1055 202.066 75.9666 201.992 75.8456C201.919 75.7228 201.828 75.6189 201.719 75.5336C201.61 75.4484 201.485 75.3845 201.346 75.3419C201.208 75.2976 201.058 75.2754 200.898 75.2754C200.613 75.2754 200.361 75.347 200.141 75.4902C199.921 75.6316 199.749 75.8396 199.625 76.114C199.5 76.3868 199.438 76.72 199.438 77.1138C199.438 77.5143 199.5 77.8518 199.625 78.1263C199.751 78.399 199.923 78.6052 200.141 78.745C200.361 78.8831 200.613 78.9521 200.896 78.9521C201.052 78.9521 201.199 78.9316 201.335 78.8907C201.473 78.8481 201.597 78.7859 201.706 78.7041C201.817 78.6223 201.91 78.5217 201.985 78.4024C202.061 78.2831 202.114 78.1467 202.143 77.9933L203.1 77.9984C203.064 78.2473 202.986 78.4808 202.867 78.699C202.749 78.9172 202.595 79.1098 202.404 79.2768C202.213 79.4422 201.99 79.5717 201.734 79.6655C201.479 79.7575 201.195 79.8035 200.883 79.8035C200.423 79.8035 200.012 79.697 199.65 79.4839C199.289 79.2709 199.004 78.9632 198.796 78.5609C198.588 78.1586 198.484 77.6763 198.484 77.1138C198.484 76.5495 198.589 76.0672 198.799 75.6666C199.009 75.2643 199.294 74.9566 199.656 74.7436C200.017 74.5305 200.426 74.424 200.883 74.424C201.174 74.424 201.445 74.4649 201.696 74.5467C201.946 74.6285 202.17 74.7487 202.366 74.9072C202.562 75.064 202.723 75.2566 202.849 75.4851C202.977 75.7118 203.06 75.9709 203.1 76.2623ZM203.968 79.7319V74.4956H207.323V75.2907H204.917V76.7123H207.093V77.5075H204.917V79.7319H203.968ZM208.187 79.7319V74.4956H211.593V75.2907H209.136V76.7123H211.416V77.5075H209.136V78.9368H211.613V79.7319H208.187ZM214.445 79.8316C214.024 79.8316 213.662 79.7251 213.361 79.512C213.061 79.2973 212.83 78.9879 212.668 78.5839C212.508 78.1782 212.427 77.6899 212.427 77.1189C212.429 76.5478 212.51 76.062 212.67 75.6615C212.832 75.2592 213.063 74.9524 213.363 74.741C213.665 74.5297 214.025 74.424 214.445 74.424C214.864 74.424 215.225 74.5297 215.526 74.741C215.828 74.9524 216.059 75.2592 216.219 75.6615C216.381 76.0638 216.462 76.5495 216.462 77.1189C216.462 77.6916 216.381 78.1808 216.219 78.5865C216.059 78.9905 215.828 79.299 215.526 79.512C215.226 79.7251 214.866 79.8316 214.445 79.8316ZM214.445 79.0314C214.772 79.0314 215.03 78.8703 215.22 78.5481C215.41 78.2243 215.506 77.7478 215.506 77.1189C215.506 76.703 215.462 76.3535 215.375 76.0706C215.289 75.7876 215.166 75.5745 215.007 75.4314C214.849 75.2865 214.661 75.214 214.445 75.214C214.119 75.214 213.862 75.376 213.673 75.6998C213.483 76.022 213.388 76.495 213.386 77.1189C213.385 77.5365 213.426 77.8876 213.512 78.1723C213.598 78.4569 213.721 78.6717 213.88 78.8166C214.038 78.9598 214.227 79.0314 214.445 79.0314Z" fill="#FBCFE0"/>
<path d="M189.578 82.7055H190.485V86.8815H189.578V82.7055ZM188.765 84.3471H189.83V85.1247H188.765V84.3471ZM188.196 82.8351H189.089V86.6655H188.196V82.8351ZM184.776 83.3895H188.009V84.1239H184.776V83.3895ZM186.403 84.3399C187.238 84.3399 187.843 84.8151 187.843 85.5063C187.843 86.1975 187.238 86.6655 186.403 86.6655C185.568 86.6655 184.963 86.1975 184.963 85.5063C184.963 84.8151 185.568 84.3399 186.403 84.3399ZM186.403 85.0239C186.05 85.0239 185.813 85.1967 185.813 85.5063C185.813 85.8159 186.05 85.9887 186.403 85.9887C186.749 85.9887 186.986 85.8159 186.986 85.5063C186.986 85.1967 186.749 85.0239 186.403 85.0239ZM185.921 82.7703H186.864V83.8935H185.921V82.7703ZM188.232 86.9535C189.657 86.9535 190.521 87.3855 190.521 88.1631C190.521 88.9335 189.657 89.3727 188.232 89.3727C186.799 89.3727 185.935 88.9335 185.935 88.1631C185.935 87.3855 186.799 86.9535 188.232 86.9535ZM188.232 87.6663C187.339 87.6663 186.893 87.8175 186.893 88.1631C186.893 88.5015 187.339 88.6599 188.232 88.6599C189.117 88.6599 189.564 88.5015 189.564 88.1631C189.564 87.8175 189.117 87.6663 188.232 87.6663ZM191.428 85.9959H197.454V86.7663H191.428V85.9959ZM193.955 85.1463H194.913V86.1615H193.955V85.1463ZM192.098 87.2199H196.727V89.3727H195.77V87.9759H192.098V87.2199ZM192.198 82.8711H193.142V83.4615H195.741V82.8711H196.691V85.4487H192.198V82.8711ZM193.142 84.1743V84.6999H195.741V84.1743H193.142ZM198.469 86.597C198.469 85.9578 198.554 85.3706 198.722 84.8353C198.893 84.2984 199.146 83.8024 199.482 83.3473H200.354C200.224 83.516 200.103 83.7231 199.99 83.9686C199.878 84.2123 199.78 84.4799 199.696 84.7714C199.615 85.0612 199.55 85.362 199.502 85.674C199.456 85.9859 199.433 86.2936 199.433 86.597C199.433 87.001 199.473 87.4101 199.553 87.8243C199.635 88.2385 199.745 88.622 199.883 88.9748C200.023 89.3294 200.18 89.6191 200.354 89.8441H199.482C199.146 89.389 198.893 88.8939 198.722 88.3586C198.554 87.8217 198.469 87.2345 198.469 86.597ZM201.998 86.4308V88.7319H201.073V83.4956H201.978V85.472H202.024C202.116 85.2504 202.258 85.0757 202.451 84.9478C202.645 84.8183 202.892 84.7535 203.192 84.7535C203.465 84.7535 203.703 84.8106 203.906 84.9248C204.108 85.039 204.265 85.2061 204.376 85.426C204.489 85.6459 204.545 85.9143 204.545 86.2314V88.7319H203.619V86.3745C203.619 86.1103 203.551 85.9049 203.415 85.7584C203.28 85.6101 203.091 85.5359 202.847 85.5359C202.683 85.5359 202.537 85.5717 202.407 85.6433C202.279 85.7132 202.179 85.8146 202.106 85.9476C202.034 86.0805 201.998 86.2416 201.998 86.4308ZM206.618 88.8112C206.37 88.8112 206.145 88.7669 205.946 88.6782C205.748 88.5879 205.591 88.4549 205.475 88.2794C205.361 88.1038 205.304 87.8873 205.304 87.6299C205.304 87.4084 205.345 87.2251 205.427 87.0802C205.509 86.9353 205.62 86.8194 205.762 86.7325C205.903 86.6456 206.063 86.5799 206.24 86.5356C206.419 86.4896 206.604 86.4564 206.795 86.4359C207.025 86.412 207.212 86.3907 207.355 86.372C207.498 86.3515 207.602 86.3209 207.667 86.2799C207.733 86.2373 207.766 86.1717 207.766 86.0831V86.0677C207.766 85.8751 207.709 85.726 207.595 85.6203C207.481 85.5146 207.316 85.4618 207.102 85.4618C206.875 85.4618 206.695 85.5112 206.562 85.6101C206.431 85.7089 206.342 85.8257 206.296 85.9603L205.432 85.8376C205.5 85.599 205.613 85.3995 205.77 85.2393C205.926 85.0774 206.118 84.9564 206.345 84.8763C206.572 84.7944 206.822 84.7535 207.097 84.7535C207.286 84.7535 207.474 84.7757 207.662 84.82C207.849 84.8643 208.02 84.9376 208.175 85.0399C208.331 85.1405 208.455 85.2777 208.549 85.4515C208.644 85.6254 208.692 85.8427 208.692 86.1035V88.7319H207.802V88.1924H207.772C207.715 88.3015 207.636 88.4038 207.534 88.4993C207.433 88.593 207.306 88.6689 207.153 88.7268C207.001 88.7831 206.823 88.8112 206.618 88.8112ZM206.859 88.1311C207.045 88.1311 207.206 88.0944 207.342 88.0211C207.478 87.9461 207.583 87.8473 207.656 87.7245C207.731 87.6018 207.769 87.468 207.769 87.3231V86.8603C207.74 86.8842 207.691 86.9064 207.621 86.9268C207.552 86.9473 207.476 86.9652 207.391 86.9805C207.305 86.9959 207.221 87.0095 207.137 87.0214C207.054 87.0334 206.981 87.0436 206.92 87.0521C206.782 87.0709 206.658 87.1015 206.549 87.1441C206.44 87.1868 206.354 87.2464 206.291 87.3231C206.228 87.3981 206.197 87.4953 206.197 87.6146C206.197 87.7851 206.259 87.9138 206.383 88.0007C206.508 88.0876 206.666 88.1311 206.859 88.1311ZM209.623 90.2047V84.8047H210.533V85.4541H210.587C210.634 85.3586 210.702 85.2572 210.789 85.1498C210.875 85.0407 210.993 84.9478 211.141 84.8711C211.29 84.7927 211.479 84.7535 211.709 84.7535C212.012 84.7535 212.286 84.8311 212.53 84.9862C212.775 85.1396 212.97 85.3672 213.113 85.6689C213.258 85.9689 213.33 86.337 213.33 86.7734C213.33 87.2047 213.259 87.5711 213.118 87.8728C212.976 88.1745 212.784 88.4047 212.54 88.5632C212.296 88.7217 212.02 88.801 211.712 88.801C211.487 88.801 211.3 88.7635 211.152 88.6885C211.003 88.6135 210.884 88.5231 210.794 88.4174C210.705 88.3101 210.636 88.2086 210.587 88.1132H210.548V90.2047H209.623ZM210.53 86.7683C210.53 87.0223 210.566 87.2447 210.638 87.4356C210.711 87.6265 210.816 87.7757 210.952 87.8831C211.09 87.9888 211.257 88.0416 211.453 88.0416C211.658 88.0416 211.829 87.987 211.967 87.878C212.105 87.7672 212.209 87.6163 212.279 87.4254C212.351 87.2328 212.387 87.0138 212.387 86.7683C212.387 86.5245 212.352 86.3081 212.282 86.1189C212.212 85.9297 212.108 85.7814 211.97 85.674C211.832 85.5666 211.66 85.5129 211.453 85.5129C211.256 85.5129 211.088 85.5649 210.95 85.6689C210.812 85.7728 210.707 85.9186 210.635 86.1061C210.565 86.2936 210.53 86.5143 210.53 86.7683ZM214.123 90.2047V84.8047H215.033V85.4541H215.087C215.134 85.3586 215.202 85.2572 215.289 85.1498C215.375 85.0407 215.493 84.9478 215.641 84.8711C215.79 84.7927 215.979 84.7535 216.209 84.7535C216.512 84.7535 216.786 84.8311 217.03 84.9862C217.275 85.1396 217.47 85.3672 217.613 85.6689C217.758 85.9689 217.83 86.337 217.83 86.7734C217.83 87.2047 217.759 87.5711 217.618 87.8728C217.476 88.1745 217.284 88.4047 217.04 88.5632C216.796 88.7217 216.52 88.801 216.212 88.801C215.987 88.801 215.8 88.7635 215.652 88.6885C215.503 88.6135 215.384 88.5231 215.294 88.4174C215.205 88.3101 215.136 88.2086 215.087 88.1132H215.048V90.2047H214.123ZM215.03 86.7683C215.03 87.0223 215.066 87.2447 215.138 87.4356C215.211 87.6265 215.316 87.7757 215.452 87.8831C215.59 87.9888 215.757 88.0416 215.953 88.0416C216.158 88.0416 216.329 87.987 216.467 87.878C216.605 87.7672 216.709 87.6163 216.779 87.4254C216.851 87.2328 216.887 87.0138 216.887 86.7683C216.887 86.5245 216.852 86.3081 216.782 86.1189C216.712 85.9297 216.608 85.7814 216.47 85.674C216.332 85.5666 216.16 85.5129 215.953 85.5129C215.756 85.5129 215.588 85.5649 215.45 85.6689C215.312 85.7728 215.207 85.9186 215.135 86.1061C215.065 86.2936 215.03 86.5143 215.03 86.7683ZM219.064 90.2047C218.938 90.2047 218.821 90.1944 218.714 90.174C218.608 90.1552 218.524 90.1331 218.461 90.1075L218.676 89.3865C218.81 89.4257 218.931 89.4444 219.036 89.4427C219.142 89.441 219.235 89.4078 219.315 89.343C219.397 89.2799 219.466 89.1743 219.522 89.026L219.601 88.8138L218.177 84.8047H219.159L220.064 87.7706H220.105L221.013 84.8047H221.997L220.425 89.2075C220.351 89.4155 220.254 89.5936 220.133 89.7419C220.012 89.8919 219.864 90.0061 219.688 90.0845C219.514 90.1646 219.306 90.2047 219.064 90.2047ZM224.289 86.597C224.289 87.2345 224.204 87.8217 224.034 88.3586C223.865 88.8939 223.612 89.389 223.277 89.8441H222.405C222.536 89.6754 222.657 89.4691 222.768 89.2254C222.88 88.9816 222.978 88.714 223.059 88.4226C223.143 88.1311 223.208 87.8294 223.254 87.5174C223.301 87.2055 223.325 86.8987 223.325 86.597C223.325 86.193 223.284 85.7839 223.203 85.3697C223.122 84.9555 223.012 84.5711 222.873 84.2166C222.735 83.862 222.579 83.5723 222.405 83.3473H223.277C223.612 83.8024 223.865 84.2984 224.034 84.8353C224.204 85.3706 224.289 85.9578 224.289 86.597Z" fill="#4B4B4B"/>
</g>
<g filter="url(#filter3_d_1114_4840)">
<rect x="262.625" y="11.2385" width="65.8715" height="65.1239" fill="#FECFAD"/>
<rect x="262.625" y="70.354" width="65.8715" height="23.6462" fill="white"/>
<path d="M268.453 79.7321L269.312 74.4957H270.028L269.169 79.7321H268.453ZM266.093 78.3821L266.213 77.6661H270.243L270.122 78.3821H266.093ZM266.612 79.7321L267.471 74.4957H268.187L267.328 79.7321H266.612ZM266.397 76.5616L266.515 75.8457H270.544L270.427 76.5616H266.397ZM271.153 79.7321V74.4957H274.508V75.2909H272.102V76.7125H274.278V77.5076H272.102V79.7321H271.153ZM275.372 79.7321V74.4957H278.778V75.2909H276.321V76.7125H278.601V77.5076H276.321V78.9369H278.798V79.7321H275.372ZM284.228 76.2625H283.271C283.244 76.1056 283.194 75.9667 283.121 75.8457C283.047 75.723 282.956 75.619 282.847 75.5338C282.738 75.4485 282.613 75.3846 282.474 75.342C282.336 75.2977 282.186 75.2755 282.026 75.2755C281.742 75.2755 281.489 75.3471 281.269 75.4903C281.05 75.6318 280.877 75.8397 280.753 76.1142C280.629 76.3869 280.566 76.7201 280.566 77.1139C280.566 77.5144 280.629 77.8519 280.753 78.1264C280.879 78.3991 281.051 78.6054 281.269 78.7451C281.489 78.8832 281.741 78.9522 282.024 78.9522C282.18 78.9522 282.327 78.9318 282.463 78.8909C282.602 78.8482 282.725 78.786 282.834 78.7042C282.945 78.6224 283.038 78.5218 283.113 78.4025C283.19 78.2832 283.242 78.1468 283.271 77.9934L284.228 77.9985C284.192 78.2474 284.114 78.4809 283.995 78.6991C283.877 78.9173 283.723 79.1099 283.532 79.2769C283.341 79.4423 283.118 79.5718 282.862 79.6656C282.607 79.7576 282.323 79.8036 282.011 79.8036C281.551 79.8036 281.14 79.6971 280.779 79.484C280.417 79.271 280.132 78.9633 279.925 78.561C279.717 78.1588 279.613 77.6764 279.613 77.1139C279.613 76.5497 279.717 76.0673 279.927 75.6667C280.137 75.2644 280.422 74.9568 280.784 74.7437C281.145 74.5306 281.554 74.4241 282.011 74.4241C282.302 74.4241 282.573 74.465 282.824 74.5468C283.075 74.6286 283.298 74.7488 283.494 74.9073C283.69 75.0642 283.851 75.2568 283.977 75.4852C284.105 75.7119 284.188 75.971 284.228 76.2625ZM285.096 79.7321V74.4957H288.451V75.2909H286.045V76.7125H288.221V77.5076H286.045V79.7321H285.096ZM289.334 79.7321H288.321L290.165 74.4957H291.336L293.182 79.7321H292.169L290.771 75.5696H290.73L289.334 79.7321ZM289.367 77.6789H292.128V78.4409H289.367V77.6789ZM295.646 79.7321H293.871V74.4957H295.682C296.201 74.4957 296.648 74.6005 297.021 74.8102C297.396 75.0181 297.684 75.3173 297.886 75.7076C298.087 76.098 298.187 76.565 298.187 77.1088C298.187 77.6542 298.086 78.123 297.883 78.515C297.682 78.9071 297.391 79.2079 297.011 79.4176C296.633 79.6272 296.178 79.7321 295.646 79.7321ZM294.82 78.9113H295.6C295.965 78.9113 296.269 78.8448 296.513 78.7119C296.756 78.5772 296.94 78.3769 297.062 78.111C297.185 77.8434 297.246 77.5093 297.246 77.1088C297.246 76.7082 297.185 76.3758 297.062 76.1116C296.94 75.8457 296.758 75.6471 296.518 75.5159C296.279 75.3829 295.982 75.3164 295.628 75.3164H294.82V78.9113Z" fill="#FECFAD"/>
<path d="M270.057 84.1601H271.281V84.9161H270.057V84.1601ZM270.042 85.4705H271.259V86.2337H270.042V85.4705ZM266.313 83.2817H269.97V84.0377H266.313V83.2817ZM268.185 84.2537C269.099 84.2537 269.747 84.7577 269.747 85.4849C269.747 86.2193 269.099 86.7161 268.185 86.7161C267.27 86.7161 266.622 86.2193 266.622 85.4849C266.622 84.7577 267.27 84.2537 268.185 84.2537ZM268.185 84.9665C267.782 84.9665 267.515 85.1393 267.515 85.4849C267.515 85.8305 267.782 86.0105 268.185 86.0105C268.581 86.0105 268.862 85.8305 268.862 85.4849C268.862 85.1393 268.581 84.9665 268.185 84.9665ZM267.71 82.6481H268.667V83.8001H267.71V82.6481ZM270.914 82.7057H271.871V86.7665H270.914V82.7057ZM267.429 87.0473H271.871V89.3009H267.429V87.0473ZM270.935 87.7961H268.372V88.5449H270.935V87.7961ZM275.449 86.4569H276.407V87.9761H275.449V86.4569ZM275.932 83.0441C277.357 83.0441 278.423 83.7713 278.423 84.8801C278.423 86.0033 277.357 86.7233 275.932 86.7233C274.506 86.7233 273.44 86.0033 273.44 84.8801C273.44 83.7713 274.506 83.0441 275.932 83.0441ZM275.932 83.8001C275.017 83.8001 274.384 84.2033 274.384 84.8801C274.384 85.5713 275.017 85.9673 275.932 85.9673C276.846 85.9673 277.48 85.5713 277.48 84.8801C277.48 84.2033 276.846 83.8001 275.932 83.8001ZM272.922 87.8249H278.956V88.6025H272.922V87.8249ZM279.956 86.5971C279.956 85.9579 280.04 85.3707 280.209 84.8355C280.379 84.2985 280.633 83.8025 280.968 83.3474H281.84C281.711 83.5161 281.59 83.7232 281.477 83.9687C281.365 84.2125 281.267 84.4801 281.183 84.7715C281.101 85.0613 281.037 85.3622 280.989 85.6741C280.943 85.986 280.92 86.2937 280.92 86.5971C280.92 87.0011 280.96 87.4102 281.04 87.8244C281.122 88.2386 281.232 88.6221 281.37 88.975C281.51 89.3295 281.666 89.6193 281.84 89.8443H280.968C280.633 89.3892 280.379 88.894 280.209 88.3588C280.04 87.8218 279.956 87.2346 279.956 86.5971ZM283.689 88.8113C283.441 88.8113 283.216 88.767 283.017 88.6784C282.819 88.588 282.662 88.4551 282.547 88.2795C282.432 88.1039 282.375 87.8875 282.375 87.6301C282.375 87.4085 282.416 87.2252 282.498 87.0804C282.58 86.9355 282.691 86.8196 282.833 86.7326C282.974 86.6457 283.134 86.5801 283.311 86.5357C283.49 86.4897 283.675 86.4565 283.866 86.436C284.096 86.4122 284.283 86.3909 284.426 86.3721C284.569 86.3517 284.673 86.321 284.738 86.2801C284.804 86.2375 284.837 86.1718 284.837 86.0832V86.0679C284.837 85.8752 284.78 85.7261 284.666 85.6204C284.552 85.5147 284.387 85.4619 284.173 85.4619C283.946 85.4619 283.766 85.5113 283.633 85.6102C283.502 85.709 283.413 85.8258 283.367 85.9605L282.503 85.8377C282.571 85.5991 282.684 85.3997 282.841 85.2394C282.997 85.0775 283.189 84.9565 283.416 84.8764C283.643 84.7946 283.893 84.7536 284.168 84.7536C284.357 84.7536 284.545 84.7758 284.733 84.8201C284.92 84.8644 285.091 84.9377 285.247 85.04C285.402 85.1406 285.526 85.2778 285.62 85.4517C285.715 85.6255 285.763 85.8429 285.763 86.1036V88.7321H284.873V88.1926H284.843C284.786 88.3017 284.707 88.4039 284.605 88.4994C284.504 88.5931 284.377 88.669 284.224 88.7269C284.072 88.7832 283.894 88.8113 283.689 88.8113ZM283.93 88.1312C284.116 88.1312 284.277 88.0946 284.413 88.0213C284.549 87.9463 284.654 87.8474 284.728 87.7247C284.803 87.6019 284.84 87.4681 284.84 87.3232V86.8605C284.811 86.8843 284.762 86.9065 284.692 86.9269C284.624 86.9474 284.547 86.9653 284.462 86.9806C284.376 86.996 284.292 87.0096 284.208 87.0215C284.125 87.0335 284.053 87.0437 283.991 87.0522C283.853 87.071 283.73 87.1017 283.62 87.1443C283.511 87.1869 283.425 87.2465 283.362 87.3232C283.299 87.3982 283.268 87.4954 283.268 87.6147C283.268 87.7852 283.33 87.9139 283.454 88.0008C283.579 88.0877 283.737 88.1312 283.93 88.1312ZM290.061 84.8048L288.662 88.7321H287.64L286.241 84.8048H287.228L288.131 87.7221H288.172L289.077 84.8048H290.061ZM292.307 88.8088C291.913 88.8088 291.573 88.7269 291.286 88.5633C291.002 88.398 290.783 88.1644 290.629 87.8627C290.476 87.5593 290.399 87.2022 290.399 86.7914C290.399 86.3875 290.476 86.0329 290.629 85.7278C290.784 85.421 291.001 85.1823 291.279 85.0119C291.557 84.8397 291.883 84.7536 292.258 84.7536C292.5 84.7536 292.728 84.7929 292.943 84.8713C293.16 84.948 293.351 85.0673 293.516 85.2292C293.683 85.3911 293.814 85.5974 293.91 85.848C294.005 86.0968 294.053 86.3934 294.053 86.7377V87.0215H290.834V86.3977H293.166C293.164 86.2204 293.126 86.0627 293.051 85.9247C292.976 85.7849 292.871 85.675 292.736 85.5948C292.603 85.5147 292.448 85.4747 292.271 85.4747C292.082 85.4747 291.915 85.5207 291.772 85.6127C291.629 85.7031 291.517 85.8224 291.437 85.9707C291.359 86.1173 291.319 86.2784 291.317 86.4539V86.9985C291.317 87.2269 291.359 87.423 291.442 87.5866C291.526 87.7485 291.643 87.873 291.793 87.9599C291.943 88.0451 292.118 88.0877 292.319 88.0877C292.454 88.0877 292.576 88.069 292.685 88.0315C292.794 87.9923 292.889 87.9352 292.969 87.8602C293.049 87.7852 293.109 87.6923 293.15 87.5815L294.015 87.6786C293.96 87.9071 293.856 88.1065 293.703 88.2769C293.551 88.4457 293.357 88.5769 293.12 88.6707C292.883 88.7627 292.612 88.8088 292.307 88.8088ZM294.836 88.7321V84.8048H295.733V85.4593H295.774C295.846 85.2326 295.969 85.0579 296.142 84.9352C296.318 84.8107 296.518 84.7485 296.743 84.7485C296.794 84.7485 296.852 84.7511 296.915 84.7562C296.979 84.7596 297.033 84.7656 297.076 84.7741V85.6255C297.036 85.6119 296.974 85.6 296.889 85.5897C296.805 85.5778 296.725 85.5718 296.646 85.5718C296.477 85.5718 296.326 85.6085 296.191 85.6818C296.058 85.7534 295.953 85.8531 295.877 85.9809C295.8 86.1088 295.761 86.2562 295.761 86.4232V88.7321H294.836ZM300.795 85.8429L299.951 85.9349C299.927 85.8497 299.885 85.7696 299.826 85.6946C299.768 85.6196 299.689 85.559 299.59 85.513C299.491 85.467 299.37 85.444 299.227 85.444C299.035 85.444 298.873 85.4857 298.741 85.5693C298.612 85.6528 298.548 85.761 298.55 85.894C298.548 86.0082 298.59 86.1011 298.675 86.1727C298.762 86.2443 298.905 86.3031 299.105 86.3491L299.774 86.4923C300.146 86.5724 300.422 86.6994 300.603 86.8732C300.785 87.0471 300.877 87.2747 300.879 87.5559C300.877 87.8031 300.805 88.0213 300.662 88.2105C300.52 88.398 300.323 88.5446 300.071 88.6502C299.819 88.7559 299.529 88.8088 299.202 88.8088C298.721 88.8088 298.334 88.7082 298.041 88.5071C297.748 88.3042 297.573 88.0221 297.517 87.6607L298.419 87.5738C298.46 87.7511 298.547 87.8849 298.68 87.9752C298.813 88.0656 298.986 88.1107 299.199 88.1107C299.419 88.1107 299.595 88.0656 299.728 87.9752C299.863 87.8849 299.93 87.7732 299.93 87.6403C299.93 87.5278 299.887 87.4349 299.8 87.3616C299.715 87.2883 299.582 87.2321 299.401 87.1929L298.731 87.0522C298.355 86.9738 298.076 86.8417 297.895 86.6559C297.714 86.4684 297.625 86.2315 297.627 85.9451C297.625 85.7031 297.691 85.4934 297.824 85.3161C297.958 85.1372 298.145 84.9991 298.383 84.9019C298.624 84.8031 298.901 84.7536 299.214 84.7536C299.675 84.7536 300.037 84.8517 300.301 85.0477C300.567 85.2437 300.731 85.5088 300.795 85.8429ZM301.642 88.7321V84.8048H302.568V88.7321H301.642ZM302.107 84.2474C301.961 84.2474 301.835 84.1988 301.729 84.1017C301.623 84.0028 301.571 83.8843 301.571 83.7463C301.571 83.6065 301.623 83.488 301.729 83.3909C301.835 83.292 301.961 83.2426 302.107 83.2426C302.256 83.2426 302.382 83.292 302.486 83.3909C302.592 83.488 302.644 83.6065 302.644 83.7463C302.644 83.8843 302.592 84.0028 302.486 84.1017C302.382 84.1988 302.256 84.2474 302.107 84.2474ZM305.233 88.8088C304.849 88.8088 304.517 88.7244 304.235 88.5556C303.954 88.3869 303.736 88.1508 303.581 87.8474C303.427 87.544 303.351 87.1894 303.351 86.7838C303.351 86.3781 303.427 86.0227 303.581 85.7176C303.736 85.4125 303.954 85.1755 304.235 85.0068C304.517 84.838 304.849 84.7536 305.233 84.7536C305.616 84.7536 305.948 84.838 306.23 85.0068C306.511 85.1755 306.728 85.4125 306.882 85.7176C307.037 86.0227 307.114 86.3781 307.114 86.7838C307.114 87.1894 307.037 87.544 306.882 87.8474C306.728 88.1508 306.511 88.3869 306.23 88.5556C305.948 88.7244 305.616 88.8088 305.233 88.8088ZM305.238 88.0673C305.446 88.0673 305.619 88.0102 305.759 87.896C305.899 87.7801 306.003 87.625 306.071 87.4306C306.141 87.2363 306.176 87.0198 306.176 86.7812C306.176 86.5409 306.141 86.3235 306.071 86.1292C306.003 85.9332 305.899 85.7772 305.759 85.6613C305.619 85.5454 305.446 85.4875 305.238 85.4875C305.025 85.4875 304.847 85.5454 304.706 85.6613C304.566 85.7772 304.461 85.9332 304.391 86.1292C304.323 86.3235 304.289 86.5409 304.289 86.7812C304.289 87.0198 304.323 87.2363 304.391 87.4306C304.461 87.625 304.566 87.7801 304.706 87.896C304.847 88.0102 305.025 88.0673 305.238 88.0673ZM308.826 86.4309V88.7321H307.9V84.8048H308.785V85.4721H308.831C308.921 85.2522 309.065 85.0775 309.263 84.948C309.462 84.8184 309.708 84.7536 310.002 84.7536C310.273 84.7536 310.509 84.8116 310.71 84.9275C310.913 85.0434 311.07 85.2113 311.18 85.4312C311.293 85.6511 311.348 85.9179 311.347 86.2315V88.7321H310.421V86.3747C310.421 86.1122 310.353 85.9068 310.216 85.7585C310.082 85.6102 309.895 85.536 309.656 85.536C309.495 85.536 309.351 85.5718 309.224 85.6434C309.1 85.7133 309.002 85.8147 308.93 85.9477C308.86 86.0806 308.826 86.2417 308.826 86.4309ZM313.939 86.5971C313.939 87.2346 313.854 87.8218 313.683 88.3588C313.515 88.894 313.262 89.3892 312.927 89.8443H312.055C312.186 89.6755 312.307 89.4693 312.418 89.2255C312.53 88.9818 312.628 88.7142 312.709 88.4227C312.793 88.1312 312.858 87.8295 312.904 87.5176C312.951 87.2056 312.975 86.8988 312.975 86.5971C312.975 86.1931 312.934 85.784 312.853 85.3698C312.772 84.9556 312.662 84.5713 312.523 84.2167C312.385 83.8622 312.229 83.5724 312.055 83.3474H312.927C313.262 83.8025 313.515 84.2985 313.683 84.8355C313.854 85.3707 313.939 85.9579 313.939 86.5971Z" fill="#4B4B4B"/>
</g>
<g filter="url(#filter4_d_1114_4840)">
<rect x="58.9082" y="109" width="65.8714" height="65.1238" fill="#B5D3FF"/>
<rect x="58.9082" y="168.115" width="65.8714" height="23.6462" fill="white"/>
<path d="M64.7358 177.493L65.5949 172.257H66.3108L65.4517 177.493H64.7358ZM62.3759 176.143L62.496 175.427H66.5256L66.4054 176.143H62.3759ZM62.8949 177.493L63.754 172.257H64.4699L63.6108 177.493H62.8949ZM62.6801 174.323L62.7977 173.607H66.8273L66.7097 174.323H62.6801ZM67.4364 177.493V172.257H69.441C69.8194 172.257 70.1339 172.317 70.3845 172.436C70.6367 172.554 70.8251 172.715 70.9495 172.919C71.0757 173.124 71.1387 173.356 71.1387 173.615C71.1387 173.828 71.0978 174.01 71.016 174.162C70.9342 174.312 70.8242 174.434 70.6862 174.527C70.5481 174.621 70.3938 174.689 70.2234 174.729V174.781C70.4092 174.791 70.5873 174.848 70.7578 174.952C70.9299 175.054 71.0705 175.199 71.1796 175.387C71.2887 175.574 71.3433 175.801 71.3433 176.067C71.3433 176.338 71.2776 176.581 71.1464 176.798C71.0151 177.013 70.8174 177.182 70.5532 177.307C70.289 177.431 69.9566 177.493 69.556 177.493H67.4364ZM68.385 176.701H69.4052C69.7495 176.701 69.9975 176.635 70.1492 176.504C70.3026 176.371 70.3793 176.201 70.3793 175.993C70.3793 175.837 70.341 175.698 70.2643 175.573C70.1876 175.447 70.0785 175.348 69.937 175.277C69.7955 175.203 69.6268 175.167 69.4308 175.167H68.385V176.701ZM68.385 174.484H69.3234C69.487 174.484 69.6345 174.454 69.7657 174.395C69.897 174.333 70.0001 174.247 70.0751 174.136C70.1518 174.024 70.1901 173.891 70.1901 173.737C70.1901 173.535 70.1186 173.368 69.9754 173.236C69.8339 173.105 69.6234 173.039 69.3438 173.039H68.385V174.484ZM73.9378 177.565C73.5969 177.565 73.2918 177.501 73.0225 177.373C72.7531 177.244 72.5392 177.066 72.3807 176.841C72.2239 176.616 72.1404 176.359 72.1301 176.069H73.0506C73.0676 176.284 73.1605 176.46 73.3293 176.596C73.498 176.731 73.7009 176.798 73.9378 176.798C74.1236 176.798 74.2889 176.755 74.4338 176.67C74.5787 176.585 74.6929 176.466 74.7764 176.315C74.86 176.163 74.9009 175.99 74.8992 175.796C74.9009 175.598 74.8591 175.422 74.7739 175.269C74.6887 175.116 74.5719 174.995 74.4236 174.908C74.2753 174.82 74.1048 174.776 73.9122 174.776C73.7554 174.774 73.6012 174.803 73.4494 174.862C73.2977 174.922 73.1776 175.001 73.0889 175.098L72.2324 174.957L72.506 172.257H75.5435V173.05H73.2909L73.1401 174.438H73.1708C73.2679 174.324 73.4051 174.229 73.5824 174.154C73.7597 174.077 73.954 174.039 74.1654 174.039C74.4824 174.039 74.7654 174.114 75.0142 174.264C75.2631 174.412 75.4591 174.617 75.6023 174.878C75.7455 175.139 75.8171 175.437 75.8171 175.773C75.8171 176.119 75.7369 176.427 75.5767 176.698C75.4182 176.968 75.1975 177.18 74.9145 177.335C74.6333 177.488 74.3077 177.565 73.9378 177.565ZM78.4992 177.493H76.7247V172.257H78.535C79.0548 172.257 79.5014 172.362 79.8747 172.572C80.2497 172.779 80.5378 173.079 80.7389 173.469C80.9401 173.859 81.0406 174.326 81.0406 174.87C81.0406 175.416 80.9392 175.884 80.7364 176.276C80.5352 176.668 80.2446 176.969 79.8645 177.179C79.4861 177.389 79.031 177.493 78.4992 177.493ZM77.6733 176.673H78.4531C78.8179 176.673 79.1222 176.606 79.3659 176.473C79.6097 176.339 79.7929 176.138 79.9156 175.872C80.0384 175.605 80.0997 175.271 80.0997 174.87C80.0997 174.47 80.0384 174.137 79.9156 173.873C79.7929 173.607 79.6114 173.408 79.371 173.277C79.1324 173.144 78.8358 173.078 78.4813 173.078H77.6733V176.673ZM83.77 177.565C83.4019 177.565 83.0746 177.502 82.7882 177.376C82.5036 177.25 82.2786 177.074 82.1132 176.849C81.9479 176.624 81.8601 176.364 81.8499 176.069H82.8112C82.8198 176.211 82.8666 176.334 82.9519 176.44C83.0371 176.544 83.1504 176.625 83.2919 176.683C83.4334 176.741 83.5919 176.77 83.7675 176.77C83.955 176.77 84.1212 176.737 84.2661 176.673C84.411 176.606 84.5243 176.514 84.6061 176.397C84.6879 176.279 84.728 176.143 84.7263 175.99C84.728 175.831 84.6871 175.692 84.6036 175.571C84.52 175.45 84.399 175.355 84.2405 175.287C84.0837 175.219 83.8945 175.185 83.6729 175.185H83.2101V174.453H83.6729C83.8553 174.453 84.0146 174.422 84.151 174.359C84.2891 174.296 84.3973 174.207 84.4757 174.093C84.5541 173.977 84.5925 173.843 84.5908 173.691C84.5925 173.543 84.5592 173.414 84.4911 173.305C84.4246 173.195 84.33 173.108 84.2073 173.047C84.0862 172.986 83.9439 172.955 83.7803 172.955C83.62 172.955 83.4717 172.984 83.3354 173.042C83.199 173.1 83.0891 173.183 83.0056 173.29C82.922 173.396 82.8777 173.522 82.8726 173.668H81.9598C81.9666 173.375 82.051 173.118 82.2129 172.896C82.3766 172.673 82.5948 172.499 82.8675 172.375C83.1402 172.249 83.4462 172.185 83.7854 172.185C84.1348 172.185 84.4382 172.251 84.6956 172.382C84.9547 172.512 85.155 172.687 85.2965 172.906C85.4379 173.126 85.5087 173.369 85.5087 173.635C85.5104 173.93 85.4235 174.177 85.2479 174.377C85.074 174.576 84.8456 174.706 84.5627 174.768V174.809C84.9308 174.86 85.2129 174.996 85.409 175.218C85.6067 175.438 85.7047 175.711 85.703 176.039C85.703 176.332 85.6195 176.594 85.4524 176.826C85.2871 177.056 85.0587 177.237 84.7672 177.368C84.4774 177.499 84.145 177.565 83.77 177.565ZM86.6318 177.493V172.257H89.9863V173.052H87.5803V174.474H89.7562V175.269H87.5803V177.493H86.6318ZM90.8505 177.493V172.257H94.2051V173.052H91.7991V174.474H93.9749V175.269H91.7991V177.493H90.8505Z" fill="#B4D3FF"/>
<path d="M65.1016 180.517H65.908V180.64C65.908 181.763 64.9072 182.649 63.1864 182.843L62.8696 182.123C64.3744 181.972 65.1016 181.295 65.1016 180.64V180.517ZM65.2672 180.517H66.0808V180.64C66.0808 181.295 66.8008 181.972 68.3056 182.123L67.9888 182.843C66.268 182.649 65.2672 181.763 65.2672 180.64V180.517ZM62.5744 183.102H68.6008V183.858H62.5744V183.102ZM63.2656 184.247H67.8736V185.982H64.216V186.551H63.2728V185.32H66.9304V184.96H63.2656V184.247ZM63.2728 186.371H68.0464V187.091H63.2728V186.371ZM69.1978 183.657H75.2242V184.413H69.1978V183.657ZM69.7234 180.676H74.6914V181.439H69.7234V180.676ZM69.7738 182.454H74.641V183.217H69.7738V182.454ZM70.573 180.957H71.5306V182.937H70.573V180.957ZM72.8842 180.957H73.8418V182.937H72.8842V180.957ZM69.8962 184.888H74.5042V187.062H69.8962V184.888ZM73.5682 185.637H70.8394V186.306H73.5682V185.637ZM76.2389 184.358C76.2389 183.719 76.3233 183.132 76.4921 182.597C76.6625 182.06 76.9156 181.564 77.2514 181.109H78.1233C77.9938 181.277 77.8727 181.485 77.7602 181.73C77.6477 181.974 77.5497 182.241 77.4662 182.533C77.3844 182.823 77.3196 183.124 77.2719 183.435C77.2259 183.747 77.2029 184.055 77.2029 184.358C77.2029 184.762 77.2429 185.172 77.323 185.586C77.4048 186 77.5148 186.383 77.6529 186.736C77.7926 187.091 77.9494 187.381 78.1233 187.606H77.2514C76.9156 187.151 76.6625 186.655 76.4921 186.12C76.3233 185.583 76.2389 184.996 76.2389 184.358ZM81.9464 183.604L81.1026 183.696C81.0788 183.611 81.037 183.531 80.9774 183.456C80.9194 183.381 80.841 183.32 80.7421 183.274C80.6433 183.228 80.5222 183.205 80.3791 183.205C80.1864 183.205 80.0245 183.247 79.8933 183.331C79.7637 183.414 79.6998 183.522 79.7015 183.655C79.6998 183.77 79.7416 183.862 79.8268 183.934C79.9137 184.006 80.0569 184.064 80.2563 184.11L80.9262 184.254C81.2978 184.334 81.5739 184.461 81.7546 184.635C81.937 184.808 82.0291 185.036 82.0308 185.317C82.0291 185.564 81.9566 185.783 81.8134 185.972C81.672 186.159 81.4751 186.306 81.2228 186.412C80.9705 186.517 80.6808 186.57 80.3535 186.57C79.8728 186.57 79.4859 186.47 79.1927 186.268C78.8995 186.066 78.7248 185.783 78.6686 185.422L79.5711 185.335C79.612 185.512 79.6989 185.646 79.8319 185.737C79.9649 185.827 80.1379 185.872 80.3509 185.872C80.5708 185.872 80.7472 185.827 80.8802 185.737C81.0149 185.646 81.0822 185.535 81.0822 185.402C81.0822 185.289 81.0387 185.196 80.9518 185.123C80.8666 185.05 80.7336 184.993 80.5529 184.954L79.883 184.814C79.5063 184.735 79.2276 184.603 79.047 184.417C78.8663 184.23 78.7768 183.993 78.7785 183.706C78.7768 183.464 78.8424 183.255 78.9754 183.077C79.11 182.899 79.2967 182.76 79.5353 182.663C79.7757 182.564 80.0526 182.515 80.3663 182.515C80.8265 182.515 81.1887 182.613 81.4529 182.809C81.7188 183.005 81.8833 183.27 81.9464 183.604ZM83.9241 186.573C83.6752 186.573 83.4511 186.528 83.2516 186.44C83.0539 186.349 82.8971 186.216 82.7812 186.041C82.667 185.865 82.6099 185.649 82.6099 185.391C82.6099 185.17 82.6508 184.987 82.7326 184.842C82.8144 184.697 82.9261 184.581 83.0676 184.494C83.209 184.407 83.3684 184.341 83.5457 184.297C83.7247 184.251 83.9096 184.218 84.1005 184.197C84.3306 184.174 84.5173 184.152 84.6605 184.133C84.8036 184.113 84.9076 184.082 84.9724 184.041C85.0389 183.999 85.0721 183.933 85.0721 183.845V183.829C85.0721 183.637 85.015 183.487 84.9008 183.382C84.7866 183.276 84.6221 183.223 84.4073 183.223C84.1806 183.223 84.0008 183.273 83.8678 183.372C83.7366 183.47 83.648 183.587 83.6019 183.722L82.7377 183.599C82.8059 183.36 82.9184 183.161 83.0752 183.001C83.232 182.839 83.4238 182.718 83.6505 182.638C83.8772 182.556 84.1278 182.515 84.4022 182.515C84.5914 182.515 84.7798 182.537 84.9673 182.581C85.1548 182.626 85.3261 182.699 85.4812 182.801C85.6363 182.902 85.7607 183.039 85.8545 183.213C85.9499 183.387 85.9977 183.604 85.9977 183.865V186.493H85.1079V185.954H85.0772C85.021 186.063 84.9417 186.165 84.8394 186.261C84.7389 186.354 84.6119 186.43 84.4585 186.488C84.3068 186.545 84.1286 186.573 83.9241 186.573ZM84.1644 185.893C84.3502 185.893 84.5113 185.856 84.6477 185.783C84.784 185.708 84.8889 185.609 84.9622 185.486C85.0372 185.363 85.0747 185.229 85.0747 185.085V184.622C85.0457 184.646 84.9962 184.668 84.9264 184.688C84.8582 184.709 84.7815 184.727 84.6962 184.742C84.611 184.757 84.5266 184.771 84.4431 184.783C84.3596 184.795 84.2872 184.805 84.2258 184.814C84.0877 184.832 83.9641 184.863 83.8551 184.906C83.746 184.948 83.6599 185.008 83.5968 185.085C83.5337 185.16 83.5022 185.257 83.5022 185.376C83.5022 185.547 83.5644 185.675 83.6889 185.762C83.8133 185.849 83.9718 185.893 84.1644 185.893ZM88.3857 186.562C88.0772 186.562 87.8011 186.483 87.5573 186.325C87.3136 186.166 87.121 185.936 86.9795 185.634C86.838 185.333 86.7673 184.966 86.7673 184.535C86.7673 184.099 86.8389 183.73 86.982 183.43C87.1269 183.129 87.3221 182.901 87.5676 182.748C87.813 182.593 88.0866 182.515 88.3883 182.515C88.6184 182.515 88.8076 182.554 88.9559 182.633C89.1042 182.709 89.2218 182.802 89.3087 182.911C89.3957 183.019 89.463 183.12 89.5107 183.216H89.5491V181.257H90.4772V186.493H89.567V185.875H89.5107C89.463 185.97 89.394 186.072 89.3036 186.179C89.2133 186.285 89.094 186.375 88.9457 186.45C88.7974 186.525 88.6107 186.562 88.3857 186.562ZM88.644 185.803C88.84 185.803 89.007 185.75 89.1451 185.645C89.2832 185.537 89.388 185.388 89.4596 185.197C89.5312 185.006 89.567 184.784 89.567 184.53C89.567 184.276 89.5312 184.055 89.4596 183.868C89.3897 183.68 89.2857 183.534 89.1477 183.43C89.0113 183.326 88.8434 183.274 88.644 183.274C88.4377 183.274 88.2656 183.328 88.1275 183.435C87.9894 183.543 87.8855 183.691 87.8156 183.88C87.7457 184.07 87.7107 184.286 87.7107 184.53C87.7107 184.775 87.7457 184.994 87.8156 185.187C87.8872 185.378 87.992 185.529 88.1301 185.639C88.2698 185.749 88.4411 185.803 88.644 185.803ZM93.1152 184.358C93.1152 184.996 93.03 185.583 92.8595 186.12C92.6908 186.655 92.4385 187.151 92.1027 187.606H91.2308C91.3621 187.437 91.4831 187.231 91.5939 186.987C91.7064 186.743 91.8036 186.476 91.8854 186.184C91.9689 185.893 92.0337 185.591 92.0797 185.279C92.1274 184.967 92.1513 184.66 92.1513 184.358C92.1513 183.954 92.1104 183.545 92.0286 183.131C91.9485 182.717 91.8385 182.333 91.6987 181.978C91.5607 181.624 91.4047 181.334 91.2308 181.109H92.1027C92.4385 181.564 92.6908 182.06 92.8595 182.597C93.03 183.132 93.1152 183.719 93.1152 184.358Z" fill="#4B4B4B"/>
</g>
<g filter="url(#filter5_d_1114_4840)">
<rect x="140.395" y="109" width="65.8714" height="65.1238" fill="#DBD3FB"/>
<rect x="140.395" y="168.115" width="65.8714" height="23.6462" fill="white"/>
<path d="M146.223 177.493L147.082 172.257H147.798L146.938 177.493H146.223ZM143.863 176.143L143.983 175.427H148.012L147.892 176.143H143.863ZM144.382 177.493L145.241 172.257H145.957L145.098 177.493H144.382ZM144.167 174.323L144.284 173.607H148.314L148.196 174.323H144.167ZM150.698 177.493H148.923V172.257H150.733C151.253 172.257 151.7 172.362 152.073 172.572C152.448 172.779 152.736 173.079 152.937 173.469C153.138 173.859 153.239 174.326 153.239 174.87C153.239 175.416 153.138 175.884 152.935 176.276C152.734 176.668 152.443 176.969 152.063 177.179C151.685 177.389 151.229 177.493 150.698 177.493ZM149.872 176.673H150.652C151.016 176.673 151.321 176.606 151.564 176.473C151.808 176.339 151.991 176.138 152.114 175.872C152.237 175.605 152.298 175.271 152.298 174.87C152.298 174.47 152.237 174.137 152.114 173.873C151.991 173.607 151.81 173.408 151.569 173.277C151.331 173.144 151.034 173.078 150.68 173.078H149.872V176.673ZM154.14 177.493V172.257H156.145C156.523 172.257 156.838 172.317 157.088 172.436C157.341 172.554 157.529 172.715 157.653 172.919C157.78 173.124 157.843 173.356 157.843 173.615C157.843 173.828 157.802 174.01 157.72 174.162C157.638 174.312 157.528 174.434 157.39 174.527C157.252 174.621 157.098 174.689 156.927 174.729V174.781C157.113 174.791 157.291 174.848 157.462 174.952C157.634 175.054 157.774 175.199 157.884 175.387C157.993 175.574 158.047 175.801 158.047 176.067C158.047 176.338 157.982 176.581 157.85 176.798C157.719 177.013 157.521 177.182 157.257 177.307C156.993 177.431 156.66 177.493 156.26 177.493H154.14ZM155.089 176.701H156.109C156.453 176.701 156.701 176.635 156.853 176.504C157.007 176.371 157.083 176.201 157.083 175.993C157.083 175.837 157.045 175.698 156.968 175.573C156.891 175.447 156.782 175.348 156.641 175.277C156.499 175.203 156.331 175.167 156.135 175.167H155.089V176.701ZM155.089 174.484H156.027C156.191 174.484 156.338 174.454 156.47 174.395C156.601 174.333 156.704 174.247 156.779 174.136C156.856 174.024 156.894 173.891 156.894 173.737C156.894 173.535 156.822 173.368 156.679 173.236C156.538 173.105 156.327 173.039 156.048 173.039H155.089V174.484ZM160.647 177.493H158.872V172.257H160.683C161.202 172.257 161.649 172.362 162.022 172.572C162.397 172.779 162.685 173.079 162.887 173.469C163.088 173.859 163.188 174.326 163.188 174.87C163.188 175.416 163.087 175.884 162.884 176.276C162.683 176.668 162.392 176.969 162.012 177.179C161.634 177.389 161.179 177.493 160.647 177.493ZM159.821 176.673H160.601C160.966 176.673 161.27 176.606 161.514 176.473C161.757 176.339 161.941 176.138 162.063 175.872C162.186 175.605 162.247 175.271 162.247 174.87C162.247 174.47 162.186 174.137 162.063 173.873C161.941 173.607 161.759 173.408 161.519 173.277C161.28 173.144 160.983 173.078 160.629 173.078H159.821V176.673ZM165.918 177.565C165.549 177.565 165.222 177.502 164.936 177.376C164.651 177.25 164.426 177.074 164.261 176.849C164.096 176.624 164.008 176.364 163.998 176.069H164.959C164.967 176.211 165.014 176.334 165.099 176.44C165.185 176.544 165.298 176.625 165.44 176.683C165.581 176.741 165.74 176.77 165.915 176.77C166.103 176.77 166.269 176.737 166.414 176.673C166.559 176.606 166.672 176.514 166.754 176.397C166.836 176.279 166.876 176.143 166.874 175.99C166.876 175.831 166.835 175.692 166.751 175.571C166.668 175.45 166.547 175.355 166.388 175.287C166.231 175.219 166.042 175.185 165.821 175.185H165.358V174.453H165.821C166.003 174.453 166.162 174.422 166.299 174.359C166.437 174.296 166.545 174.207 166.623 174.093C166.702 173.977 166.74 173.843 166.738 173.691C166.74 173.543 166.707 173.414 166.639 173.305C166.572 173.195 166.478 173.108 166.355 173.047C166.234 172.986 166.092 172.955 165.928 172.955C165.768 172.955 165.619 172.984 165.483 173.042C165.347 173.1 165.237 173.183 165.153 173.29C165.07 173.396 165.025 173.522 165.02 173.668H164.107C164.114 173.375 164.199 173.118 164.361 172.896C164.524 172.673 164.742 172.499 165.015 172.375C165.288 172.249 165.594 172.185 165.933 172.185C166.282 172.185 166.586 172.251 166.843 172.382C167.102 172.512 167.303 172.687 167.444 172.906C167.586 173.126 167.656 173.369 167.656 173.635C167.658 173.93 167.571 174.177 167.396 174.377C167.222 174.576 166.993 174.706 166.71 174.768V174.809C167.078 174.86 167.361 174.996 167.557 175.218C167.754 175.438 167.852 175.711 167.851 176.039C167.851 176.332 167.767 176.594 167.6 176.826C167.435 177.056 167.206 177.237 166.915 177.368C166.625 177.499 166.293 177.565 165.918 177.565ZM168.779 177.493V172.257H172.134V173.052H169.728V174.474H171.904V175.269H169.728V177.493H168.779ZM172.998 177.493V172.257H175.003C175.381 172.257 175.696 172.317 175.946 172.436C176.198 172.554 176.387 172.715 176.511 172.919C176.637 173.124 176.7 173.356 176.7 173.615C176.7 173.828 176.66 174.01 176.578 174.162C176.496 174.312 176.386 174.434 176.248 174.527C176.11 174.621 175.956 174.689 175.785 174.729V174.781C175.971 174.791 176.149 174.848 176.319 174.952C176.492 175.054 176.632 175.199 176.741 175.387C176.85 175.574 176.905 175.801 176.905 176.067C176.905 176.338 176.839 176.581 176.708 176.798C176.577 177.013 176.379 177.182 176.115 177.307C175.851 177.431 175.518 177.493 175.118 177.493H172.998ZM173.947 176.701H174.967C175.311 176.701 175.559 176.635 175.711 176.504C175.864 176.371 175.941 176.201 175.941 175.993C175.941 175.837 175.903 175.698 175.826 175.573C175.749 175.447 175.64 175.348 175.499 175.277C175.357 175.203 175.188 175.167 174.992 175.167H173.947V176.701ZM173.947 174.484H174.885C175.049 174.484 175.196 174.454 175.327 174.395C175.459 174.333 175.562 174.247 175.637 174.136C175.713 174.024 175.752 173.891 175.752 173.737C175.752 173.535 175.68 173.368 175.537 173.236C175.396 173.105 175.185 173.039 174.906 173.039H173.947V174.484Z" fill="#DBD3FB"/>
<path d="M147.042 184.614C148.482 184.614 149.403 185.089 149.403 185.881C149.403 186.659 148.482 187.134 147.042 187.134C145.602 187.134 144.68 186.659 144.68 185.881C144.68 185.089 145.602 184.614 147.042 184.614ZM147.042 185.334C146.142 185.334 145.631 185.521 145.631 185.881C145.631 186.234 146.142 186.414 147.042 186.414C147.942 186.414 148.453 186.234 148.453 185.881C148.453 185.521 147.942 185.334 147.042 185.334ZM144.752 180.762H148.971V181.518H144.752V180.762ZM144.075 183.441H150.08V184.204H144.075V183.441ZM146.3 182.281H147.251V183.635H146.3V182.281ZM148.417 180.762H149.367V181.309C149.367 181.835 149.367 182.404 149.187 183.095L148.237 182.994C148.417 182.31 148.417 181.828 148.417 181.309V180.762ZM150.692 185.608H156.725V186.393H150.692V185.608ZM153.212 184.103H154.169V185.961H153.212V184.103ZM151.153 181.014H156.229V181.777H151.153V181.014ZM151.181 183.671H156.207V184.42H151.181V183.671ZM152.06 181.648H153.017V183.757H152.06V181.648ZM154.371 181.648H155.321V183.757H154.371V181.648ZM157.726 184.358C157.726 183.719 157.81 183.132 157.979 182.597C158.149 182.06 158.402 181.564 158.738 181.109H159.61C159.48 181.277 159.359 181.485 159.247 181.73C159.134 181.974 159.036 182.241 158.953 182.533C158.871 182.823 158.806 183.124 158.759 183.435C158.713 183.747 158.69 184.055 158.69 184.358C158.69 184.762 158.73 185.172 158.81 185.586C158.892 186 159.001 186.383 159.14 186.736C159.279 187.091 159.436 187.381 159.61 187.606H158.738C158.402 187.151 158.149 186.655 157.979 186.12C157.81 185.583 157.726 184.996 157.726 184.358ZM162.318 182.566V183.282H159.997V182.566H162.318ZM160.577 186.493V182.195C160.577 181.931 160.632 181.711 160.741 181.536C160.852 181.36 161 181.229 161.186 181.142C161.371 181.055 161.578 181.012 161.804 181.012C161.965 181.012 162.107 181.024 162.231 181.05C162.356 181.076 162.448 181.099 162.508 181.119L162.323 181.835C162.284 181.823 162.235 181.811 162.175 181.799C162.115 181.785 162.049 181.779 161.976 181.779C161.804 181.779 161.682 181.82 161.61 181.904C161.54 181.986 161.505 182.103 161.505 182.257V186.493H160.577ZM164.634 186.57C164.24 186.57 163.9 186.488 163.614 186.325C163.329 186.159 163.11 185.926 162.957 185.624C162.803 185.321 162.727 184.964 162.727 184.553C162.727 184.149 162.803 183.794 162.957 183.489C163.112 183.182 163.328 182.944 163.606 182.773C163.884 182.601 164.211 182.515 164.586 182.515C164.828 182.515 165.056 182.554 165.271 182.633C165.487 182.709 165.678 182.829 165.844 182.991C166.011 183.152 166.142 183.359 166.237 183.609C166.333 183.858 166.38 184.155 166.38 184.499V184.783H163.161V184.159H165.493C165.492 183.982 165.453 183.824 165.378 183.686C165.303 183.546 165.198 183.436 165.064 183.356C164.931 183.276 164.776 183.236 164.598 183.236C164.409 183.236 164.243 183.282 164.1 183.374C163.957 183.464 163.845 183.584 163.765 183.732C163.686 183.879 163.646 184.04 163.645 184.215V184.76C163.645 184.988 163.686 185.184 163.77 185.348C163.853 185.51 163.97 185.634 164.12 185.721C164.27 185.806 164.446 185.849 164.647 185.849C164.782 185.849 164.903 185.83 165.013 185.793C165.122 185.754 165.216 185.697 165.296 185.622C165.376 185.547 165.437 185.454 165.478 185.343L166.342 185.44C166.288 185.668 166.184 185.868 166.03 186.038C165.878 186.207 165.684 186.338 165.447 186.432C165.21 186.524 164.939 186.57 164.634 186.57ZM168.294 186.573C168.045 186.573 167.821 186.528 167.621 186.44C167.423 186.349 167.267 186.216 167.151 186.041C167.036 185.865 166.979 185.649 166.979 185.391C166.979 185.17 167.02 184.987 167.102 184.842C167.184 184.697 167.296 184.581 167.437 184.494C167.579 184.407 167.738 184.341 167.915 184.297C168.094 184.251 168.279 184.218 168.47 184.197C168.7 184.174 168.887 184.152 169.03 184.133C169.173 184.113 169.277 184.082 169.342 184.041C169.408 183.999 169.442 183.933 169.442 183.845V183.829C169.442 183.637 169.385 183.487 169.27 183.382C169.156 183.276 168.992 183.223 168.777 183.223C168.55 183.223 168.37 183.273 168.237 183.372C168.106 183.47 168.017 183.587 167.971 183.722L167.107 183.599C167.175 183.36 167.288 183.161 167.445 183.001C167.602 182.839 167.793 182.718 168.02 182.638C168.247 182.556 168.497 182.515 168.772 182.515C168.961 182.515 169.149 182.537 169.337 182.581C169.524 182.626 169.696 182.699 169.851 182.801C170.006 182.902 170.13 183.039 170.224 183.213C170.319 183.387 170.367 183.604 170.367 183.865V186.493H169.477V185.954H169.447C169.39 186.063 169.311 186.165 169.209 186.261C169.108 186.354 168.981 186.43 168.828 186.488C168.676 186.545 168.498 186.573 168.294 186.573ZM168.534 185.893C168.72 185.893 168.881 185.856 169.017 185.783C169.154 185.708 169.258 185.609 169.332 185.486C169.407 185.363 169.444 185.229 169.444 185.085V184.622C169.415 184.646 169.366 184.668 169.296 184.688C169.228 184.709 169.151 184.727 169.066 184.742C168.981 184.757 168.896 184.771 168.813 184.783C168.729 184.795 168.657 184.805 168.595 184.814C168.457 184.832 168.334 184.863 168.225 184.906C168.115 184.948 168.029 185.008 167.966 185.085C167.903 185.16 167.872 185.257 167.872 185.376C167.872 185.547 167.934 185.675 168.058 185.762C168.183 185.849 168.341 185.893 168.534 185.893ZM171.298 186.493V182.566H172.195V183.221H172.236C172.308 182.994 172.431 182.819 172.604 182.697C172.78 182.572 172.98 182.51 173.205 182.51C173.256 182.51 173.313 182.512 173.377 182.518C173.441 182.521 173.495 182.527 173.538 182.535V183.387C173.498 183.373 173.436 183.361 173.351 183.351C173.267 183.339 173.186 183.333 173.108 183.333C172.939 183.333 172.788 183.37 172.653 183.443C172.52 183.515 172.415 183.614 172.338 183.742C172.262 183.87 172.223 184.018 172.223 184.185V186.493H171.298ZM175.804 184.358C175.804 184.996 175.719 185.583 175.549 186.12C175.38 186.655 175.128 187.151 174.792 187.606H173.92C174.051 187.437 174.172 187.231 174.283 186.987C174.395 186.743 174.493 186.476 174.574 186.184C174.658 185.893 174.723 185.591 174.769 185.279C174.816 184.967 174.84 184.66 174.84 184.358C174.84 183.954 174.799 183.545 174.718 183.131C174.637 182.717 174.528 182.333 174.388 181.978C174.25 181.624 174.094 181.334 173.92 181.109H174.792C175.128 181.564 175.38 182.06 175.549 182.597C175.719 183.132 175.804 183.719 175.804 184.358Z" fill="#4B4B4B"/>
</g>
<g filter="url(#filter6_d_1114_4840)">
<rect x="221.882" y="109" width="65.8714" height="65.1238" fill="#FF9191"/>
<rect x="221.882" y="168.115" width="65.8714" height="23.6462" fill="white"/>
<path d="M227.709 177.493L228.569 172.257H229.284L228.425 177.493H227.709ZM225.349 176.143L225.47 175.427H229.499L229.379 176.143H225.349ZM225.869 177.493L226.728 172.257H227.444L226.584 177.493H225.869ZM225.654 174.323L225.771 173.607H229.801L229.683 174.323H225.654ZM230.41 177.493V172.257H233.765V173.052H231.359V174.474H233.535V175.269H231.359V177.493H230.41ZM234.629 177.493V172.257H237.983V173.052H235.577V174.474H237.753V175.269H235.577V177.493H234.629ZM240.614 172.185C240.865 172.187 241.109 172.231 241.346 172.318C241.584 172.404 241.799 172.543 241.99 172.738C242.181 172.93 242.333 173.189 242.445 173.512C242.558 173.836 242.614 174.237 242.614 174.714C242.615 175.164 242.568 175.566 242.471 175.921C242.375 176.274 242.238 176.572 242.059 176.816C241.88 177.06 241.664 177.245 241.412 177.373C241.16 177.501 240.876 177.565 240.561 177.565C240.23 177.565 239.937 177.5 239.681 177.371C239.427 177.241 239.222 177.064 239.065 176.839C238.908 176.614 238.812 176.356 238.776 176.067H239.709C239.757 176.275 239.854 176.44 240.001 176.563C240.149 176.684 240.336 176.744 240.561 176.744C240.924 176.744 241.203 176.587 241.399 176.271C241.595 175.956 241.693 175.518 241.693 174.957H241.658C241.574 175.107 241.466 175.237 241.333 175.346C241.2 175.453 241.049 175.536 240.88 175.594C240.713 175.652 240.536 175.681 240.348 175.681C240.042 175.681 239.765 175.607 239.52 175.461C239.276 175.314 239.083 175.113 238.94 174.857C238.798 174.602 238.727 174.309 238.725 173.98C238.725 173.639 238.803 173.333 238.96 173.062C239.119 172.79 239.339 172.575 239.622 172.418C239.905 172.26 240.236 172.182 240.614 172.185ZM240.617 172.952C240.433 172.952 240.267 172.998 240.118 173.088C239.972 173.177 239.856 173.298 239.771 173.451C239.687 173.603 239.645 173.772 239.645 173.96C239.647 174.146 239.689 174.314 239.771 174.466C239.854 174.618 239.967 174.738 240.111 174.827C240.256 174.915 240.421 174.96 240.607 174.96C240.745 174.96 240.873 174.933 240.993 174.88C241.112 174.827 241.216 174.754 241.305 174.66C241.395 174.565 241.465 174.457 241.514 174.336C241.565 174.215 241.59 174.087 241.588 173.952C241.588 173.773 241.546 173.608 241.461 173.456C241.377 173.304 241.262 173.183 241.115 173.091C240.971 172.999 240.804 172.952 240.617 172.952ZM245.595 172.257V177.493H244.646V173.18H244.616L243.391 173.962V173.093L244.692 172.257H245.595ZM248.742 172.185C248.993 172.187 249.237 172.231 249.474 172.318C249.712 172.404 249.927 172.543 250.118 172.738C250.309 172.93 250.461 173.189 250.573 173.512C250.686 173.836 250.742 174.237 250.742 174.714C250.744 175.164 250.696 175.566 250.599 175.921C250.503 176.274 250.366 176.572 250.187 176.816C250.008 177.06 249.792 177.245 249.54 177.373C249.288 177.501 249.004 177.565 248.689 177.565C248.358 177.565 248.065 177.5 247.809 177.371C247.555 177.241 247.35 177.064 247.193 176.839C247.036 176.614 246.94 176.356 246.904 176.067H247.837C247.885 176.275 247.982 176.44 248.129 176.563C248.277 176.684 248.464 176.744 248.689 176.744C249.052 176.744 249.331 176.587 249.527 176.271C249.723 175.956 249.821 175.518 249.821 174.957H249.786C249.702 175.107 249.594 175.237 249.461 175.346C249.328 175.453 249.177 175.536 249.008 175.594C248.841 175.652 248.664 175.681 248.477 175.681C248.17 175.681 247.894 175.607 247.648 175.461C247.404 175.314 247.211 175.113 247.068 174.857C246.926 174.602 246.855 174.309 246.853 173.98C246.853 173.639 246.931 173.333 247.088 173.062C247.247 172.79 247.467 172.575 247.75 172.418C248.033 172.26 248.364 172.182 248.742 172.185ZM248.745 172.952C248.561 172.952 248.395 172.998 248.246 173.088C248.1 173.177 247.984 173.298 247.899 173.451C247.815 173.603 247.773 173.772 247.773 173.96C247.775 174.146 247.817 174.314 247.899 174.466C247.982 174.618 248.096 174.738 248.239 174.827C248.384 174.915 248.549 174.96 248.735 174.96C248.873 174.96 249.002 174.933 249.121 174.88C249.24 174.827 249.344 174.754 249.433 174.66C249.523 174.565 249.593 174.457 249.642 174.336C249.694 174.215 249.718 174.087 249.717 173.952C249.717 173.773 249.674 173.608 249.589 173.456C249.505 173.304 249.39 173.183 249.244 173.091C249.099 172.999 248.933 172.952 248.745 172.952ZM253.723 172.257V177.493H252.775V173.18H252.744L251.519 173.962V173.093L252.821 172.257H253.723Z" fill="#FF9191"/>
<path d="M225.548 183.88H231.582V184.636H225.548V183.88ZM228.162 184.283H229.126V185.687H228.162V184.283ZM226.246 186.256H230.919V187.019H226.246V186.256ZM226.246 185.183H227.197V186.58H226.246V185.183ZM226.318 180.676H227.262V181.36H229.861V180.676H230.811V183.419H226.318V180.676ZM227.262 182.08V182.67H229.861V182.08H227.262ZM232.848 183.333H237.571V184.096H232.848V183.333ZM232.179 185.615H238.212V186.385H232.179V185.615ZM234.713 183.786H235.671V185.831H234.713V183.786ZM232.848 180.971H233.813V183.664H232.848V180.971ZM239.213 184.358C239.213 183.719 239.297 183.132 239.466 182.597C239.636 182.06 239.889 181.564 240.225 181.109H241.097C240.967 181.277 240.846 181.485 240.734 181.73C240.621 181.974 240.523 182.241 240.44 182.533C240.358 182.823 240.293 183.124 240.246 183.435C240.199 183.747 240.176 184.055 240.176 184.358C240.176 184.762 240.217 185.172 240.297 185.586C240.378 186 240.488 186.383 240.626 186.736C240.766 187.091 240.923 187.381 241.097 187.606H240.225C239.889 187.151 239.636 186.655 239.466 186.12C239.297 185.583 239.213 184.996 239.213 184.358ZM242.946 186.573C242.697 186.573 242.473 186.528 242.274 186.44C242.076 186.349 241.919 186.216 241.803 186.041C241.689 185.865 241.632 185.649 241.632 185.391C241.632 185.17 241.673 184.987 241.755 184.842C241.837 184.697 241.948 184.581 242.09 184.494C242.231 184.407 242.39 184.341 242.568 184.297C242.747 184.251 242.932 184.218 243.123 184.197C243.353 184.174 243.539 184.152 243.683 184.133C243.826 184.113 243.93 184.082 243.994 184.041C244.061 183.999 244.094 183.933 244.094 183.845V183.829C244.094 183.637 244.037 183.487 243.923 183.382C243.809 183.276 243.644 183.223 243.429 183.223C243.203 183.223 243.023 183.273 242.89 183.372C242.759 183.47 242.67 183.587 242.624 183.722L241.76 183.599C241.828 183.36 241.94 183.161 242.097 183.001C242.254 182.839 242.446 182.718 242.673 182.638C242.899 182.556 243.15 182.515 243.424 182.515C243.613 182.515 243.802 182.537 243.989 182.581C244.177 182.626 244.348 182.699 244.503 182.801C244.658 182.902 244.783 183.039 244.877 183.213C244.972 183.387 245.02 183.604 245.02 183.865V186.493H244.13V185.954H244.099C244.043 186.063 243.964 186.165 243.862 186.261C243.761 186.354 243.634 186.43 243.481 186.488C243.329 186.545 243.151 186.573 242.946 186.573ZM243.187 185.893C243.372 185.893 243.533 185.856 243.67 185.783C243.806 185.708 243.911 185.609 243.984 185.486C244.059 185.363 244.097 185.229 244.097 185.085V184.622C244.068 184.646 244.018 184.668 243.948 184.688C243.88 184.709 243.804 184.727 243.718 184.742C243.633 184.757 243.549 184.771 243.465 184.783C243.382 184.795 243.309 184.805 243.248 184.814C243.11 184.832 242.986 184.863 242.877 184.906C242.768 184.948 242.682 185.008 242.619 185.085C242.556 185.16 242.524 185.257 242.524 185.376C242.524 185.547 242.587 185.675 242.711 185.762C242.835 185.849 242.994 185.893 243.187 185.893ZM246.876 184.192V186.493H245.95V182.566H246.835V183.233H246.881C246.971 183.014 247.115 182.839 247.313 182.709C247.513 182.58 247.759 182.515 248.052 182.515C248.323 182.515 248.559 182.573 248.76 182.689C248.963 182.805 249.12 182.973 249.231 183.193C249.343 183.412 249.399 183.679 249.397 183.993V186.493H248.471V184.136C248.471 183.874 248.403 183.668 248.267 183.52C248.132 183.372 247.946 183.297 247.707 183.297C247.545 183.297 247.401 183.333 247.275 183.405C247.15 183.475 247.052 183.576 246.981 183.709C246.911 183.842 246.876 184.003 246.876 184.192ZM252.046 188.048C251.713 188.048 251.428 188.003 251.189 187.912C250.951 187.824 250.759 187.704 250.614 187.554C250.469 187.404 250.369 187.238 250.312 187.056L251.146 186.854C251.183 186.931 251.238 187.006 251.31 187.081C251.381 187.158 251.477 187.221 251.598 187.271C251.721 187.322 251.875 187.347 252.061 187.347C252.324 187.347 252.541 187.283 252.713 187.156C252.885 187.029 252.971 186.822 252.971 186.532V185.788H252.925C252.878 185.883 252.808 185.981 252.716 186.082C252.625 186.182 252.505 186.267 252.355 186.335C252.207 186.403 252.02 186.437 251.795 186.437C251.494 186.437 251.22 186.366 250.975 186.225C250.731 186.082 250.537 185.869 250.392 185.586C250.248 185.301 250.177 184.945 250.177 184.517C250.177 184.086 250.248 183.722 250.392 183.425C250.537 183.127 250.732 182.901 250.977 182.748C251.223 182.593 251.496 182.515 251.798 182.515C252.028 182.515 252.217 182.554 252.365 182.633C252.515 182.709 252.635 182.802 252.723 182.911C252.812 183.019 252.879 183.12 252.925 183.216H252.977V182.566H253.889V186.557C253.889 186.893 253.809 187.171 253.649 187.391C253.489 187.611 253.27 187.775 252.992 187.884C252.714 187.993 252.399 188.048 252.046 188.048ZM252.054 185.711C252.25 185.711 252.417 185.663 252.555 185.568C252.693 185.472 252.798 185.335 252.869 185.156C252.941 184.977 252.977 184.762 252.977 184.512C252.977 184.265 252.941 184.048 252.869 183.862C252.799 183.677 252.695 183.533 252.557 183.43C252.421 183.326 252.253 183.274 252.054 183.274C251.847 183.274 251.675 183.328 251.537 183.435C251.399 183.543 251.295 183.69 251.225 183.878C251.155 184.064 251.12 184.275 251.12 184.512C251.12 184.752 251.155 184.963 251.225 185.143C251.297 185.322 251.402 185.462 251.54 185.563C251.679 185.662 251.851 185.711 252.054 185.711ZM256.577 186.57C256.183 186.57 255.843 186.488 255.556 186.325C255.272 186.159 255.053 185.926 254.899 185.624C254.746 185.321 254.669 184.964 254.669 184.553C254.669 184.149 254.746 183.794 254.899 183.489C255.054 183.182 255.271 182.944 255.549 182.773C255.827 182.601 256.153 182.515 256.528 182.515C256.77 182.515 256.998 182.554 257.213 182.633C257.43 182.709 257.621 182.829 257.786 182.991C257.953 183.152 258.084 183.359 258.18 183.609C258.275 183.858 258.323 184.155 258.323 184.499V184.783H255.104V184.159H257.436C257.434 183.982 257.396 183.824 257.321 183.686C257.246 183.546 257.141 183.436 257.006 183.356C256.873 183.276 256.718 183.236 256.541 183.236C256.352 183.236 256.185 183.282 256.042 183.374C255.899 183.464 255.787 183.584 255.707 183.732C255.629 183.879 255.589 184.04 255.587 184.215V184.76C255.587 184.988 255.629 185.184 255.712 185.348C255.796 185.51 255.913 185.634 256.063 185.721C256.213 185.806 256.388 185.849 256.589 185.849C256.724 185.849 256.846 185.83 256.955 185.793C257.064 185.754 257.159 185.697 257.239 185.622C257.319 185.547 257.379 185.454 257.42 185.343L258.285 185.44C258.23 185.668 258.126 185.868 257.973 186.038C257.821 186.207 257.627 186.338 257.39 186.432C257.153 186.524 256.882 186.57 256.577 186.57ZM259.106 186.493V182.566H260.003V183.221H260.044C260.116 182.994 260.239 182.819 260.412 182.697C260.588 182.572 260.788 182.51 261.013 182.51C261.064 182.51 261.122 182.512 261.185 182.518C261.249 182.521 261.303 182.527 261.346 182.535V183.387C261.306 183.373 261.244 183.361 261.159 183.351C261.075 183.339 260.995 183.333 260.916 183.333C260.747 183.333 260.596 183.37 260.461 183.443C260.328 183.515 260.223 183.614 260.147 183.742C260.07 183.87 260.031 184.018 260.031 184.185V186.493H259.106ZM263.612 184.358C263.612 184.996 263.527 185.583 263.357 186.12C263.188 186.655 262.936 187.151 262.6 187.606H261.728C261.859 187.437 261.98 187.231 262.091 186.987C262.203 186.743 262.301 186.476 262.382 186.184C262.466 185.893 262.531 185.591 262.577 185.279C262.624 184.967 262.648 184.66 262.648 184.358C262.648 183.954 262.607 183.545 262.526 183.131C262.446 182.717 262.336 182.333 262.196 181.978C262.058 181.624 261.902 181.334 261.728 181.109H262.6C262.936 181.564 263.188 182.06 263.357 182.597C263.527 183.132 263.612 183.719 263.612 184.358Z" fill="#4B4B4B"/>
</g>
<defs>
<filter id="filter0_d_1114_4840" x="10.3571" y="3.43083" width="81.4868" height="98.3769" filterUnits="userSpaceOnUse" color-interpolation-filters="sRGB">
<feFlood flood-opacity="0" result="BackgroundImageFix"/>
<feColorMatrix in="SourceAlpha" type="matrix" values="0 0 0 0 0 0 0 0 0 0 0 0 0 0 0 0 0 0 127 0" result="hardAlpha"/>
<feOffset/>
<feGaussianBlur stdDeviation="3.90385"/>
<feComposite in2="hardAlpha" operator="out"/>
<feColorMatrix type="matrix" values="0 0 0 0 0 0 0 0 0 0 0 0 0 0 0 0 0 0 0.15 0"/>
<feBlend mode="normal" in2="BackgroundImageFix" result="effect1_dropShadow_1114_4840"/>
<feBlend mode="normal" in="SourceGraphic" in2="effect1_dropShadow_1114_4840" result="shape"/>
</filter>
<filter id="filter1_d_1114_4840" x="91.8439" y="3.43083" width="81.4868" height="98.3769" filterUnits="userSpaceOnUse" color-interpolation-filters="sRGB">
<feFlood flood-opacity="0" result="BackgroundImageFix"/>
<feColorMatrix in="SourceAlpha" type="matrix" values="0 0 0 0 0 0 0 0 0 0 0 0 0 0 0 0 0 0 127 0" result="hardAlpha"/>
<feOffset/>
<feGaussianBlur stdDeviation="3.90385"/>
<feComposite in2="hardAlpha" operator="out"/>
<feColorMatrix type="matrix" values="0 0 0 0 0 0 0 0 0 0 0 0 0 0 0 0 0 0 0.15 0"/>
<feBlend mode="normal" in2="BackgroundImageFix" result="effect1_dropShadow_1114_4840"/>
<feBlend mode="normal" in="SourceGraphic" in2="effect1_dropShadow_1114_4840" result="shape"/>
</filter>
<filter id="filter2_d_1114_4840" x="173.331" y="3.43083" width="81.4868" height="98.3769" filterUnits="userSpaceOnUse" color-interpolation-filters="sRGB">
<feFlood flood-opacity="0" result="BackgroundImageFix"/>
<feColorMatrix in="SourceAlpha" type="matrix" values="0 0 0 0 0 0 0 0 0 0 0 0 0 0 0 0 0 0 127 0" result="hardAlpha"/>
<feOffset/>
<feGaussianBlur stdDeviation="3.90385"/>
<feComposite in2="hardAlpha" operator="out"/>
<feColorMatrix type="matrix" values="0 0 0 0 0 0 0 0 0 0 0 0 0 0 0 0 0 0 0.15 0"/>
<feBlend mode="normal" in2="BackgroundImageFix" result="effect1_dropShadow_1114_4840"/>
<feBlend mode="normal" in="SourceGraphic" in2="effect1_dropShadow_1114_4840" result="shape"/>
</filter>
<filter id="filter3_d_1114_4840" x="253.43" y="2.04279" width="84.2629" height="101.153" filterUnits="userSpaceOnUse" color-interpolation-filters="sRGB">
<feFlood flood-opacity="0" result="BackgroundImageFix"/>
<feColorMatrix in="SourceAlpha" type="matrix" values="0 0 0 0 0 0 0 0 0 0 0 0 0 0 0 0 0 0 127 0" result="hardAlpha"/>
<feOffset/>
<feGaussianBlur stdDeviation="4.59787"/>
<feComposite in2="hardAlpha" operator="out"/>
<feColorMatrix type="matrix" values="0 0 0 0 0 0 0 0 0 0 0 0 0 0 0 0 0 0 0.15 0"/>
<feBlend mode="normal" in2="BackgroundImageFix" result="effect1_dropShadow_1114_4840"/>
<feBlend mode="normal" in="SourceGraphic" in2="effect1_dropShadow_1114_4840" result="shape"/>
</filter>
<filter id="filter4_d_1114_4840" x="51.1005" y="101.192" width="81.4868" height="98.3766" filterUnits="userSpaceOnUse" color-interpolation-filters="sRGB">
<feFlood flood-opacity="0" result="BackgroundImageFix"/>
<feColorMatrix in="SourceAlpha" type="matrix" values="0 0 0 0 0 0 0 0 0 0 0 0 0 0 0 0 0 0 127 0" result="hardAlpha"/>
<feOffset/>
<feGaussianBlur stdDeviation="3.90385"/>
<feComposite in2="hardAlpha" operator="out"/>
<feColorMatrix type="matrix" values="0 0 0 0 0 0 0 0 0 0 0 0 0 0 0 0 0 0 0.15 0"/>
<feBlend mode="normal" in2="BackgroundImageFix" result="effect1_dropShadow_1114_4840"/>
<feBlend mode="normal" in="SourceGraphic" in2="effect1_dropShadow_1114_4840" result="shape"/>
</filter>
<filter id="filter5_d_1114_4840" x="132.587" y="101.192" width="81.4868" height="98.3766" filterUnits="userSpaceOnUse" color-interpolation-filters="sRGB">
<feFlood flood-opacity="0" result="BackgroundImageFix"/>
<feColorMatrix in="SourceAlpha" type="matrix" values="0 0 0 0 0 0 0 0 0 0 0 0 0 0 0 0 0 0 127 0" result="hardAlpha"/>
<feOffset/>
<feGaussianBlur stdDeviation="3.90385"/>
<feComposite in2="hardAlpha" operator="out"/>
<feColorMatrix type="matrix" values="0 0 0 0 0 0 0 0 0 0 0 0 0 0 0 0 0 0 0.15 0"/>
<feBlend mode="normal" in2="BackgroundImageFix" result="effect1_dropShadow_1114_4840"/>
<feBlend mode="normal" in="SourceGraphic" in2="effect1_dropShadow_1114_4840" result="shape"/>
</filter>
<filter id="filter6_d_1114_4840" x="214.074" y="101.192" width="81.4868" height="98.3766" filterUnits="userSpaceOnUse" color-interpolation-filters="sRGB">
<feFlood flood-opacity="0" result="BackgroundImageFix"/>
<feColorMatrix in="SourceAlpha" type="matrix" values="0 0 0 0 0 0 0 0 0 0 0 0 0 0 0 0 0 0 127 0" result="hardAlpha"/>
<feOffset/>
<feGaussianBlur stdDeviation="3.90385"/>
<feComposite in2="hardAlpha" operator="out"/>
<feColorMatrix type="matrix" values="0 0 0 0 0 0 0 0 0 0 0 0 0 0 0 0 0 0 0.15 0"/>
<feBlend mode="normal" in2="BackgroundImageFix" result="effect1_dropShadow_1114_4840"/>
<feBlend mode="normal" in="SourceGraphic" in2="effect1_dropShadow_1114_4840" result="shape"/>
</filter>
</defs>
</svg>
