<svg width="22" height="22" viewBox="0 0 22 22" fill="none" xmlns="http://www.w3.org/2000/svg">
<path d="M17.9171 16.458C18.1108 16.6517 18.2197 16.9145 18.2197 17.1884C18.2197 17.4624 18.1108 17.7252 17.9171 17.9189C17.7234 18.1126 17.4606 18.2215 17.1866 18.2215C16.9127 18.2215 16.6499 18.1126 16.4562 17.9189L11 12.461L5.5421 17.9172C5.34837 18.1109 5.08561 18.2198 4.81163 18.2198C4.53765 18.2198 4.2749 18.1109 4.08117 17.9172C3.88743 17.7235 3.77859 17.4607 3.77859 17.1867C3.77859 16.9128 3.88743 16.65 4.08117 16.4563L9.53906 11.0001L4.08288 5.5422C3.88915 5.34847 3.78031 5.08571 3.78031 4.81173C3.78031 4.53775 3.88915 4.27499 4.08288 4.08126C4.27662 3.88753 4.53937 3.77869 4.81335 3.77869C5.08733 3.77869 5.35009 3.88753 5.54382 4.08126L11 9.53915L16.4579 4.0804C16.6516 3.88667 16.9144 3.77783 17.1884 3.77783C17.4623 3.77783 17.7251 3.88667 17.9188 4.0804C18.1126 4.27413 18.2214 4.53689 18.2214 4.81087C18.2214 5.08485 18.1126 5.34761 17.9188 5.54134L12.4609 11.0001L17.9171 16.458Z" fill="#FF9191"/>
</svg>
