<svg width="22" height="22" viewBox="0 0 22 22" fill="none" xmlns="http://www.w3.org/2000/svg">
<g clip-path="url(#clip0_145_2203)">
<path d="M14.6667 12.8333C15.8822 12.8333 17.048 13.3161 17.9076 14.1757C18.7671 15.0352 19.25 16.201 19.25 17.4166V18.3333C19.25 18.8195 19.0568 19.2858 18.713 19.6296C18.3692 19.9734 17.9029 20.1666 17.4167 20.1666H4.58333C4.0971 20.1666 3.63079 19.9734 3.28697 19.6296C2.94315 19.2858 2.75 18.8195 2.75 18.3333V17.4166C2.75 16.201 3.23289 15.0352 4.09243 14.1757C4.95197 13.3161 6.11776 12.8333 7.33333 12.8333H14.6667ZM19.6295 8.32417C19.7941 8.15802 20.0159 8.06106 20.2497 8.05313C20.4834 8.0452 20.7113 8.1269 20.8868 8.28151C21.0622 8.43613 21.172 8.65196 21.1935 8.88482C21.2151 9.11769 21.1468 9.34999 21.0027 9.53417L20.9257 9.62125L18.3333 12.2136C18.1755 12.3714 17.9655 12.4662 17.7427 12.4802C17.5199 12.4942 17.2997 12.4265 17.1233 12.2897L17.0372 12.2136L15.741 10.9174C15.5749 10.7528 15.4779 10.531 15.47 10.2972C15.462 10.0635 15.5437 9.8356 15.6983 9.66014C15.853 9.48467 16.0688 9.37494 16.3017 9.3534C16.5345 9.33186 16.7668 9.40013 16.951 9.54425L17.0372 9.62125L17.6852 10.2693L19.6295 8.32417ZM11 1.83325C12.2156 1.83325 13.3814 2.31614 14.2409 3.17568C15.1004 4.03522 15.5833 5.20101 15.5833 6.41659C15.5833 7.63216 15.1004 8.79795 14.2409 9.65749C13.3814 10.517 12.2156 10.9999 11 10.9999C9.78442 10.9999 8.61864 10.517 7.75909 9.65749C6.89955 8.79795 6.41667 7.63216 6.41667 6.41659C6.41667 5.20101 6.89955 4.03522 7.75909 3.17568C8.61864 2.31614 9.78442 1.83325 11 1.83325Z" fill="#444444"/>
</g>
<defs>
<clipPath id="clip0_145_2203">
<rect width="22" height="22" fill="white"/>
</clipPath>
</defs>
</svg>
