<svg width="20" height="20" viewBox="0 0 20 20" fill="none" xmlns="http://www.w3.org/2000/svg">
<g clip-path="url(#clip0_947_3502)">
<path fill-rule="evenodd" clip-rule="evenodd" d="M13.3333 11.6665C14.4384 11.6665 15.4982 12.1055 16.2796 12.8869C17.061 13.6683 17.5 14.7281 17.5 15.8332V17.4998C17.5 17.7209 17.4122 17.9328 17.2559 18.0891C17.0996 18.2454 16.8877 18.3332 16.6667 18.3332C16.4457 18.3332 16.2337 18.2454 16.0774 18.0891C15.9211 17.9328 15.8333 17.7209 15.8333 17.4998V15.8332C15.8333 15.1701 15.5699 14.5342 15.1011 14.0654C14.6323 13.5966 13.9964 13.3332 13.3333 13.3332H6.66667C6.00363 13.3332 5.36774 13.5966 4.8989 14.0654C4.43006 14.5342 4.16667 15.1701 4.16667 15.8332V17.4998C4.16667 17.7209 4.07887 17.9328 3.92259 18.0891C3.76631 18.2454 3.55435 18.3332 3.33333 18.3332C3.11232 18.3332 2.90036 18.2454 2.74408 18.0891C2.5878 17.9328 2.5 17.7209 2.5 17.4998V15.8332C2.5 14.7281 2.93899 13.6683 3.72039 12.8869C4.50179 12.1055 5.5616 11.6665 6.66667 11.6665H13.3333ZM17.845 7.56734C17.9946 7.41629 18.1963 7.32814 18.4088 7.32093C18.6213 7.31373 18.8285 7.388 18.988 7.52856C19.1475 7.66912 19.2473 7.86532 19.2668 8.07702C19.2864 8.28872 19.2244 8.4999 19.0933 8.66734L19.0233 8.7465L16.6667 11.1032C16.5232 11.2467 16.3323 11.3328 16.1297 11.3456C15.9272 11.3583 15.727 11.2967 15.5667 11.1723L15.4883 11.1032L14.31 9.92484C14.159 9.77522 14.0708 9.57353 14.0636 9.36105C14.0564 9.14857 14.1307 8.94137 14.2712 8.78185C14.4118 8.62234 14.608 8.52259 14.8197 8.503C15.0314 8.48342 15.2426 8.54549 15.41 8.6765L15.4883 8.74567L16.0775 9.33567L17.845 7.56734ZM10 1.6665C11.1051 1.6665 12.1649 2.10549 12.9463 2.88689C13.7277 3.66829 14.1667 4.7281 14.1667 5.83317C14.1667 6.93824 13.7277 7.99805 12.9463 8.77945C12.1649 9.56085 11.1051 9.99984 10 9.99984C8.89493 9.99984 7.83512 9.56085 7.05372 8.77945C6.27232 7.99805 5.83333 6.93824 5.83333 5.83317C5.83333 4.7281 6.27232 3.66829 7.05372 2.88689C7.83512 2.10549 8.89493 1.6665 10 1.6665ZM10 3.33317C9.6717 3.33317 9.34661 3.39784 9.04329 3.52347C8.73998 3.64911 8.46438 3.83326 8.23223 4.0654C8.00009 4.29755 7.81594 4.57315 7.6903 4.87646C7.56466 5.17978 7.5 5.50487 7.5 5.83317C7.5 6.16148 7.56466 6.48657 7.6903 6.78988C7.81594 7.09319 8.00009 7.36879 8.23223 7.60094C8.46438 7.83308 8.73998 8.01723 9.04329 8.14287C9.34661 8.26851 9.6717 8.33317 10 8.33317C10.663 8.33317 11.2989 8.06978 11.7678 7.60094C12.2366 7.1321 12.5 6.49621 12.5 5.83317C12.5 5.17013 12.2366 4.53424 11.7678 4.0654C11.2989 3.59656 10.663 3.33317 10 3.33317Z" fill="#444444" fill-opacity="0.8"/>
</g>
<defs>
<clipPath id="clip0_947_3502">
<rect width="20" height="20" fill="white"/>
</clipPath>
</defs>
</svg>
