<svg width="16" height="18" viewBox="0 0 16 18" fill="none" xmlns="http://www.w3.org/2000/svg">
<path d="M8.63185 10.6016V12.2736C7.8506 12.0176 7.01448 11.9391 6.1937 12.0446C5.37292 12.1502 4.59145 12.4367 3.91492 12.8802C3.23838 13.3236 2.68653 13.9111 2.30571 14.5931C1.92489 15.2752 1.72621 16.032 1.72637 16.8H4.96514e-07C-0.000399207 15.823 0.240533 14.859 0.704332 13.9817C1.16813 13.1043 1.84249 12.3371 2.67572 11.7387C3.50895 11.1403 4.47894 10.7266 5.51136 10.5294C6.54377 10.3321 7.61121 10.3574 8.63185 10.6016ZM6.90548 9.6C4.04402 9.6 1.72637 7.452 1.72637 4.8C1.72637 2.148 4.04402 0 6.90548 0C9.76694 0 12.0846 2.148 12.0846 4.8C12.0846 7.452 9.76694 9.6 6.90548 9.6ZM6.90548 8C8.81312 8 10.3582 6.568 10.3582 4.8C10.3582 3.032 8.81312 1.6 6.90548 1.6C4.99784 1.6 3.45274 3.032 3.45274 4.8C3.45274 6.568 4.99784 8 6.90548 8ZM12.9478 13.2688L14.7786 11.572L16 12.7032L14.1683 14.4L15.9991 16.0968L14.7786 17.2288L12.9478 15.5312L11.117 17.228L9.89555 16.0968L11.7281 14.4L9.89728 12.7032L11.1178 11.5712L12.9478 13.2688Z" fill="#444444" fill-opacity="0.7"/>
</svg>
