<svg width="14" height="14" viewBox="0 0 14 14" fill="none" xmlns="http://www.w3.org/2000/svg">
<path d="M12.2597 4.81453C12.2392 5.52592 11.9467 6.20237 11.4424 6.70455L9.66734 8.48067C9.40881 8.74061 9.10128 8.9467 8.76257 9.08699C8.42385 9.22728 8.06067 9.29899 7.69405 9.29797H7.6915C7.31862 9.29771 6.94958 9.22272 6.60617 9.07744C6.26276 8.93215 5.95194 8.71952 5.69209 8.45209C5.43224 8.18467 5.22862 7.86788 5.09325 7.52044C4.95789 7.173 4.89353 6.80196 4.90397 6.42922C4.90702 6.32084 4.95299 6.21811 5.03179 6.14363C5.11058 6.06915 5.21573 6.02901 5.32412 6.03206C5.4325 6.03511 5.53523 6.08109 5.60971 6.15988C5.68419 6.23867 5.72432 6.34383 5.72128 6.45221C5.71383 6.71575 5.7593 6.97812 5.85497 7.22379C5.95065 7.46947 6.0946 7.69348 6.27832 7.88258C6.46203 8.07167 6.68179 8.22203 6.92461 8.32476C7.16742 8.42748 7.42836 8.4805 7.69201 8.48067C7.95118 8.4813 8.2079 8.43057 8.44735 8.33141C8.68679 8.23225 8.90422 8.08662 9.08705 7.90293L10.8621 6.12784C11.2284 5.75699 11.433 5.25631 11.4314 4.7351C11.4298 4.2139 11.222 3.7145 10.8534 3.34595C10.4849 2.9774 9.98549 2.76963 9.46429 2.768C8.94308 2.76637 8.4424 2.97101 8.07155 3.33725L7.50965 3.89915C7.43239 3.97255 7.32951 4.01286 7.22295 4.0115C7.11639 4.01014 7.01457 3.9672 6.93922 3.89184C6.86386 3.81649 6.82092 3.71467 6.81956 3.60811C6.81819 3.50155 6.85851 3.39867 6.93191 3.32141L7.49381 2.75951C7.75305 2.50019 8.06084 2.29447 8.39959 2.15412C8.73835 2.01377 9.10144 1.94153 9.46812 1.94153C9.8348 1.94153 10.1979 2.01377 10.5366 2.15412C10.8754 2.29447 11.1832 2.50019 11.4424 2.75951C11.7109 3.02869 11.9219 3.34969 12.0624 3.70298C12.2029 4.05628 12.27 4.43446 12.2597 4.81453ZM5.56803 9.79142L5.00613 10.3533C4.82288 10.5378 4.60477 10.6841 4.36448 10.7835C4.1242 10.883 3.86654 10.9336 3.60649 10.9326C3.21638 10.9323 2.83512 10.8163 2.51087 10.5994C2.18663 10.3825 1.93395 10.0744 1.78477 9.7139C1.63559 9.35344 1.5966 8.95685 1.67273 8.57424C1.74885 8.19163 1.93668 7.84016 2.21247 7.56426L3.9845 5.78917C4.2636 5.50859 4.62062 5.31842 5.00919 5.24335C5.39776 5.16829 5.79993 5.21179 6.16346 5.36822C6.52698 5.52465 6.83508 5.78677 7.04772 6.12054C7.26037 6.45431 7.36774 6.84431 7.35589 7.23989C7.35284 7.34827 7.39297 7.45343 7.46746 7.53222C7.54194 7.61101 7.64467 7.65699 7.75305 7.66004C7.86143 7.66309 7.96659 7.62295 8.04538 7.54847C8.12417 7.47399 8.17015 7.37126 8.1732 7.26288C8.18301 6.88341 8.11562 6.5059 7.97513 6.15326C7.83464 5.80062 7.62396 5.4802 7.35589 5.21143C6.8324 4.68817 6.12252 4.39422 5.38235 4.39422C4.64218 4.39422 3.9323 4.68817 3.40881 5.21143L1.63474 6.98653C1.24459 7.37651 0.978806 7.8734 0.870969 8.4144C0.763133 8.95539 0.818086 9.51621 1.02888 10.026C1.23968 10.5358 1.59686 10.9716 2.05529 11.2784C2.51372 11.5853 3.05281 11.7493 3.60445 11.7499C3.97115 11.751 4.33442 11.6793 4.67322 11.539C5.01203 11.3987 5.31964 11.1926 5.57825 10.9326L6.14015 10.3707C6.20628 10.2928 6.24083 10.1929 6.23698 10.0908C6.23314 9.98872 6.19118 9.89175 6.11937 9.81905C6.04757 9.74635 5.95113 9.70318 5.84907 9.69807C5.74701 9.69296 5.64674 9.72626 5.56803 9.79142Z" fill="black"/>
</svg>
