<svg width="260" height="46" viewBox="0 0 260 46" fill="none" xmlns="http://www.w3.org/2000/svg">
<path fill-rule="evenodd" clip-rule="evenodd" d="M179.713 4.47653C170.627 4.76437 162.981 4.97148 159.031 5.01647C151.23 5.10531 132.759 6.13499 117.982 7.30847C106.623 8.20931 88.0196 9.98198 71.1355 11.6954C66.4007 11.8656 61.6042 12.0232 56.8767 12.1621C14.6442 13.4033 9.23715 13.7913 7.18177 15.7281C5.05257 17.7356 5.05124 17.8977 7.16499 17.8526C7.74489 17.8402 8.34405 17.9261 8.85987 18.0771C7.92898 18.3847 7.39724 18.7237 7.00056 19.1206C6.91213 19.2091 6.82751 19.2941 6.74669 19.3758C3.47136 19.0175 3.0147 19.3322 3.63065 21.3927C3.76865 21.8543 3.78201 22.393 3.69053 22.9495C3.38226 23.1519 3.30796 23.4886 3.39894 24.0047C3.11404 24.7393 2.66747 25.4401 2.10488 25.9703C0.00679425 27.9475 0.0743753 28.1041 3.05756 28.1792L3.19856 28.1826C2.95261 28.6686 2.63645 29.1205 2.26319 29.4939C0.230697 31.5272 0.30346 31.6818 3.28906 31.6745C5.05644 31.6701 6.94263 31.5849 7.48053 31.4852C7.92664 31.4025 9.49589 32.2461 11.2249 33.4626C9.94924 33.6909 10.3938 33.9261 12.2466 34.4587C12.4468 34.5162 12.6432 34.5786 12.8352 34.645C13.7515 35.2844 14.7148 35.7957 15.7246 36.1789C16.792 37.0481 17.0126 37.8751 15.7166 37.9801C11.9311 38.2868 16.712 40.3524 25.6374 42.2663C35.3487 44.3488 35.8851 44.3244 82.5824 39.6884C92.5308 38.7008 102.757 37.6203 112.04 36.5879C117.276 36.5203 123.608 36.37 130.081 36.1601C135.002 36.1341 139.992 36.0761 144.63 35.9843C171.981 35.4465 240.257 32.4804 231.132 32.2265C223.369 32.0105 227.342 30.5787 239.545 29.1952C245.835 28.482 251.192 27.3014 251.449 26.5717C251.707 25.8419 253.598 25.2091 255.653 25.1653C258.434 25.106 259.383 24.4578 259.363 22.6289C259.356 21.9314 259.172 21.3878 258.735 20.9531C259.248 20.5396 259.439 19.9303 259.401 19.058C259.329 17.4071 258.292 16.6474 255.265 16.2065C256.578 16.1077 256.868 15.9655 256.28 15.6632C256.683 15.3453 256.6 14.7569 256.229 13.7551C256.103 13.4143 256.042 13.0258 256.041 12.6153C256.501 12.5066 256.492 12.3721 256.062 12.1718C256.165 11.0892 256.642 9.92245 257.385 9.10387C259.285 7.01225 259.208 6.85995 256.3 6.95646C254.706 7.00944 253.016 7.13462 252.361 7.24467C251.893 6.81314 250.643 6.23666 248.77 5.58807C248.328 5.29818 247.871 4.98195 247.417 4.6484C244.843 2.76036 241.939 1.92453 238.709 2.14233C237.987 2.19101 237.053 2.24583 235.933 2.30573C229.203 1.19521 221.141 1.71403 182.722 4.27415C181.721 4.34083 180.718 4.40833 179.713 4.47653ZM22.3997 20.2601C22.2411 20.2947 22.084 20.3293 21.9285 20.3642C21.5396 20.3087 21.1529 20.2498 20.7698 20.1875C21.3161 20.2076 21.8604 20.2319 22.3997 20.2601ZM12.1065 17.3684C12.9644 17.2353 13.9681 17.1046 15.1477 16.9732C12.9638 16.9658 12.0291 17.0636 12.1065 17.3684Z" fill="url(#paint0_linear_919_3912)" fill-opacity="0.5"/>
<path d="M18.6228 7.98845H25.8099L31.9066 22.855H32.1879L38.2846 7.98845H45.4717V32H39.8205V17.2507H39.6212L33.8528 31.8476H30.2417L24.4733 17.1686H24.274V32H18.6228V7.98845ZM100.128 19.9942C100.128 22.6361 99.6198 24.8755 98.6037 26.7123C97.5876 28.5491 96.2119 29.9443 94.4767 30.8979C92.7493 31.8515 90.8109 32.3283 88.6614 32.3283C86.5041 32.3283 84.5618 31.8476 82.8344 30.8862C81.107 29.9248 79.7352 28.5296 78.7191 26.7006C77.7108 24.8638 77.2067 22.6283 77.2067 19.9942C77.2067 17.3523 77.7108 15.113 78.7191 13.2762C79.7352 11.4393 81.107 10.0441 82.8344 9.09055C84.5618 8.13696 86.5041 7.66017 88.6614 7.66017C90.8109 7.66017 92.7493 8.13696 94.4767 9.09055C96.2119 10.0441 97.5876 11.4393 98.6037 13.2762C99.6198 15.113 100.128 17.3523 100.128 19.9942ZM94.1953 19.9942C94.1953 18.431 93.9725 17.11 93.527 16.0314C93.0893 14.9527 92.4562 14.1359 91.6277 13.581C90.807 13.026 89.8182 12.7486 88.6614 12.7486C87.5124 12.7486 86.5236 13.026 85.6951 13.581C84.8666 14.1359 84.2296 14.9527 83.784 16.0314C83.3463 17.11 83.1275 18.431 83.1275 19.9942C83.1275 21.5575 83.3463 22.8784 83.784 23.9571C84.2296 25.0357 84.8666 25.8525 85.6951 26.4075C86.5236 26.9624 87.5124 27.2399 88.6614 27.2399C89.8182 27.2399 90.807 26.9624 91.6277 26.4075C92.4562 25.8525 93.0893 25.0357 93.527 23.9571C93.9725 22.8784 94.1953 21.5575 94.1953 19.9942ZM112.392 32H103.516V7.98845H112.38C114.826 7.98845 116.933 8.46915 118.699 9.43055C120.474 10.3841 121.841 11.7598 122.803 13.5575C123.764 15.3475 124.245 17.4891 124.245 19.9825C124.245 22.4837 123.764 24.6332 122.803 26.4309C121.849 28.2287 120.485 29.6082 118.711 30.5696C116.937 31.5232 114.83 32 112.392 32ZM109.32 27.0523H112.169C113.513 27.0523 114.65 26.8256 115.581 26.3723C116.519 25.9111 117.226 25.1647 117.703 24.1329C118.187 23.0934 118.43 21.7099 118.43 19.9825C118.43 18.2551 118.187 16.8794 117.703 15.8555C117.218 14.8238 116.503 14.0812 115.557 13.6279C114.619 13.1667 113.462 12.9361 112.087 12.9361H109.32V27.0523ZM150.296 19.9942C150.296 22.6361 149.788 24.8755 148.772 26.7123C147.756 28.5491 146.381 29.9443 144.645 30.8979C142.918 31.8515 140.98 32.3283 138.83 32.3283C136.673 32.3283 134.73 31.8476 133.003 30.8862C131.276 29.9248 129.904 28.5296 128.888 26.7006C127.879 24.8638 127.375 22.6283 127.375 19.9942C127.375 17.3523 127.879 15.113 128.888 13.2762C129.904 11.4393 131.276 10.0441 133.003 9.09055C134.73 8.13696 136.673 7.66017 138.83 7.66017C140.98 7.66017 142.918 8.13696 144.645 9.09055C146.381 10.0441 147.756 11.4393 148.772 13.2762C149.788 15.113 150.296 17.3523 150.296 19.9942ZM144.364 19.9942C144.364 18.431 144.141 17.11 143.696 16.0314C143.258 14.9527 142.625 14.1359 141.796 13.581C140.976 13.026 139.987 12.7486 138.83 12.7486C137.681 12.7486 136.692 13.026 135.864 13.581C135.035 14.1359 134.398 14.9527 133.953 16.0314C133.515 17.11 133.296 18.431 133.296 19.9942C133.296 21.5575 133.515 22.8784 133.953 23.9571C134.398 25.0357 135.035 25.8525 135.864 26.4075C136.692 26.9624 137.681 27.2399 138.83 27.2399C139.987 27.2399 140.976 26.9624 141.796 26.4075C142.625 25.8525 143.258 25.0357 143.696 23.9571C144.141 22.8784 144.364 21.5575 144.364 19.9942ZM176.348 19.9942C176.348 22.6361 175.84 24.8755 174.824 26.7123C173.808 28.5491 172.432 29.9443 170.697 30.8979C168.97 31.8515 167.031 32.3283 164.882 32.3283C162.724 32.3283 160.782 31.8476 159.055 30.8862C157.327 29.9248 155.955 28.5296 154.939 26.7006C153.931 24.8638 153.427 22.6283 153.427 19.9942C153.427 17.3523 153.931 15.113 154.939 13.2762C155.955 11.4393 157.327 10.0441 159.055 9.09055C160.782 8.13696 162.724 7.66017 164.882 7.66017C167.031 7.66017 168.97 8.13696 170.697 9.09055C172.432 10.0441 173.808 11.4393 174.824 13.2762C175.84 15.113 176.348 17.3523 176.348 19.9942ZM170.416 19.9942C170.416 18.431 170.193 17.11 169.747 16.0314C169.31 14.9527 168.676 14.1359 167.848 13.581C167.027 13.026 166.038 12.7486 164.882 12.7486C163.733 12.7486 162.744 13.026 161.915 13.581C161.087 14.1359 160.45 14.9527 160.004 16.0314C159.567 17.11 159.348 18.431 159.348 19.9942C159.348 21.5575 159.567 22.8784 160.004 23.9571C160.45 25.0357 161.087 25.8525 161.915 26.4075C162.744 26.9624 163.733 27.2399 164.882 27.2399C166.038 27.2399 167.027 26.9624 167.848 26.4075C168.676 25.8525 169.31 25.0357 169.747 23.9571C170.193 22.8784 170.416 21.5575 170.416 19.9942ZM188.612 32H179.736V7.98845H188.6C191.047 7.98845 193.153 8.46915 194.92 9.43055C196.694 10.3841 198.062 11.7598 199.023 13.5575C199.984 15.3475 200.465 17.4891 200.465 19.9825C200.465 22.4837 199.984 24.6332 199.023 26.4309C198.069 28.2287 196.706 29.6082 194.931 30.5696C193.157 31.5232 191.05 32 188.612 32ZM185.54 27.0523H188.389C189.733 27.0523 190.871 26.8256 191.801 26.3723C192.739 25.9111 193.446 25.1647 193.923 24.1329C194.408 23.0934 194.65 21.7099 194.65 19.9825C194.65 18.2551 194.408 16.8794 193.923 15.8555C193.438 14.8238 192.723 14.0812 191.777 13.6279C190.839 13.1667 189.683 12.9361 188.307 12.9361H185.54V27.0523ZM203.853 32V7.98845H209.657V27.2868H219.646V32H203.853ZM222.651 32V7.98845H239.393V12.7017H228.454V17.6259H238.537V22.3508H228.454V27.2868H239.393V32H222.651Z" fill="black"/>
<path d="M58.9353 27.3744C59.14 26.8373 59.123 26.241 58.888 25.7165C58.653 25.192 58.2193 24.7824 57.6823 24.5777C57.1452 24.373 56.5489 24.39 56.0244 24.625C55.4999 24.86 55.0903 25.2937 54.8856 25.8307C54.6809 26.3678 54.6979 26.9641 54.9329 27.4886C55.1679 28.0131 55.6016 28.4227 56.1386 28.6274C56.6757 28.8321 57.272 28.8151 57.7965 28.5801C58.321 28.3451 58.7306 27.9114 58.9353 27.3744ZM55.0793 21.2664C55.284 20.7294 55.267 20.1331 55.032 19.6086C54.797 19.0841 54.3633 18.6745 53.8262 18.4698C53.2892 18.2651 52.6928 18.2821 52.1684 18.5171C51.6439 18.7521 51.2342 19.1858 51.0295 19.7228C50.8248 20.2598 50.8419 20.8562 51.0768 21.3807C51.3118 21.9052 51.7456 22.3148 52.2826 22.5195C52.8196 22.7242 53.416 22.7072 53.9405 22.4722C54.4649 22.2372 54.8746 21.8035 55.0793 21.2664ZM57.652 14.5169C57.8567 13.9798 57.8397 13.3835 57.6047 12.859C57.3697 12.3345 56.936 11.9249 56.3989 11.7202C55.8619 11.5155 55.2656 11.5325 54.7411 11.7675C54.2166 12.0025 53.8069 12.4362 53.6022 12.9732C53.3976 13.5103 53.4146 14.1066 53.6496 14.6311C53.8846 15.1556 54.3183 15.5652 54.8553 15.7699C55.3923 15.9746 55.9887 15.9576 56.5132 15.7226C57.0377 15.4876 57.4473 15.0539 57.652 14.5169ZM64.5953 12.5253C64.8 11.9883 64.783 11.3919 64.548 10.8674C64.313 10.3429 63.8793 9.93329 63.3422 9.72859C62.8052 9.52389 62.2089 9.54091 61.6844 9.77591C61.1599 10.0109 60.7502 10.4446 60.5456 10.9817C60.3409 11.5187 60.3579 12.115 60.5929 12.6395C60.8279 13.164 61.2616 13.5736 61.7986 13.7783C62.3356 13.983 62.932 13.966 63.4565 13.731C63.981 13.496 64.3906 13.0623 64.5953 12.5253ZM49.6161 15.3189C50.8442 12.0968 53.3021 9.49444 56.449 8.08447C59.5959 6.6745 63.174 6.57238 66.3962 7.80057C69.6184 9.02876 72.2207 11.4867 73.6307 14.6335C75.0406 17.7804 75.1428 21.3585 73.9146 24.5807C73.7099 25.1178 73.3002 25.5515 72.7757 25.7865C72.2513 26.0215 71.6549 26.0385 71.1179 25.8338C70.5914 25.6331 70.1961 25.2505 69.9686 24.7928C69.7225 24.3434 69.3272 23.9608 68.8142 23.7653C68.2772 23.5606 67.6809 23.5776 67.1564 23.8126C66.6319 24.0476 66.2222 24.4813 66.0176 25.0183L65.1068 27.4077C64.4245 29.1978 63.059 30.6435 61.3107 31.4268C59.5624 32.2101 57.5746 32.2669 55.7845 31.5845C49.8179 29.3103 47.0588 22.028 49.6161 15.3189Z" fill="black"/>
<ellipse cx="3.04732" cy="3.04732" rx="3.04732" ry="3.04732" transform="matrix(-0.35617 0.934421 0.934421 0.35617 55.8932 23.0927)" fill="#FBCFE0"/>
<ellipse cx="2.53944" cy="2.56483" rx="2.53944" ry="2.56483" transform="matrix(-0.35617 0.934421 0.934421 0.35617 51.7263 17.4823)" fill="#FECFAD"/>
<circle cx="2.31089" cy="2.31089" r="2.31089" transform="matrix(-0.35617 0.934421 0.934421 0.35617 54.2183 10.6598)" fill="#FEF4A0"/>
<ellipse cx="2.20931" cy="2.20931" rx="2.20931" ry="2.20931" transform="matrix(-0.35617 0.934421 0.934421 0.35617 61.3018 8.90259)" fill="#B3F4B2"/>
<ellipse cx="1.90458" cy="1.90458" rx="1.90458" ry="1.90458" transform="matrix(-0.35617 0.934421 0.934421 0.35617 67.1637 12.061)" fill="#B4D3FF"/>
<ellipse cx="1.47287" cy="1.47287" rx="1.47287" ry="1.47287" transform="matrix(-0.35617 0.934421 0.934421 0.35617 69.766 17.7817)" fill="#DBD3FB"/>
<defs>
<linearGradient id="paint0_linear_919_3912" x1="0.714065" y1="29.0186" x2="259.344" y2="17.7427" gradientUnits="userSpaceOnUse">
<stop stop-color="#FEF4A0"/>
<stop offset="0.585" stop-color="#FBCFE0"/>
<stop offset="0.995" stop-color="#D4AFF9"/>
</linearGradient>
</defs>
</svg>
