<svg width="126" height="22" viewBox="0 0 126 22" fill="none" xmlns="http://www.w3.org/2000/svg">
<path fill-rule="evenodd" clip-rule="evenodd" d="M87.0917 2.16941C82.6883 2.3089 78.9829 2.40927 77.069 2.43107C73.2886 2.47412 64.3369 2.97312 57.176 3.54181C51.671 3.97837 42.6557 4.83743 34.4733 5.66779C32.1788 5.75024 29.8543 5.82664 27.5633 5.89396C7.09682 6.49544 4.47647 6.68347 3.48039 7.62209C2.44855 8.59496 2.44791 8.67349 3.47226 8.65165C3.75329 8.64565 4.04366 8.68726 4.29363 8.76043C3.84251 8.90951 3.58482 9.07383 3.39258 9.26613C3.34973 9.30903 3.30872 9.35024 3.26955 9.38981C1.68228 9.2162 1.46097 9.36869 1.75947 10.3673C1.82635 10.5909 1.83282 10.852 1.78849 11.1217C1.6391 11.2198 1.60309 11.383 1.64718 11.633C1.50911 11.989 1.2927 12.3287 1.02005 12.5856C0.00329257 13.5438 0.0360434 13.6197 1.48174 13.6561L1.55007 13.6577C1.43088 13.8933 1.27766 14.1122 1.09678 14.2932C0.111799 15.2786 0.147061 15.3535 1.59393 15.35C2.45043 15.3478 3.36451 15.3065 3.62518 15.2582C3.84137 15.2181 4.60185 15.627 5.43975 16.2165C4.82156 16.3271 5.037 16.4411 5.93489 16.6992C6.03189 16.7271 6.12708 16.7573 6.22012 16.7895C6.6642 17.0994 7.13103 17.3472 7.6204 17.5329C8.13767 17.9541 8.24459 18.3549 7.61653 18.4057C5.782 18.5544 8.0989 19.5554 12.4243 20.4829C17.1305 21.4921 17.3905 21.4803 40.0207 19.2336C44.8419 18.755 49.7978 18.2314 54.2961 17.7311C56.8336 17.6983 59.9025 17.6255 63.0393 17.5237C65.4242 17.5112 67.8421 17.483 70.0898 17.4386C83.3447 17.1779 116.432 15.7405 112.01 15.6175C108.248 15.5128 110.174 14.8189 116.087 14.1485C119.136 13.8028 121.732 13.2307 121.856 12.877C121.981 12.5234 122.898 12.2167 123.893 12.1955C125.241 12.1667 125.701 11.8526 125.692 10.9663C125.688 10.6283 125.599 10.3649 125.387 10.1542C125.636 9.95383 125.728 9.65853 125.71 9.23582C125.675 8.43574 125.172 8.06759 123.705 7.85394C124.342 7.80606 124.482 7.73712 124.197 7.59064C124.392 7.43657 124.352 7.15142 124.173 6.66593C124.111 6.50078 124.082 6.31251 124.082 6.11359C124.304 6.0609 124.3 5.9957 124.092 5.89867C124.141 5.37401 124.373 4.80858 124.733 4.41189C125.653 3.39825 125.616 3.32444 124.207 3.37122C123.435 3.39689 122.616 3.45756 122.298 3.51089C122.071 3.30176 121.465 3.02239 120.558 2.70807C120.343 2.56759 120.122 2.41434 119.902 2.2527C118.655 1.33772 117.247 0.932668 115.682 1.03822C115.332 1.06181 114.879 1.08837 114.337 1.1174C111.075 0.579226 107.168 0.830655 88.55 2.07133C88.065 2.10364 87.5788 2.13635 87.0917 2.16941ZM10.8553 9.81836C10.7784 9.83511 10.7023 9.85192 10.6269 9.86879C10.4384 9.84194 10.251 9.81339 10.0654 9.78318C10.3301 9.79295 10.5939 9.80472 10.8553 9.81836ZM5.86698 8.41701C6.28277 8.35252 6.76914 8.28918 7.3408 8.2255C6.28246 8.22188 5.8295 8.26927 5.86698 8.41701Z" fill="url(#paint0_linear_919_3853)" fill-opacity="0.5"/>
<path d="M9.00567 3.36363H12.4886L15.4432 10.5682H15.5795L18.5341 3.36363H22.017V15H19.2784V7.85227H19.1818L16.3864 14.9261H14.6364L11.8409 7.8125H11.7443V15H9.00567V3.36363ZM48.5043 9.18182C48.5043 10.4621 48.258 11.5473 47.7656 12.4375C47.2732 13.3277 46.6065 14.0038 45.7656 14.4659C44.9285 14.928 43.9891 15.1591 42.9474 15.1591C41.902 15.1591 40.9607 14.9261 40.1236 14.4602C39.2865 13.9943 38.6217 13.3182 38.1293 12.4318C37.6406 11.5417 37.3963 10.4583 37.3963 9.18182C37.3963 7.90151 37.6406 6.81629 38.1293 5.92613C38.6217 5.03598 39.2865 4.35985 40.1236 3.89773C40.9607 3.4356 41.902 3.20454 42.9474 3.20454C43.9891 3.20454 44.9285 3.4356 45.7656 3.89773C46.6065 4.35985 47.2732 5.03598 47.7656 5.92613C48.258 6.81629 48.5043 7.90151 48.5043 9.18182ZM45.6293 9.18182C45.6293 8.42424 45.5213 7.78409 45.3054 7.26136C45.0933 6.73863 44.7865 6.3428 44.3849 6.07386C43.9872 5.80492 43.508 5.67045 42.9474 5.67045C42.3906 5.67045 41.9115 5.80492 41.5099 6.07386C41.1084 6.3428 40.7997 6.73863 40.5838 7.26136C40.3717 7.78409 40.2656 8.42424 40.2656 9.18182C40.2656 9.93939 40.3717 10.5795 40.5838 11.1023C40.7997 11.625 41.1084 12.0208 41.5099 12.2898C41.9115 12.5587 42.3906 12.6932 42.9474 12.6932C43.508 12.6932 43.9872 12.5587 44.3849 12.2898C44.7865 12.0208 45.0933 11.625 45.3054 11.1023C45.5213 10.5795 45.6293 9.93939 45.6293 9.18182ZM54.4474 15H50.1463V3.36363H54.4418C55.6274 3.36363 56.6482 3.59659 57.5043 4.0625C58.3641 4.52462 59.027 5.19129 59.4929 6.0625C59.9588 6.92992 60.1918 7.9678 60.1918 9.17614C60.1918 10.3883 59.9588 11.4299 59.4929 12.3011C59.0308 13.1723 58.3698 13.8409 57.5099 14.3068C56.6501 14.7689 55.6293 15 54.4474 15ZM52.9588 12.6023H54.3395C54.991 12.6023 55.5421 12.4924 55.9929 12.2727C56.4474 12.0492 56.7902 11.6875 57.0213 11.1875C57.2562 10.6837 57.3736 10.0133 57.3736 9.17614C57.3736 8.33901 57.2562 7.67235 57.0213 7.17614C56.7865 6.67614 56.4399 6.31629 55.9815 6.09659C55.527 5.8731 54.9664 5.76136 54.2997 5.76136H52.9588V12.6023ZM72.8168 9.18182C72.8168 10.4621 72.5706 11.5473 72.0781 12.4375C71.5857 13.3277 70.919 14.0038 70.0781 14.4659C69.241 14.928 68.3016 15.1591 67.2599 15.1591C66.2145 15.1591 65.2732 14.9261 64.4361 14.4602C63.599 13.9943 62.9342 13.3182 62.4418 12.4318C61.9531 11.5417 61.7088 10.4583 61.7088 9.18182C61.7088 7.90151 61.9531 6.81629 62.4418 5.92613C62.9342 5.03598 63.599 4.35985 64.4361 3.89773C65.2732 3.4356 66.2145 3.20454 67.2599 3.20454C68.3016 3.20454 69.241 3.4356 70.0781 3.89773C70.919 4.35985 71.5857 5.03598 72.0781 5.92613C72.5706 6.81629 72.8168 7.90151 72.8168 9.18182ZM69.9418 9.18182C69.9418 8.42424 69.8338 7.78409 69.6179 7.26136C69.4058 6.73863 69.099 6.3428 68.6974 6.07386C68.2997 5.80492 67.8206 5.67045 67.2599 5.67045C66.7031 5.67045 66.224 5.80492 65.8224 6.07386C65.4209 6.3428 65.1122 6.73863 64.8963 7.26136C64.6842 7.78409 64.5781 8.42424 64.5781 9.18182C64.5781 9.93939 64.6842 10.5795 64.8963 11.1023C65.1122 11.625 65.4209 12.0208 65.8224 12.2898C66.224 12.5587 66.7031 12.6932 67.2599 12.6932C67.8206 12.6932 68.2997 12.5587 68.6974 12.2898C69.099 12.0208 69.4058 11.625 69.6179 11.1023C69.8338 10.5795 69.9418 9.93939 69.9418 9.18182ZM85.4418 9.18182C85.4418 10.4621 85.1956 11.5473 84.7031 12.4375C84.2107 13.3277 83.544 14.0038 82.7031 14.4659C81.866 14.928 80.9266 15.1591 79.8849 15.1591C78.8395 15.1591 77.8982 14.9261 77.0611 14.4602C76.224 13.9943 75.5592 13.3182 75.0668 12.4318C74.5781 11.5417 74.3338 10.4583 74.3338 9.18182C74.3338 7.90151 74.5781 6.81629 75.0668 5.92613C75.5592 5.03598 76.224 4.35985 77.0611 3.89773C77.8982 3.4356 78.8395 3.20454 79.8849 3.20454C80.9266 3.20454 81.866 3.4356 82.7031 3.89773C83.544 4.35985 84.2107 5.03598 84.7031 5.92613C85.1956 6.81629 85.4418 7.90151 85.4418 9.18182ZM82.5668 9.18182C82.5668 8.42424 82.4588 7.78409 82.2429 7.26136C82.0308 6.73863 81.724 6.3428 81.3224 6.07386C80.9247 5.80492 80.4456 5.67045 79.8849 5.67045C79.3281 5.67045 78.849 5.80492 78.4474 6.07386C78.0459 6.3428 77.7372 6.73863 77.5213 7.26136C77.3092 7.78409 77.2031 8.42424 77.2031 9.18182C77.2031 9.93939 77.3092 10.5795 77.5213 11.1023C77.7372 11.625 78.0459 12.0208 78.4474 12.2898C78.849 12.5587 79.3281 12.6932 79.8849 12.6932C80.4456 12.6932 80.9247 12.5587 81.3224 12.2898C81.724 12.0208 82.0308 11.625 82.2429 11.1023C82.4588 10.5795 82.5668 9.93939 82.5668 9.18182ZM91.3849 15H87.0838V3.36363H91.3793C92.5649 3.36363 93.5857 3.59659 94.4418 4.0625C95.3016 4.52462 95.9645 5.19129 96.4304 6.0625C96.8963 6.92992 97.1293 7.9678 97.1293 9.17614C97.1293 10.3883 96.8963 11.4299 96.4304 12.3011C95.9683 13.1723 95.3073 13.8409 94.4474 14.3068C93.5876 14.7689 92.5668 15 91.3849 15ZM89.8963 12.6023H91.277C91.9285 12.6023 92.4796 12.4924 92.9304 12.2727C93.3849 12.0492 93.7277 11.6875 93.9588 11.1875C94.1937 10.6837 94.3111 10.0133 94.3111 9.17614C94.3111 8.33901 94.1937 7.67235 93.9588 7.17614C93.724 6.67614 93.3774 6.31629 92.919 6.09659C92.4645 5.8731 91.9039 5.76136 91.2372 5.76136H89.8963V12.6023ZM98.7713 15V3.36363H101.584V12.7159H106.425V15H98.7713ZM107.881 15V3.36363H115.994V5.64773H110.693V8.03409H115.58V10.3239H110.693V12.7159H115.994V15H107.881Z" fill="black"/>
<path d="M28.5611 13.2659C28.6603 13.0056 28.6521 12.7166 28.5382 12.4624C28.4243 12.2083 28.2141 12.0097 27.9539 11.9105C27.6936 11.8113 27.4046 11.8196 27.1504 11.9335C26.8963 12.0474 26.6977 12.2575 26.5985 12.5178C26.4993 12.778 26.5076 13.067 26.6215 13.3212C26.7354 13.5754 26.9455 13.7739 27.2058 13.8731C27.4661 13.9723 27.7551 13.9641 28.0092 13.8502C28.2634 13.7363 28.4619 13.5261 28.5611 13.2659ZM26.6924 10.3059C26.7916 10.0456 26.7834 9.75661 26.6695 9.50244C26.5556 9.24826 26.3454 9.04974 26.0852 8.95054C25.8249 8.85134 25.5359 8.85959 25.2817 8.97347C25.0276 9.08735 24.8291 9.29754 24.7299 9.5578C24.6307 9.81805 24.6389 10.107 24.7528 10.3612C24.8667 10.6154 25.0769 10.8139 25.3371 10.9131C25.5974 11.0123 25.8864 11.0041 26.1405 10.8902C26.3947 10.7763 26.5932 10.5661 26.6924 10.3059ZM27.9392 7.03491C28.0384 6.77466 28.0302 6.48565 27.9163 6.23148C27.8024 5.97731 27.5922 5.77879 27.332 5.67959C27.0717 5.58039 26.7827 5.58864 26.5285 5.70252C26.2744 5.8164 26.0758 6.02659 25.9766 6.28684C25.8774 6.54709 25.8857 6.8361 25.9996 7.09027C26.1134 7.34444 26.3236 7.54296 26.5839 7.64216C26.8441 7.74136 27.1331 7.73311 27.3873 7.61923C27.6415 7.50535 27.84 7.29516 27.9392 7.03491ZM31.304 6.06976C31.4032 5.80951 31.395 5.5205 31.2811 5.26633C31.1672 5.01216 30.957 4.81364 30.6968 4.71444C30.4365 4.61524 30.1475 4.62349 29.8934 4.73737C29.6392 4.85125 29.4407 5.06144 29.3415 5.32169C29.2423 5.58194 29.2505 5.87095 29.3644 6.12512C29.4783 6.37929 29.6885 6.57781 29.9487 6.67701C30.209 6.77621 30.498 6.76796 30.7521 6.65408C31.0063 6.5402 31.2048 6.33001 31.304 6.06976ZM24.0449 7.42361C24.6401 5.86209 25.8312 4.60096 27.3562 3.91767C28.8813 3.23438 30.6153 3.18489 32.1768 3.78009C33.7383 4.37529 34.9994 5.56642 35.6827 7.09145C36.366 8.61648 36.4155 10.3505 35.8203 11.912C35.7211 12.1723 35.5226 12.3825 35.2684 12.4963C35.0142 12.6102 34.7252 12.6185 34.465 12.5193C34.2098 12.422 34.0183 12.2366 33.908 12.0148C33.7888 11.797 33.5972 11.6116 33.3486 11.5168C33.0883 11.4176 32.7993 11.4259 32.5452 11.5398C32.291 11.6536 32.0925 11.8638 31.9933 12.1241L31.5519 13.282C31.2213 14.1495 30.5595 14.8501 29.7123 15.2297C28.865 15.6093 27.9017 15.6368 27.0342 15.3062C24.1427 14.204 22.8056 10.6749 24.0449 7.42361Z" fill="black"/>
<ellipse cx="1.47678" cy="1.47678" rx="1.47678" ry="1.47678" transform="matrix(-0.35617 0.934421 0.934421 0.35617 27.0869 11.1909)" fill="#FBCFE0"/>
<ellipse cx="1.23065" cy="1.24296" rx="1.23065" ry="1.24296" transform="matrix(-0.35617 0.934421 0.934421 0.35617 25.0679 8.47217)" fill="#FECFAD"/>
<circle cx="1.11989" cy="1.11989" r="1.11989" transform="matrix(-0.35617 0.934421 0.934421 0.35617 26.2754 5.16577)" fill="#FEF4A0"/>
<ellipse cx="1.07067" cy="1.07067" rx="1.07067" ry="1.07067" transform="matrix(-0.35617 0.934421 0.934421 0.35617 29.708 4.31445)" fill="#B3F4B2"/>
<ellipse cx="0.922987" cy="0.922987" rx="0.922987" ry="0.922987" transform="matrix(-0.35617 0.934421 0.934421 0.35617 32.5488 5.84497)" fill="#B4D3FF"/>
<ellipse cx="0.713777" cy="0.713777" rx="0.713777" ry="0.713777" transform="matrix(-0.35617 0.934421 0.934421 0.35617 33.8101 8.61743)" fill="#DBD3FB"/>
<defs>
<linearGradient id="paint0_linear_919_3853" x1="0.346047" y1="14.0629" x2="125.682" y2="8.59841" gradientUnits="userSpaceOnUse">
<stop stop-color="#FEF4A0"/>
<stop offset="0.585" stop-color="#FBCFE0"/>
<stop offset="0.995" stop-color="#D4AFF9"/>
</linearGradient>
</defs>
</svg>
