<svg width="16" height="15" viewBox="0 0 16 15" fill="none" xmlns="http://www.w3.org/2000/svg"
    className="absolute left-[305.85px] top-[11.59px]" preserveAspectRatio="none">
    <path
        d="M14.7619 14.52L9.43837 9.60598C9.01587 9.91798 8.52999 10.165 7.98074 10.347C7.43149 10.529 6.84704 10.62 6.22737 10.62C4.69228 10.62 3.39324 10.1291 2.33022 9.14734C1.26721 8.16558 0.735427 6.96646 0.734863 5.54998C0.734863 4.13298 1.26665 2.93386 2.33022 1.95262C3.3938 0.97138 4.69285 0.4805 6.22737 0.47998C7.76245 0.47998 9.0615 0.970861 10.1245 1.95262C11.1875 2.93438 11.7193 4.1335 11.7199 5.54998C11.7199 6.12198 11.6213 6.66148 11.4241 7.16848C11.227 7.67548 10.9594 8.12398 10.6214 8.51398L15.9449 13.428L14.7619 14.52ZM6.22737 9.05998C7.28362 9.05998 8.18157 8.7186 8.92123 8.03584C9.66089 7.35308 10.0304 6.52446 10.0299 5.54998C10.0299 4.57498 9.66004 3.7461 8.92039 3.06334C8.18073 2.38058 7.28306 2.03946 6.22737 2.03998C5.17112 2.03998 4.27316 2.38136 3.53351 3.06412C2.79385 3.74688 2.4243 4.5755 2.42486 5.54998C2.42486 6.52498 2.79469 7.35386 3.53435 8.03662C4.27401 8.71938 5.17168 9.0605 6.22737 9.05998Z"
        fill="#4B4B4B"
    />
</svg>