<svg width="40" height="38" viewBox="0 0 40 38" fill="none" xmlns="http://www.w3.org/2000/svg">
<path d="M21.759 3.43532C21.107 2.19632 19.337 2.18632 18.671 3.41832L2.718 32.9193C2.57372 33.1859 2.50115 33.4854 2.5074 33.7884C2.51365 34.0914 2.5985 34.3877 2.75365 34.6481C2.9088 34.9084 3.12891 35.1241 3.39245 35.2738C3.65598 35.4236 3.95389 35.5023 4.257 35.5023H35.744C36.0456 35.5025 36.342 35.4247 36.6047 35.2765C36.8673 35.1284 37.0872 34.9149 37.2431 34.6567C37.3989 34.3986 37.4854 34.1045 37.4942 33.8031C37.5029 33.5017 37.4336 33.2031 37.293 32.9363L21.759 3.43532ZM16.472 2.22832C18.089 -0.761682 22.388 -0.737682 23.972 2.27032L39.505 31.7723C40.995 34.6023 38.943 38.0023 35.745 38.0023H4.256C1.036 38.0023 -1.014 34.5623 0.517998 31.7303L16.472 2.22832ZM20.001 11.0003C20.691 11.0003 21.251 11.5603 21.251 12.2503V23.7503C21.251 24.0818 21.1193 24.3998 20.8849 24.6342C20.6505 24.8686 20.3325 25.0003 20.001 25.0003C19.6695 25.0003 19.3515 24.8686 19.1171 24.6342C18.8827 24.3998 18.751 24.0818 18.751 23.7503V12.2503C18.751 11.5603 19.311 11.0003 20.001 11.0003ZM20.001 31.0003C20.5314 31.0003 21.0401 30.7896 21.4152 30.4145C21.7903 30.0395 22.001 29.5308 22.001 29.0003C22.001 28.4699 21.7903 27.9612 21.4152 27.5861C21.0401 27.211 20.5314 27.0003 20.001 27.0003C19.4706 27.0003 18.9619 27.211 18.5868 27.5861C18.2117 27.9612 18.001 28.4699 18.001 29.0003C18.001 29.5308 18.2117 30.0395 18.5868 30.4145C18.9619 30.7896 19.4706 31.0003 20.001 31.0003Z" fill="#FFC700"/>
</svg>
